<svg width="60" height="60" viewBox="0 0 60 60" fill="none" xmlns="http://www.w3.org/2000/svg">
<g clip-path="url(#clip0_2719_7321)">
<path d="M40.263 4.37988C43.8793 7.22461 45.7266 10.9218 46.3476 15.4687C46.6114 19.6892 45.505 23.6858 43.1249 27.1875C41.5904 28.7991 39.9741 30.4035 37.9687 31.4062C37.7495 32.5106 37.7495 32.5106 37.6757 33.7793C37.6407 34.2101 37.6056 34.6409 37.5695 35.0848C37.5351 35.5842 37.5351 35.5842 37.4999 36.0937C38.138 36.1373 38.138 36.1373 38.789 36.1816C40.3124 36.5625 40.3124 36.5625 41.0976 37.7385C42.1322 39.0843 42.1322 39.0843 43.985 39.2079C44.7058 39.224 45.427 39.2277 46.148 39.2212C46.5292 39.2272 46.9104 39.2331 47.3032 39.2393C48.518 39.2563 49.7323 39.2576 50.9472 39.2578C52.167 39.2679 53.3866 39.2812 54.6063 39.2964C55.3648 39.3048 56.1233 39.3096 56.8819 39.3105C59.4803 39.3241 59.4803 39.3241 59.9999 39.8437C60.0472 40.9859 60.0654 42.1145 60.0622 43.2568C60.0626 43.5984 60.0631 43.94 60.0636 44.2919C60.0639 45.0154 60.063 45.7388 60.0611 46.4623C60.0585 47.5734 60.061 48.6844 60.064 49.7955C60.0637 50.4968 60.0631 51.1981 60.0622 51.8994C60.0636 52.4011 60.0636 52.4011 60.0651 52.913C60.0538 55.2586 60.0538 55.2586 59.5312 55.7812C58.2701 55.8273 57.0188 55.8455 55.7574 55.8472C54.9771 55.8558 54.1967 55.8649 53.4164 55.8746C52.1819 55.8882 50.9478 55.8984 49.7132 55.8987C48.5244 55.9002 47.3366 55.9164 46.148 55.9351C45.5957 55.9301 45.5957 55.9301 45.0322 55.925C43.1716 55.9664 42.3816 56.0497 41.061 57.4123C40.814 57.8021 40.567 58.192 40.3124 58.5937C38.7467 59.3766 36.9867 59.1592 35.2642 59.1742C34.8549 59.178 34.4456 59.1818 34.024 59.1857C33.1567 59.1921 32.2894 59.1972 31.4221 59.2009C30.0979 59.2089 28.7743 59.2295 27.4502 59.2502C26.6076 59.2549 25.765 59.2589 24.9224 59.2621C24.5273 59.2703 24.1322 59.2785 23.7252 59.2869C21.8168 59.2799 20.8651 59.2142 19.2138 58.1711C18.2812 57.1875 18.2812 57.1875 17.8124 56.25C17.2895 56.2382 16.7666 56.2265 16.2278 56.2144C14.2945 56.1704 12.3613 56.1234 10.4281 56.0755C9.59015 56.0551 8.75214 56.0356 7.91411 56.0169C6.71215 55.9899 5.51029 55.96 4.30842 55.9296C3.93146 55.9217 3.55451 55.9139 3.16613 55.9058C0.522073 55.8346 0.522073 55.8346 -5.43594e-05 55.3125C-0.0473173 54.1703 -0.0655509 53.0418 -0.0623102 51.8994C-0.0627587 51.5578 -0.0632071 51.2163 -0.0636692 50.8643C-0.0639887 50.1409 -0.0631199 49.4174 -0.0611658 48.6939C-0.0586587 47.5828 -0.0611402 46.4718 -0.0641413 45.3607C-0.0638315 44.6594 -0.063231 43.9581 -0.0623102 43.2568C-0.0632591 42.9224 -0.0642079 42.5879 -0.0651855 42.2433C-0.0539381 39.8976 -0.0539381 39.8976 0.468696 39.375C1.72982 39.3289 2.98111 39.3107 4.2425 39.3091C5.02284 39.3005 5.80317 39.2913 6.5835 39.2816C7.81801 39.268 9.05211 39.2578 10.2867 39.2576C11.4755 39.256 12.6633 39.2398 13.8519 39.2212C14.4042 39.2262 14.4042 39.2262 14.9677 39.2312C16.1465 39.23 16.1465 39.23 17.8124 38.9062C18.9152 37.7876 18.9152 37.7876 19.6874 36.5625C21.2109 36.1816 21.2109 36.1816 22.4999 36.0937C22.5515 34.4623 22.4751 32.9824 22.0312 31.4062C21.1869 30.5196 20.3113 29.9469 19.281 29.2895C16.1713 27.1253 14.5571 23.5998 13.8427 19.9805C13.2026 15.3248 14.2329 10.9339 16.8749 7.03125C23.4964 -0.0468438 32.2892 -1.21963 40.263 4.37988Z" fill="url(#paint0_linear_2719_7321)"/>
<path d="M37.1705 5.70006C39.9042 7.56071 42.4532 10.2579 43.1251 13.5937C43.6201 18.717 42.9539 22.3071 39.8146 26.3672C37.1244 29.2291 33.8442 30.5783 29.9415 30.7324C25.8923 30.5336 22.9752 28.9446 20.0282 26.2207C17.1977 23.0444 16.6751 19.4315 16.7176 15.3039C17.0338 11.8709 18.4982 9.43447 20.9767 7.08983C26.1053 3.04247 31.3871 2.48282 37.1705 5.70006Z" fill="#E8ECED"/>
<path d="M24.2174 38.776C24.7595 38.7788 24.7595 38.7788 25.3124 38.7818C25.6834 38.7809 26.0544 38.78 26.4367 38.779C27.2216 38.7784 28.0065 38.7801 28.7914 38.784C29.9951 38.7891 31.1985 38.7841 32.4023 38.7781C33.164 38.7787 33.9257 38.7799 34.6874 38.7818C35.0488 38.7799 35.4101 38.778 35.7824 38.776C38.3296 38.7985 38.3296 38.7985 39.3749 39.8438C39.4813 41.0259 39.4813 41.0259 39.4665 42.4988C39.4634 43.0245 39.4604 43.5502 39.4573 44.0918C39.4495 44.6429 39.4416 45.194 39.4335 45.7617C39.4293 46.3164 39.425 46.8711 39.4207 47.4426C39.4096 48.816 39.3928 50.1893 39.3749 51.5625C37.5187 51.7172 35.6624 51.8719 33.7499 52.0313C33.7499 52.4953 33.7499 52.9594 33.7499 53.4375C35.6062 53.5922 37.4624 53.7469 39.3749 53.9063C38.9062 55.7813 38.9062 55.7813 38.4374 56.25C37.1986 56.3032 35.9724 56.327 34.7332 56.3287C34.3615 56.3303 33.9898 56.3319 33.6069 56.3335C32.8192 56.3359 32.0315 56.3369 31.2438 56.3369C30.0359 56.3379 28.8283 56.3464 27.6205 56.3553C26.8566 56.3567 26.0928 56.3576 25.3289 56.358C24.7847 56.3631 24.7847 56.3631 24.2295 56.3683C21.6697 56.3573 21.6697 56.3573 20.6249 55.3125C20.5185 54.3025 20.5185 54.3025 20.5334 53.0676C20.5364 52.6265 20.5394 52.1854 20.5425 51.731C20.5504 51.2693 20.5582 50.8077 20.5663 50.332C20.5706 49.8668 20.5748 49.4015 20.5791 48.9221C20.5902 47.771 20.607 46.6198 20.6249 45.4688C22.1718 45.3141 23.7187 45.1594 25.3124 45C25.3124 44.3813 25.3124 43.7625 25.3124 43.125C23.7655 42.9703 22.2187 42.8156 20.6249 42.6563C20.5663 41.3086 20.5663 41.3086 20.6249 39.8438C21.8182 38.6505 22.5898 38.7904 24.2174 38.776Z" fill="white"/>
<path d="M42.1875 42.1875C47.1375 42.1875 52.0875 42.1875 57.1875 42.1875C57.1875 45.7453 57.1875 49.3031 57.1875 52.9688C52.2375 52.9688 47.2875 52.9688 42.1875 52.9688C42.1875 49.4109 42.1875 45.8531 42.1875 42.1875Z" fill="white"/>
<path d="M2.8125 42.1875C7.7625 42.1875 12.7125 42.1875 17.8125 42.1875C17.8125 45.7453 17.8125 49.3031 17.8125 52.9688C12.8625 52.9688 7.9125 52.9688 2.8125 52.9688C2.8125 49.4109 2.8125 45.8531 2.8125 42.1875Z" fill="white"/>
<path d="M25.3125 32.3438C28.4062 32.3438 31.5 32.3438 34.6875 32.3438C34.6875 33.5813 34.6875 34.8187 34.6875 36.0938C31.5938 36.0938 28.5 36.0938 25.3125 36.0938C25.3125 34.8562 25.3125 33.6188 25.3125 32.3438Z" fill="white"/>
<path d="M37.0093 9.41343C37.4842 9.62643 37.4842 9.62643 37.9688 9.84373C37.5474 12.2387 35.998 13.4793 34.3359 15.1465C34.0447 15.4549 33.7534 15.7634 33.4534 16.0812C32.6452 16.897 31.8864 17.6341 30.9375 18.2812C29.5532 18.2428 29.5532 18.2428 28.5938 17.8125C29.0151 15.4175 30.5645 14.1769 32.2266 12.5097C32.6634 12.047 32.6634 12.047 33.1091 11.575C35.2975 9.36588 35.2975 9.36588 37.0093 9.41343Z" fill="#3AE0C5"/>
<path d="M30.7617 42.5977C31.5448 42.6267 31.5448 42.6267 32.3438 42.6562C32.6531 43.275 32.9625 43.8937 33.2812 44.5312C32.3438 45.4688 32.3438 45.4688 30.6445 45.5273C30.1225 45.508 29.6004 45.4887 29.0625 45.4688C28.7531 44.85 28.4438 44.2313 28.125 43.5938C29.0625 42.6562 29.0625 42.6562 30.7617 42.5977Z" fill="#3AE0C5"/>
<path d="M30.7617 42.5977C31.5448 42.6267 31.5448 42.6267 32.3438 42.6562C32.6531 43.275 32.9625 43.8937 33.2812 44.5312C32.3438 45.4688 32.3438 45.4688 30.6445 45.5273C30.1225 45.508 29.6004 45.4887 29.0625 45.4688C28.7531 44.85 28.4438 44.2313 28.125 43.5938C29.0625 42.6562 29.0625 42.6562 30.7617 42.5977Z" fill="white" fill-opacity="0.2"/>
<path d="M29.0625 25.3125C29.8359 25.4672 30.6094 25.6219 31.4062 25.7812C31.2516 26.4 31.0969 27.0187 30.9375 27.6562C30.1641 27.5016 29.3906 27.3469 28.5938 27.1875C28.7484 26.5687 28.9031 25.95 29.0625 25.3125Z" fill="#3AE0C5"/>
<path d="M29.0625 6.5625C29.8359 6.71719 30.6094 6.87187 31.4062 7.03125C31.2516 7.65 31.0969 8.26875 30.9375 8.90625C30.1641 8.75156 29.3906 8.59688 28.5938 8.4375C28.7484 7.81875 28.9031 7.2 29.0625 6.5625Z" fill="#3AE0C5"/>
<path d="M22.5 22.5C23.1188 22.5 23.7375 22.5 24.375 22.5C24.5297 23.1188 24.6844 23.7375 24.8438 24.375C24.0703 24.5297 23.2969 24.6844 22.5 24.8438C22.2363 23.9355 22.2363 23.9355 22.0312 22.9688C22.1859 22.8141 22.3406 22.6594 22.5 22.5Z" fill="#3AE0C5"/>
<path d="M35.625 22.5C36.3984 22.6547 37.1719 22.8094 37.9688 22.9688C37.8141 23.5875 37.6594 24.2062 37.5 24.8438C36.7266 24.6891 35.9531 24.5344 35.1562 24.375C35.3109 23.7562 35.4656 23.1375 35.625 22.5Z" fill="#3AE0C5"/>
<path d="M38.4375 15.9375C39.0563 15.9375 39.675 15.9375 40.3125 15.9375C40.3125 16.7109 40.3125 17.4844 40.3125 18.2812C39.5391 18.1266 38.7656 17.9719 37.9688 17.8125C38.1234 17.1937 38.2781 16.575 38.4375 15.9375Z" fill="#3AE0C5"/>
<path d="M19.6875 15.9375C20.8477 16.1695 20.8477 16.1695 22.0312 16.4062C21.8766 17.025 21.7219 17.6437 21.5625 18.2812C20.9437 18.2812 20.325 18.2812 19.6875 18.2812C19.6875 17.5078 19.6875 16.7344 19.6875 15.9375Z" fill="#3AE0C5"/>
<path d="M22.5 9.375C23.1188 9.375 23.7375 9.375 24.375 9.375C24.375 10.1484 24.375 10.9219 24.375 11.7188C23.6016 11.5641 22.8281 11.4094 22.0312 11.25C22.1859 10.6312 22.3406 10.0125 22.5 9.375Z" fill="#3AE0C5"/>
</g>
<defs>
<linearGradient id="paint0_linear_2719_7321" x1="29.9999" y1="0.843689" x2="29.9999" y2="59.2869" gradientUnits="userSpaceOnUse">
<stop stop-color="#10BE77"/>
<stop offset="1" stop-color="#2196F3"/>
</linearGradient>
<clipPath id="clip0_2719_7321">
<rect width="60" height="60" fill="white"/>
</clipPath>
</defs>
</svg>
