<svg width="50" height="50" viewBox="0 0 50 50" fill="none" xmlns="http://www.w3.org/2000/svg">
<g clip-path="url(#clip0_2719_7351)">
<path d="M41.6667 0H8.33333C3.73096 0 0 3.73096 0 8.33333V41.6667C0 46.269 3.73096 50 8.33333 50H41.6667C46.269 50 50 46.269 50 41.6667V8.33333C50 3.73096 46.269 0 41.6667 0Z" fill="url(#paint0_linear_2719_7351)"/>
<path d="M29.1667 8.33331L20.8333 27.0833H27.0833L18.75 41.6666L31.25 22.9166H25L29.1667 8.33331Z" fill="#FFCA28" stroke="#FBBF24" stroke-width="2"/>
<path d="M35.5002 33.3333C33.4168 39.5833 23.0002 39.5833 18.8335 33.3333" stroke="white" stroke-width="4" stroke-linecap="round"/>
<path d="M22.9167 33.75C23.6071 33.75 24.1667 33.1904 24.1667 32.5C24.1667 31.8096 23.6071 31.25 22.9167 31.25C22.2264 31.25 21.6667 31.8096 21.6667 32.5C21.6667 33.1904 22.2264 33.75 22.9167 33.75Z" fill="white"/>
<path d="M31.25 33.75C31.9404 33.75 32.5 33.1904 32.5 32.5C32.5 31.8096 31.9404 31.25 31.25 31.25C30.5596 31.25 30 31.8096 30 32.5C30 33.1904 30.5596 33.75 31.25 33.75Z" fill="white"/>
</g>
<defs>
<linearGradient id="paint0_linear_2719_7351" x1="25" y1="0" x2="25" y2="50" gradientUnits="userSpaceOnUse">
<stop stop-color="#10BE77"/>
<stop offset="1" stop-color="#2196F3"/>
</linearGradient>
<clipPath id="clip0_2719_7351">
<rect width="50" height="50" fill="white"/>
</clipPath>
</defs>
</svg>
