<svg width="24" height="24" viewBox="0 0 24 24" fill="none" xmlns="http://www.w3.org/2000/svg">
<path d="M21.2771 5.664H20.6226V5.00945C20.6226 4.16727 19.9375 3.48218 19.0953 3.48218H2.72295C1.88077 3.48218 1.19568 4.16727 1.19568 5.00945V16.8044C1.19568 17.6465 1.88077 18.3316 2.72295 18.3316H3.3775V18.9862C3.3775 19.8284 4.06259 20.5135 4.90477 20.5135H21.2771C22.1193 20.5135 22.8044 19.8284 22.8044 18.9862V7.19127C22.8044 6.35345 22.1193 5.664 21.2771 5.664ZM16.6779 17.4633L13.811 14.5964L16.3637 12.0436L19.7499 15.4298V16.8087C19.7499 17.1709 19.4575 17.4633 19.0953 17.4633H16.6779ZM2.72295 4.3549H19.0953C19.4575 4.3549 19.7499 4.64727 19.7499 5.00945V14.1949L16.6735 11.1185C16.5033 10.9484 16.2284 10.9484 16.0582 11.1185L13.2 13.9767L8.02477 8.80581C7.85459 8.63563 7.57968 8.63563 7.4095 8.80581L2.06841 14.1425V5.00945C2.06841 4.65163 2.36077 4.3549 2.72295 4.3549ZM2.06841 16.8087V15.3775L7.71495 9.73091L15.4473 17.4633H2.72295C2.36077 17.4633 2.06841 17.1665 2.06841 16.8087ZM21.9317 18.9905C21.9317 19.3527 21.6393 19.6451 21.2771 19.6451H4.90477C4.54259 19.6451 4.25022 19.3527 4.25022 18.9905V18.336H19.0953C19.9375 18.336 20.6226 17.6509 20.6226 16.8087V6.53672H21.2771C21.6393 6.53672 21.9317 6.82909 21.9317 7.19127V18.9905Z" fill="black"/>
<path d="M14.6879 9.27274C15.7352 9.27274 16.5905 8.41747 16.5905 7.3702C16.5905 6.32292 15.7352 5.46765 14.6879 5.46765C13.6407 5.46765 12.7854 6.32292 12.7854 7.3702C12.7854 8.41747 13.6407 9.27274 14.6879 9.27274ZM14.6879 6.33602C15.2552 6.33602 15.7178 6.79856 15.7178 7.36583C15.7178 7.93311 15.2552 8.39565 14.6879 8.39565C14.1207 8.39565 13.6581 7.93311 13.6581 7.36583C13.6581 6.79856 14.1207 6.33602 14.6879 6.33602Z" fill="black"/>
</svg>
