<svg width="24" height="24" viewBox="0 0 24 24" fill="none" xmlns="http://www.w3.org/2000/svg">
<path d="M11.999 0.47998C8.14171 0.47998 5.57548 3.28089 5.30905 6.61873C5.23951 6.64568 5.16462 6.66899 5.09717 6.69748C3.4197 7.40605 2.39905 8.71883 2.39905 10.5609C2.39905 13.5568 3.52507 16.7502 5.26874 19.2319C7.0124 21.7135 9.40137 23.5209 11.999 23.5209C14.597 23.5209 16.9867 21.7135 18.7303 19.2319C20.4739 16.7502 21.599 13.5566 21.599 10.5609C21.599 8.71883 20.5793 7.40605 18.9019 6.69748C18.8344 6.66899 18.7595 6.64568 18.69 6.61873C18.4234 3.28047 15.8555 0.47998 11.999 0.47998ZM11.999 3.84092C13.456 3.84092 14.5158 4.80817 15.0225 5.87154C14.0986 5.79369 13.0895 5.76092 11.999 5.76092C10.9083 5.76092 9.89955 5.79363 8.97561 5.87154C9.48197 4.80815 10.5412 3.84092 11.999 3.84092ZM11.9972 7.68561C13.8476 7.68561 15.3506 9.18677 15.3506 11.0372C15.3506 12.888 13.8476 14.3897 11.9972 14.3897C10.1463 14.3897 8.64374 12.888 8.64374 11.0372C8.64374 9.18677 10.1463 7.68561 11.9972 7.68561ZM11.999 15.3665C14.4272 15.3665 16.5466 16.756 17.8284 18.8325C16.2109 21.0663 14.0935 22.5609 11.999 22.5609C9.90431 22.5609 7.78741 21.0653 6.16967 18.8306C7.45116 16.7545 9.56924 15.3665 11.999 15.3665Z" fill="black"/>
</svg>
