<svg width="24" height="24" viewBox="0 0 24 24" fill="none" xmlns="http://www.w3.org/2000/svg">
<path fill-rule="evenodd" clip-rule="evenodd" d="M5.25 15.0103C3.18547 15.0103 1.5 16.6957 1.5 18.7603C1.5 20.8248 3.18547 22.5103 5.25 22.5103H15.75C17.8145 22.5103 19.5 20.8248 19.5 18.7603C19.5 16.6957 17.8145 15.0103 15.75 15.0103H5.25ZM5.25 16.5103H15.75C17.0095 16.5103 18 17.5008 18 18.7603C18 20.0197 17.0095 21.0103 15.75 21.0103H5.25C3.99053 21.0103 3 20.0197 3 18.7603C3 17.5008 3.99053 16.5103 5.25 16.5103ZM17.25 8.26025C17.0511 8.26025 16.8603 8.33926 16.7197 8.47991C16.579 8.62056 16.5 8.81134 16.5 9.01025C16.5 9.20917 16.579 9.39992 16.7197 9.54057C16.8603 9.68123 17.0511 9.76025 17.25 9.76025C17.4489 9.76025 17.6397 9.68123 17.7803 9.54057C17.921 9.39992 18 9.20917 18 9.01025C18 8.81134 17.921 8.62056 17.7803 8.47991C17.6397 8.33926 17.4489 8.26025 17.25 8.26025ZM17.25 3.76025C17.0511 3.76025 16.8603 3.83926 16.7197 3.97991C16.579 4.12056 16.5 4.31134 16.5 4.51025V6.76025C16.5 6.95917 16.579 7.14992 16.7197 7.29057C16.8603 7.43123 17.0511 7.51025 17.25 7.51025C17.4489 7.51025 17.6397 7.43123 17.7803 7.29057C17.921 7.14992 18 6.95917 18 6.76025V4.51025C18 4.31134 17.921 4.12056 17.7803 3.97991C17.6397 3.83926 17.4489 3.76025 17.25 3.76025Z" fill="black"/>
<path fill-rule="evenodd" clip-rule="evenodd" d="M17.25 1.51025C15.2772 1.51025 13.553 2.60931 12.6562 4.22607C11.9811 3.92202 11.247 3.76016 10.5 3.76025C7.60939 3.76025 5.25 6.11965 5.25 9.01025C5.25 11.9009 7.60939 14.2603 10.5 14.2603C10.5005 14.2603 10.501 14.2603 10.5015 14.2603C12.43 14.255 14.1787 13.1923 15.0879 11.5415C15.7482 11.842 16.4798 12.0103 17.25 12.0103C20.1406 12.0103 22.5 9.65087 22.5 6.76025C22.5 3.86966 20.1406 1.51025 17.25 1.51025ZM17.25 3.01025C19.33 3.01025 21 4.68031 21 6.76025C21 8.84021 19.33 10.5103 17.25 10.5103C16.5118 10.5103 15.8261 10.2989 15.2476 9.93457C15.1926 9.88412 15.1304 9.84215 15.063 9.81006C14.1154 9.13127 13.5 8.02184 13.5 6.76025C13.5 6.36748 13.5608 5.98884 13.6714 5.63379C13.7096 5.56331 13.7363 5.48714 13.7505 5.4082C14.2901 4.00191 15.6475 3.01025 17.25 3.01025ZM10.5 5.26025C11.0649 5.26018 11.6196 5.38809 12.1245 5.63086C12.0441 5.99485 12 6.37277 12 6.76025C12 8.34163 12.7079 9.76299 13.8208 10.7271C13.1871 11.96 11.9166 12.7558 10.5 12.7603C8.42005 12.7603 6.75 11.0902 6.75 9.01025C6.75 6.93031 8.42005 5.26025 10.5 5.26025Z" fill="black"/>
</svg>
