<svg width="24" height="24" viewBox="0 0 24 24" fill="none" xmlns="http://www.w3.org/2000/svg">
<g clip-path="url(#clip0_2685_6178)">
<path d="M11.1429 22.2834H12.8571V23.1406H11.1429V22.2834ZM1.712 11.8371V16.4486L0.857143 16.0246V12.2657L1.712 11.8371ZM22.2857 11.8349L23.1429 12.2657V16.02L22.2857 16.4509V11.8349ZM19.7143 10.7143H21.4286V17.5714H19.7143C19.2143 17.5714 19.0829 17.384 18.9731 17.1651C18.8634 16.9463 18.8549 16.712 18.8549 16.712V11.5714C18.8549 11.0714 19.0446 10.9377 19.2634 10.828C19.4823 10.7189 19.7143 10.7143 19.7143 10.7143ZM2.56914 10.7143H4.28571C4.28571 10.7143 4.51543 10.7189 4.73429 10.828C4.95314 10.9377 5.14286 11.0714 5.14286 11.5714V16.712C5.14286 16.712 5.13371 16.9463 5.02457 17.1651C4.91543 17.384 4.78571 17.5714 4.28571 17.5714H2.56914V10.7143ZM12 0C6.32343 0 1.71429 4.60914 1.71429 10.2857L1.712 10.8771L0.236571 11.616C0.0914286 11.6897 0 11.8371 0 12V16.2857C0 16.4486 0.0937143 16.596 0.236571 16.6697L1.712 17.4063V18C1.71429 18.2366 1.904 18.4263 2.13829 18.4286H4.28571C5.07143 18.4286 5.57829 17.9709 5.79029 17.5469C6.00229 17.1251 6 16.712 6 16.712V11.5714C6 10.7857 5.54 10.2743 5.116 10.0623C4.69429 9.85029 4.28571 9.85714 4.28571 9.85714H2.58286C2.80571 4.844 6.93086 0.857143 12 0.857143C17.0691 0.857143 21.1966 4.844 21.4194 9.85714H19.7143C19.7143 9.85714 19.7074 9.85714 19.6943 9.85714C19.6114 9.85943 19.2526 9.87714 18.8817 10.0623C18.4577 10.2743 17.9977 10.7857 17.9977 11.5714V16.712C17.9977 16.712 17.9954 17.1251 18.2074 17.5469C18.4171 17.9686 18.9194 18.4194 19.692 18.4263C19.48 20.5983 17.6583 22.2834 15.4286 22.2834H13.7143V21.8571C13.7143 21.6206 13.5223 21.4286 13.2857 21.4309H10.7166C10.48 21.4286 10.2857 21.6206 10.2857 21.8571V23.5714C10.2857 23.808 10.48 24 10.7166 24H13.2857C13.5223 24 13.7143 23.808 13.7143 23.5714V23.1406H15.4286C18.1206 23.1406 20.3349 21.0646 20.5537 18.4286H21.8571C22.0937 18.4263 22.2857 18.2366 22.2857 18V17.4086L23.7634 16.6697C23.9086 16.596 24 16.4486 24 16.2857V12C24 11.8371 23.9086 11.6897 23.7634 11.616L22.2857 10.8771V10.2834C22.2857 4.60914 17.6766 0 12 0Z" fill="black"/>
<path d="M12.0001 13.7143C12.2412 13.7143 12.4263 13.9017 12.4263 14.1451C12.4263 14.3863 12.2412 14.5714 12.0001 14.5714C11.7589 14.5714 11.5692 14.3863 11.5692 14.1451C11.5692 13.9017 11.7589 13.7143 12.0001 13.7143ZM12.0001 12.8571C11.2949 12.8571 10.7166 13.44 10.7166 14.1451C10.7166 14.848 11.2949 15.4285 12.0001 15.4285C12.7052 15.4285 13.2858 14.848 13.2858 14.1451C13.2858 13.44 12.7052 12.8571 12.0001 12.8571ZM15.4286 13.7143C15.6721 13.7143 15.8572 13.9017 15.8572 14.1451C15.8572 14.3863 15.6721 14.5714 15.4286 14.5714C15.1875 14.5714 15.0001 14.3863 15.0001 14.1451C15.0001 13.9017 15.1875 13.7143 15.4286 13.7143ZM15.4286 12.8571C14.7258 12.8571 14.1429 13.44 14.1429 14.1451C14.1429 14.848 14.7258 15.4285 15.4286 15.4285C16.1338 15.4285 16.7143 14.848 16.7143 14.1451C16.7143 13.44 16.1338 12.8571 15.4286 12.8571ZM8.57148 13.7143C8.81262 13.7143 9.00005 13.9017 9.00005 14.1451C9.00005 14.3863 8.81262 14.5714 8.57148 14.5714C8.32805 14.5714 8.14291 14.3863 8.14291 14.1451C8.14291 13.9017 8.32805 13.7143 8.57148 13.7143ZM8.57148 12.8571C7.86634 12.8571 7.28577 13.44 7.28577 14.1451C7.28577 14.848 7.86634 15.4285 8.57148 15.4285C9.27662 15.4285 9.85948 14.848 9.85948 14.1451C9.85948 13.44 9.27662 12.8571 8.57148 12.8571Z" fill="white" fill-opacity="0.7"/>
</g>
<defs>
<clipPath id="clip0_2685_6178">
<rect width="24" height="24" fill="white"/>
</clipPath>
</defs>
</svg>
