<svg width="24" height="18" viewBox="0 0 24 18" fill="none" xmlns="http://www.w3.org/2000/svg">
<path d="M20.7231 0H3.27692C1.47692 0 0 1.50392 0 3.33681V14.6632C0 16.4961 1.47692 18 3.27692 18H20.7231C22.5231 18 24 16.4961 24 14.6632V3.33681C24 1.50392 22.5692 0 20.7231 0ZM3.27692 1.97389H20.7231C21.4615 1.97389 22.0615 2.58486 22.0615 3.33681V3.80679L12.7846 10.3864C12.3692 10.6684 11.5846 10.6684 11.1692 10.3864L1.89231 3.80679V3.33681C1.93846 2.58486 2.53846 1.97389 3.27692 1.97389ZM20.7231 16.0731H3.27692C2.53846 16.0731 1.93846 15.4621 1.93846 14.7102V6.20366L10.1077 11.9843C10.6615 12.3603 11.3538 12.5483 12.0462 12.5483C12.7385 12.5483 13.4308 12.3603 13.9846 11.9843L22.1077 6.20366V14.6632C22.1077 15.4621 21.4615 16.0731 20.7231 16.0731Z" fill="black"/>
</svg>
