<svg width="24" height="24" viewBox="0 0 24 24" fill="none" xmlns="http://www.w3.org/2000/svg">
<path d="M1.92001 7.67999C3.40032 8.23918 4.71538 8.8297 6.02813 9.71249C6.33225 9.90864 6.63636 10.1048 6.94969 10.3069C7.57871 10.717 8.20374 11.1333 8.82469 11.5556C10.7409 12.7796 10.7409 12.7796 12.9694 12.7462C14.682 11.8529 16.2823 10.8632 17.88 9.77999C20.9978 7.67999 20.9978 7.67999 22.08 7.67999C22.1078 9.57996 22.1249 11.4799 22.14 13.38C22.148 13.9214 22.1561 14.4628 22.1644 15.0206C22.169 15.7956 22.169 15.7956 22.1738 16.5862C22.1813 17.3026 22.1813 17.3026 22.189 18.0335C22.08 19.2 22.08 19.2 21.12 20.16C19.7542 20.2559 18.4361 20.2943 17.07 20.2875C16.6688 20.2884 16.2676 20.2893 15.8542 20.2903C15.0052 20.2909 14.1563 20.2892 13.3073 20.2851C12.0052 20.28 10.7034 20.2851 9.40126 20.2912C8.5775 20.2906 7.75375 20.2894 6.93001 20.2875C6.34349 20.2904 6.34349 20.2904 5.74512 20.2934C2.99037 20.2704 2.99037 20.2704 1.92001 19.2C1.81102 18.0335 1.81102 18.0335 1.82626 16.5862C1.82935 16.0696 1.83244 15.5529 1.83563 15.0206C1.84367 14.4792 1.85172 13.9378 1.86001 13.38C1.86434 12.8349 1.86867 12.2898 1.87313 11.7281C1.88447 10.3786 1.90028 9.02937 1.92001 7.67999Z" fill="black"/>
<path d="M6.88317 3.75938C7.28507 3.75779 7.68697 3.75619 8.10105 3.75454C8.95286 3.75211 9.80467 3.75099 10.6565 3.75106C11.9629 3.75002 13.269 3.7413 14.5754 3.7322C15.4013 3.73079 16.2272 3.72984 17.0532 3.72938C17.4457 3.72594 17.8382 3.72249 18.2426 3.71893C21.0102 3.73018 21.0102 3.73018 22.08 4.80001C21.991 6.07485 21.7592 6.57903 20.7981 7.43028C19.6802 8.13225 18.5609 8.82903 17.43 9.51001C17.0443 9.7572 16.6585 10.0044 16.261 10.2591C14.6321 11.254 13.4309 11.9733 11.5069 12.0825C9.42988 11.2637 7.66212 10.1004 5.82004 8.85001C5.44384 8.60034 5.06764 8.35068 4.68004 8.09345C3.75702 7.47997 2.83726 6.86213 1.92004 6.24001C2.60541 3.20483 4.04534 3.76324 6.88317 3.75938Z" fill="black"/>
</svg>
