<svg width="24" height="24" viewBox="0 0 24 24" fill="none" xmlns="http://www.w3.org/2000/svg">
<path d="M5.90614 15.1404C4.27947 15.1404 2.95593 16.4665 2.95593 18.0967C2.95593 19.7228 4.27939 21.0457 5.90614 21.0457C7.53563 21.0457 8.8614 19.7227 8.8614 18.0967C8.8614 16.4665 7.53571 15.1404 5.90614 15.1404ZM5.90614 19.6009C5.07602 19.6009 4.40076 18.9261 4.40076 18.0967C4.40076 17.2633 5.07602 16.5852 5.90614 16.5852C6.73896 16.5852 7.41658 17.2634 7.41658 18.0967C7.41658 18.9261 6.73896 19.6009 5.90614 19.6009Z" fill="black"/>
<path d="M11.9157 12.0943C9.75244 9.92767 6.88192 8.71175 3.8325 8.67053C3.82921 8.67053 3.82607 8.67053 3.82274 8.67053C3.63297 8.67053 3.4507 8.7452 3.31536 8.87865C3.17779 9.01445 3.10034 9.19963 3.10034 9.39293V12.3176C3.10034 12.7114 3.41579 13.0327 3.80956 13.0399C5.70129 13.0744 7.48145 13.8339 8.82248 15.1786C10.1626 16.5203 10.9199 18.3078 10.955 20.2116C10.9623 20.6053 11.2835 20.9206 11.6773 20.9206H14.6108C14.6113 20.9207 14.6118 20.9206 14.6118 20.9206C15.0111 20.9206 15.3344 20.5972 15.3344 20.1982C15.3344 20.1803 15.3338 20.1626 15.3325 20.145C15.2807 17.1079 14.0683 14.2504 11.9157 12.0943ZM12.3581 19.4759C12.1602 17.4644 11.2825 15.5973 9.84495 14.1581C8.40695 12.716 6.54639 11.8355 4.54505 11.6368V10.1518C9.45068 10.5766 13.4287 14.5621 13.8521 19.4759H12.3581Z" fill="black"/>
<path d="M15.9536 8.05504C12.7111 4.80691 8.40731 2.99557 3.83498 2.95463C3.64306 2.95252 3.45686 3.02824 3.31996 3.16397C3.18314 3.29954 3.10608 3.48424 3.10608 3.67695V6.60061C3.10608 6.99649 3.42483 7.31869 3.82071 7.323C10.8307 7.39896 16.5951 13.1784 16.6706 20.2061C16.6748 20.6019 16.997 20.9207 17.393 20.9207H20.3216C20.3221 20.9208 20.3226 20.9207 20.3226 20.9207C20.7219 20.9207 21.0454 20.5972 21.0454 20.1983C21.0454 20.1817 21.0448 20.1651 21.0437 20.1488C20.9923 15.5858 19.1857 11.2925 15.9536 8.05504ZM18.0904 19.4759C17.8806 15.9453 16.4025 12.6464 13.8838 10.1213C11.3649 7.59633 8.07358 6.11417 4.55095 5.90343V4.4226C12.5996 4.86621 19.1349 11.4134 19.5763 19.4758H18.0904V19.4759Z" fill="black"/>
</svg>
