<svg width="26" height="24" viewBox="0 0 26 24" fill="none" xmlns="http://www.w3.org/2000/svg">
<path d="M7.41131 18L7.41131 10C7.41131 7.79086 9.30741 6 11.6464 6L17.9989 6M7.41131 18C7.41131 20.2091 9.30741 22 11.6464 22H14.1272C15.2504 22 16.3276 21.5786 17.1218 20.8284L20.9935 17.1716C21.7878 16.4214 22.234 15.404 22.234 14.3431V10C22.234 7.79086 20.3379 6 17.9989 6M7.41131 18C5.07236 18 3.17627 16.2091 3.17627 14L3.17627 6C3.17627 3.79086 5.07236 2 7.41131 2L13.7639 2C16.1028 2 17.9989 3.79086 17.9989 6M15.8814 22V20C15.8814 17.7909 17.7775 16 20.1164 16H22.234" stroke="black" stroke-width="1.5" stroke-linejoin="round"/>
</svg>
