<svg width="24" height="24" viewBox="0 0 24 24" fill="none" xmlns="http://www.w3.org/2000/svg">
<g clip-path="url(#clip0_2736_7457)">
<path d="M16.8 6H7.2C6.53726 6 6 6.53726 6 7.2V20.8C6 21.4627 6.53726 22 7.2 22H16.8C17.4627 22 18 21.4627 18 20.8V7.2C18 6.53726 17.4627 6 16.8 6Z" fill="#FF6B01"/>
<path d="M14.4 9H9.6C9.26863 9 9 9.26863 9 9.6C9 9.93137 9.26863 10.2 9.6 10.2H14.4C14.7314 10.2 15 9.93137 15 9.6C15 9.26863 14.7314 9 14.4 9Z" fill="white"/>
<path d="M14.4 11.4H9.6C9.26863 11.4 9 11.6687 9 12C9 12.3314 9.26863 12.6 9.6 12.6H14.4C14.7314 12.6 15 12.3314 15 12C15 11.6687 14.7314 11.4 14.4 11.4Z" fill="white"/>
<path d="M14.4 13.8H9.6C9.26863 13.8 9 14.0686 9 14.4C9 14.7314 9.26863 15 9.6 15H14.4C14.7314 15 15 14.7314 15 14.4C15 14.0686 14.7314 13.8 14.4 13.8Z" fill="white"/>
<path d="M18.2512 7.43018L8.68774 8.26687C8.02752 8.32463 7.53913 8.90667 7.5969 9.56689L8.78221 23.1151C8.83998 23.7754 9.42202 24.2638 10.0822 24.206L19.6457 23.3693C20.3059 23.3115 20.7943 22.7295 20.7366 22.0693L19.5512 8.52102C19.4935 7.8608 18.9114 7.37242 18.2512 7.43018Z" fill="#00BE78"/>
<path d="M16.1218 10.6279L11.34 11.0463C11.0099 11.0752 10.7657 11.3662 10.7946 11.6963C10.8235 12.0264 11.1145 12.2706 11.4446 12.2417L16.2263 11.8234C16.5565 11.7945 16.8007 11.5035 16.7718 11.1734C16.7429 10.8432 16.4519 10.599 16.1218 10.6279Z" fill="white"/>
<path d="M16.331 13.0188L11.5493 13.4371C11.2191 13.466 10.975 13.757 11.0038 14.0872C11.0327 14.4173 11.3237 14.6615 11.6538 14.6326L16.4356 14.2142C16.7657 14.1854 17.0099 13.8943 16.981 13.5642C16.9521 13.2341 16.6611 12.9899 16.331 13.0188Z" fill="white"/>
<path d="M16.7718 11.1734C17.1019 11.1445 17.3461 10.8535 17.3172 10.5233C17.2883 10.1932 16.9973 9.94904 16.6672 9.97792C16.3371 10.0068 16.0929 10.2978 16.1218 10.6279C16.1506 10.958 16.4417 11.2022 16.7718 11.1734Z" fill="white"/>
</g>
<defs>
<clipPath id="clip0_2736_7457">
<rect width="24" height="24" fill="white"/>
</clipPath>
</defs>
</svg>
