<svg width="24" height="24" viewBox="0 0 24 24" fill="none" xmlns="http://www.w3.org/2000/svg">
<mask id="mask0_2736_7458" style="mask-type:alpha" maskUnits="userSpaceOnUse" x="0" y="0" width="24" height="24">
<rect width="24" height="24" fill="#D9D9D9"/>
</mask>
<g mask="url(#mask0_2736_7458)">
<path d="M12 18C12.3334 18 12.6167 17.8834 12.85 17.65C13.0834 17.4167 13.2 17.1334 13.2 16.8C13.2 16.4667 13.0834 16.1834 12.85 15.95C12.6167 15.7167 12.3334 15.6 12 15.6C11.6667 15.6 11.3834 15.7167 11.15 15.95C10.9167 16.1834 10.8 16.4667 10.8 16.8C10.8 17.1334 10.9167 17.4167 11.15 17.65C11.3834 17.8834 11.6667 18 12 18ZM11.1 14.175H12.925C12.925 13.5584 12.9792 13.1209 13.0875 12.8625C13.1959 12.6042 13.4584 12.275 13.875 11.875C14.4584 11.3084 14.8625 10.825 15.0875 10.425C15.3125 10.025 15.425 9.58336 15.425 9.10002C15.425 8.18336 15.1125 7.43752 14.4875 6.86252C13.8625 6.28752 13.0667 6.00002 12.1 6.00002C11.25 6.00002 10.5125 6.22502 9.88752 6.67502C9.26252 7.12502 8.82502 7.73336 8.57502 8.50002L10.2 9.17502C10.35 8.70836 10.5875 8.34586 10.9125 8.08752C11.2375 7.82919 11.6167 7.70003 12.05 7.70003C12.5167 7.70003 12.9 7.83336 13.2 8.10002C13.5 8.36669 13.65 8.71669 13.65 9.15002C13.65 9.53336 13.5209 9.87503 13.2625 10.175C13.0042 10.475 12.7167 10.7667 12.4 11.05C11.8167 11.5834 11.4542 12.0209 11.3125 12.3625C11.1709 12.7042 11.1 13.3084 11.1 14.175ZM12 21.6C10.6834 21.6 9.44169 21.35 8.27502 20.85C7.10836 20.35 6.08752 19.6625 5.21252 18.7875C4.33752 17.9125 3.65002 16.8917 3.15002 15.725C2.65002 14.5584 2.40002 13.3167 2.40002 12C2.40002 10.6667 2.65002 9.42086 3.15002 8.26253C3.65002 7.10419 4.33752 6.08752 5.21252 5.21252C6.08752 4.33752 7.10836 3.65002 8.27502 3.15002C9.44169 2.65002 10.6834 2.40002 12 2.40002C13.3334 2.40002 14.5792 2.65002 15.7375 3.15002C16.8959 3.65002 17.9125 4.33752 18.7875 5.21252C19.6625 6.08752 20.35 7.10419 20.85 8.26253C21.35 9.42086 21.6 10.6667 21.6 12C21.6 13.3167 21.35 14.5584 20.85 15.725C20.35 16.8917 19.6625 17.9125 18.7875 18.7875C17.9125 19.6625 16.8959 20.35 15.7375 20.85C14.5792 21.35 13.3334 21.6 12 21.6ZM12 19.8C14.1667 19.8 16.0084 19.0417 17.525 17.525C19.0417 16.0084 19.8 14.1667 19.8 12C19.8 9.83336 19.0417 7.99169 17.525 6.47502C16.0084 4.95836 14.1667 4.20002 12 4.20002C9.83336 4.20002 7.99169 4.95836 6.47502 6.47502C4.95836 7.99169 4.20002 9.83336 4.20002 12C4.20002 14.1667 4.95836 16.0084 6.47502 17.525C7.99169 19.0417 9.83336 19.8 12 19.8Z" fill="black"/>
</g>
</svg>
