<svg width="24" height="24" viewBox="0 0 24 24" fill="none" xmlns="http://www.w3.org/2000/svg">
<path d="M12.8481 0.351347L23.6461 11.1515C24.402 11.9075 23.8669 13.1999 22.7979 13.1999H21.5981V20.4C21.5981 21.3548 21.2189 22.2704 20.5439 22.9456C19.8689 23.6207 18.9534 24 17.9988 24H16.799V15.5999C16.799 14.6816 16.4483 13.7981 15.8184 13.13C15.1886 12.4619 14.3273 12.0597 13.4108 12.0059L13.1997 11.9999H10.8001C9.84549 11.9999 8.92999 12.3792 8.25498 13.0543C7.57998 13.7294 7.20076 14.6451 7.20076 15.5999V24H6.00099C5.04638 24 4.13088 23.6207 3.45587 22.9456C2.78087 22.2704 2.40165 21.3548 2.40165 20.4V13.1999H1.20187C0.134073 13.1999 -0.402228 11.9075 0.353632 11.1515L11.1516 0.351347C11.3766 0.12638 11.6817 0 11.9999 0C12.318 0 12.6231 0.12638 12.8481 0.351347ZM13.1997 14.3999C13.5179 14.3999 13.823 14.5263 14.048 14.7514C14.273 14.9764 14.3994 15.2816 14.3994 15.5999V24H9.60032V15.5999C9.60036 15.306 9.70824 15.0223 9.90352 14.8027C10.0988 14.583 10.3679 14.4427 10.6597 14.4083L10.8001 14.3999H13.1997Z" fill="url(#paint0_linear_2685_6059)"/>
<defs>
<linearGradient id="paint0_linear_2685_6059" x1="12" y1="0" x2="12" y2="24" gradientUnits="userSpaceOnUse">
<stop stop-color="#10BE77"/>
<stop offset="1" stop-color="#2196F3"/>
</linearGradient>
</defs>
</svg>
