<svg width="24" height="22" viewBox="0 0 24 22" fill="none" xmlns="http://www.w3.org/2000/svg">
<path fill-rule="evenodd" clip-rule="evenodd" d="M12 3.4375C7.44365 3.4375 3.75 6.82335 3.75 11C3.75 15.1766 7.44365 18.5625 12 18.5625C16.5563 18.5625 20.25 15.1766 20.25 11C20.25 6.82335 16.5563 3.4375 12 3.4375ZM2.25 11C2.25 6.06395 6.61522 2.0625 12 2.0625C17.3848 2.0625 21.75 6.06395 21.75 11C21.75 15.9361 17.3848 19.9375 12 19.9375C6.61522 19.9375 2.25 15.9361 2.25 11ZM12 10.3125C12.4142 10.3125 12.75 10.6203 12.75 11V14.2083C12.75 14.588 12.4142 14.8958 12 14.8958C11.5858 14.8958 11.25 14.588 11.25 14.2083V11C11.25 10.6203 11.5858 10.3125 12 10.3125ZM12 7.33333C11.4477 7.33333 11 7.74374 11 8.25C11 8.75626 11.4477 9.16667 12 9.16667H12.01C12.5623 9.16667 13.01 8.75626 13.01 8.25C13.01 7.74374 12.5623 7.33333 12.01 7.33333H12Z" fill="black"/>
</svg>
