<svg width="24" height="24" viewBox="0 0 24 24" fill="none" xmlns="http://www.w3.org/2000/svg">
<g clip-path="url(#clip0_2685_6171)">
<path d="M17.4259 18.4202C20.5904 16.4068 22.7143 13.1978 22.7143 12C22.7143 10.1999 17.9172 3.85718 11.9999 3.85718C9.51638 3.85718 7.23021 4.97445 5.41321 6.40423" stroke="black" stroke-linecap="round" stroke-linejoin="round"/>
<path d="M13.9953 19.9065C13.3488 20.0582 12.6818 20.1425 11.9999 20.1425C6.08259 20.1425 1.28564 13.7998 1.28564 11.9996C1.28564 11.3798 1.85429 10.2216 2.84153 8.96906" stroke="black" stroke-linecap="round" stroke-linejoin="round"/>
<path d="M1.02893 1.02875C8.56556 10.6829 13.1109 15.1758 22.9721 22.9716" stroke="black" stroke-linecap="round" stroke-linejoin="round"/>
<path d="M8.86768 10.3591C9.35578 9.20059 10.4331 8.57141 11.9997 8.57141C14.194 8.57141 15.4283 9.8057 15.4283 12C15.4283 13.559 14.8052 14.6334 13.6575 15.1248" stroke="black" stroke-linecap="round" stroke-linejoin="round"/>
</g>
<defs>
<clipPath id="clip0_2685_6171">
<rect width="24" height="24" fill="white"/>
</clipPath>
</defs>
</svg>
