<svg width="20" height="20" viewBox="0 0 20 20" fill="none" xmlns="http://www.w3.org/2000/svg">
<g clip-path="url(#clip0_2685_6150)">
<path d="M13.3333 1.66669C13.4858 1.66669 13.6292 1.70835 13.7517 1.77919L13.7792 1.79585C14.0125 1.94335 14.1667 2.20419 14.1667 2.50002V3.33335H15C15.6377 3.33332 16.2513 3.57696 16.7152 4.01442C17.1792 4.45189 17.4584 5.05011 17.4958 5.68669L17.5 5.83335V15.8334C17.5 16.471 17.2564 17.0846 16.8189 17.5486C16.3815 18.0125 15.7832 18.2918 15.1467 18.3292L15 18.3334H5C4.36232 18.3334 3.74874 18.0897 3.28478 17.6523C2.82083 17.2148 2.54158 16.6166 2.50417 15.98L2.5 15.8334V5.83335C2.49996 5.19568 2.7436 4.58209 3.18107 4.11814C3.61854 3.65418 4.21676 3.37493 4.85333 3.33752L5 3.33335H5.83333V2.50002C5.83333 2.35146 5.87304 2.2056 5.94835 2.07754C6.02366 1.94948 6.13183 1.84389 6.26167 1.77169L6.33917 1.73335L6.39417 1.71252L6.4775 1.68835L6.56667 1.67252L6.66667 1.66669C6.71278 1.66669 6.7575 1.6703 6.80083 1.67752L6.9025 1.70169L6.93583 1.71169L6.98583 1.73085C7.25917 1.84335 7.45917 2.09752 7.49417 2.40252L7.5 2.50002V3.33335H12.5V2.50002C12.5 2.27901 12.5878 2.06704 12.7441 1.91076C12.9004 1.75448 13.1123 1.66669 13.3333 1.66669ZM15.8333 7.50002H4.16667V15.5209C4.16667 16.1084 4.48833 16.5925 4.9025 16.6592L5 16.6667H15C15.4275 16.6667 15.78 16.225 15.8275 15.6542L15.8333 15.5209V7.50002Z" fill="black"/>
<path d="M7.51247 10.8333C7.51247 11.0544 7.42467 11.2663 7.26839 11.4226C7.11211 11.5789 6.90015 11.6667 6.67913 11.6667C6.56658 11.672 6.45412 11.6544 6.34853 11.6151C6.24295 11.5757 6.14643 11.5154 6.0648 11.4377C5.98318 11.3601 5.91813 11.2667 5.87359 11.1632C5.82906 11.0596 5.80595 10.9482 5.80567 10.8355C5.80538 10.7228 5.82793 10.6113 5.87195 10.5076C5.91597 10.4038 5.98055 10.3101 6.06179 10.232C6.14303 10.1539 6.23924 10.0931 6.34463 10.0532C6.45002 10.0134 6.56239 9.99526 6.67497 10C7.13913 10 7.51247 10.3733 7.51247 10.8333Z" fill="black"/>
<path d="M10.8458 10.8333C10.8458 11.0544 10.758 11.2663 10.6018 11.4226C10.4455 11.5789 10.2335 11.6667 10.0125 11.6667C9.89995 11.672 9.78749 11.6544 9.68191 11.6151C9.57632 11.5757 9.47981 11.5154 9.39818 11.4377C9.31655 11.3601 9.2515 11.2667 9.20697 11.1632C9.16243 11.0596 9.13932 10.9482 9.13904 10.8355C9.13876 10.7228 9.16131 10.6113 9.20533 10.5076C9.24935 10.4038 9.31393 10.3101 9.39516 10.232C9.4764 10.1539 9.57262 10.0931 9.678 10.0532C9.78339 10.0134 9.89576 9.99526 10.0083 10C10.4725 10 10.8458 10.3733 10.8458 10.8333Z" fill="black"/>
<path d="M14.1834 10.8333C14.1834 11.0544 14.0956 11.2663 13.9393 11.4226C13.783 11.5789 13.571 11.6667 13.35 11.6667C13.2375 11.672 13.125 11.6544 13.0194 11.6151C12.9138 11.5757 12.8173 11.5154 12.7357 11.4377C12.6541 11.3601 12.589 11.2667 12.5445 11.1632C12.5 11.0596 12.4768 10.9482 12.4766 10.8355C12.4763 10.7228 12.4988 10.6113 12.5429 10.5076C12.5869 10.4038 12.6514 10.3101 12.7327 10.232C12.8139 10.1539 12.9101 10.0931 13.0155 10.0532C13.1209 10.0134 13.2333 9.99526 13.3459 10C13.81 10 14.1834 10.3733 14.1834 10.8333Z" fill="black"/>
<path d="M10.0167 12.5C10.2377 12.5 10.4496 12.5878 10.6059 12.7441C10.7622 12.9004 10.85 13.1123 10.85 13.3333C10.85 13.5544 10.7622 13.7663 10.6059 13.9226C10.4496 14.0789 10.2377 14.1667 10.0167 14.1667C9.9041 14.172 9.79164 14.1544 9.68606 14.1151C9.58047 14.0757 9.48396 14.0154 9.40233 13.9377C9.3207 13.8601 9.25566 13.7667 9.21112 13.6632C9.16658 13.5596 9.14347 13.4482 9.14319 13.3355C9.14291 13.2228 9.16546 13.1113 9.20948 13.0076C9.2535 12.9038 9.31808 12.8101 9.39931 12.732C9.48055 12.6539 9.57677 12.5931 9.68215 12.5532C9.78754 12.5134 9.89991 12.4953 10.0125 12.5H10.0167Z" fill="black"/>
<path d="M7.51247 13.3333C7.51247 13.5544 7.42467 13.7663 7.26839 13.9226C7.11211 14.0789 6.90015 14.1667 6.67913 14.1667C6.56658 14.172 6.45412 14.1544 6.34853 14.1151C6.24295 14.0757 6.14643 14.0154 6.0648 13.9377C5.98318 13.8601 5.91813 13.7667 5.87359 13.6632C5.82906 13.5596 5.80595 13.4482 5.80567 13.3355C5.80538 13.2228 5.82793 13.1113 5.87195 13.0076C5.91597 12.9038 5.98055 12.8101 6.06179 12.732C6.14303 12.6539 6.23924 12.5931 6.34463 12.5532C6.45002 12.5134 6.56239 12.4953 6.67497 12.5C7.13913 12.5 7.51247 12.8733 7.51247 13.3333Z" fill="black"/>
</g>
<defs>
<clipPath id="clip0_2685_6150">
<rect width="20" height="20" fill="white"/>
</clipPath>
</defs>
</svg>
