<svg width="50" height="50" viewBox="0 0 50 50" fill="none" xmlns="http://www.w3.org/2000/svg">
<g clip-path="url(#clip0_2736_7459)">
<path d="M41.6667 12.5V37.5C41.6667 38.605 41.2277 39.6649 40.4463 40.4463C39.6649 41.2277 38.6051 41.6666 37.5 41.6666H16.6667C15.5616 41.6666 14.5018 41.2277 13.7204 40.4463C12.939 39.6649 12.5 38.605 12.5 37.5V12.5C12.5 11.3949 12.939 10.3351 13.7204 9.5537C14.5018 8.7723 15.5616 8.33331 16.6667 8.33331H37.5C38.6051 8.33331 39.6649 8.7723 40.4463 9.5537C41.2277 10.3351 41.6667 11.3949 41.6667 12.5Z" stroke="black" stroke-width="3" stroke-linecap="round" stroke-linejoin="round"/>
<path d="M41.6667 12.5V37.5C41.6667 38.605 41.2277 39.6649 40.4463 40.4463C39.6649 41.2277 38.6051 41.6666 37.5 41.6666H16.6667C15.5616 41.6666 14.5018 41.2277 13.7204 40.4463C12.939 39.6649 12.5 38.605 12.5 37.5V12.5C12.5 11.3949 12.939 10.3351 13.7204 9.5537C14.5018 8.7723 15.5616 8.33331 16.6667 8.33331H37.5C38.6051 8.33331 39.6649 8.7723 40.4463 9.5537C41.2277 10.3351 41.6667 11.3949 41.6667 12.5Z" stroke="white" stroke-opacity="0.2" stroke-width="3" stroke-linecap="round" stroke-linejoin="round"/>
<path d="M20.8334 33.3333H33.3334" stroke="black" stroke-width="3" stroke-linecap="round" stroke-linejoin="round"/>
<path d="M20.8334 33.3333H33.3334" stroke="white" stroke-opacity="0.2" stroke-width="3" stroke-linecap="round" stroke-linejoin="round"/>
<path d="M22.9166 22.9167C22.9166 24.0217 23.3556 25.0815 24.137 25.8629C24.9184 26.6443 25.9782 27.0833 27.0833 27.0833C28.1884 27.0833 29.2482 26.6443 30.0296 25.8629C30.811 25.0815 31.25 24.0217 31.25 22.9167C31.25 21.8116 30.811 20.7518 30.0296 19.9704C29.2482 19.189 28.1884 18.75 27.0833 18.75C25.9782 18.75 24.9184 19.189 24.137 19.9704C23.3556 20.7518 22.9166 21.8116 22.9166 22.9167Z" stroke="black" stroke-width="3" stroke-linecap="round" stroke-linejoin="round"/>
<path d="M22.9166 22.9167C22.9166 24.0217 23.3556 25.0815 24.137 25.8629C24.9184 26.6443 25.9782 27.0833 27.0833 27.0833C28.1884 27.0833 29.2482 26.6443 30.0296 25.8629C30.811 25.0815 31.25 24.0217 31.25 22.9167C31.25 21.8116 30.811 20.7518 30.0296 19.9704C29.2482 19.189 28.1884 18.75 27.0833 18.75C25.9782 18.75 24.9184 19.189 24.137 19.9704C23.3556 20.7518 22.9166 21.8116 22.9166 22.9167Z" stroke="white" stroke-opacity="0.2" stroke-width="3" stroke-linecap="round" stroke-linejoin="round"/>
<path d="M8.33337 16.6667H14.5834" stroke="black" stroke-width="3" stroke-linecap="round" stroke-linejoin="round"/>
<path d="M8.33337 16.6667H14.5834" stroke="white" stroke-opacity="0.2" stroke-width="3" stroke-linecap="round" stroke-linejoin="round"/>
<path d="M8.33337 25H14.5834" stroke="black" stroke-width="3" stroke-linecap="round" stroke-linejoin="round"/>
<path d="M8.33337 25H14.5834" stroke="white" stroke-opacity="0.2" stroke-width="3" stroke-linecap="round" stroke-linejoin="round"/>
<path d="M8.33337 33.3333H14.5834" stroke="black" stroke-width="3" stroke-linecap="round" stroke-linejoin="round"/>
<path d="M8.33337 33.3333H14.5834" stroke="white" stroke-opacity="0.2" stroke-width="3" stroke-linecap="round" stroke-linejoin="round"/>
</g>
<defs>
<clipPath id="clip0_2736_7459">
<rect width="50" height="50" fill="white"/>
</clipPath>
</defs>
</svg>
