<svg width="24" height="24" viewBox="0 0 24 24" fill="none" xmlns="http://www.w3.org/2000/svg">
<path d="M7.47986 18.35L10.5799 20.75C10.9799 21.15 11.8799 21.35 12.4799 21.35H16.2799C17.4799 21.35 18.7799 20.45 19.0799 19.25L21.4799 11.95C21.9799 10.55 21.0799 9.34997 19.5799 9.34997H15.5799C14.9799 9.34997 14.4799 8.84997 14.5799 8.14997L15.0799 4.94997C15.2799 4.04997 14.6799 3.04997 13.7799 2.74997C12.9799 2.44997 11.9799 2.84997 11.5799 3.44997L7.47986 9.54997" stroke="black" stroke-width="1.25" stroke-miterlimit="10"/>
<path d="M2.38025 18.3499V8.5499C2.38025 7.1499 2.98025 6.6499 4.38025 6.6499H5.38025C6.78025 6.6499 7.38025 7.1499 7.38025 8.5499V18.3499C7.38025 19.7499 6.78025 20.2499 5.38025 20.2499H4.38025C2.98025 20.2499 2.38025 19.7499 2.38025 18.3499Z" stroke="black" stroke-width="1.25" stroke-linecap="round" stroke-linejoin="round"/>
</svg>
