<svg width="24" height="25" viewBox="0 0 24 25" fill="none" xmlns="http://www.w3.org/2000/svg">
<path d="M16.3291 7.21831V4.40141C16.3291 1.93662 14.4246 0 12.0006 0C9.5767 0 7.67218 1.93662 7.67218 4.40141V7.21831C6.63335 7.57042 5.9408 8.53873 5.9408 9.6831V13.2042C5.9408 14.7007 7.0662 15.8451 8.53787 15.8451H15.4634C16.9351 15.8451 18.0605 14.7007 18.0605 13.2042V9.6831C18.0605 8.53873 17.3679 7.57042 16.3291 7.21831ZM12.8663 12.3239C12.8663 12.8521 12.5201 13.2042 12.0006 13.2042C11.4812 13.2042 11.135 12.8521 11.135 12.3239V10.5634C11.135 10.0352 11.4812 9.6831 12.0006 9.6831C12.5201 9.6831 12.8663 10.0352 12.8663 10.5634V12.3239ZM14.5977 7.04225H9.40357V4.40141C9.40357 2.90493 10.529 1.76056 12.0006 1.76056C13.4723 1.76056 14.5977 2.90493 14.5977 4.40141V7.04225Z" fill="black"/>
<path d="M16.3291 7.21831V4.40141C16.3291 1.93662 14.4246 0 12.0006 0C9.5767 0 7.67218 1.93662 7.67218 4.40141V7.21831C6.63335 7.57042 5.9408 8.53873 5.9408 9.6831V13.2042C5.9408 14.7007 7.0662 15.8451 8.53787 15.8451H15.4634C16.9351 15.8451 18.0605 14.7007 18.0605 13.2042V9.6831C18.0605 8.53873 17.3679 7.57042 16.3291 7.21831ZM12.8663 12.3239C12.8663 12.8521 12.5201 13.2042 12.0006 13.2042C11.4812 13.2042 11.135 12.8521 11.135 12.3239V10.5634C11.135 10.0352 11.4812 9.6831 12.0006 9.6831C12.5201 9.6831 12.8663 10.0352 12.8663 10.5634V12.3239ZM14.5977 7.04225H9.40357V4.40141C9.40357 2.90493 10.529 1.76056 12.0006 1.76056C13.4723 1.76056 14.5977 2.90493 14.5977 4.40141V7.04225Z" fill="#2196F3" fill-opacity="0.2"/>
<path d="M14.1651 20.3345L12.8665 20.7746V19.3662C12.8665 18.838 12.5203 18.4859 12.0008 18.4859C11.4814 18.4859 11.1352 18.838 11.1352 19.3662V20.7746L9.83662 20.3345C9.40377 20.1584 8.88435 20.4225 8.71121 20.8627C8.53808 21.3028 8.79778 21.831 9.23063 22.007L10.5292 22.4472L9.66348 23.5915C9.40377 23.9436 9.49034 24.5598 9.83662 24.8239C10.0098 24.912 10.1829 25 10.356 25C10.6157 25 10.8754 24.912 11.0486 24.6479L11.9143 23.5035L12.78 24.6479C12.9531 24.912 13.2128 25 13.4725 25C13.6457 25 13.8188 24.912 13.9919 24.8239C14.3382 24.5598 14.4248 23.9436 14.1651 23.5915L13.2994 22.4472L14.5979 22.007C15.0308 21.831 15.2905 21.3908 15.1173 20.8627C15.1173 20.4225 14.6845 20.2465 14.1651 20.3345Z" fill="black"/>
<path d="M14.1651 20.3345L12.8665 20.7746V19.3662C12.8665 18.838 12.5203 18.4859 12.0008 18.4859C11.4814 18.4859 11.1352 18.838 11.1352 19.3662V20.7746L9.83662 20.3345C9.40377 20.1584 8.88435 20.4225 8.71121 20.8627C8.53808 21.3028 8.79778 21.831 9.23063 22.007L10.5292 22.4472L9.66348 23.5915C9.40377 23.9436 9.49034 24.5598 9.83662 24.8239C10.0098 24.912 10.1829 25 10.356 25C10.6157 25 10.8754 24.912 11.0486 24.6479L11.9143 23.5035L12.78 24.6479C12.9531 24.912 13.2128 25 13.4725 25C13.6457 25 13.8188 24.912 13.9919 24.8239C14.3382 24.5598 14.4248 23.9436 14.1651 23.5915L13.2994 22.4472L14.5979 22.007C15.0308 21.831 15.2905 21.3908 15.1173 20.8627C15.1173 20.4225 14.6845 20.2465 14.1651 20.3345Z" fill="#2196F3" fill-opacity="0.2"/>
<path d="M23.9473 20.9507C23.7742 20.5105 23.3414 20.2465 22.8219 20.4225L21.5234 20.7746V19.3662C21.5234 18.838 21.1771 18.4859 20.6577 18.4859C20.1383 18.4859 19.792 18.838 19.792 19.3662V20.7746L18.4935 20.3345C18.0606 20.1584 17.5412 20.4225 17.3681 20.8627C17.1949 21.3028 17.4546 21.831 17.8875 22.007L19.186 22.4472L18.3203 23.5915C18.0606 23.9436 18.1472 24.5598 18.4935 24.8239C18.6666 24.912 18.8398 25 19.0129 25C19.2726 25 19.5323 24.912 19.7054 24.6479L20.5711 23.5035L21.4368 24.6479C21.61 24.912 21.8697 25 22.1294 25C22.3025 25 22.4757 24.912 22.6488 24.8239C22.9951 24.5598 23.0816 23.9436 22.8219 23.5915L21.9562 22.4472L23.2548 22.007C23.8608 21.919 24.1205 21.3908 23.9473 20.9507Z" fill="black"/>
<path d="M23.9473 20.9507C23.7742 20.5105 23.3414 20.2465 22.8219 20.4225L21.5234 20.7746V19.3662C21.5234 18.838 21.1771 18.4859 20.6577 18.4859C20.1383 18.4859 19.792 18.838 19.792 19.3662V20.7746L18.4935 20.3345C18.0606 20.1584 17.5412 20.4225 17.3681 20.8627C17.1949 21.3028 17.4546 21.831 17.8875 22.007L19.186 22.4472L18.3203 23.5915C18.0606 23.9436 18.1472 24.5598 18.4935 24.8239C18.6666 24.912 18.8398 25 19.0129 25C19.2726 25 19.5323 24.912 19.7054 24.6479L20.5711 23.5035L21.4368 24.6479C21.61 24.912 21.8697 25 22.1294 25C22.3025 25 22.4757 24.912 22.6488 24.8239C22.9951 24.5598 23.0816 23.9436 22.8219 23.5915L21.9562 22.4472L23.2548 22.007C23.8608 21.919 24.1205 21.3908 23.9473 20.9507Z" fill="#2196F3" fill-opacity="0.2"/>
<path d="M5.50809 20.3345L4.20956 20.7746V19.3662C4.20956 18.838 3.86328 18.4859 3.34386 18.4859C2.82445 18.4859 2.47817 18.838 2.47817 19.3662V20.7746L1.17963 20.3345C0.746786 20.1584 0.227371 20.4225 0.0542324 20.8627C-0.118906 21.3908 0.140802 21.919 0.573648 22.007L1.87219 22.4472L1.00649 23.5915C0.746786 23.9436 0.833356 24.5598 1.17963 24.8239C1.35277 24.912 1.52591 25 1.69905 25C1.95876 25 2.21846 24.912 2.3916 24.6479L3.25729 23.5035L4.20956 24.6479C4.38269 24.912 4.6424 25 4.90211 25C5.07525 25 5.24839 24.912 5.42153 24.8239C5.7678 24.5598 5.85437 23.9436 5.59466 23.5915L4.72897 22.4472L6.11408 22.007C6.54693 21.831 6.80663 21.3908 6.6335 20.8627C6.46036 20.4225 6.02751 20.2465 5.50809 20.3345Z" fill="black"/>
<path d="M5.50809 20.3345L4.20956 20.7746V19.3662C4.20956 18.838 3.86328 18.4859 3.34386 18.4859C2.82445 18.4859 2.47817 18.838 2.47817 19.3662V20.7746L1.17963 20.3345C0.746786 20.1584 0.227371 20.4225 0.0542324 20.8627C-0.118906 21.3908 0.140802 21.919 0.573648 22.007L1.87219 22.4472L1.00649 23.5915C0.746786 23.9436 0.833356 24.5598 1.17963 24.8239C1.35277 24.912 1.52591 25 1.69905 25C1.95876 25 2.21846 24.912 2.3916 24.6479L3.25729 23.5035L4.20956 24.6479C4.38269 24.912 4.6424 25 4.90211 25C5.07525 25 5.24839 24.912 5.42153 24.8239C5.7678 24.5598 5.85437 23.9436 5.59466 23.5915L4.72897 22.4472L6.11408 22.007C6.54693 21.831 6.80663 21.3908 6.6335 20.8627C6.46036 20.4225 6.02751 20.2465 5.50809 20.3345Z" fill="#2196F3" fill-opacity="0.2"/>
</svg>
