<svg width="24" height="24" viewBox="0 0 24 24" fill="none" xmlns="http://www.w3.org/2000/svg">
<path d="M14.5424 21.75H3.45739C2.93191 21.7431 2.43064 21.5279 2.06364 21.1518C1.69663 20.7756 1.49388 20.2692 1.49989 19.7438V6C1.49989 5.90054 1.53939 5.80516 1.60972 5.73484C1.68005 5.66451 1.77543 5.625 1.87489 5.625C1.97434 5.625 2.06972 5.66451 2.14005 5.73484C2.21038 5.80516 2.24989 5.90054 2.24989 6V19.7438C2.24386 20.0703 2.36759 20.386 2.59394 20.6215C2.8203 20.857 3.13081 20.9931 3.45739 21H14.5424C14.869 20.9931 15.1795 20.857 15.4058 20.6215C15.6322 20.386 15.7559 20.0703 15.7499 19.7438V18.75C15.7499 18.6505 15.7894 18.5552 15.8597 18.4848C15.93 18.4145 16.0254 18.375 16.1249 18.375C16.2243 18.375 16.3197 18.4145 16.3901 18.4848C16.4604 18.5552 16.4999 18.6505 16.4999 18.75V19.7438C16.5059 20.2692 16.3031 20.7756 15.9361 21.1518C15.5691 21.5279 15.0679 21.7431 14.5424 21.75ZM14.2011 17.1863C14.0453 17.1854 13.8916 17.1494 13.7516 17.0809C13.6116 17.0123 13.4889 16.9131 13.3927 16.7905C13.2964 16.6679 13.2291 16.5252 13.1957 16.3729C13.1623 16.2207 13.1637 16.0629 13.1999 15.9113L13.8749 13.155C13.8894 13.0966 13.9177 13.0426 13.9574 12.9975L15.7499 10.875V4.25625C15.7559 3.92966 15.6322 3.61401 15.4058 3.37851C15.1795 3.14301 14.869 3.00689 14.5424 3H3.45739C3.13081 3.00689 2.8203 3.14301 2.59394 3.37851C2.36759 3.61401 2.24386 3.92966 2.24989 4.25625C2.24989 4.35571 2.21038 4.45109 2.14005 4.52142C2.06972 4.59174 1.97434 4.63125 1.87489 4.63125C1.77543 4.63125 1.68005 4.59174 1.60972 4.52142C1.53939 4.45109 1.49989 4.35571 1.49989 4.25625C1.49388 3.73076 1.69663 3.22436 2.06364 2.84821C2.43064 2.47207 2.93191 2.25692 3.45739 2.25H14.5424C15.0679 2.25692 15.5691 2.47207 15.9361 2.84821C16.3031 3.22436 16.5059 3.73076 16.4999 4.25625V10.005L17.8611 8.415L18.5924 7.56C18.6884 7.44771 18.8056 7.35544 18.9373 7.28845C19.069 7.22146 19.2126 7.18107 19.3599 7.16958C19.5072 7.15809 19.6553 7.17572 19.7958 7.22148C19.9363 7.26723 20.0664 7.34021 20.1786 7.43625L21.8886 8.89875C22.0031 8.99494 22.0973 9.11299 22.1656 9.246C22.234 9.37901 22.2751 9.52431 22.2866 9.6734C22.2981 9.82249 22.2798 9.97238 22.2327 10.1143C22.1856 10.2562 22.1107 10.3874 22.0124 10.5L21.2624 11.355C21.2304 11.3924 21.1913 11.4232 21.1474 11.4455C21.1035 11.4678 21.0557 11.4813 21.0066 11.4851C20.9575 11.489 20.9081 11.4831 20.8613 11.4678C20.8144 11.4526 20.7711 11.4283 20.7336 11.3962L19.5786 10.4062L16.4249 14.1225C16.3946 14.1645 16.356 14.1998 16.3115 14.2262C16.2669 14.2525 16.2174 14.2694 16.166 14.2757C16.1146 14.282 16.0625 14.2775 16.0129 14.2627C15.9633 14.2478 15.9173 14.2229 15.8779 14.1894C15.8384 14.1559 15.8063 14.1146 15.7836 14.068C15.7608 14.0215 15.748 13.9708 15.7458 13.9191C15.7437 13.8674 15.7523 13.8158 15.771 13.7675C15.7898 13.7193 15.8183 13.6754 15.8549 13.6387L19.0086 9.91875L18.1874 9.1875L14.5686 13.4175L14.3624 14.2762C14.7287 14.3692 15.0657 14.553 15.3423 14.8105C15.6189 15.0681 15.8261 15.3912 15.9449 15.75L16.8486 15.375L19.4736 12.285C19.5042 12.2463 19.542 12.2141 19.585 12.19C19.628 12.166 19.6753 12.1507 19.7243 12.1449C19.7732 12.1392 19.8228 12.1431 19.8702 12.1566C19.9176 12.17 19.9619 12.1926 20.0005 12.2231C20.0392 12.2537 20.0714 12.2915 20.0955 12.3345C20.1195 12.3775 20.1348 12.4248 20.1406 12.4737C20.1463 12.5227 20.1424 12.5722 20.129 12.6196C20.1155 12.667 20.0929 12.7113 20.0624 12.75L17.3586 15.9075C17.3213 15.9529 17.2737 15.9889 17.2199 16.0125L14.5949 17.0925C14.4712 17.1496 14.3373 17.1815 14.2011 17.1863ZM14.2011 15.0075L13.9424 16.0875C13.9298 16.1384 13.932 16.1919 13.9486 16.2417C13.9651 16.2915 13.9955 16.3355 14.0361 16.3688C14.0749 16.4032 14.1227 16.4257 14.1739 16.4337C14.2251 16.4417 14.2775 16.4347 14.3249 16.4138L15.2624 16.0388C15.1896 15.7866 15.0518 15.5579 14.863 15.3757C14.6741 15.1934 14.4407 15.0638 14.1861 15L14.2011 15.0075ZM18.7011 8.6325L20.9811 10.5825L21.4686 10.0125C21.5006 9.97507 21.525 9.93171 21.5402 9.88488C21.5555 9.83805 21.5614 9.78868 21.5575 9.73958C21.5537 9.69048 21.5402 9.64262 21.5179 9.59872C21.4956 9.55483 21.4648 9.51576 21.4274 9.48375L19.7174 8.02125C19.68 7.98924 19.6366 7.96491 19.5898 7.94966C19.5429 7.93441 19.4936 7.92853 19.4445 7.93236C19.3954 7.93619 19.3475 7.94965 19.3036 7.97198C19.2597 7.99431 19.2206 8.02507 19.1886 8.0625L18.7011 8.6325ZM10.1249 16.875H7.12489C7.02543 16.875 6.93005 16.8355 6.85972 16.7652C6.78939 16.6948 6.74989 16.5995 6.74989 16.5C6.74989 16.4005 6.78939 16.3052 6.85972 16.2348C6.93005 16.1645 7.02543 16.125 7.12489 16.125H10.1249C10.2243 16.125 10.3197 16.1645 10.3901 16.2348C10.4604 16.3052 10.4999 16.4005 10.4999 16.5C10.4999 16.5995 10.4604 16.6948 10.3901 16.7652C10.3197 16.8355 10.2243 16.875 10.1249 16.875ZM5.62489 16.875H4.87489C4.77543 16.875 4.68005 16.8355 4.60972 16.7652C4.53939 16.6948 4.49989 16.5995 4.49989 16.5C4.49989 16.4005 4.53939 16.3052 4.60972 16.2348C4.68005 16.1645 4.77543 16.125 4.87489 16.125H5.62489C5.72434 16.125 5.81972 16.1645 5.89005 16.2348C5.96038 16.3052 5.99989 16.4005 5.99989 16.5C5.99989 16.5995 5.96038 16.6948 5.89005 16.7652C5.81972 16.8355 5.72434 16.875 5.62489 16.875ZM13.1249 12.375H4.87489C4.77543 12.375 4.68005 12.3355 4.60972 12.2652C4.53939 12.1948 4.49989 12.0995 4.49989 12C4.49989 11.9005 4.53939 11.8052 4.60972 11.7348C4.68005 11.6645 4.77543 11.625 4.87489 11.625H13.1249C13.2243 11.625 13.3197 11.6645 13.3901 11.7348C13.4604 11.8052 13.4999 11.9005 13.4999 12C13.4999 12.0995 13.4604 12.1948 13.3901 12.2652C13.3197 12.3355 13.2243 12.375 13.1249 12.375ZM11.9999 7.5H4.87489C4.77543 7.5 4.68005 7.46049 4.60972 7.39017C4.53939 7.31984 4.49989 7.22446 4.49989 7.125C4.49989 7.02554 4.53939 6.93016 4.60972 6.85983C4.68005 6.78951 4.77543 6.75 4.87489 6.75H11.9999C12.0993 6.75 12.1947 6.78951 12.2651 6.85983C12.3354 6.93016 12.3749 7.02554 12.3749 7.125C12.3749 7.22446 12.3354 7.31984 12.2651 7.39017C12.1947 7.46049 12.0993 7.5 11.9999 7.5Z" fill="black" stroke="black" stroke-width="0.2"/>
</svg>
