<svg width="24" height="24" viewBox="0 0 24 24" fill="none" xmlns="http://www.w3.org/2000/svg">
<path d="M20.4234 16.0883H3.62198C2.14823 16.0883 0.949219 14.8899 0.949219 13.4167V10.6281C0.949219 9.15492 2.14823 7.95642 3.62198 7.95642H20.4234C21.8972 7.95642 23.0963 9.15492 23.0963 10.6281V13.4167C23.0963 14.8898 21.8972 16.0883 20.4234 16.0883ZM3.62198 8.54095C2.47055 8.54095 1.5338 9.47723 1.5338 10.628V13.4167C1.5338 14.5675 2.47055 15.5037 3.62198 15.5037H20.4234C21.5749 15.5037 22.5117 14.5675 22.5117 13.4167V10.628C22.5117 9.47719 21.5749 8.54095 20.4234 8.54095H3.62198Z" fill="black"/>
<path d="M6.02487 13.7818C5.93449 13.7818 5.84538 13.7401 5.7882 13.6614L5.07293 12.6769L4.35363 13.6619C4.25843 13.7923 4.07562 13.8209 3.94521 13.7256C3.81485 13.6304 3.78635 13.4475 3.88156 13.3172L4.60001 12.3333L3.43821 11.954C3.28479 11.9039 3.20098 11.7388 3.25109 11.5854C3.3012 11.432 3.4661 11.3481 3.61966 11.3983L4.78071 11.7775L4.77912 10.5556C4.77893 10.3942 4.90962 10.2632 5.07101 10.2629C5.07115 10.2629 5.07129 10.2629 5.07138 10.2629C5.23263 10.2629 5.36346 10.3935 5.36365 10.5549L5.36524 11.7776L6.52451 11.3984C6.67798 11.3484 6.84302 11.4319 6.89318 11.5853C6.94338 11.7387 6.85966 11.9038 6.70624 11.954L5.5459 12.3335L6.26102 13.3178C6.3559 13.4484 6.32698 13.6312 6.19638 13.7261C6.14459 13.7637 6.08445 13.7818 6.02487 13.7818ZM10.3838 13.7818C10.2935 13.7819 10.2045 13.7402 10.1473 13.6617L9.42954 12.6765L8.70991 13.6619C8.61471 13.7922 8.4319 13.8208 8.30149 13.7255C8.17113 13.6304 8.14263 13.4475 8.23784 13.3172L8.95629 12.3333L7.79501 11.9539C7.64159 11.9038 7.55777 11.7387 7.60793 11.5853C7.65804 11.4319 7.82304 11.3481 7.97651 11.3983L9.13695 11.7774L9.13535 10.5555C9.13516 10.3941 9.26585 10.2631 9.42724 10.2629C9.42738 10.2629 9.42752 10.2629 9.42762 10.2629C9.58887 10.2629 9.7197 10.3935 9.71988 10.5548L9.72148 11.7776L10.8807 11.3983C11.0343 11.3483 11.1992 11.4319 11.2494 11.5853C11.2996 11.7387 11.2159 11.9037 11.0625 11.9539L9.90265 12.3333L10.6197 13.3174C10.7148 13.4479 10.6861 13.6308 10.5556 13.7258C10.5038 13.7636 10.4435 13.7818 10.3838 13.7818ZM12.8325 13.7818C12.7729 13.7818 12.7126 13.7636 12.6607 13.7258C12.5302 13.6308 12.5015 13.448 12.5965 13.3175L13.313 12.3335L12.1512 11.9539C11.9978 11.9038 11.9141 11.7388 11.9642 11.5854C12.0143 11.432 12.1794 11.3482 12.3327 11.3983L13.4938 11.7776V10.5552C13.4938 10.3938 13.6246 10.2629 13.786 10.2629C13.9474 10.2629 14.0783 10.3938 14.0783 10.5552V11.7775L15.2376 11.3983C15.3911 11.3482 15.5561 11.4319 15.6063 11.5853C15.6564 11.7387 15.5727 11.9038 15.4193 11.9539L14.259 12.3333L14.976 13.3174C15.0711 13.4479 15.0424 13.6308 14.9119 13.7258C14.7814 13.8208 14.5986 13.7921 14.5036 13.6617L13.7861 12.6769L13.069 13.6616C13.0118 13.7402 12.9228 13.7818 12.8325 13.7818ZM21.0364 14.474H18.1359C17.8002 14.474 17.5271 14.2011 17.5271 13.8656V11.7646C17.5271 11.4291 17.8002 11.1562 18.1359 11.1562H21.0364C21.3721 11.1562 21.6452 11.4291 21.6452 11.7646V13.8656C21.6452 14.2011 21.3721 14.474 21.0364 14.474ZM18.1359 11.7408C18.1225 11.7408 18.1116 11.7538 18.1116 11.7646V13.8656C18.1116 13.8787 18.1225 13.8895 18.1359 13.8895H21.0364C21.0497 13.8895 21.0606 13.8787 21.0606 13.8656V11.7646C21.0606 11.7536 21.05 11.7408 21.0364 11.7408H18.1359Z" fill="black"/>
<path d="M20.6823 11.7408H18.49C18.3286 11.7408 18.1978 11.6099 18.1978 11.4485V10.3516C18.1978 9.5857 18.8212 8.96259 19.5876 8.96259C20.3523 8.96259 20.9746 9.5857 20.9746 10.3516V11.4485C20.9746 11.6099 20.8437 11.7408 20.6823 11.7408ZM18.7823 11.1562H20.39V10.3516C20.39 9.90801 20.03 9.54712 19.5876 9.54712C19.1435 9.54712 18.7823 9.90801 18.7823 10.3516V11.1562ZM19.5876 13.0564C19.3054 13.0564 19.0759 12.8271 19.0759 12.5453C19.0759 12.2647 19.3054 12.0364 19.5876 12.0364C19.8681 12.0364 20.0964 12.2647 20.0964 12.5453C20.0964 12.8271 19.8681 13.0564 19.5876 13.0564ZM19.5876 12.4718C19.5458 12.4718 19.5118 12.5047 19.5118 12.5452C19.5118 12.587 19.5458 12.6209 19.5876 12.6209C19.6277 12.6209 19.6605 12.5869 19.6605 12.5452C19.6605 12.5054 19.6271 12.4718 19.5876 12.4718Z" fill="black"/>
<path d="M19.5876 13.6293C19.4262 13.6293 19.2953 13.4984 19.2953 13.337V12.8152C19.2953 12.6538 19.4262 12.5229 19.5876 12.5229C19.7489 12.5229 19.8798 12.6538 19.8798 12.8152V13.337C19.8799 13.4984 19.749 13.6293 19.5876 13.6293Z" fill="black"/>
</svg>
