<svg width="33" height="36" viewBox="0 0 33 36" fill="none" xmlns="http://www.w3.org/2000/svg">
<g filter="url(#filter0_d_2685_6212)">
<rect x="5" y="1" width="6.06212" height="6.06212" fill="white" shape-rendering="crispEdges"/>
<rect x="4.75" y="0.75" width="6.56212" height="6.56212" stroke="black" stroke-opacity="0.9" stroke-width="0.5" shape-rendering="crispEdges"/>
</g>
<g filter="url(#filter1_d_2685_6212)">
<rect x="5" y="9.88269" width="6.06212" height="6.06212" fill="white" shape-rendering="crispEdges"/>
<rect x="4.75" y="9.63269" width="6.56212" height="6.56212" stroke="black" stroke-opacity="0.9" stroke-width="0.5" shape-rendering="crispEdges"/>
</g>
<g filter="url(#filter2_d_2685_6212)">
<rect x="22.3022" y="18.7654" width="6.06212" height="6.06212" fill="white" shape-rendering="crispEdges"/>
<rect x="22.0522" y="18.5154" width="6.56212" height="6.56212" stroke="black" stroke-opacity="0.9" stroke-width="0.5" shape-rendering="crispEdges"/>
</g>
<g filter="url(#filter3_d_2685_6212)">
<rect x="22.2603" y="9.79846" width="6.06212" height="6.06212" fill="white" shape-rendering="crispEdges"/>
<rect x="22.0103" y="9.54846" width="6.56212" height="6.56212" stroke="black" stroke-opacity="0.9" stroke-width="0.5" shape-rendering="crispEdges"/>
</g>
<g filter="url(#filter4_d_2685_6212)">
<rect x="13.6301" y="1" width="6.06212" height="6.06212" fill="white" shape-rendering="crispEdges"/>
<rect x="13.3801" y="0.75" width="6.56212" height="6.56212" stroke="black" stroke-opacity="0.9" stroke-width="0.5" shape-rendering="crispEdges"/>
</g>
<g filter="url(#filter5_d_2685_6212)">
<rect x="22.3022" y="1" width="6.06212" height="6.06212" fill="white" shape-rendering="crispEdges"/>
<rect x="22.0522" y="0.75" width="6.56212" height="6.56212" stroke="black" stroke-opacity="0.9" stroke-width="0.5" shape-rendering="crispEdges"/>
</g>
<g filter="url(#filter6_d_2685_6212)">
<rect x="5" y="18.7654" width="6.06212" height="6.06212" fill="white" shape-rendering="crispEdges"/>
<rect x="4.75" y="18.5154" width="6.56212" height="6.56212" stroke="black" stroke-opacity="0.9" stroke-width="0.5" shape-rendering="crispEdges"/>
</g>
<path d="M26.3381 17.3696C26.02 17.3696 25.715 17.4267 25.432 17.531C24.9734 16.7154 24.1087 16.1639 23.1188 16.1639C22.8009 16.1639 22.4959 16.221 22.213 16.3252C21.7543 15.5096 20.8895 14.9582 19.8997 14.9582C19.7087 14.9582 19.5224 14.9792 19.3426 15.0182V13.0691C19.3426 11.5798 18.1484 10.368 16.6806 10.368C15.2127 10.368 14.0185 11.5798 14.0185 13.0691V21.6602C13.542 21.536 12.9573 21.4536 12.2406 21.4415C10.2386 21.4066 9.23583 22.6046 9.145 23.7314C9.04913 24.92 9.89077 25.9488 11.1027 26.1243C12.4616 26.3214 13.1552 27.457 14.1742 29.2935C15.4952 31.6739 17.1389 34.6364 21.6601 34.6364C24.6616 34.6364 26.8602 33.3136 28.0183 30.811C28.8983 28.9094 29 26.705 29 25.2123V20.0706C29 18.5813 27.8058 17.3696 26.3381 17.3696ZM26.8951 25.2123C26.8951 30.2742 25.2806 32.5315 21.6601 32.5315C18.3782 32.5315 17.283 30.5577 16.0148 28.2722C15.0072 26.4562 13.865 24.3978 11.4045 24.0412C11.2896 24.0246 11.2368 23.9785 11.2432 23.9006C11.2555 23.7466 11.562 23.5376 12.2048 23.5459C13.4555 23.5673 13.9946 23.8585 14.1204 23.9884C14.3176 24.404 14.7687 24.6487 15.2334 24.5763C15.7458 24.4962 16.1234 24.055 16.1234 23.5365V13.0691C16.1234 12.7403 16.3733 12.4729 16.6806 12.4729C16.9878 12.4729 17.2377 12.7403 17.2377 13.0691V17.6593V22.6201C17.2377 23.2013 17.709 23.6725 18.2902 23.6725C18.8713 23.6725 19.3426 23.2013 19.3426 22.6201V17.6593C19.3426 17.3306 19.5925 17.0632 19.8997 17.0632C20.2069 17.0632 20.4569 17.3306 20.4569 17.6593V18.8649V22.6201C20.4569 23.2013 20.9281 23.6725 21.5093 23.6725C22.0905 23.6725 22.5618 23.2013 22.5618 22.6201V18.8649C22.5618 18.5363 22.8116 18.2688 23.1188 18.2688C23.426 18.2688 23.6759 18.5363 23.6759 18.8649V19.9182C23.6759 19.9353 23.6759 20.0364 23.6759 20.0706V22.6201C23.6759 23.2013 24.1472 23.6725 24.7283 23.6725C25.3095 23.6725 25.7808 23.2013 25.7808 22.6201V20.0706C25.7808 19.742 26.0307 19.4745 26.3381 19.4745C26.6453 19.4745 26.8951 19.742 26.8951 20.0706V25.2123Z" fill="white" stroke="black"/>
<defs>
<filter id="filter0_d_2685_6212" x="0.5" y="0.5" width="15.0621" height="15.0621" filterUnits="userSpaceOnUse" color-interpolation-filters="sRGB">
<feFlood flood-opacity="0" result="BackgroundImageFix"/>
<feColorMatrix in="SourceAlpha" type="matrix" values="0 0 0 0 0 0 0 0 0 0 0 0 0 0 0 0 0 0 127 0" result="hardAlpha"/>
<feOffset dy="4"/>
<feGaussianBlur stdDeviation="2"/>
<feComposite in2="hardAlpha" operator="out"/>
<feColorMatrix type="matrix" values="0 0 0 0 0 0 0 0 0 0 0 0 0 0 0 0 0 0 0.25 0"/>
<feBlend mode="normal" in2="BackgroundImageFix" result="effect1_dropShadow_2685_6212"/>
<feBlend mode="normal" in="SourceGraphic" in2="effect1_dropShadow_2685_6212" result="shape"/>
</filter>
<filter id="filter1_d_2685_6212" x="0.5" y="9.38269" width="15.0621" height="15.0621" filterUnits="userSpaceOnUse" color-interpolation-filters="sRGB">
<feFlood flood-opacity="0" result="BackgroundImageFix"/>
<feColorMatrix in="SourceAlpha" type="matrix" values="0 0 0 0 0 0 0 0 0 0 0 0 0 0 0 0 0 0 127 0" result="hardAlpha"/>
<feOffset dy="4"/>
<feGaussianBlur stdDeviation="2"/>
<feComposite in2="hardAlpha" operator="out"/>
<feColorMatrix type="matrix" values="0 0 0 0 0 0 0 0 0 0 0 0 0 0 0 0 0 0 0.25 0"/>
<feBlend mode="normal" in2="BackgroundImageFix" result="effect1_dropShadow_2685_6212"/>
<feBlend mode="normal" in="SourceGraphic" in2="effect1_dropShadow_2685_6212" result="shape"/>
</filter>
<filter id="filter2_d_2685_6212" x="17.8022" y="18.2654" width="15.0621" height="15.0621" filterUnits="userSpaceOnUse" color-interpolation-filters="sRGB">
<feFlood flood-opacity="0" result="BackgroundImageFix"/>
<feColorMatrix in="SourceAlpha" type="matrix" values="0 0 0 0 0 0 0 0 0 0 0 0 0 0 0 0 0 0 127 0" result="hardAlpha"/>
<feOffset dy="4"/>
<feGaussianBlur stdDeviation="2"/>
<feComposite in2="hardAlpha" operator="out"/>
<feColorMatrix type="matrix" values="0 0 0 0 0 0 0 0 0 0 0 0 0 0 0 0 0 0 0.25 0"/>
<feBlend mode="normal" in2="BackgroundImageFix" result="effect1_dropShadow_2685_6212"/>
<feBlend mode="normal" in="SourceGraphic" in2="effect1_dropShadow_2685_6212" result="shape"/>
</filter>
<filter id="filter3_d_2685_6212" x="17.7603" y="9.29846" width="15.0621" height="15.0621" filterUnits="userSpaceOnUse" color-interpolation-filters="sRGB">
<feFlood flood-opacity="0" result="BackgroundImageFix"/>
<feColorMatrix in="SourceAlpha" type="matrix" values="0 0 0 0 0 0 0 0 0 0 0 0 0 0 0 0 0 0 127 0" result="hardAlpha"/>
<feOffset dy="4"/>
<feGaussianBlur stdDeviation="2"/>
<feComposite in2="hardAlpha" operator="out"/>
<feColorMatrix type="matrix" values="0 0 0 0 0 0 0 0 0 0 0 0 0 0 0 0 0 0 0.25 0"/>
<feBlend mode="normal" in2="BackgroundImageFix" result="effect1_dropShadow_2685_6212"/>
<feBlend mode="normal" in="SourceGraphic" in2="effect1_dropShadow_2685_6212" result="shape"/>
</filter>
<filter id="filter4_d_2685_6212" x="9.13013" y="0.5" width="15.0621" height="15.0621" filterUnits="userSpaceOnUse" color-interpolation-filters="sRGB">
<feFlood flood-opacity="0" result="BackgroundImageFix"/>
<feColorMatrix in="SourceAlpha" type="matrix" values="0 0 0 0 0 0 0 0 0 0 0 0 0 0 0 0 0 0 127 0" result="hardAlpha"/>
<feOffset dy="4"/>
<feGaussianBlur stdDeviation="2"/>
<feComposite in2="hardAlpha" operator="out"/>
<feColorMatrix type="matrix" values="0 0 0 0 0 0 0 0 0 0 0 0 0 0 0 0 0 0 0.25 0"/>
<feBlend mode="normal" in2="BackgroundImageFix" result="effect1_dropShadow_2685_6212"/>
<feBlend mode="normal" in="SourceGraphic" in2="effect1_dropShadow_2685_6212" result="shape"/>
</filter>
<filter id="filter5_d_2685_6212" x="17.8022" y="0.5" width="15.0621" height="15.0621" filterUnits="userSpaceOnUse" color-interpolation-filters="sRGB">
<feFlood flood-opacity="0" result="BackgroundImageFix"/>
<feColorMatrix in="SourceAlpha" type="matrix" values="0 0 0 0 0 0 0 0 0 0 0 0 0 0 0 0 0 0 127 0" result="hardAlpha"/>
<feOffset dy="4"/>
<feGaussianBlur stdDeviation="2"/>
<feComposite in2="hardAlpha" operator="out"/>
<feColorMatrix type="matrix" values="0 0 0 0 0 0 0 0 0 0 0 0 0 0 0 0 0 0 0.25 0"/>
<feBlend mode="normal" in2="BackgroundImageFix" result="effect1_dropShadow_2685_6212"/>
<feBlend mode="normal" in="SourceGraphic" in2="effect1_dropShadow_2685_6212" result="shape"/>
</filter>
<filter id="filter6_d_2685_6212" x="0.5" y="18.2654" width="15.0621" height="15.0621" filterUnits="userSpaceOnUse" color-interpolation-filters="sRGB">
<feFlood flood-opacity="0" result="BackgroundImageFix"/>
<feColorMatrix in="SourceAlpha" type="matrix" values="0 0 0 0 0 0 0 0 0 0 0 0 0 0 0 0 0 0 127 0" result="hardAlpha"/>
<feOffset dy="4"/>
<feGaussianBlur stdDeviation="2"/>
<feComposite in2="hardAlpha" operator="out"/>
<feColorMatrix type="matrix" values="0 0 0 0 0 0 0 0 0 0 0 0 0 0 0 0 0 0 0.25 0"/>
<feBlend mode="normal" in2="BackgroundImageFix" result="effect1_dropShadow_2685_6212"/>
<feBlend mode="normal" in="SourceGraphic" in2="effect1_dropShadow_2685_6212" result="shape"/>
</filter>
</defs>
</svg>
