<svg width="24" height="24" viewBox="0 0 24 24" fill="none" xmlns="http://www.w3.org/2000/svg">
<path d="M2.40002 7.20002V3.60002C2.40002 3.28176 2.52645 2.97654 2.7515 2.7515C2.97654 2.52645 3.28176 2.40002 3.60002 2.40002H7.20002" stroke="black" stroke-width="2.4" stroke-linecap="round"/>
<path d="M16.8 2.40002H20.4C20.7183 2.40002 21.0235 2.52645 21.2486 2.7515C21.4736 2.97654 21.6 3.28176 21.6 3.60002V7.20002" stroke="black" stroke-width="2.4" stroke-linecap="round"/>
<path d="M21.6 16.8V20.4C21.6 20.7182 21.4736 21.0235 21.2486 21.2485C21.0235 21.4736 20.7183 21.6 20.4 21.6H16.8" stroke="black" stroke-width="2.4" stroke-linecap="round"/>
<path d="M7.20002 21.6H3.60002C3.28176 21.6 2.97654 21.4736 2.7515 21.2485C2.52645 21.0235 2.40002 20.7182 2.40002 20.4V16.8" stroke="black" stroke-width="2.4" stroke-linecap="round"/>
<path d="M17.28 11.28H6.72C6.32235 11.28 6 11.6024 6 12C6 12.3977 6.32235 12.72 6.72 12.72H17.28C17.6776 12.72 18 12.3977 18 12C18 11.6024 17.6776 11.28 17.28 11.28Z" fill="black"/>
</svg>
