<svg width="24" height="24" viewBox="0 0 24 24" fill="none" xmlns="http://www.w3.org/2000/svg">
<g clip-path="url(#clip0_2685_6093)">
<path d="M8.52302 -0.0361461C8.64505 -0.0376794 8.76708 -0.0392127 8.89281 -0.0407924C9.29648 -0.0454425 9.70013 -0.0485473 10.1038 -0.0512524C10.2421 -0.0522505 10.3804 -0.0532487 10.5228 -0.0542772C11.2552 -0.0592857 11.9876 -0.0629191 12.72 -0.0656261C13.3243 -0.0681236 13.9286 -0.0733393 14.5329 -0.081007C15.2642 -0.0902849 15.9954 -0.0949024 16.7268 -0.0962312C17.0045 -0.0974851 17.2822 -0.100327 17.5599 -0.104836C20.4253 -0.148698 20.4253 -0.148698 21.5626 0.937517C22.3366 1.83088 22.7088 2.56808 22.7139 3.76473C22.715 3.91531 22.716 4.0659 22.7171 4.22106C22.7174 4.46639 22.7174 4.46639 22.7178 4.71668C22.7192 4.97703 22.7192 4.97703 22.7206 5.24263C22.7233 5.81663 22.7246 6.39062 22.7256 6.96462C22.7267 7.36397 22.7278 7.76331 22.7289 8.16266C22.7308 9.00008 22.7319 9.8375 22.7326 10.6749C22.7336 11.7468 22.7381 12.8185 22.7435 13.8904C22.747 14.7154 22.7479 15.5404 22.7482 16.3654C22.7488 16.7605 22.7503 17.1556 22.7528 17.5506C22.756 18.104 22.7556 18.6572 22.7544 19.2106C22.7561 19.373 22.7578 19.5354 22.7596 19.7027C22.7499 21.117 22.3867 22.2103 21.3751 23.25C20.1141 24.2439 18.7163 24.1059 17.1849 24.093C16.9036 24.0931 16.6223 24.0933 16.341 24.0939C15.7533 24.0941 15.1657 24.0918 14.578 24.0875C13.8266 24.0822 13.0755 24.0827 12.3241 24.0851C11.7439 24.0864 11.1637 24.0849 10.5835 24.0826C10.3066 24.0817 10.0296 24.0817 9.75263 24.0824C9.36497 24.083 8.9775 24.0799 8.58985 24.0758C8.36981 24.0748 8.14976 24.0738 7.92305 24.0727C6.74999 23.933 6.01569 23.3691 5.25006 22.5C4.44857 21.355 4.45255 20.1974 4.42974 18.8438C4.41923 18.607 4.41923 18.607 4.4085 18.3655C4.39662 17.5268 4.4172 17.1729 4.93585 16.4817C5.43756 16.125 5.43756 16.125 6.03521 16.1367C6.56256 16.3125 6.56256 16.3125 6.93756 16.6875C6.99139 17.0624 6.99139 17.0624 7.00201 17.5181C7.00757 17.6827 7.01313 17.8473 7.01885 18.0169C7.02296 18.1892 7.02707 18.3615 7.03131 18.5391C7.03947 18.8785 7.04918 19.2178 7.0606 19.5571C7.06411 19.7079 7.06761 19.8587 7.07122 20.0141C7.13073 20.4822 7.25099 20.7882 7.50006 21.1875C8.00223 21.4386 8.39333 21.403 8.95565 21.4082C9.18219 21.4106 9.40873 21.413 9.64213 21.4155C9.88803 21.4169 10.1339 21.4183 10.3873 21.4197C10.5122 21.4205 10.6371 21.4212 10.7658 21.422C11.4268 21.4259 12.0878 21.4286 12.7488 21.4304C13.4314 21.4324 14.114 21.4389 14.7966 21.4463C15.3216 21.4512 15.8466 21.4528 16.3717 21.4535C16.7456 21.4548 17.1195 21.4598 17.4934 21.4648C17.7211 21.4643 17.9488 21.4637 18.1834 21.4631C18.3838 21.4642 18.5842 21.4653 18.7907 21.4665C19.3231 21.4072 19.3231 21.4072 19.7521 21.0981C20.2018 20.4128 20.1672 19.7611 20.1596 18.9683C20.1609 18.8011 20.1622 18.634 20.1636 18.4618C20.1669 17.9093 20.1647 17.3571 20.1622 16.8047C20.1627 16.4208 20.1634 16.0369 20.1643 15.6531C20.1654 14.8486 20.1638 14.0441 20.1603 13.2396C20.1561 12.2081 20.1585 11.1767 20.163 10.1451C20.1657 9.35244 20.1649 8.55979 20.1629 7.76711C20.1624 7.38675 20.163 7.00638 20.1648 6.62602C20.1667 6.09451 20.1638 5.56324 20.1596 5.03176C20.1611 4.87433 20.1626 4.7169 20.1642 4.55471C20.1546 3.89594 20.1179 3.45919 19.7519 2.90235C19.1936 2.54994 18.8452 2.53105 18.1864 2.53095C17.9593 2.52919 17.7322 2.52743 17.4982 2.52562C17.2536 2.52772 17.0091 2.52983 16.7571 2.532C16.5031 2.53197 16.2491 2.53169 15.9951 2.53117C15.4634 2.53091 14.9319 2.53326 14.4002 2.53754C13.7188 2.54287 13.0376 2.54235 12.3562 2.53996C11.832 2.53866 11.3078 2.54011 10.7836 2.54244C10.4102 2.5437 10.0368 2.54289 9.66338 2.54205C9.43685 2.54443 9.21033 2.54681 8.97694 2.54926C8.77726 2.55027 8.57759 2.55128 8.37186 2.55233C7.80931 2.63464 7.64759 2.73908 7.31256 3.18752C7.10078 3.61107 7.10182 3.84794 7.09869 4.31764C7.09506 4.46617 7.09144 4.61469 7.0877 4.76772C7.08137 5.08066 7.07794 5.39368 7.07745 5.70668C7.0642 6.13588 7.04261 6.52099 6.93756 6.93752C6.42683 7.38126 6.18228 7.50436 5.50787 7.4883C4.93848 7.26354 4.79994 7.09753 4.50006 6.56252C4.44443 6.033 4.41982 5.5555 4.42974 5.02736C4.43151 4.8847 4.43328 4.74203 4.4351 4.59505C4.4712 3.24954 4.63047 2.19716 5.51959 1.14845C6.55781 0.287489 7.14938 -0.02114 8.52302 -0.0361461Z" fill="black"/>
<path d="M13.1249 6.93748C13.8418 7.45502 14.4476 8.08259 15.0665 8.71173C15.3626 9.01103 15.665 9.30265 15.9686 9.59434C16.1595 9.78471 16.3501 9.9755 16.5402 10.1667C16.7125 10.3384 16.8849 10.51 17.0624 10.6868C17.4795 11.3132 17.5728 11.6499 17.524 12.3867C17.3716 13.0267 16.9984 13.377 16.5402 13.8332C16.4476 13.9264 16.355 14.0195 16.2596 14.1155C16.0639 14.3106 15.8663 14.5039 15.667 14.6953C15.364 14.9876 15.0685 15.2862 14.7733 15.5863C13.1308 17.2087 13.1308 17.2087 11.8124 17.25C11.3437 16.9687 11.3437 16.9687 11.0624 16.5C11.0843 15.6914 11.1701 15.2878 11.6784 14.6492C11.8503 14.4904 12.0221 14.3316 12.1992 14.1679C12.3715 14.0058 12.5438 13.8436 12.7214 13.6765C12.8546 13.5564 12.9877 13.4362 13.1249 13.3125C12.9853 13.3114 12.8456 13.3103 12.7016 13.3091C11.3856 13.2983 10.0696 13.2848 8.75363 13.2683C8.07706 13.2599 7.40051 13.2525 6.7239 13.2475C6.07101 13.2426 5.4182 13.2351 4.76536 13.2256C4.3949 13.221 4.0244 13.2191 3.65391 13.2173C3.42872 13.2136 3.20353 13.2099 2.97152 13.2061C2.77291 13.204 2.5743 13.2019 2.36968 13.1997C1.87494 13.125 1.87494 13.125 1.52955 12.8738C1.19062 12.3878 1.2406 12.0122 1.31244 11.4375C1.52955 11.1261 1.52955 11.1261 1.87494 10.875C2.36968 10.8002 2.36968 10.8002 2.97152 10.7939C3.3093 10.7883 3.3093 10.7883 3.65391 10.7827C3.89709 10.7815 4.14027 10.7803 4.39081 10.779C4.64224 10.7759 4.89366 10.7725 5.14508 10.7688C5.80626 10.7599 6.46742 10.7543 7.12864 10.7494C7.80358 10.7439 8.47848 10.7351 9.15339 10.7267C10.4772 10.7105 11.8011 10.6979 13.1249 10.6875C12.9252 10.5073 12.9252 10.5073 12.7214 10.3235C12.549 10.1613 12.3767 9.99911 12.1992 9.83201C12.0273 9.67322 11.8555 9.51442 11.6784 9.35081C11.1701 8.71215 11.0843 8.30861 11.0624 7.49998C11.6141 6.5805 12.156 6.70271 13.1249 6.93748Z" fill="black"/>
</g>
<defs>
<clipPath id="clip0_2685_6093">
<rect width="24" height="24" fill="white"/>
</clipPath>
</defs>
</svg>
