<svg width="24" height="24" viewBox="0 0 24 24" fill="none" xmlns="http://www.w3.org/2000/svg">
<g clip-path="url(#clip0_2685_6141)">
<path d="M7.35869 -0.261928C7.42789 -0.262294 7.42789 -0.262294 7.49848 -0.262667C7.54889 -0.262657 7.5993 -0.262647 7.65124 -0.262636C7.70501 -0.262837 7.75877 -0.263038 7.81417 -0.263246C7.99485 -0.263849 8.17553 -0.264059 8.35622 -0.264268C8.48557 -0.26461 8.61492 -0.264974 8.74428 -0.265357C9.13286 -0.266408 9.52145 -0.266988 9.91004 -0.267475C10.0932 -0.267714 10.2764 -0.268008 10.4596 -0.268294C11.0689 -0.269225 11.6782 -0.270017 12.2875 -0.270413C12.4456 -0.270518 12.6036 -0.270623 12.7617 -0.27073C12.8206 -0.270769 12.8206 -0.270769 12.8807 -0.27081C13.5165 -0.271263 14.1522 -0.272648 14.788 -0.274426C15.4413 -0.276237 16.0946 -0.277219 16.748 -0.277394C17.1145 -0.277512 17.4811 -0.278011 17.8476 -0.279388C18.1927 -0.280663 18.5378 -0.280892 18.8829 -0.280331C19.0093 -0.280304 19.1356 -0.280648 19.262 -0.2814C20.2696 -0.28706 21.0186 -0.185713 21.7896 0.514242C22.2303 0.968691 22.5003 1.58168 22.5016 2.21373C22.502 2.31764 22.502 2.31764 22.5024 2.42365C22.5025 2.50067 22.5025 2.5777 22.5025 2.65473C22.5027 2.73644 22.503 2.81816 22.5033 2.89987C22.5039 3.12475 22.5042 3.34964 22.5045 3.57452C22.5048 3.81696 22.5054 4.05939 22.506 4.30183C22.5074 4.8876 22.5082 5.47336 22.5089 6.05913C22.5091 6.22463 22.5093 6.39014 22.5095 6.55565C22.5109 7.58378 22.5121 8.61191 22.5128 9.64005C22.5129 9.87821 22.5131 10.1164 22.5133 10.3545C22.5133 10.4137 22.5133 10.4729 22.5134 10.5339C22.5141 11.4921 22.5159 12.4502 22.5182 13.4083C22.5205 14.3925 22.5218 15.3766 22.5221 16.3608C22.5222 16.9131 22.5229 17.4655 22.5247 18.0179C22.5262 18.4885 22.5268 18.9591 22.5262 19.4297C22.5259 19.6696 22.5261 19.9095 22.5274 20.1494C22.5287 20.3695 22.5286 20.5896 22.5276 20.8098C22.5274 20.8889 22.5277 20.968 22.5286 21.0472C22.5381 22.0169 22.236 22.7368 21.5678 23.4422C20.7024 24.2608 19.7621 24.2866 18.6269 24.2804C18.4371 24.2796 18.2473 24.2805 18.0575 24.2811C17.6868 24.2821 17.3161 24.2817 16.9454 24.2807C16.6439 24.2799 16.3424 24.2797 16.0409 24.2799C15.9763 24.2799 15.9763 24.2799 15.9103 24.28C15.8228 24.28 15.7353 24.2801 15.6477 24.2801C14.8755 24.2806 14.1032 24.2797 13.3309 24.2781C12.5832 24.2765 11.8354 24.2761 11.0876 24.2769C10.2714 24.2779 9.45526 24.2781 8.63906 24.2771C8.55189 24.277 8.46471 24.2769 8.37753 24.2768C8.31321 24.2767 8.31321 24.2767 8.24758 24.2767C7.94672 24.2764 7.64586 24.2765 7.345 24.2769C6.97794 24.2773 6.61088 24.2769 6.24381 24.2756C6.05686 24.2749 5.86993 24.2746 5.68297 24.2752C4.49397 24.278 3.51282 24.1973 2.6105 23.3379C2.54515 23.2728 2.54515 23.2728 2.47848 23.2063C2.43492 23.1641 2.39135 23.1218 2.34647 23.0782C1.72418 22.4372 1.46686 21.6028 1.47232 20.7236C1.47216 20.6669 1.47201 20.6101 1.47184 20.5516C1.47173 20.4328 1.47203 20.3139 1.47272 20.1951C1.4736 20.0133 1.47272 19.8315 1.47168 19.6497C1.47179 19.5337 1.472 19.4177 1.47232 19.3017C1.47199 19.2476 1.47166 19.1935 1.47131 19.1377C1.47515 18.7621 1.53898 18.5796 1.79489 18.2981C1.98883 18.1236 2.12899 18.1136 2.38036 18.1142C2.43838 18.1142 2.4964 18.1142 2.55617 18.1142C2.61873 18.1145 2.68128 18.1148 2.74573 18.1151C2.84188 18.1152 2.84188 18.1152 2.93997 18.1153C3.14503 18.1156 3.35009 18.1163 3.55514 18.117C3.69403 18.1173 3.83293 18.1175 3.97182 18.1177C4.31258 18.1183 4.65335 18.1193 4.99411 18.1204C4.99403 18.0863 4.99394 18.0522 4.99386 18.017C4.98896 15.9935 4.98521 13.97 4.98294 11.9464C4.98267 11.7033 4.98238 11.4602 4.98209 11.217C4.98204 11.1686 4.98198 11.1202 4.98192 11.0704C4.98097 10.2873 4.97924 9.50429 4.97723 8.72125C4.97518 7.91739 4.97397 7.11352 4.97353 6.30965C4.97323 5.81389 4.97228 5.31813 4.9705 4.82236C4.96934 4.48209 4.969 4.14183 4.96928 3.80156C4.96942 3.60543 4.96921 3.40932 4.96803 3.2132C4.96676 3.00005 4.96721 2.78691 4.9678 2.57376C4.96717 2.51247 4.96653 2.45119 4.96587 2.38804C4.97161 1.62493 5.25588 1.00847 5.76294 0.449941C6.17482 0.0504928 6.77602 -0.260495 7.35869 -0.261928ZM6.96628 1.80987C6.72021 2.1976 6.72859 2.5674 6.73096 3.01438C6.73086 3.07902 6.73077 3.14366 6.73067 3.21027C6.73052 3.38898 6.73086 3.56768 6.73141 3.7464C6.73189 3.93938 6.73173 4.13237 6.73164 4.32535C6.73159 4.65948 6.73193 4.9936 6.73255 5.32772C6.73343 5.81081 6.73372 6.29389 6.73386 6.77697C6.7341 7.56079 6.73482 8.3446 6.73586 9.12842C6.73686 9.88972 6.73764 10.651 6.7381 11.4123C6.73813 11.4593 6.73816 11.5062 6.73819 11.5546C6.73833 11.7901 6.73847 12.0256 6.7386 12.2611C6.73974 14.2142 6.74166 16.1673 6.74411 18.1204C6.82702 18.1206 6.82702 18.1206 6.9116 18.1208C8.25573 18.124 9.59986 18.1282 10.944 18.1333C11.594 18.1358 12.244 18.1379 12.894 18.1394C13.4605 18.1406 14.0269 18.1424 14.5934 18.145C14.8934 18.1463 15.1934 18.1473 15.4934 18.1476C15.7757 18.148 16.058 18.149 16.3403 18.1507C16.444 18.1512 16.5477 18.1514 16.6514 18.1513C16.7928 18.1512 16.9342 18.1521 17.0757 18.1533C17.1168 18.153 17.1579 18.1528 17.2003 18.1525C17.516 18.1568 17.6827 18.2429 17.914 18.4485C18.0564 18.6113 18.0713 18.7505 18.0739 18.9587C18.0747 19.0064 18.0754 19.054 18.0761 19.1031C18.077 19.1803 18.077 19.1803 18.0779 19.259C18.0797 19.3684 18.0815 19.4778 18.0833 19.5871C18.0859 19.7592 18.0883 19.9313 18.0905 20.1034C18.0927 20.2697 18.0955 20.436 18.0984 20.6023C18.0991 20.6784 18.0991 20.6784 18.0998 20.7561C18.1098 21.2903 18.1808 21.7641 18.5566 22.1673C18.875 22.4104 19.201 22.4865 19.5978 22.4666C19.9833 22.405 20.2676 22.2527 20.498 21.9349C20.7911 21.4816 20.7599 20.9307 20.7584 20.4128C20.7585 20.3352 20.7587 20.2575 20.759 20.1798C20.7596 19.9674 20.7594 19.755 20.7592 19.5425C20.7591 19.313 20.7596 19.0836 20.76 18.8541C20.7607 18.4049 20.7608 17.9557 20.7606 17.5066C20.7605 17.1414 20.7606 16.7763 20.7609 16.4112C20.7609 16.3332 20.7609 16.3332 20.761 16.2536C20.761 16.148 20.7611 16.0423 20.7612 15.9367C20.7618 14.9464 20.7616 13.9562 20.7613 12.966C20.761 12.0603 20.7616 11.1547 20.7627 10.249C20.7637 9.31865 20.7642 8.38827 20.764 7.45789C20.7639 6.93573 20.764 6.41357 20.7648 5.89141C20.7654 5.44697 20.7655 5.00254 20.7649 4.5581C20.7645 4.33143 20.7645 4.10476 20.7651 3.87808C20.7657 3.67042 20.7656 3.46277 20.7648 3.25511C20.7646 3.14475 20.7652 3.03439 20.7658 2.92403C20.7655 2.32237 20.7655 2.32237 20.5103 1.79195C20.1827 1.48991 19.7811 1.47928 19.3613 1.48116C19.3113 1.48095 19.2613 1.48074 19.2098 1.48052C19.0428 1.47996 18.8759 1.48017 18.7089 1.48039C18.589 1.48015 18.4691 1.47987 18.3491 1.47954C18.0237 1.47881 17.6983 1.47878 17.3729 1.47892C17.1011 1.47898 16.8293 1.47871 16.5575 1.47845C15.8795 1.47781 15.2015 1.47785 14.5235 1.47821C13.9354 1.47849 13.3473 1.47787 12.7592 1.47683C12.1547 1.47577 11.5501 1.47534 10.9455 1.47553C10.6064 1.47563 10.2672 1.47548 9.9281 1.47472C9.60913 1.47403 9.29017 1.47414 8.97119 1.47485C8.85429 1.47498 8.73738 1.47483 8.62048 1.47438C8.46057 1.47381 8.30069 1.47425 8.14078 1.47495C8.09481 1.47454 8.04884 1.47414 8.00148 1.47372C7.63241 1.47708 7.22698 1.52335 6.96628 1.80987ZM3.24411 19.8704C3.22212 21.0258 3.22212 21.0258 3.7363 22.0032C4.43608 22.5754 5.27853 22.511 6.13169 22.5078C6.24654 22.5078 6.36139 22.5078 6.47624 22.5079C6.78658 22.5079 7.09692 22.5073 7.40726 22.5065C7.73213 22.5058 8.05699 22.5058 8.38185 22.5056C8.99639 22.5053 9.61091 22.5044 10.2254 22.5033C10.9253 22.5021 11.6252 22.5015 12.3251 22.5009C13.7643 22.4998 15.2034 22.4979 16.6425 22.4954C16.5343 22.1164 16.5343 22.1164 16.4238 21.7298C16.4057 21.1162 16.3877 20.5026 16.3691 19.8704C12.0379 19.8704 7.70661 19.8704 3.24411 19.8704Z" fill="black"/>
<path d="M9.96094 11.9757C10.0099 11.9754 10.0589 11.9751 10.1093 11.9748C10.2708 11.9739 10.4323 11.9745 10.5938 11.9751C10.7062 11.975 10.8186 11.9748 10.931 11.9746C11.1665 11.9743 11.402 11.9747 11.6375 11.9756C11.9392 11.9766 12.2408 11.976 12.5425 11.9749C12.7746 11.9742 13.0067 11.9744 13.2388 11.9749C13.3501 11.975 13.4613 11.9749 13.5726 11.9745C13.7281 11.974 13.8835 11.9747 14.0391 11.9757C14.1079 11.9752 14.1079 11.9752 14.1781 11.9746C14.445 11.9779 14.6016 12.0077 14.8125 12.1875C14.9826 12.3665 15.0145 12.5101 15.0234 12.75C15.0145 12.9899 14.9826 13.1335 14.8125 13.3125C14.5609 13.5269 14.3545 13.5269 14.0391 13.5243C13.9901 13.5246 13.9411 13.5249 13.8907 13.5253C13.7292 13.5261 13.5677 13.5255 13.4062 13.5249C13.2938 13.525 13.1814 13.5252 13.069 13.5255C12.8335 13.5257 12.598 13.5253 12.3625 13.5245C12.0608 13.5234 11.7592 13.524 11.4575 13.5251C11.2254 13.5258 10.9933 13.5256 10.7612 13.5251C10.6499 13.525 10.5387 13.5251 10.4274 13.5256C10.2719 13.526 10.1165 13.5253 9.96094 13.5243C9.89211 13.5248 9.89211 13.5248 9.82189 13.5254C9.55498 13.5221 9.39845 13.4923 9.1875 13.3125C9.01742 13.1335 8.98547 12.9899 8.97656 12.75C8.98547 12.5101 9.01742 12.3665 9.1875 12.1875C9.43909 11.9731 9.64552 11.9731 9.96094 11.9757Z" fill="black"/>
<path d="M9.96094 8.97575C10.0099 8.97542 10.0589 8.97509 10.1093 8.97475C10.2708 8.97393 10.4323 8.97447 10.5938 8.97511C10.7062 8.97498 10.8186 8.9748 10.931 8.97456C11.1665 8.97429 11.402 8.97469 11.6375 8.97556C11.9392 8.97663 12.2408 8.97602 12.5425 8.97489C12.7746 8.97422 13.0067 8.97443 13.2388 8.97492C13.3501 8.97504 13.4613 8.97489 13.5726 8.97445C13.7281 8.97398 13.8835 8.9747 14.0391 8.97575C14.1079 8.97518 14.1079 8.97518 14.1781 8.9746C14.445 8.97791 14.6016 9.00774 14.8125 9.18751C14.9826 9.36654 15.0145 9.51014 15.0234 9.75001C15.0145 9.98988 14.9826 10.1335 14.8125 10.3125C14.5609 10.5269 14.3545 10.5269 14.0391 10.5243C13.9901 10.5246 13.9411 10.5249 13.8907 10.5253C13.7292 10.5261 13.5677 10.5255 13.4062 10.5249C13.2938 10.525 13.1814 10.5252 13.069 10.5255C12.8335 10.5257 12.598 10.5253 12.3625 10.5245C12.0608 10.5234 11.7592 10.524 11.4575 10.5251C11.2254 10.5258 10.9933 10.5256 10.7612 10.5251C10.6499 10.525 10.5387 10.5251 10.4274 10.5256C10.2719 10.526 10.1165 10.5253 9.96094 10.5243C9.89211 10.5248 9.89211 10.5248 9.82189 10.5254C9.55498 10.5221 9.39845 10.4923 9.1875 10.3125C9.01742 10.1335 8.98547 9.98988 8.97656 9.75001C8.98547 9.51014 9.01742 9.36654 9.1875 9.18751C9.43909 8.9731 9.64552 8.97314 9.96094 8.97575Z" fill="black"/>
<path d="M9.96094 5.97575C10.0099 5.97542 10.0589 5.97509 10.1093 5.97475C10.2708 5.97393 10.4323 5.97447 10.5938 5.97511C10.7062 5.97498 10.8186 5.9748 10.931 5.97456C11.1665 5.97429 11.402 5.97469 11.6375 5.97556C11.9392 5.97663 12.2408 5.97602 12.5425 5.97489C12.7746 5.97422 13.0067 5.97443 13.2388 5.97492C13.3501 5.97504 13.4613 5.97489 13.5726 5.97445C13.7281 5.97398 13.8835 5.9747 14.0391 5.97575C14.1079 5.97518 14.1079 5.97518 14.1781 5.9746C14.445 5.97791 14.6016 6.00774 14.8125 6.18751C14.9826 6.36654 15.0145 6.51014 15.0234 6.75001C15.0145 6.98988 14.9826 7.13348 14.8125 7.31251C14.5609 7.52692 14.3545 7.52688 14.0391 7.52427C13.9901 7.5246 13.9411 7.52493 13.8907 7.52527C13.7292 7.52609 13.5677 7.52555 13.4062 7.52491C13.2938 7.52504 13.1814 7.52522 13.069 7.52545C12.8335 7.52573 12.598 7.52533 12.3625 7.52445C12.0608 7.52339 11.7592 7.524 11.4575 7.52512C11.2254 7.5258 10.9933 7.52559 10.7612 7.5251C10.6499 7.52497 10.5387 7.52513 10.4274 7.52556C10.2719 7.52604 10.1165 7.52531 9.96094 7.52427C9.89211 7.52484 9.89211 7.52484 9.82189 7.52542C9.55498 7.52211 9.39845 7.49228 9.1875 7.31251C9.01742 7.13348 8.98547 6.98988 8.97656 6.75001C8.98547 6.51014 9.01742 6.36654 9.1875 6.18751C9.43909 5.9731 9.64552 5.97314 9.96094 5.97575Z" fill="black"/>
<path d="M16.875 11.9766C16.934 11.9758 16.9929 11.9751 17.0537 11.9744C17.5869 11.9766 17.5869 11.9766 17.8125 12.1875C17.9826 12.3665 18.0145 12.5101 18.0234 12.75C18.0121 13.0557 17.9285 13.204 17.7059 13.4121C17.4632 13.5696 17.1526 13.5268 16.875 13.5234C16.816 13.5242 16.7571 13.5249 16.6963 13.5256C16.1631 13.5234 16.1631 13.5234 15.9375 13.3125C15.7674 13.1335 15.7355 12.9899 15.7266 12.75C15.7379 12.4443 15.8215 12.296 16.0441 12.0879C16.2868 11.9304 16.5974 11.9731 16.875 11.9766Z" fill="black"/>
<path d="M16.875 8.97655C16.934 8.97583 16.9929 8.9751 17.0537 8.97435C17.5869 8.97661 17.5869 8.97661 17.8125 9.18749C17.9826 9.36652 18.0145 9.51012 18.0234 9.74999C18.0121 10.0557 17.9285 10.204 17.7059 10.4121C17.4632 10.5696 17.1526 10.5268 16.875 10.5234C16.816 10.5242 16.7571 10.5249 16.6963 10.5256C16.1631 10.5234 16.1631 10.5234 15.9375 10.3125C15.7674 10.1335 15.7355 9.98986 15.7266 9.74999C15.7379 9.44427 15.8215 9.29595 16.0441 9.08788C16.2868 8.93043 16.5974 8.97314 16.875 8.97655Z" fill="black"/>
<path d="M16.875 5.97655C16.934 5.97583 16.9929 5.9751 17.0537 5.97435C17.5869 5.97661 17.5869 5.97661 17.8125 6.18749C17.9826 6.36652 18.0145 6.51012 18.0234 6.74999C18.0121 7.0557 17.9285 7.20402 17.7059 7.4121C17.4632 7.56955 17.1526 7.52684 16.875 7.52343C16.816 7.52415 16.7571 7.52488 16.6963 7.52562C16.1631 7.52336 16.1631 7.52336 15.9375 7.31249C15.7674 7.13346 15.7355 6.98986 15.7266 6.74999C15.7379 6.44427 15.8215 6.29595 16.0441 6.08788C16.2868 5.93043 16.5974 5.97314 16.875 5.97655Z" fill="black"/>
</g>
<defs>
<clipPath id="clip0_2685_6141">
<rect width="24" height="24" fill="white"/>
</clipPath>
</defs>
</svg>
