<svg width="24" height="24" viewBox="0 0 24 24" fill="none" xmlns="http://www.w3.org/2000/svg">
<path d="M8.84696 1.32435C9.07297 1.32272 9.29899 1.32108 9.53185 1.3194C9.77735 1.31945 10.0229 1.31961 10.2684 1.31987C10.5218 1.31921 10.7752 1.31846 11.0286 1.31765C11.5592 1.31637 12.0897 1.31642 12.6203 1.31732C13.298 1.31831 13.9756 1.31541 14.6533 1.31143C15.1765 1.3089 15.6998 1.30876 16.2231 1.30929C16.4728 1.3092 16.7225 1.30831 16.9723 1.30658C19.5297 1.29102 19.5297 1.29102 20.4001 1.88572C21.1039 2.86769 21.1843 3.62189 21.1718 4.81076C21.1732 5.06437 21.1732 5.06437 21.1746 5.3231C21.1767 5.87937 21.1739 6.43549 21.1708 6.99175C21.1708 7.3796 21.1711 7.76746 21.1716 8.15531C21.1718 8.96705 21.1697 9.77873 21.1657 10.5905C21.1609 11.6302 21.1614 12.6698 21.1635 13.7096C21.1647 14.5101 21.1634 15.3105 21.1613 16.111C21.1605 16.4944 21.1604 16.8777 21.1611 17.2611C21.1616 17.797 21.1588 18.3327 21.155 18.8686C21.1558 19.0265 21.1566 19.1844 21.1574 19.3471C21.1458 20.3483 21.0168 21.1118 20.3143 21.8819C19.4417 22.5614 18.8231 22.6545 17.7488 22.6562C17.6188 22.6571 17.4889 22.6579 17.355 22.6588C16.9247 22.6613 16.4944 22.6625 16.0641 22.6634C15.7645 22.6644 15.4649 22.6654 15.1653 22.6664C14.5365 22.6682 13.9078 22.6692 13.279 22.6698C12.4757 22.6707 11.6724 22.6748 10.8691 22.6797C10.2498 22.6829 9.63045 22.6838 9.01112 22.684C8.71512 22.6846 8.41912 22.6859 8.12313 22.6882C7.70755 22.6911 7.29208 22.6908 6.87649 22.6897C6.75559 22.6913 6.6347 22.6928 6.51014 22.6945C5.56782 22.6867 4.57959 22.5224 3.85133 21.8836C3.00161 20.9144 2.8638 20.0563 2.89291 18.8036C2.89446 18.6766 2.896 18.5497 2.8976 18.4189C2.90161 18.1078 2.90776 17.7968 2.91434 17.4857C3.02748 17.4857 3.14062 17.4857 3.2572 17.4857C3.2572 17.3726 3.2572 17.2594 3.2572 17.1429C4.16234 17.1429 5.06748 17.1429 6.00005 17.1429C5.99332 16.4966 5.99332 16.4966 5.98645 15.8373C5.97224 14.4128 5.96278 12.9882 5.95564 11.5636C5.95117 10.6999 5.94511 9.83639 5.93539 8.9728C5.92607 8.13915 5.92095 7.30557 5.91873 6.47187C5.91715 6.15405 5.91406 5.83623 5.90943 5.51844C5.90319 5.07271 5.90235 4.62727 5.90275 4.18151C5.89966 4.05056 5.89658 3.9196 5.89341 3.78468C5.89972 3.12784 5.98356 2.67571 6.38113 2.16009C7.17564 1.41609 7.77714 1.32861 8.84696 1.32435Z" fill="url(#paint0_linear_2685_6297)"/>
<path d="M11.9893 12.1393C12.2146 12.1372 12.4399 12.1351 12.672 12.1329C12.8867 12.1326 13.1014 12.1323 13.3226 12.1319C13.5208 12.1312 13.719 12.1305 13.9232 12.1298C14.4001 12.1714 14.4001 12.1714 14.7429 12.5143C14.7001 12.8679 14.7001 12.8679 14.5715 13.2C13.8285 13.5715 12.8269 13.4032 12.0108 13.4036C11.7007 13.4067 11.7007 13.4067 11.3843 13.4099C11.0875 13.4104 11.0875 13.4104 10.7847 13.411C10.5119 13.412 10.5119 13.412 10.2336 13.4131C9.77149 13.3714 9.77149 13.3714 9.2572 13.0286C9.55926 11.6909 10.8023 12.1399 11.9893 12.1393Z" fill="white"/>
<path d="M11.9893 6.1393C12.2146 6.1372 12.4399 6.1351 12.672 6.13294C12.8867 6.13261 13.1014 6.13227 13.3226 6.13193C13.5208 6.13123 13.719 6.13052 13.9232 6.1298C14.4001 6.17144 14.4001 6.17144 14.7429 6.5143C14.7001 6.86787 14.7001 6.86787 14.5715 7.20001C13.8285 7.57153 12.8269 7.40315 12.0108 7.40358C11.7007 7.40673 11.7007 7.40673 11.3843 7.40995C11.0875 7.41044 11.0875 7.41044 10.7847 7.41095C10.5119 7.41201 10.5119 7.41201 10.2336 7.41309C9.77149 7.37144 9.77149 7.37144 9.2572 7.02858C9.55926 5.6909 10.8023 6.13988 11.9893 6.1393Z" fill="white"/>
<path d="M9.42863 9.25714C11.1258 9.25714 12.8229 9.25714 14.5715 9.25714C14.6281 9.48343 14.6846 9.70971 14.7429 9.94286C14.2699 10.4159 13.9899 10.33 13.3286 10.3312C13.0078 10.3319 13.0078 10.3319 12.6804 10.3326C12.3436 10.3306 12.3436 10.3306 12.0001 10.3286C11.7755 10.3299 11.551 10.3312 11.3197 10.3326C11.1058 10.3321 10.8919 10.3317 10.6715 10.3312C10.3758 10.3307 10.3758 10.3307 10.0742 10.3301C9.60006 10.2857 9.60006 10.2857 9.2572 9.94286C9.31377 9.71657 9.37034 9.49028 9.42863 9.25714Z" fill="white"/>
<path d="M16.7893 12.1179C17.3143 12.1714 17.3143 12.1714 17.6357 12.4286C17.6994 12.5134 17.763 12.5983 17.8286 12.6857C17.7154 12.912 17.6023 13.1383 17.4857 13.3714C17.0897 13.3714 16.6937 13.3714 16.2857 13.3714C16.1726 13.0886 16.0594 12.8057 15.9429 12.5143C16.2857 12.1714 16.2857 12.1714 16.7893 12.1179Z" fill="white"/>
<path d="M16.7893 6.11786C17.3143 6.17143 17.3143 6.17143 17.6357 6.42857C17.6994 6.51343 17.763 6.59829 17.8286 6.68572C17.7154 6.912 17.6023 7.13829 17.4857 7.37143C17.0897 7.37143 16.6937 7.37143 16.2857 7.37143C16.1726 7.08857 16.0594 6.80572 15.9429 6.51429C16.2857 6.17143 16.2857 6.17143 16.7893 6.11786Z" fill="white"/>
<path d="M16.9072 9.23572C17.1935 9.24632 17.1935 9.24632 17.4857 9.25715C17.5989 9.48343 17.712 9.70972 17.8286 9.94286C17.4857 10.2857 17.4857 10.2857 16.8643 10.3071C16.6734 10.3001 16.4824 10.293 16.2857 10.2857C16.1726 10.0594 16.0594 9.83315 15.9429 9.6C16.2857 9.25715 16.2857 9.25715 16.9072 9.23572Z" fill="white"/>
<defs>
<linearGradient id="paint0_linear_2685_6297" x1="12.0324" y1="1.30255" x2="12.0324" y2="22.6945" gradientUnits="userSpaceOnUse">
<stop stop-color="#10BE77"/>
<stop offset="1" stop-color="#2196F3"/>
</linearGradient>
</defs>
</svg>
