<svg width="24" height="18" viewBox="0 0 24 18" fill="none" xmlns="http://www.w3.org/2000/svg">
<path fill-rule="evenodd" clip-rule="evenodd" d="M2.14076 9C2.25005 9.18887 2.39494 9.42955 2.57443 9.70747C3.03546 10.4213 3.71819 11.3706 4.60457 12.3161C6.39557 14.2264 8.89957 16 12.0001 16C15.1006 16 17.6046 14.2264 19.3956 12.3161C20.282 11.3706 20.9647 10.4213 21.4257 9.70747C21.6052 9.42955 21.7501 9.18887 21.8594 9C21.7501 8.81113 21.6052 8.57045 21.4257 8.29252C20.9647 7.57869 20.282 6.6294 19.3956 5.68394C17.6046 3.77356 15.1006 2 12.0001 2C8.89957 2 6.39557 3.77356 4.60457 5.68394C3.71819 6.6294 3.03546 7.57869 2.57443 8.29252C2.39494 8.57045 2.25005 8.81113 2.14076 9ZM23.0002 9C23.8946 8.55279 23.8944 8.55245 23.8942 8.55208L23.8926 8.54887L23.8892 8.54204L23.8778 8.51982C23.8683 8.50127 23.8548 8.47531 23.8374 8.44244C23.8026 8.3767 23.7521 8.28323 23.6862 8.16599C23.5544 7.93164 23.3603 7.60152 23.1058 7.20747C22.5981 6.42131 21.8433 5.3706 20.8547 4.31606C18.8957 2.22644 15.8996 0 12.0001 0C8.10055 0 5.10452 2.22644 3.14549 4.31606C2.15685 5.3706 1.40208 6.42131 0.894342 7.20747C0.639855 7.60152 0.445795 7.93164 0.313974 8.16599C0.248025 8.28323 0.197542 8.3767 0.162755 8.44244C0.145358 8.47531 0.131876 8.50127 0.122339 8.51982L0.110991 8.54204L0.10754 8.54887L0.106371 8.55119C0.106187 8.55156 0.105574 8.55279 1.00001 9L0.105574 8.55279C-0.0351912 8.83431 -0.0351912 9.16569 0.105574 9.44721L1.00001 9C0.105574 9.44721 0.10539 9.44685 0.105574 9.44721L0.106371 9.4488L0.10754 9.45113L0.110991 9.45796L0.122339 9.48018C0.131876 9.49873 0.145358 9.52469 0.162755 9.55756C0.197542 9.6233 0.248025 9.71677 0.313974 9.83401C0.445795 10.0684 0.639855 10.3985 0.894342 10.7925C1.40208 11.5787 2.15685 12.6294 3.14549 13.6839C5.10452 15.7736 8.10055 18 12.0001 18C15.8996 18 18.8957 15.7736 20.8547 13.6839C21.8433 12.6294 22.5981 11.5787 23.1058 10.7925C23.3603 10.3985 23.5544 10.0684 23.6862 9.83401C23.7521 9.71677 23.8026 9.6233 23.8374 9.55756C23.8548 9.52469 23.8683 9.49873 23.8778 9.48018L23.8892 9.45796L23.8926 9.45113L23.8938 9.4488C23.894 9.44844 23.8946 9.44721 23.0002 9ZM23.0002 9L23.8946 9.44721C24.0354 9.16569 24.035 8.83361 23.8942 8.55208L23.0002 9ZM12.0001 7.00002C10.8955 7.00002 10.0001 7.89545 10.0001 9.00002C10.0001 10.1046 10.8955 11 12.0001 11C13.1047 11 14.0001 10.1046 14.0001 9.00002C14.0001 7.89545 13.1047 7.00002 12.0001 7.00002ZM8.00007 9.00002C8.00007 6.79088 9.79095 5.00002 12.0001 5.00002C14.2093 5.00002 16.0001 6.79088 16.0001 9.00002C16.0001 11.2092 14.2093 13 12.0001 13C9.79095 13 8.00007 11.2092 8.00007 9.00002Z" fill="black"/>
</svg>
