<svg width="32" height="32" viewBox="0 0 32 32" fill="none" xmlns="http://www.w3.org/2000/svg">
<path d="M22.6875 5.8125H5.8125C4.25781 5.8125 3 7.07031 3 8.625V23.625C3 25.1797 4.25781 26.4375 5.8125 26.4375H22.6875C24.2422 26.4375 25.5 25.1797 25.5 23.625V8.625C25.5 7.07031 24.2422 5.8125 22.6875 5.8125Z" fill="url(#paint0_linear_2871_5103)"/>
<path d="M8.625 3.9375C8.625 3.41797 8.20703 3 7.6875 3C7.16797 3 6.75 3.41797 6.75 3.9375V7.6875C6.75 8.20703 7.16797 8.625 7.6875 8.625C8.20703 8.625 8.625 8.20703 8.625 7.6875V3.9375Z" fill="#10BE77"/>
<path d="M8.625 3.9375C8.625 3.41797 8.20703 3 7.6875 3C7.16797 3 6.75 3.41797 6.75 3.9375V7.6875C6.75 8.20703 7.16797 8.625 7.6875 8.625C8.20703 8.625 8.625 8.20703 8.625 7.6875V3.9375Z" fill="white" fill-opacity="0.2"/>
<path d="M21.75 3.9375C21.75 3.41797 21.332 3 20.8125 3C20.293 3 19.875 3.41797 19.875 3.9375V7.6875C19.875 8.20703 20.293 8.625 20.8125 8.625C21.332 8.625 21.75 8.20703 21.75 7.6875V3.9375Z" fill="#10BE77"/>
<path d="M21.75 3.9375C21.75 3.41797 21.332 3 20.8125 3C20.293 3 19.875 3.41797 19.875 3.9375V7.6875C19.875 8.20703 20.293 8.625 20.8125 8.625C21.332 8.625 21.75 8.20703 21.75 7.6875V3.9375Z" fill="white" fill-opacity="0.2"/>
<path d="M9.09375 13.3125H7.21875C6.96094 13.3125 6.75 13.5234 6.75 13.7812V15.6562C6.75 15.9141 6.96094 16.125 7.21875 16.125H9.09375C9.35156 16.125 9.5625 15.9141 9.5625 15.6562V13.7812C9.5625 13.5234 9.35156 13.3125 9.09375 13.3125Z" fill="white"/>
<path d="M13.7812 13.3125H11.9062C11.6484 13.3125 11.4375 13.5234 11.4375 13.7812V15.6562C11.4375 15.9141 11.6484 16.125 11.9062 16.125H13.7812C14.0391 16.125 14.25 15.9141 14.25 15.6562V13.7812C14.25 13.5234 14.0391 13.3125 13.7812 13.3125Z" fill="white"/>
<path d="M18.4688 13.3125H16.5938C16.3359 13.3125 16.125 13.5234 16.125 13.7812V15.6562C16.125 15.9141 16.3359 16.125 16.5938 16.125H18.4688C18.7266 16.125 18.9375 15.9141 18.9375 15.6562V13.7812C18.9375 13.5234 18.7266 13.3125 18.4688 13.3125Z" fill="white"/>
<path d="M9.09375 18H7.21875C6.96094 18 6.75 18.2109 6.75 18.4688V20.3438C6.75 20.6016 6.96094 20.8125 7.21875 20.8125H9.09375C9.35156 20.8125 9.5625 20.6016 9.5625 20.3438V18.4688C9.5625 18.2109 9.35156 18 9.09375 18Z" fill="white"/>
<path d="M13.7812 18H11.9062C11.6484 18 11.4375 18.2109 11.4375 18.4688V20.3438C11.4375 20.6016 11.6484 20.8125 11.9062 20.8125H13.7812C14.0391 20.8125 14.25 20.6016 14.25 20.3438V18.4688C14.25 18.2109 14.0391 18 13.7812 18Z" fill="white"/>
<path d="M18.4688 18H16.5938C16.3359 18 16.125 18.2109 16.125 18.4688V20.3438C16.125 20.6016 16.3359 20.8125 16.5938 20.8125H18.4688C18.7266 20.8125 18.9375 20.6016 18.9375 20.3438V18.4688C18.9375 18.2109 18.7266 18 18.4688 18Z" fill="white"/>
<path d="M7.21875 13.5273H9.09375C9.23437 13.5273 9.34765 13.6406 9.34765 13.7812V15.6562C9.34765 15.7969 9.23437 15.9102 9.09375 15.9102H7.21875C7.07812 15.9102 6.96484 15.7969 6.96484 15.6562V13.7812C6.96484 13.6406 7.07812 13.5273 7.21875 13.5273Z" fill="#3AE0C5" stroke="white" stroke-width="0.428571"/>
<path d="M23.625 20.0898C26.0938 20.0898 28.0977 22.0938 28.0977 24.5625C28.0977 27.0312 26.0938 29.0352 23.625 29.0352C21.1562 29.0352 19.1523 27.0312 19.1523 24.5625C19.1523 22.0938 21.1562 20.0898 23.625 20.0898Z" fill="#3AE0C5"/>
<path d="M23.625 20.0898C26.0937 20.0898 28.0976 22.0937 28.0976 24.5625C28.0976 27.0312 26.0937 29.0351 23.625 29.0351C21.1562 29.0351 19.1523 27.0312 19.1523 24.5625C19.1523 22.0937 21.1562 20.0898 23.625 20.0898Z" fill="white" fill-opacity="0.2" stroke="white" stroke-width="0.428571"/>
<path d="M21.3164 26.0352V22.918H22.5469C22.7812 22.918 22.9844 22.9609 23.1484 23.0469C23.3164 23.1289 23.4453 23.2461 23.5312 23.3984C23.6211 23.5508 23.6641 23.7305 23.6641 23.9375C23.6641 24.1445 23.6211 24.3203 23.5312 24.4727C23.4414 24.6211 23.3125 24.7344 23.1406 24.8125C22.9727 24.8906 22.7695 24.9297 22.5312 24.9297H21.707V24.4023H22.4258C22.5508 24.4023 22.6563 24.3828 22.7383 24.3477C22.8203 24.3164 22.8828 24.2617 22.9219 24.1953C22.9648 24.125 22.9844 24.0391 22.9844 23.9375C22.9844 23.832 22.9648 23.7461 22.9219 23.6758C22.8828 23.6055 22.8203 23.5508 22.7344 23.5156C22.6523 23.4766 22.5469 23.457 22.4219 23.457H21.9766V26.0352H21.3164ZM23 24.6172L23.7773 26.0352H23.0469L22.2891 24.6172H23ZM24.1172 26.9141V23.6992H24.7578V24.0898H24.7852C24.8164 24.0273 24.8555 23.9648 24.9102 23.8984C24.9648 23.832 25.0352 23.7773 25.1211 23.7344C25.2109 23.6914 25.3203 23.668 25.4531 23.668C25.6211 23.668 25.7773 23.7109 25.9219 23.8008C26.0664 23.8906 26.1836 24.0234 26.2695 24.2031C26.3555 24.3789 26.3984 24.6016 26.3984 24.8711C26.3984 25.1289 26.3555 25.3516 26.2734 25.5313C26.1875 25.7109 26.0742 25.8438 25.9297 25.9375C25.7891 26.0273 25.6289 26.0742 25.4492 26.0742C25.3242 26.0742 25.2187 26.0547 25.1289 26.0117C25.043 25.9688 24.9688 25.918 24.9141 25.8555C24.8594 25.7891 24.8164 25.7266 24.7852 25.6602H24.7656V26.9141H24.1172ZM24.7539 24.8672C24.7539 25.0078 24.7734 25.1289 24.8125 25.2305C24.8477 25.3359 24.9062 25.4141 24.9766 25.4727C25.0508 25.5313 25.1406 25.5586 25.2461 25.5586C25.3516 25.5586 25.4375 25.5273 25.5117 25.4727C25.5859 25.4141 25.6406 25.332 25.6797 25.2266C25.7148 25.125 25.7344 25.0039 25.7344 24.8672C25.7344 24.7305 25.7187 24.6133 25.6797 24.5117C25.6406 24.4102 25.5859 24.3281 25.5156 24.2695C25.4414 24.2109 25.3516 24.1836 25.2461 24.1836C25.1406 24.1836 25.0508 24.2109 24.9766 24.2656C24.9062 24.3242 24.8477 24.4023 24.8125 24.5039C24.7734 24.6055 24.7539 24.7266 24.7539 24.8672Z" fill="white"/>
<defs>
<linearGradient id="paint0_linear_2871_5103" x1="14.25" y1="5.81249" x2="14.25" y2="26.4375" gradientUnits="userSpaceOnUse">
<stop stop-color="#10BE77"/>
<stop offset="1" stop-color="#2196F3"/>
</linearGradient>
</defs>
</svg>
