<svg width="70" height="70" viewBox="0 0 70 70" fill="none" xmlns="http://www.w3.org/2000/svg">
<path d="M54.6875 13.125H15.3125C11.6881 13.125 8.75 16.0631 8.75 19.6875V54.6875C8.75 58.3119 11.6881 61.25 15.3125 61.25H54.6875C58.3119 61.25 61.25 58.3119 61.25 54.6875V19.6875C61.25 16.0631 58.3119 13.125 54.6875 13.125Z" fill="url(#paint0_linear_2719_7303)"/>
<path d="M59.0625 13.125H10.9375C9.72938 13.125 8.75 14.1044 8.75 15.3125V24.0625C8.75 25.2706 9.72938 26.25 10.9375 26.25H59.0625C60.2706 26.25 61.25 25.2706 61.25 24.0625V15.3125C61.25 14.1044 60.2706 13.125 59.0625 13.125Z" fill="#3AE0C5" fill-opacity="0.3"/>
<path d="M21.875 8.75C21.875 7.54188 20.8956 6.5625 19.6875 6.5625C18.4794 6.5625 17.5 7.54188 17.5 8.75V17.5C17.5 18.7081 18.4794 19.6875 19.6875 19.6875C20.8956 19.6875 21.875 18.7081 21.875 17.5V8.75Z" fill="#10BE77"/>
<path d="M21.875 8.75C21.875 7.54188 20.8956 6.5625 19.6875 6.5625C18.4794 6.5625 17.5 7.54188 17.5 8.75V17.5C17.5 18.7081 18.4794 19.6875 19.6875 19.6875C20.8956 19.6875 21.875 18.7081 21.875 17.5V8.75Z" fill="white" fill-opacity="0.2"/>
<path d="M52.5 8.75C52.5 7.54188 51.5206 6.5625 50.3125 6.5625C49.1044 6.5625 48.125 7.54188 48.125 8.75V17.5C48.125 18.7081 49.1044 19.6875 50.3125 19.6875C51.5206 19.6875 52.5 18.7081 52.5 17.5V8.75Z" fill="#10BE77"/>
<path d="M52.5 8.75C52.5 7.54188 51.5206 6.5625 50.3125 6.5625C49.1044 6.5625 48.125 7.54188 48.125 8.75V17.5C48.125 18.7081 49.1044 19.6875 50.3125 19.6875C51.5206 19.6875 52.5 18.7081 52.5 17.5V8.75Z" fill="white" fill-opacity="0.2"/>
<path d="M22.9688 30.625H18.5938C17.9897 30.625 17.5 31.1147 17.5 31.7188V36.0938C17.5 36.6978 17.9897 37.1875 18.5938 37.1875H22.9688C23.5728 37.1875 24.0625 36.6978 24.0625 36.0938V31.7188C24.0625 31.1147 23.5728 30.625 22.9688 30.625Z" fill="white"/>
<path d="M33.9062 30.625H29.5312C28.9272 30.625 28.4375 31.1147 28.4375 31.7188V36.0938C28.4375 36.6978 28.9272 37.1875 29.5312 37.1875H33.9062C34.5103 37.1875 35 36.6978 35 36.0938V31.7188C35 31.1147 34.5103 30.625 33.9062 30.625Z" fill="white"/>
<path d="M44.8438 30.625H40.4688C39.8647 30.625 39.375 31.1147 39.375 31.7188V36.0938C39.375 36.6978 39.8647 37.1875 40.4688 37.1875H44.8438C45.4478 37.1875 45.9375 36.6978 45.9375 36.0938V31.7188C45.9375 31.1147 45.4478 30.625 44.8438 30.625Z" fill="white"/>
<path d="M22.9688 41.5625H18.5938C17.9897 41.5625 17.5 42.0522 17.5 42.6562V47.0312C17.5 47.6353 17.9897 48.125 18.5938 48.125H22.9688C23.5728 48.125 24.0625 47.6353 24.0625 47.0312V42.6562C24.0625 42.0522 23.5728 41.5625 22.9688 41.5625Z" fill="white"/>
<path d="M33.9062 41.5625H29.5312C28.9272 41.5625 28.4375 42.0522 28.4375 42.6562V47.0312C28.4375 47.6353 28.9272 48.125 29.5312 48.125H33.9062C34.5103 48.125 35 47.6353 35 47.0312V42.6562C35 42.0522 34.5103 41.5625 33.9062 41.5625Z" fill="white"/>
<path d="M44.8438 41.5625H40.4688C39.8647 41.5625 39.375 42.0522 39.375 42.6562V47.0312C39.375 47.6353 39.8647 48.125 40.4688 48.125H44.8438C45.4478 48.125 45.9375 47.6353 45.9375 47.0312V42.6562C45.9375 42.0522 45.4478 41.5625 44.8438 41.5625Z" fill="white"/>
<path d="M18.5938 31.125H22.9688C23.2967 31.125 23.5625 31.3908 23.5625 31.7188V36.0938C23.5625 36.4217 23.2967 36.6875 22.9688 36.6875H18.5938C18.2658 36.6875 18 36.4217 18 36.0938V31.7188C18 31.3908 18.2658 31.125 18.5938 31.125Z" fill="#3AE0C5" stroke="white"/>
<path d="M56.875 46.4375C62.6395 46.4375 67.3125 51.1105 67.3125 56.875C67.3125 62.6395 62.6395 67.3125 56.875 67.3125C51.1105 67.3125 46.4375 62.6395 46.4375 56.875C46.4375 51.1105 51.1105 46.4375 56.875 46.4375Z" fill="#3AE0C5"/>
<path d="M56.875 46.4375C62.6395 46.4375 67.3125 51.1105 67.3125 56.875C67.3125 62.6395 62.6395 67.3125 56.875 67.3125C51.1105 67.3125 46.4375 62.6395 46.4375 56.875C46.4375 51.1105 51.1105 46.4375 56.875 46.4375Z" fill="white" fill-opacity="0.2"/>
<path d="M56.875 46.4375C62.6395 46.4375 67.3125 51.1105 67.3125 56.875C67.3125 62.6395 62.6395 67.3125 56.875 67.3125C51.1105 67.3125 46.4375 62.6395 46.4375 56.875C46.4375 51.1105 51.1105 46.4375 56.875 46.4375Z" stroke="white"/>
<path d="M51.4915 60.3125V53.0398H54.3608C54.91 53.0398 55.3788 53.138 55.767 53.3345C56.1577 53.5286 56.4548 53.8045 56.6584 54.1619C56.8643 54.517 56.9673 54.9349 56.9673 55.4155C56.9673 55.8984 56.8632 56.3139 56.6548 56.6619C56.4465 57.0076 56.1446 57.2727 55.7493 57.4574C55.3563 57.642 54.8804 57.7344 54.3217 57.7344H52.4006V56.4986H54.0732C54.3667 56.4986 54.6106 56.4583 54.8047 56.3778C54.9988 56.2973 55.1432 56.1766 55.2379 56.0156C55.335 55.8546 55.3835 55.6546 55.3835 55.4155C55.3835 55.174 55.335 54.9704 55.2379 54.8047C55.1432 54.639 54.9976 54.5135 54.8011 54.4283C54.607 54.3407 54.362 54.2969 54.0661 54.2969H53.0291V60.3125H51.4915ZM55.419 57.0028L57.2266 60.3125H55.5291L53.7607 57.0028H55.419ZM58.0256 62.358V54.858H59.517V55.7741H59.5845C59.6508 55.6274 59.7467 55.4782 59.8722 55.3267C60 55.1728 60.1657 55.045 60.3693 54.9432C60.5753 54.839 60.831 54.7869 61.1364 54.7869C61.5341 54.7869 61.901 54.8911 62.2372 55.0994C62.5734 55.3054 62.8421 55.6167 63.0433 56.0334C63.2446 56.4477 63.3452 56.9673 63.3452 57.5923C63.3452 58.2008 63.2469 58.7145 63.0504 59.1335C62.8563 59.5502 62.5911 59.8662 62.255 60.0817C61.9212 60.2947 61.5471 60.4013 61.1328 60.4013C60.8393 60.4013 60.5895 60.3527 60.3835 60.2557C60.1799 60.1586 60.013 60.0367 59.8828 59.8899C59.7526 59.7408 59.6532 59.5904 59.5845 59.4389H59.5384V62.358H58.0256ZM59.5064 57.5852C59.5064 57.9096 59.5514 58.1925 59.6413 58.4339C59.7313 58.6754 59.8615 58.8636 60.032 58.9986C60.2024 59.1312 60.4096 59.1974 60.6534 59.1974C60.8996 59.1974 61.108 59.13 61.2784 58.995C61.4489 58.8577 61.5779 58.6683 61.6655 58.4268C61.7554 58.183 61.8004 57.9025 61.8004 57.5852C61.8004 57.2704 61.7566 56.9934 61.669 56.7543C61.5814 56.5152 61.4524 56.3281 61.282 56.1932C61.1115 56.0582 60.902 55.9908 60.6534 55.9908C60.4072 55.9908 60.1989 56.0559 60.0284 56.1861C59.8603 56.3163 59.7313 56.5009 59.6413 56.7401C59.5514 56.9792 59.5064 57.2609 59.5064 57.5852Z" fill="white"/>
<defs>
<linearGradient id="paint0_linear_2719_7303" x1="35" y1="13.125" x2="35" y2="61.25" gradientUnits="userSpaceOnUse">
<stop stop-color="#10BE77"/>
<stop offset="1" stop-color="#2196F3"/>
</linearGradient>
</defs>
</svg>
