<svg width="32" height="32" viewBox="0 0 32 32" fill="none" xmlns="http://www.w3.org/2000/svg">
<path d="M12.5302 3.33698C9.58017 4.62544 9.24904 4.86515 9.51996 5.40451C9.70058 5.70415 9.82099 6.42329 9.82099 6.99261C9.82099 8.43088 10.3327 8.37095 12.2894 6.72293C13.1624 5.97383 14.4568 4.92508 15.1792 4.41569C15.8716 3.87634 16.4435 3.36695 16.4435 3.21713C16.4435 2.85756 13.4032 2.97741 12.5302 3.33698Z" fill="#163C8E"/>
<path d="M17.2865 4.08604C16.4738 4.2059 16.0824 4.77521 16.7748 4.77521C16.9855 4.77521 17.7983 5.3745 18.5809 6.1236C19.3636 6.8727 20.1463 7.47198 20.2968 7.47198C20.5075 7.47198 21.0192 4.47557 20.8386 4.26582C20.7182 4.116 17.9488 3.96618 17.2865 4.08604Z" fill="#358131"/>
<path d="M23.4273 4.17595C22.1329 4.7153 21.862 6.90268 22.9758 8.13121C23.6681 8.88031 25.5947 8.85035 26.3774 8.07128C27.1299 7.32218 27.16 5.67415 26.4677 4.80519C25.8355 4.08605 24.4207 3.75645 23.4273 4.17595Z" fill="#358131"/>
<path d="M4.13174 5.55433C2.77713 7.26228 3.89092 9.56952 6.02819 9.56952C7.23228 9.56952 8.61699 8.19117 8.61699 6.9926C8.61699 4.98501 5.39604 3.96623 4.13174 5.55433Z" fill="#163C8E"/>
<path d="M26.3772 9.86913C26.1364 10.0189 25.4139 10.1688 24.7818 10.1688C23.7282 10.1688 23.6379 10.2287 23.8185 10.828C23.9389 11.2175 24.6914 12.1764 25.4741 13.0154C26.2869 13.8244 27.2803 15.0529 27.7017 15.6822L28.4844 16.8508V14.9331C28.4844 12.5659 27.1598 9.35974 26.3772 9.86913Z" fill="#358131"/>
<path d="M17.0455 10.5283C17.0455 10.9778 16.7445 11.0677 14.9384 11.0677C12.9215 11.0677 12.8312 11.0976 12.6506 11.8467C12.5001 12.476 12.6506 12.8056 13.4032 13.5547L14.3363 14.5135V13.5247C14.3363 12.5958 14.3664 12.5659 15.6909 12.5659C16.4435 12.5659 17.0455 12.6857 17.0455 12.8655C17.0455 13.3749 17.467 13.1951 18.0088 12.446C18.4905 11.7868 18.4604 11.7269 17.7981 10.8879C17.2262 10.2287 17.0756 10.1388 17.0455 10.5283Z" fill="#358131"/>
<path d="M3.74057 11.3673C3.46965 12.0865 3.62016 14.8731 3.95128 15.2027C4.04159 15.2926 4.31251 15.0829 4.58343 14.7233C4.82425 14.3338 5.57681 13.4349 6.23907 12.6858C6.87122 11.9367 7.41306 11.2175 7.41306 11.0677C7.41306 10.9478 6.6605 10.7681 5.72733 10.7081C4.162 10.6182 4.01149 10.6782 3.74057 11.3673Z" fill="#163C8E"/>
<path d="M10.6942 13.6446C10.2427 14.2139 10.2728 17.7497 10.7544 18.6186C11.1457 19.3677 12.0488 19.2778 13.0422 18.4089L13.885 17.6897L13.0422 17.6598C12.1692 17.6598 12.1692 17.6598 12.2896 15.8919C12.41 13.5847 11.6575 12.506 10.6942 13.6446Z" fill="#358131"/>
<path d="M18.3101 13.6446C17.407 14.2738 17.4672 14.6634 18.5509 14.6634C19.4238 14.6634 19.4539 14.6933 19.4539 16.1616C19.4539 17.1504 19.3335 17.6598 19.0927 17.6598C18.882 17.6598 19.0325 17.9594 19.3937 18.319L20.056 18.9782L20.7182 18.319C21.0795 17.9594 21.23 17.6598 21.0193 17.6598C20.7785 17.6598 20.658 16.9706 20.658 15.4125V13.1652H19.8152C19.3636 13.1652 18.6713 13.3749 18.3101 13.6446Z" fill="#358131"/>
<path d="M3.018 17.3602C3.13841 20.2967 4.07159 22.6638 4.97466 22.3042C5.24558 22.1844 5.96804 22.0346 6.60019 21.9447C7.20224 21.8548 7.71398 21.705 7.71398 21.645C7.71398 21.1956 6.7808 19.9371 5.12517 18.1992C4.10169 17.0905 3.16852 15.8919 3.07821 15.5024C2.9879 15.1129 2.9879 15.9519 3.018 17.3602Z" fill="#358131"/>
<path d="M26.9795 17.0905C26.9795 17.3302 26.4978 18.0194 25.8958 18.5887C25.0228 19.4277 23.9692 20.9259 23.9692 21.3154C23.9692 21.3753 24.782 21.4353 25.7754 21.4353C27.4611 21.4952 27.6116 21.4353 27.7621 20.7461C28.0331 19.7573 27.732 17.3901 27.3106 16.9706C27.0698 16.7309 26.9795 16.7609 26.9795 17.0905Z" fill="#163C8E"/>
<path d="M17.0456 18.6186V19.7573H15.691C14.6073 19.7573 14.3364 19.6674 14.3364 19.2179C14.3364 18.8284 14.1558 18.9183 13.6139 19.6075C12.9818 20.3566 12.9517 20.5663 13.2828 20.9558C13.6139 21.3154 14.1859 21.3753 16.0522 21.2555L18.4002 21.1057L18.4905 20.2067C18.5507 19.6075 18.3099 19.0082 17.8283 18.4089L17.0757 17.51L17.0456 18.6186Z" fill="#358131"/>
<path d="M23.8489 23.1133C23.3974 23.5028 22.976 24.222 22.8857 24.7613C22.7351 25.5704 22.8556 25.87 23.6081 26.6491C24.7821 27.7877 25.9862 27.8476 27.1 26.7689C28.3643 25.5104 28.1536 23.6527 26.6485 22.9036C25.4745 22.2743 24.7219 22.3342 23.8489 23.1133Z" fill="#163C8E"/>
<path d="M5.18547 24.0421C3.55994 25.6602 4.58343 28.1472 6.87121 28.1472C7.71408 28.1472 8.13551 27.9375 8.58705 27.3681C9.85135 25.7501 9.06868 23.7725 7.05182 23.4728C6.14875 23.323 5.81762 23.4129 5.18547 24.0421Z" fill="#358131"/>
<path d="M20.5074 24.3119C20.1763 24.4916 18.9421 25.4805 17.7681 26.4693C16.5941 27.4881 15.3599 28.4769 15.0589 28.6866C14.5773 29.0162 14.8482 29.0462 16.7747 28.9563C19.3937 28.8364 22.1029 27.7577 21.8922 26.9487C21.8018 26.709 21.7115 25.9299 21.6212 25.2108C21.5008 23.8624 21.4105 23.8025 20.5074 24.3119Z" fill="#163C8E"/>
<path d="M10.6337 26.1097C10.5735 26.9787 10.5433 27.7877 10.6337 27.9076C10.7842 28.2072 13.7944 28.2372 14.4868 27.9675C14.848 27.8177 14.6975 27.548 13.7041 26.679C13.0117 26.0797 12.0786 25.3606 11.627 25.061L10.8143 24.5516L10.6337 26.1097Z" fill="#358131"/>
</svg>
