<svg width="71" height="61" viewBox="0 0 71 61" fill="none" xmlns="http://www.w3.org/2000/svg">
<path d="M27.5296 0.790586C20.6401 3.8135 19.8668 4.37591 20.4995 5.64132C20.9213 6.34432 21.2025 8.03153 21.2025 9.36724C21.2025 12.7417 22.3976 12.6011 26.9672 8.73453C29.0059 6.97702 32.0288 4.51651 33.716 3.3214C35.3329 2.05599 36.6686 0.860887 36.6686 0.509384C36.6686 -0.334221 29.5683 -0.0530189 27.5296 0.790586Z" fill="#163C8E"/>
<path d="M38.637 2.54805C36.7389 2.82926 35.825 4.16496 37.4419 4.16496C37.934 4.16496 39.8321 5.57097 41.6599 7.32848C43.4877 9.086 45.3155 10.492 45.667 10.492C46.1591 10.492 47.3542 3.46196 46.9324 2.96986C46.6512 2.61835 40.1836 2.26685 38.637 2.54805Z" fill="#358131"/>
<path d="M52.9783 2.75901C49.9554 4.02442 49.3227 9.15635 51.9238 12.0387C53.5407 13.7962 58.0399 13.7259 59.8677 11.8981C61.6252 10.1406 61.6955 6.27403 60.0786 4.23532C58.6023 2.54811 55.2982 1.7748 52.9783 2.75901Z" fill="#358131"/>
<path d="M7.91577 5.99283C4.75225 9.99995 7.35337 15.4131 12.3447 15.4131C15.1567 15.4131 18.3905 12.1793 18.3905 9.36725C18.3905 4.65712 10.8684 2.2669 7.91577 5.99283Z" fill="#163C8E"/>
<path d="M59.8677 16.1161C59.3053 16.4676 57.6181 16.8191 56.1418 16.8191C53.6813 16.8191 53.4704 16.9597 53.8922 18.3657C54.1734 19.2796 55.9309 21.5292 57.7587 23.4976C59.6568 25.3957 61.9767 28.2781 62.961 29.7544L64.7888 32.4961V27.9969C64.7888 22.4431 61.6955 14.921 59.8677 16.1161Z" fill="#358131"/>
<path d="M38.0746 17.6627C38.0746 18.7172 37.3716 18.9281 33.1536 18.9281C28.4434 18.9281 28.2325 18.9984 27.8107 20.7559C27.4592 22.2322 27.8107 23.0055 29.5682 24.763L31.7475 27.0126V24.6927C31.7475 22.5134 31.8178 22.4431 34.9111 22.4431C36.6686 22.4431 38.0746 22.7243 38.0746 23.1461C38.0746 24.3412 39.0588 23.9194 40.3242 22.1619C41.449 20.6153 41.3787 20.4747 39.8321 18.5063C38.4964 16.9597 38.1449 16.7488 38.0746 17.6627Z" fill="#358131"/>
<path d="M7.00171 19.6311C6.36901 21.3183 6.72051 27.8563 7.49382 28.6296C7.70472 28.8405 8.33742 28.3484 8.97013 27.5048C9.53253 26.5909 11.29 24.4818 12.8367 22.7243C14.313 20.9668 15.5784 19.2796 15.5784 18.9281C15.5784 18.6469 13.8209 18.2251 11.6415 18.0845C7.98592 17.8736 7.63442 18.0142 7.00171 19.6311Z" fill="#163C8E"/>
<path d="M23.2413 24.9739C22.1868 26.3096 22.2571 34.6051 23.3819 36.6438C24.2958 38.4013 26.4048 38.1904 28.7247 36.1517L30.6931 34.4645L28.7247 34.3942C26.686 34.3942 26.686 34.3942 26.9672 30.2464C27.2484 24.8333 25.4909 22.3025 23.2413 24.9739Z" fill="#358131"/>
<path d="M41.0271 24.9739C38.9181 26.4503 39.0587 27.3642 41.5895 27.3642C43.6282 27.3642 43.6985 27.4345 43.6985 30.8792C43.6985 33.1991 43.4173 34.3942 42.8549 34.3942C42.3628 34.3942 42.7143 35.0972 43.5579 35.9408L45.1045 37.4874L46.6511 35.9408C47.4947 35.0972 47.8462 34.3942 47.3541 34.3942C46.7917 34.3942 46.5105 32.7773 46.5105 29.1217V23.8491H44.5421C43.4876 23.8491 41.8707 24.3412 41.0271 24.9739Z" fill="#358131"/>
<path d="M5.31451 33.6912C5.59571 40.5806 7.77502 46.1343 9.88403 45.2907C10.5167 45.0095 12.2039 44.658 13.6803 44.4471C15.0863 44.2362 16.2814 43.8847 16.2814 43.7441C16.2814 42.6896 14.1021 39.737 10.2355 35.6596C7.84532 33.0585 5.66601 30.2464 5.45511 29.3325C5.24421 28.4186 5.24421 30.387 5.31451 33.6912Z" fill="#358131"/>
<path d="M61.2737 33.0585C61.2737 33.6209 60.1489 35.2378 58.7429 36.5735C56.7042 38.5419 54.2437 42.0569 54.2437 42.9708C54.2437 43.1114 56.1418 43.252 58.4617 43.252C62.3985 43.3926 62.75 43.252 63.1015 41.6351C63.7342 39.3152 63.0312 33.7615 62.047 32.7773C61.4846 32.2148 61.2737 32.2851 61.2737 33.0585Z" fill="#163C8E"/>
<path d="M38.0747 36.6438V39.3152H34.9112C32.3804 39.3152 31.7477 39.1043 31.7477 38.0498C31.7477 37.1359 31.3259 37.3468 30.0604 38.9637C28.5841 40.7212 28.5138 41.2133 29.2871 42.1272C30.0604 42.9708 31.3962 43.1114 35.7548 42.8302L41.2382 42.4787L41.4491 40.3697C41.5897 38.9637 41.0273 37.5577 39.9025 36.1517L38.145 34.0427L38.0747 36.6438Z" fill="#358131"/>
<path d="M53.9625 47.1889C52.908 48.1028 51.9238 49.79 51.7129 51.0554C51.3614 52.9535 51.6426 53.6565 53.4001 55.4843C56.1418 58.1558 58.9538 58.2964 61.555 55.7655C64.5076 52.8129 64.0155 48.4543 60.5005 46.6968C57.7587 45.2205 56.0012 45.3611 53.9625 47.1889Z" fill="#163C8E"/>
<path d="M10.3762 49.3682C6.57999 53.1644 8.9702 58.9993 14.313 58.9993C16.2814 58.9993 17.2656 58.5072 18.3202 57.1715C21.2728 53.3753 19.445 48.7355 14.7348 48.0325C12.6258 47.681 11.8525 47.8919 10.3762 49.3682Z" fill="#358131"/>
<path d="M46.1592 50.0009C45.3859 50.4227 42.5036 52.7426 39.7619 55.0625C37.0202 57.4527 34.1378 59.7727 33.4348 60.2648C32.31 61.0381 32.9427 61.1084 37.442 60.8975C43.5581 60.6163 49.8851 58.0855 49.393 56.1873C49.1821 55.6249 48.9712 53.7971 48.7603 52.1099C48.4791 48.9464 48.2682 48.8058 46.1592 50.0009Z" fill="#163C8E"/>
<path d="M23.1006 54.2189C22.96 56.2576 22.8897 58.1557 23.1006 58.4369C23.4521 59.1399 30.4822 59.2102 32.0991 58.5775C32.9427 58.226 32.5912 57.5933 30.2713 55.5546C28.6544 54.1486 26.4751 52.4614 25.4205 51.7584L23.5224 50.5633L23.1006 54.2189Z" fill="#358131"/>
</svg>
