<svg width="53" height="46" viewBox="0 0 53 46" fill="none" xmlns="http://www.w3.org/2000/svg">
<path d="M12.2852 11.2071C12.4324 11.2068 12.5796 11.2064 12.7312 11.206C13.1358 11.2051 13.5403 11.2055 13.9448 11.2063C14.3827 11.2068 14.8205 11.206 15.2583 11.2053C16.1144 11.2043 16.9705 11.2045 17.8266 11.2052C18.5227 11.2057 19.2187 11.2058 19.9148 11.2055C20.0141 11.2055 20.1134 11.2055 20.2157 11.2054C20.4174 11.2054 20.6191 11.2053 20.8208 11.2052C22.7098 11.2045 24.5987 11.2053 26.4876 11.2066C28.1066 11.2076 29.7256 11.2074 31.3446 11.2064C33.2273 11.2051 35.1099 11.2046 36.9925 11.2053C37.1934 11.2054 37.3944 11.2055 37.5953 11.2055C37.6941 11.2056 37.793 11.2056 37.8948 11.2057C38.5897 11.2059 39.2846 11.2055 39.9795 11.205C40.8268 11.2043 41.6741 11.2045 42.5214 11.2057C42.9533 11.2063 43.3852 11.2066 43.817 11.2058C44.2861 11.205 44.7551 11.206 45.2241 11.2071C45.3594 11.2066 45.4947 11.2061 45.634 11.2056C47.277 11.2135 48.6851 11.4949 49.9206 12.6404C50.812 13.6313 51.1087 14.647 51.0943 15.9491C51.0938 16.1193 51.0938 16.1193 51.0933 16.2929C51.092 16.6535 51.0891 17.014 51.0861 17.3746C51.0849 17.6198 51.0838 17.865 51.0829 18.1102C51.0803 18.7098 51.0763 19.3093 51.0714 19.9088C50.9516 19.9092 50.9516 19.9092 50.8293 19.9096C48.8776 19.9166 46.926 19.9255 44.9744 19.9364C44.0305 19.9417 43.0867 19.9463 42.1429 19.9494C41.3195 19.9521 40.4961 19.956 39.6727 19.9614C39.2374 19.9642 38.8021 19.9664 38.3668 19.9671C37.8788 19.9679 37.3909 19.9715 36.9029 19.9753C36.7613 19.9751 36.6197 19.975 36.4738 19.9748C34.1171 20.0003 31.9151 20.6892 30.1828 22.3404C28.7037 23.8921 27.8976 25.9107 27.8244 28.0533C27.9025 30.3402 28.8148 32.4691 30.4707 34.0473C32.3582 35.6365 34.4665 36.1138 36.8738 36.118C37.031 36.1191 37.1882 36.1203 37.3454 36.1216C37.7676 36.1248 38.1898 36.1266 38.6119 36.1281C39.0549 36.1299 39.4978 36.1331 39.9407 36.1361C40.7774 36.1415 41.614 36.1458 42.4507 36.1497C43.4041 36.1542 44.3574 36.16 45.3108 36.1659C47.2701 36.178 49.2293 36.1884 51.1886 36.1978C51.1945 36.7917 51.1987 37.3856 51.2015 37.9795C51.2027 38.181 51.2042 38.3825 51.2063 38.584C51.2246 40.4318 51.1992 42.2243 49.8849 43.6832C48.5895 44.8527 47.0122 45.023 45.3457 45.0167C45.1238 45.0172 45.1238 45.0172 44.8974 45.0178C44.4896 45.0187 44.0819 45.0183 43.6742 45.0175C43.2333 45.017 42.7924 45.0178 42.3515 45.0185C41.489 45.0195 40.6264 45.0193 39.7639 45.0186C39.0626 45.0181 38.3613 45.018 37.6599 45.0183C37.51 45.0183 37.51 45.0183 37.357 45.0184C37.1539 45.0185 36.9508 45.0185 36.7477 45.0186C34.8448 45.0193 32.9419 45.0185 31.039 45.0172C29.4078 45.0162 27.7767 45.0164 26.1456 45.0175C24.2495 45.0187 22.3534 45.0192 20.4573 45.0185C20.2549 45.0184 20.0525 45.0183 19.8502 45.0183C19.7506 45.0182 19.651 45.0182 19.5484 45.0182C18.8484 45.018 18.1484 45.0183 17.4483 45.0188C16.5946 45.0195 15.7408 45.0193 14.8871 45.0181C14.4519 45.0175 14.0167 45.0172 13.5815 45.018C13.1088 45.0188 12.6362 45.0178 12.1636 45.0167C12.0272 45.0172 11.8909 45.0177 11.7504 45.0183C10.1253 45.0105 8.77547 44.7449 7.55092 43.61C6.47904 42.459 6.26837 41.117 6.28291 39.6036C6.28324 39.4723 6.28357 39.3409 6.28392 39.2056C6.28522 38.789 6.28816 38.3723 6.29115 37.9557C6.29233 37.672 6.2934 37.3883 6.29435 37.1047C6.29693 36.4118 6.30084 35.7189 6.3058 35.026C6.4148 35.0269 6.5238 35.0278 6.6361 35.0288C6.78104 35.0295 6.92597 35.0303 7.0753 35.031C7.21814 35.0319 7.36098 35.0329 7.50814 35.0338C10.0792 34.9877 12.4522 33.9955 14.2338 32.1494C15.9379 30.3119 16.8209 27.9784 16.7827 25.4783C16.7035 23.4158 15.9765 21.5466 14.7433 19.9088C14.6797 19.8236 14.6161 19.7384 14.5506 19.6506C13.1161 17.8776 10.7709 16.7697 8.53236 16.5103C8.14443 16.4821 7.75634 16.4625 7.36781 16.4444C7.21407 16.4368 7.21407 16.4368 7.05722 16.4291C6.80676 16.4168 6.55628 16.4049 6.3058 16.3932C6.21612 15.1276 6.45557 13.9674 7.279 12.9723C8.72637 11.4282 10.2188 11.1991 12.2852 11.2071Z" fill="url(#paint0_linear_2719_7275)"/>
<path d="M52.5945 21.7837C52.5945 25.8829 52.5945 29.9821 52.5945 34.2056C48.189 34.2245 48.189 34.2245 46.3371 34.2285C45.0605 34.2312 43.7839 34.2345 42.5072 34.2409C41.5773 34.2456 40.6474 34.2486 39.7175 34.2497C39.2256 34.2503 38.7337 34.2517 38.2419 34.2551C37.7778 34.2583 37.3137 34.2593 36.8496 34.2586C36.6803 34.2587 36.5111 34.2596 36.3418 34.2614C34.3576 34.2817 32.7524 33.7431 31.3007 32.3837C30.014 31.0071 29.6832 29.3255 29.71 27.5122C29.7763 25.7999 30.6218 24.3401 31.8523 23.1899C33.0582 22.2932 34.3441 21.887 35.8276 21.8768C35.9321 21.8757 36.0367 21.8745 36.1445 21.8733C36.4925 21.8696 36.8405 21.8667 37.1885 21.8638C37.4358 21.8614 37.6831 21.8589 37.9304 21.8564C38.453 21.8513 38.9756 21.8465 39.4982 21.842C40.1478 21.8364 40.7973 21.8301 41.4468 21.8235C41.9612 21.8183 42.4757 21.8134 42.9901 21.8087C43.2281 21.8065 43.4661 21.8042 43.7041 21.8018C46.6676 21.7729 49.6308 21.7837 52.5945 21.7837ZM33.7273 25.6509C33.0441 26.4981 32.7284 27.2681 32.7536 28.3613C32.8593 29.3447 33.3341 30.1651 34.0789 30.8071C34.9272 31.3891 35.824 31.6134 36.8447 31.4663C37.7943 31.2311 38.5687 30.6856 39.1106 29.8696C39.5855 29.0165 39.7413 28.1496 39.5061 27.2009C39.1676 26.1713 38.6607 25.493 37.7208 24.9478C36.3427 24.2846 34.8043 24.5831 33.7273 25.6509Z" fill="#3AE0C5"/>
<path d="M52.5945 21.7837C52.5945 25.8829 52.5945 29.9821 52.5945 34.2056C48.189 34.2245 48.189 34.2245 46.3371 34.2285C45.0605 34.2312 43.7839 34.2345 42.5072 34.2409C41.5773 34.2456 40.6474 34.2486 39.7175 34.2497C39.2256 34.2503 38.7337 34.2517 38.2419 34.2551C37.7778 34.2583 37.3137 34.2593 36.8496 34.2586C36.6803 34.2587 36.5111 34.2596 36.3418 34.2614C34.3576 34.2817 32.7524 33.7431 31.3007 32.3837C30.014 31.0071 29.6832 29.3255 29.71 27.5122C29.7763 25.7999 30.6218 24.3401 31.8523 23.1899C33.0582 22.2932 34.3441 21.887 35.8276 21.8768C35.9321 21.8757 36.0367 21.8745 36.1445 21.8733C36.4925 21.8696 36.8405 21.8667 37.1885 21.8638C37.4358 21.8614 37.6831 21.8589 37.9304 21.8564C38.453 21.8513 38.9756 21.8465 39.4982 21.842C40.1478 21.8364 40.7973 21.8301 41.4468 21.8235C41.9612 21.8183 42.4757 21.8134 42.9901 21.8087C43.2281 21.8065 43.4661 21.8042 43.7041 21.8018C46.6676 21.7729 49.6308 21.7837 52.5945 21.7837ZM33.7273 25.6509C33.0441 26.4981 32.7284 27.2681 32.7536 28.3613C32.8593 29.3447 33.3341 30.1651 34.0789 30.8071C34.9272 31.3891 35.824 31.6134 36.8447 31.4663C37.7943 31.2311 38.5687 30.6856 39.1106 29.8696C39.5855 29.0165 39.7413 28.1496 39.5061 27.2009C39.1676 26.1713 38.6607 25.493 37.7208 24.9478C36.3427 24.2846 34.8043 24.5831 33.7273 25.6509Z" fill="white" fill-opacity="0.2"/>
<path d="M12.5896 20.1643C14.1108 21.5788 14.8404 23.432 15.0011 25.4867C15.0384 27.4462 14.4131 29.0552 13.2195 30.5729C13.1459 30.6712 13.0724 30.7696 12.9966 30.8709C12.225 31.7747 11.1575 32.3886 10.0554 32.7995C9.96419 32.8368 9.87294 32.8741 9.77894 32.9125C8.01796 33.521 5.83274 33.2947 4.17683 32.5056C2.47099 31.5771 1.13091 30.17 0.446052 28.3463C0.389857 28.207 0.389857 28.207 0.332526 28.0648C-0.175635 26.5756 -0.0725413 24.6583 0.446052 23.1901C0.477322 23.0913 0.508591 22.9925 0.540809 22.8907C1.12708 21.2179 2.41992 19.9094 3.96168 19.0885C6.89877 17.7681 10.0968 18.0943 12.5896 20.1643ZM6.77418 20.8463C6.60094 21.1928 6.64992 21.5193 6.65699 21.901C6.57239 21.9276 6.4878 21.9542 6.40064 21.9816C5.75341 22.2836 5.39047 22.7693 5.13355 23.4245C4.9604 24.1789 5.03549 24.7167 5.36793 25.4166C5.78971 26.0741 6.28236 26.3548 7.00855 26.5885C7.2819 26.6282 7.55532 26.6674 7.82886 26.7057C8.06324 26.8375 8.06324 26.8375 8.18043 27.0573C8.14381 27.4894 8.14381 27.4894 8.06324 27.8776C7.44365 28.1311 7.44365 28.1311 7.10377 28.0534C6.80792 27.8085 6.69827 27.5202 6.5398 27.1745C6.32041 26.9061 6.32041 26.9061 5.96851 26.9035C5.60875 26.9213 5.60875 26.9213 5.32398 27.0573C5.0851 27.3513 5.05395 27.5891 5.07267 27.9641C5.22125 28.6109 5.63663 29.1338 6.15894 29.5255C6.41106 29.6504 6.41106 29.6504 6.65699 29.6354C6.64732 29.7393 6.63765 29.8433 6.62769 29.9503C6.66405 30.4321 6.76754 30.604 7.12574 30.9245C7.55418 31.0048 7.74249 30.9813 8.10718 30.7414C8.36143 30.36 8.33213 30.0841 8.29761 29.6354C8.39913 29.6161 8.50064 29.5967 8.60523 29.5768C9.25959 29.286 9.57756 28.7448 9.865 28.1046C10.0364 27.2988 9.9298 26.7609 9.53953 26.0456C9.05606 25.3293 8.49845 25.063 7.66773 24.882C7.54839 24.8625 7.42905 24.843 7.3061 24.8229C7.00855 24.7135 7.00855 24.7135 6.84605 24.4302C6.77418 24.1276 6.77418 24.1276 6.84009 23.8053C7.00855 23.5416 7.00855 23.5416 7.28687 23.4318C7.64459 23.4233 7.77625 23.4459 8.06324 23.6588C8.13817 23.7749 8.21309 23.8909 8.29029 24.0104C8.50416 24.3702 8.50416 24.3702 8.81763 24.5451C9.12635 24.6245 9.12635 24.6245 9.43287 24.4718C9.75284 24.2037 9.86337 24.0706 9.93824 23.6588C9.70651 22.9091 9.3093 22.3411 8.64918 21.901C8.53316 21.901 8.41715 21.901 8.29761 21.901C8.3097 21.7778 8.32178 21.6545 8.33424 21.5275C8.33786 21.0666 8.33786 21.0666 8.02662 20.7365C7.51628 20.3448 7.26634 20.5096 6.77418 20.8463Z" fill="#3AE0C5"/>
<path d="M12.5896 20.1643C14.1108 21.5788 14.8404 23.432 15.0011 25.4867C15.0384 27.4462 14.4131 29.0552 13.2195 30.5729C13.1459 30.6712 13.0724 30.7696 12.9966 30.8709C12.225 31.7747 11.1575 32.3886 10.0554 32.7995C9.96419 32.8368 9.87294 32.8741 9.77894 32.9125C8.01796 33.521 5.83274 33.2947 4.17683 32.5056C2.47099 31.5771 1.13091 30.17 0.446052 28.3463C0.389857 28.207 0.389857 28.207 0.332526 28.0648C-0.175635 26.5756 -0.0725413 24.6583 0.446052 23.1901C0.477322 23.0913 0.508591 22.9925 0.540809 22.8907C1.12708 21.2179 2.41992 19.9094 3.96168 19.0885C6.89877 17.7681 10.0968 18.0943 12.5896 20.1643ZM6.77418 20.8463C6.60094 21.1928 6.64992 21.5193 6.65699 21.901C6.57239 21.9276 6.4878 21.9542 6.40064 21.9816C5.75341 22.2836 5.39047 22.7693 5.13355 23.4245C4.9604 24.1789 5.03549 24.7167 5.36793 25.4166C5.78971 26.0741 6.28236 26.3548 7.00855 26.5885C7.2819 26.6282 7.55532 26.6674 7.82886 26.7057C8.06324 26.8375 8.06324 26.8375 8.18043 27.0573C8.14381 27.4894 8.14381 27.4894 8.06324 27.8776C7.44365 28.1311 7.44365 28.1311 7.10377 28.0534C6.80792 27.8085 6.69827 27.5202 6.5398 27.1745C6.32041 26.9061 6.32041 26.9061 5.96851 26.9035C5.60875 26.9213 5.60875 26.9213 5.32398 27.0573C5.0851 27.3513 5.05395 27.5891 5.07267 27.9641C5.22125 28.6109 5.63663 29.1338 6.15894 29.5255C6.41106 29.6504 6.41106 29.6504 6.65699 29.6354C6.64732 29.7393 6.63765 29.8433 6.62769 29.9503C6.66405 30.4321 6.76754 30.604 7.12574 30.9245C7.55418 31.0048 7.74249 30.9813 8.10718 30.7414C8.36143 30.36 8.33213 30.0841 8.29761 29.6354C8.39913 29.6161 8.50064 29.5967 8.60523 29.5768C9.25959 29.286 9.57756 28.7448 9.865 28.1046C10.0364 27.2988 9.9298 26.7609 9.53953 26.0456C9.05606 25.3293 8.49845 25.063 7.66773 24.882C7.54839 24.8625 7.42905 24.843 7.3061 24.8229C7.00855 24.7135 7.00855 24.7135 6.84605 24.4302C6.77418 24.1276 6.77418 24.1276 6.84009 23.8053C7.00855 23.5416 7.00855 23.5416 7.28687 23.4318C7.64459 23.4233 7.77625 23.4459 8.06324 23.6588C8.13817 23.7749 8.21309 23.8909 8.29029 24.0104C8.50416 24.3702 8.50416 24.3702 8.81763 24.5451C9.12635 24.6245 9.12635 24.6245 9.43287 24.4718C9.75284 24.2037 9.86337 24.0706 9.93824 23.6588C9.70651 22.9091 9.3093 22.3411 8.64918 21.901C8.53316 21.901 8.41715 21.901 8.29761 21.901C8.3097 21.7778 8.32178 21.6545 8.33424 21.5275C8.33786 21.0666 8.33786 21.0666 8.02662 20.7365C7.51628 20.3448 7.26634 20.5096 6.77418 20.8463Z" fill="white" fill-opacity="0.2"/>
<path d="M32.6339 0.431352C33.3045 0.965698 33.9095 1.56043 34.508 2.17314C34.8232 2.48881 35.1549 2.77786 35.4936 3.06761C35.8183 3.3555 36.1185 3.6658 36.4229 3.9749C36.6501 4.19857 36.8842 4.40801 37.126 4.61577C37.5373 4.96926 37.9171 5.34596 38.2974 5.73225C38.6005 6.03062 38.9207 6.30564 39.2431 6.58278C39.5359 6.84239 39.8073 7.11995 40.0813 7.39897C40.2999 7.61371 40.5267 7.81423 40.7588 8.01421C41.2087 8.40264 41.6489 8.80329 42.0479 9.24468C42.0479 9.28335 42.0479 9.32202 42.0479 9.36186C40.1143 9.36186 38.1807 9.36186 36.1885 9.36186C35.8791 8.74311 35.5697 8.12436 35.251 7.48686C34.3305 6.35724 33.1646 5.68084 31.7207 5.42876C30.1299 5.27286 28.7644 5.75668 27.4946 6.7137C27.1787 7.00549 26.9651 7.26891 26.7402 7.63335C26.6759 7.73547 26.6115 7.83758 26.5452 7.9428C26.2931 8.401 26.0884 8.88395 25.876 9.36186C23.9811 9.36186 22.0861 9.36186 20.1338 9.36186C20.6606 8.7033 20.6606 8.7033 20.998 8.41704C21.0793 8.3474 21.1606 8.27776 21.2443 8.20601C21.3419 8.12338 21.4395 8.04075 21.54 7.95561C21.804 7.73135 22.0676 7.50669 22.3311 7.28178C22.4366 7.19166 22.4366 7.19166 22.5444 7.09971C23.1334 6.59468 23.7058 6.07329 24.2756 5.54686C24.8052 5.05932 25.3488 4.58918 25.897 4.12276C26.5717 3.54804 27.2408 2.97051 27.8901 2.36723C28.5252 1.77975 29.1843 1.22936 29.8604 0.689988C30.0119 0.564229 30.0119 0.564229 30.1666 0.435929C30.967 -0.178468 31.8288 -0.109737 32.6339 0.431352Z" fill="#3AE0C5"/>
<path d="M32.6339 0.431352C33.3045 0.965698 33.9095 1.56043 34.508 2.17314C34.8232 2.48881 35.1549 2.77786 35.4936 3.06761C35.8183 3.3555 36.1185 3.6658 36.4229 3.9749C36.6501 4.19857 36.8842 4.40801 37.126 4.61577C37.5373 4.96926 37.9171 5.34596 38.2974 5.73225C38.6005 6.03062 38.9207 6.30564 39.2431 6.58278C39.5359 6.84239 39.8073 7.11995 40.0813 7.39897C40.2999 7.61371 40.5267 7.81423 40.7588 8.01421C41.2087 8.40264 41.6489 8.80329 42.0479 9.24468C42.0479 9.28335 42.0479 9.32202 42.0479 9.36186C40.1143 9.36186 38.1807 9.36186 36.1885 9.36186C35.8791 8.74311 35.5697 8.12436 35.251 7.48686C34.3305 6.35724 33.1646 5.68084 31.7207 5.42876C30.1299 5.27286 28.7644 5.75668 27.4946 6.7137C27.1787 7.00549 26.9651 7.26891 26.7402 7.63335C26.6759 7.73547 26.6115 7.83758 26.5452 7.9428C26.2931 8.401 26.0884 8.88395 25.876 9.36186C23.9811 9.36186 22.0861 9.36186 20.1338 9.36186C20.6606 8.7033 20.6606 8.7033 20.998 8.41704C21.0793 8.3474 21.1606 8.27776 21.2443 8.20601C21.3419 8.12338 21.4395 8.04075 21.54 7.95561C21.804 7.73135 22.0676 7.50669 22.3311 7.28178C22.4366 7.19166 22.4366 7.19166 22.5444 7.09971C23.1334 6.59468 23.7058 6.07329 24.2756 5.54686C24.8052 5.05932 25.3488 4.58918 25.897 4.12276C26.5717 3.54804 27.2408 2.97051 27.8901 2.36723C28.5252 1.77975 29.1843 1.22936 29.8604 0.689988C30.0119 0.564229 30.0119 0.564229 30.1666 0.435929C30.967 -0.178468 31.8288 -0.109737 32.6339 0.431352Z" fill="white" fill-opacity="0.2"/>
<path d="M18.8908 1.63119C19.3224 1.8 19.7471 1.98118 20.1704 2.1694C20.3143 2.23141 20.4583 2.29321 20.6023 2.35479C20.9597 2.50813 21.3159 2.66403 21.672 2.82047C22.0536 2.98729 22.4366 3.15096 22.8195 3.31473C22.9562 3.37324 23.093 3.43176 23.2339 3.49205C23.3323 3.53414 23.4308 3.57623 23.5322 3.6196C23.3277 4.0608 23.0843 4.31236 22.7192 4.63766C22.6619 4.68898 22.6045 4.74029 22.5454 4.79316C22.1676 5.12836 21.7799 5.44905 21.3862 5.76559C20.7946 6.24247 20.2428 6.75311 19.6901 7.27381C19.1655 7.76538 18.624 8.22364 18.0601 8.6701C17.7856 8.87893 17.7856 8.87893 17.6057 9.13848C17.1755 9.47623 16.7817 9.42041 16.2501 9.40756C16.1467 9.4069 16.0434 9.40623 15.9368 9.40555C15.6072 9.40293 15.2778 9.39705 14.9482 9.39108C14.7246 9.38873 14.5009 9.38659 14.2772 9.38467C13.7293 9.37951 13.1816 9.37142 12.6338 9.36178C13.5974 7.30556 14.5869 5.26313 15.6587 3.26071C15.7093 3.16381 15.7599 3.06692 15.812 2.96708C16.5103 1.68322 17.4416 1.19032 18.8908 1.63119Z" fill="#3AE0C5"/>
<path d="M18.8908 1.63119C19.3224 1.8 19.7471 1.98118 20.1704 2.1694C20.3143 2.23141 20.4583 2.29321 20.6023 2.35479C20.9597 2.50813 21.3159 2.66403 21.672 2.82047C22.0536 2.98729 22.4366 3.15096 22.8195 3.31473C22.9562 3.37324 23.093 3.43176 23.2339 3.49205C23.3323 3.53414 23.4308 3.57623 23.5322 3.6196C23.3277 4.0608 23.0843 4.31236 22.7192 4.63766C22.6619 4.68898 22.6045 4.74029 22.5454 4.79316C22.1676 5.12836 21.7799 5.44905 21.3862 5.76559C20.7946 6.24247 20.2428 6.75311 19.6901 7.27381C19.1655 7.76538 18.624 8.22364 18.0601 8.6701C17.7856 8.87893 17.7856 8.87893 17.6057 9.13848C17.1755 9.47623 16.7817 9.42041 16.2501 9.40756C16.1467 9.4069 16.0434 9.40623 15.9368 9.40555C15.6072 9.40293 15.2778 9.39705 14.9482 9.39108C14.7246 9.38873 14.5009 9.38659 14.2772 9.38467C13.7293 9.37951 13.1816 9.37142 12.6338 9.36178C13.5974 7.30556 14.5869 5.26313 15.6587 3.26071C15.7093 3.16381 15.7599 3.06692 15.812 2.96708C16.5103 1.68322 17.4416 1.19032 18.8908 1.63119Z" fill="white" fill-opacity="0.2"/>
<path d="M33.2588 7.95566C33.7157 8.40282 34.0391 8.73299 34.1963 9.36191C32.108 9.36191 30.0197 9.36191 27.8682 9.36191C28.15 8.51635 28.539 8.02072 29.3074 7.56152C30.6081 6.94902 32.1358 6.9941 33.2588 7.95566Z" fill="white"/>
<path d="M36.7744 26.5883C37.1724 26.7869 37.4111 27.0674 37.646 27.4453C37.7555 27.9683 37.7465 28.4515 37.4638 28.9101C37.1826 29.2562 36.9718 29.4895 36.524 29.5542C35.9473 29.5833 35.5801 29.5687 35.1265 29.1884C34.7617 28.8408 34.6735 28.5773 34.6357 28.0678C34.6765 27.4769 34.8725 27.2186 35.2583 26.7861C35.7615 26.497 36.2077 26.4832 36.7744 26.5883Z" fill="white"/>
<defs>
<linearGradient id="paint0_linear_2719_7275" x1="28.7457" y1="11.2046" x2="28.7457" y2="45.0192" gradientUnits="userSpaceOnUse">
<stop stop-color="#10BE77"/>
<stop offset="1" stop-color="#2196F3"/>
</linearGradient>
</defs>
</svg>
