<svg width="32" height="32" viewBox="0 0 32 32" fill="none" xmlns="http://www.w3.org/2000/svg">
<path d="M8.54054 9.97457C8.61891 9.97437 8.69728 9.97418 8.77802 9.97398C8.99338 9.97346 9.20874 9.97371 9.4241 9.9741C9.65719 9.97439 9.89029 9.97395 10.1234 9.9736C10.5791 9.97305 11.0349 9.97317 11.4907 9.97353C11.8612 9.97381 12.2318 9.97385 12.6024 9.97372C12.6552 9.9737 12.7081 9.97368 12.7625 9.97366C12.8699 9.97362 12.9773 9.97358 13.0847 9.97354C14.0904 9.97318 15.096 9.97359 16.1016 9.97426C16.9635 9.97482 17.8254 9.97472 18.6873 9.97415C19.6896 9.97348 20.6919 9.97321 21.6941 9.9736C21.8011 9.97364 21.9081 9.97368 22.015 9.97372C22.0677 9.97373 22.1203 9.97375 22.1745 9.97377C22.5444 9.97388 22.9144 9.9737 23.2843 9.97341C23.7354 9.97305 24.1865 9.97315 24.6376 9.97382C24.8675 9.97414 25.0974 9.97427 25.3273 9.97386C25.577 9.97342 25.8267 9.97395 26.0764 9.97457C26.1484 9.97429 26.2205 9.97401 26.2946 9.97372C27.1693 9.97794 27.919 10.128 28.5767 10.7387C29.0513 11.2669 29.2093 11.8084 29.2016 12.5025C29.2013 12.5933 29.2013 12.5933 29.201 12.6858C29.2003 12.8781 29.1988 13.0703 29.1972 13.2625C29.1966 13.3932 29.196 13.5239 29.1955 13.6546C29.1941 13.9743 29.192 14.2939 29.1894 14.6135C29.1256 14.6137 29.1256 14.6137 29.0605 14.6139C28.0215 14.6176 26.9825 14.6224 25.9435 14.6282C25.441 14.631 24.9385 14.6335 24.4361 14.6351C23.9977 14.6366 23.5593 14.6386 23.121 14.6415C22.8892 14.643 22.6575 14.6442 22.4258 14.6446C22.166 14.645 21.9062 14.6469 21.6464 14.6489C21.571 14.6488 21.4956 14.6487 21.418 14.6487C20.1633 14.6623 18.991 15.0295 18.0688 15.9098C17.2814 16.737 16.8522 17.8131 16.8132 18.9554C16.8548 20.1745 17.3405 21.3094 18.2221 22.1508C19.2269 22.998 20.3493 23.2525 21.6309 23.2547C21.7146 23.2553 21.7983 23.2559 21.882 23.2566C22.1068 23.2583 22.3315 23.2593 22.5563 23.2601C22.7921 23.2611 23.0279 23.2627 23.2637 23.2643C23.7091 23.2672 24.1545 23.2695 24.5999 23.2716C25.1075 23.274 25.615 23.2771 26.1226 23.2802C27.1656 23.2867 28.2087 23.2923 29.2518 23.2973C29.2549 23.6139 29.2571 23.9305 29.2586 24.2471C29.2592 24.3545 29.2601 24.4619 29.2612 24.5694C29.2709 25.5544 29.2574 26.51 28.5577 27.2878C27.8681 27.9112 27.0283 28.002 26.1412 27.9986C26.023 27.9989 26.023 27.9989 25.9025 27.9992C25.6854 27.9997 25.4683 27.9995 25.2513 27.9991C25.0166 27.9988 24.7818 27.9993 24.5471 27.9996C24.0879 28.0002 23.6287 28 23.1695 27.9997C22.7962 27.9994 22.4228 27.9994 22.0494 27.9995C21.9696 27.9995 21.9696 27.9995 21.8882 27.9995C21.78 27.9996 21.6719 27.9996 21.5638 27.9997C20.5507 28 19.5377 27.9996 18.5246 27.9989C17.6562 27.9984 16.7879 27.9985 15.9195 27.9991C14.9101 27.9997 13.9006 28 12.8912 27.9996C12.7834 27.9996 12.6757 27.9995 12.568 27.9995C12.5149 27.9995 12.4619 27.9995 12.4073 27.9994C12.0346 27.9993 11.662 27.9995 11.2893 27.9998C10.8348 28.0002 10.3803 28.0001 9.92574 27.9994C9.69404 27.9991 9.46235 27.9989 9.23066 27.9993C8.97904 27.9998 8.72743 27.9993 8.47581 27.9986C8.40323 27.9989 8.33064 27.9992 8.25586 27.9995C7.39071 27.9953 6.67207 27.8538 6.02015 27.2487C5.4495 26.6351 5.33735 25.9197 5.34509 25.1129C5.34527 25.0429 5.34544 24.9729 5.34563 24.9007C5.34632 24.6786 5.34789 24.4565 5.34948 24.2344C5.3501 24.0831 5.35067 23.9319 5.35118 23.7807C5.35255 23.4113 5.35464 23.0419 5.35728 22.6725C5.41531 22.673 5.47333 22.6735 5.53312 22.674C5.61028 22.6744 5.68744 22.6748 5.76694 22.6752C5.84298 22.6757 5.91903 22.6762 5.99737 22.6767C7.36616 22.6521 8.62945 22.1232 9.57795 21.139C10.4852 20.1594 10.9552 18.9154 10.9349 17.5826C10.8928 16.4831 10.5057 15.4866 9.84919 14.6135C9.81533 14.568 9.78148 14.5226 9.74659 14.4758C8.98291 13.5306 7.73439 12.94 6.54264 12.8017C6.33612 12.7867 6.12951 12.7762 5.92266 12.7666C5.84082 12.7625 5.84082 12.7625 5.75731 12.7584C5.62398 12.7519 5.49063 12.7455 5.35728 12.7393C5.30953 12.0646 5.43701 11.4461 5.87539 10.9156C6.64593 10.0924 7.44047 9.9703 8.54054 9.97457Z" fill="url(#paint0_linear_2871_5075)"/>
<path d="M29.9999 15.613C29.9999 17.7984 29.9999 19.9837 29.9999 22.2352C27.6545 22.2453 27.6545 22.2453 26.6686 22.2474C25.9889 22.2489 25.3093 22.2506 24.6297 22.2541C24.1346 22.2566 23.6395 22.2582 23.1445 22.2587C22.8826 22.2591 22.6207 22.2598 22.3589 22.2616C22.1118 22.2634 21.8647 22.2639 21.6177 22.2635C21.5275 22.2636 21.4374 22.264 21.3473 22.265C20.291 22.2758 19.4364 21.9887 18.6636 21.264C17.9786 20.5301 17.8024 19.6336 17.8167 18.6669C17.852 17.7541 18.3022 16.9759 18.9572 16.3627C19.5992 15.8847 20.2838 15.6681 21.0736 15.6627C21.1292 15.6621 21.1849 15.6615 21.2423 15.6608C21.4275 15.6588 21.6128 15.6573 21.7981 15.6558C21.9297 15.6545 22.0614 15.6531 22.193 15.6518C22.4713 15.6491 22.7495 15.6465 23.0277 15.6441C23.3735 15.6411 23.7193 15.6378 24.0651 15.6342C24.339 15.6315 24.6129 15.6289 24.8867 15.6264C25.0134 15.6252 25.1401 15.624 25.2668 15.6227C26.8445 15.6073 28.422 15.613 29.9999 15.613ZM19.9554 17.6747C19.5917 18.1263 19.4237 18.5368 19.4371 19.1196C19.4934 19.6439 19.7461 20.0812 20.1426 20.4235C20.5942 20.7337 21.0717 20.8533 21.615 20.7749C22.1206 20.6495 22.5329 20.3587 22.8214 19.9237C23.0742 19.4689 23.1571 19.0067 23.0319 18.501C22.8517 17.9521 22.5818 17.5905 22.0815 17.2998C21.3478 16.9463 20.5288 17.1054 19.9554 17.6747Z" fill="#3AE0C5"/>
<path d="M29.9999 15.613C29.9999 17.7984 29.9999 19.9837 29.9999 22.2352C27.6545 22.2453 27.6545 22.2453 26.6686 22.2474C25.9889 22.2489 25.3093 22.2506 24.6297 22.2541C24.1346 22.2566 23.6395 22.2582 23.1445 22.2587C22.8826 22.2591 22.6207 22.2598 22.3589 22.2616C22.1118 22.2634 21.8647 22.2639 21.6177 22.2635C21.5275 22.2636 21.4374 22.264 21.3473 22.265C20.291 22.2758 19.4364 21.9887 18.6636 21.264C17.9786 20.5301 17.8024 19.6336 17.8167 18.6669C17.852 17.7541 18.3022 16.9759 18.9572 16.3627C19.5992 15.8847 20.2838 15.6681 21.0736 15.6627C21.1292 15.6621 21.1849 15.6615 21.2423 15.6608C21.4275 15.6588 21.6128 15.6573 21.7981 15.6558C21.9297 15.6545 22.0614 15.6531 22.193 15.6518C22.4713 15.6491 22.7495 15.6465 23.0277 15.6441C23.3735 15.6411 23.7193 15.6378 24.0651 15.6342C24.339 15.6315 24.6129 15.6289 24.8867 15.6264C25.0134 15.6252 25.1401 15.624 25.2668 15.6227C26.8445 15.6073 28.422 15.613 29.9999 15.613ZM19.9554 17.6747C19.5917 18.1263 19.4237 18.5368 19.4371 19.1196C19.4934 19.6439 19.7461 20.0812 20.1426 20.4235C20.5942 20.7337 21.0717 20.8533 21.615 20.7749C22.1206 20.6495 22.5329 20.3587 22.8214 19.9237C23.0742 19.4689 23.1571 19.0067 23.0319 18.501C22.8517 17.9521 22.5818 17.5905 22.0815 17.2998C21.3478 16.9463 20.5288 17.1054 19.9554 17.6747Z" fill="white" fill-opacity="0.2"/>
<path d="M8.70239 14.7497C9.51225 15.5038 9.90068 16.4917 9.98622 17.5871C10.0061 18.6317 9.67319 19.4895 9.03773 20.2986C8.99856 20.351 8.9594 20.4034 8.91904 20.4574C8.50826 20.9393 7.93995 21.2665 7.35326 21.4856C7.30468 21.5055 7.25611 21.5254 7.20606 21.5458C6.26856 21.8702 5.10521 21.7496 4.22364 21.3289C3.31549 20.8339 2.60207 20.0838 2.23747 19.1116C2.20755 19.0373 2.20755 19.0373 2.17703 18.9615C1.9065 18.1676 1.96138 17.1455 2.23747 16.3628C2.25411 16.3101 2.27076 16.2574 2.28791 16.2032C2.60003 15.3114 3.2883 14.6138 4.1091 14.1762C5.67273 13.4722 7.37528 13.6462 8.70239 14.7497ZM5.6064 15.1133C5.51417 15.298 5.54025 15.472 5.54402 15.6755C5.49898 15.6897 5.45394 15.7039 5.40754 15.7185C5.06297 15.8795 4.86975 16.1384 4.73298 16.4877C4.64079 16.8899 4.68077 17.1766 4.85775 17.5497C5.0823 17.9003 5.34457 18.0499 5.73118 18.1745C5.8767 18.1956 6.02226 18.2165 6.16789 18.237C6.29267 18.3072 6.29267 18.3072 6.35506 18.4244C6.33556 18.6547 6.33556 18.6547 6.29267 18.8617C5.96281 18.9968 5.96281 18.9968 5.78187 18.9554C5.62437 18.8249 5.56599 18.6712 5.48163 18.4868C5.36483 18.3438 5.36483 18.3438 5.17749 18.3424C4.98596 18.3519 4.98596 18.3519 4.83436 18.4244C4.70718 18.5811 4.6906 18.7079 4.70056 18.9078C4.77966 19.2526 5.0008 19.5314 5.27887 19.7402C5.41309 19.8068 5.41309 19.8068 5.54402 19.7988C5.53887 19.8542 5.53372 19.9096 5.52842 19.9667C5.54777 20.2235 5.60287 20.3151 5.79357 20.486C6.02166 20.5288 6.12191 20.5163 6.31606 20.3884C6.45142 20.1851 6.43582 20.038 6.41744 19.7988C6.47149 19.7885 6.52553 19.7782 6.58121 19.7676C6.92958 19.6125 7.09886 19.324 7.25188 18.9827C7.34315 18.5531 7.28638 18.2664 7.07861 17.8851C6.82122 17.5032 6.52437 17.3612 6.08211 17.2647C6.01858 17.2543 5.95504 17.2439 5.88959 17.2332C5.73118 17.1749 5.73118 17.1749 5.64466 17.0238C5.6064 16.8625 5.6064 16.8625 5.6415 16.6907C5.73118 16.5502 5.73118 16.5502 5.87935 16.4916C6.06979 16.4871 6.13988 16.4991 6.29267 16.6126C6.33256 16.6745 6.37245 16.7363 6.41354 16.8001C6.52741 16.9919 6.52741 16.9919 6.69429 17.0851C6.85864 17.1274 6.85864 17.1274 7.02182 17.0461C7.19217 16.9031 7.25101 16.8322 7.29087 16.6126C7.16751 16.213 6.95604 15.9102 6.60461 15.6755C6.54284 15.6755 6.48108 15.6755 6.41744 15.6755C6.42388 15.6098 6.43031 15.5441 6.43694 15.4764C6.43887 15.2307 6.43887 15.2307 6.27317 15.0547C6.00148 14.8459 5.86842 14.9338 5.6064 15.1133Z" fill="#3AE0C5"/>
<path d="M8.70239 14.7497C9.51225 15.5038 9.90068 16.4917 9.98622 17.5871C10.0061 18.6317 9.67319 19.4895 9.03773 20.2986C8.99856 20.351 8.9594 20.4034 8.91904 20.4574C8.50826 20.9393 7.93995 21.2665 7.35326 21.4856C7.30468 21.5055 7.25611 21.5254 7.20606 21.5458C6.26856 21.8702 5.10521 21.7496 4.22364 21.3289C3.31549 20.8339 2.60207 20.0838 2.23747 19.1116C2.20755 19.0373 2.20755 19.0373 2.17703 18.9615C1.9065 18.1676 1.96138 17.1455 2.23747 16.3628C2.25411 16.3101 2.27076 16.2574 2.28791 16.2032C2.60003 15.3114 3.2883 14.6138 4.1091 14.1762C5.67273 13.4722 7.37528 13.6462 8.70239 14.7497ZM5.6064 15.1133C5.51417 15.298 5.54025 15.472 5.54402 15.6755C5.49898 15.6897 5.45394 15.7039 5.40754 15.7185C5.06297 15.8795 4.86975 16.1384 4.73298 16.4877C4.64079 16.8899 4.68077 17.1766 4.85775 17.5497C5.0823 17.9003 5.34457 18.0499 5.73118 18.1745C5.8767 18.1956 6.02226 18.2165 6.16789 18.237C6.29267 18.3072 6.29267 18.3072 6.35506 18.4244C6.33556 18.6547 6.33556 18.6547 6.29267 18.8617C5.96281 18.9968 5.96281 18.9968 5.78187 18.9554C5.62437 18.8249 5.56599 18.6712 5.48163 18.4868C5.36483 18.3438 5.36483 18.3438 5.17749 18.3424C4.98596 18.3519 4.98596 18.3519 4.83436 18.4244C4.70718 18.5811 4.6906 18.7079 4.70056 18.9078C4.77966 19.2526 5.0008 19.5314 5.27887 19.7402C5.41309 19.8068 5.41309 19.8068 5.54402 19.7988C5.53887 19.8542 5.53372 19.9096 5.52842 19.9667C5.54777 20.2235 5.60287 20.3151 5.79357 20.486C6.02166 20.5288 6.12191 20.5163 6.31606 20.3884C6.45142 20.1851 6.43582 20.038 6.41744 19.7988C6.47149 19.7885 6.52553 19.7782 6.58121 19.7676C6.92958 19.6125 7.09886 19.324 7.25188 18.9827C7.34315 18.5531 7.28638 18.2664 7.07861 17.8851C6.82122 17.5032 6.52437 17.3612 6.08211 17.2647C6.01858 17.2543 5.95504 17.2439 5.88959 17.2332C5.73118 17.1749 5.73118 17.1749 5.64466 17.0238C5.6064 16.8625 5.6064 16.8625 5.6415 16.6907C5.73118 16.5502 5.73118 16.5502 5.87935 16.4916C6.06979 16.4871 6.13988 16.4991 6.29267 16.6126C6.33256 16.6745 6.37245 16.7363 6.41354 16.8001C6.52741 16.9919 6.52741 16.9919 6.69429 17.0851C6.85864 17.1274 6.85864 17.1274 7.02182 17.0461C7.19217 16.9031 7.25101 16.8322 7.29087 16.6126C7.16751 16.213 6.95604 15.9102 6.60461 15.6755C6.54284 15.6755 6.48108 15.6755 6.41744 15.6755C6.42388 15.6098 6.43031 15.5441 6.43694 15.4764C6.43887 15.2307 6.43887 15.2307 6.27317 15.0547C6.00148 14.8459 5.86842 14.9338 5.6064 15.1133Z" fill="white" fill-opacity="0.2"/>
<path d="M19.3735 4.22996C19.7305 4.51482 20.0526 4.83188 20.3712 5.15852C20.539 5.3268 20.7156 5.48089 20.8959 5.63536C21.0688 5.78884 21.2286 5.95426 21.3906 6.11904C21.5116 6.23828 21.6363 6.34994 21.765 6.4607C21.9839 6.64914 22.1861 6.84996 22.3886 7.0559C22.55 7.21496 22.7205 7.36158 22.8921 7.50932C23.0479 7.64772 23.1924 7.79569 23.3383 7.94444C23.4547 8.05892 23.5754 8.16582 23.699 8.27242C23.9385 8.4795 24.1728 8.69309 24.3853 8.92839C24.3853 8.94901 24.3853 8.96963 24.3853 8.99087C23.3559 8.99087 22.3265 8.99087 21.2659 8.99087C21.1012 8.66101 20.9365 8.33115 20.7668 7.99129C20.2768 7.38909 19.656 7.02849 18.8873 6.8941C18.0404 6.811 17.3135 7.06892 16.6375 7.57912C16.4693 7.73467 16.3556 7.8751 16.2359 8.06939C16.2016 8.12383 16.1673 8.17827 16.132 8.23435C15.9978 8.47862 15.8888 8.73609 15.7757 8.99087C14.7669 8.99087 13.7581 8.99087 12.7188 8.99087C12.9992 8.63979 12.9992 8.63979 13.1789 8.48718C13.2221 8.45005 13.2654 8.41293 13.31 8.37468C13.3619 8.33062 13.4139 8.28657 13.4674 8.24119C13.6079 8.12163 13.7483 8.00187 13.8885 7.88197C13.9447 7.83392 13.9447 7.83392 14.0021 7.7849C14.3157 7.51567 14.6204 7.23771 14.9238 6.95707C15.2057 6.69715 15.4951 6.44652 15.787 6.19787C16.1461 5.89148 16.5023 5.5836 16.848 5.26199C17.1861 4.9488 17.537 4.65538 17.8969 4.36784C17.9776 4.30079 17.9776 4.30079 18.06 4.2324C18.4861 3.90486 18.9449 3.9415 19.3735 4.22996Z" fill="#3AE0C5"/>
<path d="M19.3735 4.22996C19.7305 4.51482 20.0526 4.83188 20.3712 5.15852C20.539 5.3268 20.7156 5.48089 20.8959 5.63536C21.0688 5.78884 21.2286 5.95426 21.3906 6.11904C21.5116 6.23828 21.6363 6.34994 21.765 6.4607C21.9839 6.64914 22.1861 6.84996 22.3886 7.0559C22.55 7.21496 22.7205 7.36158 22.8921 7.50932C23.0479 7.64772 23.1924 7.79569 23.3383 7.94444C23.4547 8.05892 23.5754 8.16582 23.699 8.27242C23.9385 8.4795 24.1728 8.69309 24.3853 8.92839C24.3853 8.94901 24.3853 8.96963 24.3853 8.99087C23.3559 8.99087 22.3265 8.99087 21.2659 8.99087C21.1012 8.66101 20.9365 8.33115 20.7668 7.99129C20.2768 7.38909 19.656 7.02849 18.8873 6.8941C18.0404 6.811 17.3135 7.06892 16.6375 7.57912C16.4693 7.73467 16.3556 7.8751 16.2359 8.06939C16.2016 8.12383 16.1673 8.17827 16.132 8.23435C15.9978 8.47862 15.8888 8.73609 15.7757 8.99087C14.7669 8.99087 13.7581 8.99087 12.7188 8.99087C12.9992 8.63979 12.9992 8.63979 13.1789 8.48718C13.2221 8.45005 13.2654 8.41293 13.31 8.37468C13.3619 8.33062 13.4139 8.28657 13.4674 8.24119C13.6079 8.12163 13.7483 8.00187 13.8885 7.88197C13.9447 7.83392 13.9447 7.83392 14.0021 7.7849C14.3157 7.51567 14.6204 7.23771 14.9238 6.95707C15.2057 6.69715 15.4951 6.44652 15.787 6.19787C16.1461 5.89148 16.5023 5.5836 16.848 5.26199C17.1861 4.9488 17.537 4.65538 17.8969 4.36784C17.9776 4.30079 17.9776 4.30079 18.06 4.2324C18.4861 3.90486 18.9449 3.9415 19.3735 4.22996Z" fill="white" fill-opacity="0.2"/>
<path d="M12.0571 4.86965C12.2869 4.95965 12.513 5.05624 12.7384 5.15658C12.815 5.18964 12.8916 5.22258 12.9683 5.25541C13.1586 5.33716 13.3482 5.42027 13.5378 5.50367C13.741 5.5926 13.9448 5.67986 14.1487 5.76716C14.2215 5.79835 14.2943 5.82955 14.3693 5.86169C14.4217 5.88413 14.4741 5.90657 14.5281 5.92969C14.4192 6.1649 14.2897 6.29901 14.0953 6.47242C14.0648 6.49978 14.0342 6.52714 14.0028 6.55532C13.8017 6.73402 13.5952 6.90498 13.3857 7.07373C13.0707 7.32796 12.7769 7.60018 12.4827 7.87777C12.2034 8.13983 11.9151 8.38413 11.6149 8.62214C11.4688 8.73347 11.4688 8.73347 11.373 8.87184C11.144 9.0519 10.9343 9.02214 10.6513 9.01529C10.5963 9.01493 10.5412 9.01458 10.4845 9.01422C10.3091 9.01282 10.1337 9.00968 9.95823 9.0065C9.83914 9.00525 9.72005 9.00411 9.60096 9.00309C9.3093 9.00033 9.0177 8.99602 8.72607 8.99088C9.23908 7.8947 9.76585 6.80586 10.3365 5.73836C10.3634 5.68671 10.3903 5.63505 10.4181 5.58183C10.7898 4.89739 11.2856 4.63463 12.0571 4.86965Z" fill="#3AE0C5"/>
<path d="M12.0571 4.86965C12.2869 4.95965 12.513 5.05624 12.7384 5.15658C12.815 5.18964 12.8916 5.22258 12.9683 5.25541C13.1586 5.33716 13.3482 5.42027 13.5378 5.50367C13.741 5.5926 13.9448 5.67986 14.1487 5.76716C14.2215 5.79835 14.2943 5.82955 14.3693 5.86169C14.4217 5.88413 14.4741 5.90657 14.5281 5.92969C14.4192 6.1649 14.2897 6.29901 14.0953 6.47242C14.0648 6.49978 14.0342 6.52714 14.0028 6.55532C13.8017 6.73402 13.5952 6.90498 13.3857 7.07373C13.0707 7.32796 12.7769 7.60018 12.4827 7.87777C12.2034 8.13983 11.9151 8.38413 11.6149 8.62214C11.4688 8.73347 11.4688 8.73347 11.373 8.87184C11.144 9.0519 10.9343 9.02214 10.6513 9.01529C10.5963 9.01493 10.5412 9.01458 10.4845 9.01422C10.3091 9.01282 10.1337 9.00968 9.95823 9.0065C9.83914 9.00525 9.72005 9.00411 9.60096 9.00309C9.3093 9.00033 9.0177 8.99602 8.72607 8.99088C9.23908 7.8947 9.76585 6.80586 10.3365 5.73836C10.3634 5.68671 10.3903 5.63505 10.4181 5.58183C10.7898 4.89739 11.2856 4.63463 12.0571 4.86965Z" fill="white" fill-opacity="0.2"/>
<path d="M19.7063 8.24116C19.9495 8.47954 20.1217 8.65555 20.2054 8.99084C19.0936 8.99084 17.9819 8.99084 16.8364 8.99084C16.9865 8.54006 17.1936 8.27584 17.6026 8.03104C18.2951 7.70451 19.1084 7.72854 19.7063 8.24116Z" fill="white"/>
<path d="M21.578 18.1745C21.7899 18.2803 21.917 18.4299 22.042 18.6313C22.1003 18.9101 22.0955 19.1677 21.945 19.4122C21.7954 19.5967 21.6831 19.7211 21.4447 19.7556C21.1377 19.7711 20.9422 19.7633 20.7007 19.5606C20.5065 19.3753 20.4595 19.2348 20.4395 18.9632C20.4611 18.6482 20.5655 18.5105 20.7709 18.2799C21.0388 18.1258 21.2763 18.1184 21.578 18.1745Z" fill="white"/>
<defs>
<linearGradient id="paint0_linear_2871_5075" x1="17.3037" y1="9.97321" x2="17.3037" y2="28" gradientUnits="userSpaceOnUse">
<stop stop-color="#10BE77"/>
<stop offset="1" stop-color="#2196F3"/>
</linearGradient>
</defs>
</svg>
