<svg width="32" height="32" viewBox="0 0 32 32" fill="none" xmlns="http://www.w3.org/2000/svg">
<path d="M20.1477 4.59129C21.775 5.87141 22.6063 7.53515 22.8858 9.58128C23.0045 11.4805 22.5066 13.2789 21.4356 14.8547C20.745 15.5799 20.0177 16.3019 19.1152 16.7531C19.0166 17.2501 19.0166 17.2501 18.9834 17.821C18.9676 18.0149 18.9519 18.2088 18.9356 18.4085C18.9201 18.6333 18.9201 18.6333 18.9043 18.8625C19.1914 18.8821 19.1914 18.8821 19.4844 18.9021C20.1699 19.0735 20.1699 19.0735 20.5233 19.6027C20.9888 20.2083 20.9888 20.2083 21.8226 20.2639C22.147 20.2711 22.4715 20.2728 22.7959 20.2699C22.9675 20.2726 23.139 20.2753 23.3158 20.278C23.8624 20.2857 24.4088 20.2863 24.9556 20.2864C25.5045 20.2909 26.0533 20.2969 26.6022 20.3037C26.9435 20.3075 27.2848 20.3096 27.6262 20.3101C28.7955 20.3162 28.7955 20.3162 29.0293 20.55C29.0506 21.064 29.0588 21.5719 29.0573 22.0859C29.0575 22.2396 29.0577 22.3933 29.0579 22.5517C29.0581 22.8773 29.0577 23.2028 29.0568 23.5284C29.0557 24.0284 29.0568 24.5283 29.0581 25.0283C29.058 25.3439 29.0577 25.6595 29.0573 25.9751C29.058 26.2008 29.058 26.2008 29.0586 26.4312C29.0536 27.4867 29.0536 27.4867 28.8184 27.7219C28.2509 27.7426 27.6878 27.7508 27.1202 27.7516C26.769 27.7554 26.4179 27.7596 26.0667 27.7639C25.5112 27.77 24.9558 27.7746 24.4003 27.7747C23.8653 27.7754 23.3308 27.7827 22.7959 27.7911C22.5474 27.7889 22.5474 27.7889 22.2938 27.7866C21.4565 27.8052 21.101 27.8427 20.5068 28.4559C20.3956 28.6313 20.2845 28.8068 20.1699 28.9875C19.4654 29.3398 18.6734 29.242 17.8982 29.2487C17.7141 29.2504 17.5299 29.2521 17.3401 29.2539C16.9498 29.2568 16.5596 29.2591 16.1693 29.2607C15.5734 29.2644 14.9777 29.2736 14.3819 29.2829C14.0028 29.2851 13.6236 29.2869 13.2444 29.2883C13.0666 29.292 12.8888 29.2957 12.7057 29.2995C11.8469 29.2963 11.4186 29.2667 10.6755 28.7973C10.2559 28.3547 10.2559 28.3547 10.0449 27.9328C9.80961 27.9276 9.57429 27.9223 9.33184 27.9168C8.46186 27.897 7.59193 27.8759 6.722 27.8543C6.3449 27.8451 5.9678 27.8364 5.59068 27.8279C5.0498 27.8158 4.50897 27.8024 3.96812 27.7886C3.79849 27.7851 3.62886 27.7816 3.45409 27.778C2.26427 27.7459 2.26427 27.7459 2.02931 27.511C2.00804 26.997 1.99984 26.4891 2.00129 25.9751C2.00109 25.8214 2.00089 25.6677 2.00068 25.5093C2.00054 25.1837 2.00093 24.8582 2.00181 24.5326C2.00294 24.0326 2.00182 23.5327 2.00047 23.0327C2.00061 22.7171 2.00088 22.4015 2.00129 22.0859C2.00087 21.9354 2.00044 21.7849 2 21.6298C2.00506 20.5743 2.00506 20.5743 2.24025 20.3391C2.80775 20.3183 3.37083 20.3102 3.93846 20.3094C4.28961 20.3056 4.64076 20.3014 4.99191 20.2971C5.54744 20.291 6.10278 20.2864 6.65835 20.2863C7.19329 20.2855 7.72781 20.2783 8.26268 20.2699C8.51123 20.2721 8.51123 20.2721 8.7648 20.2744C9.29524 20.2739 9.29524 20.2739 10.0449 20.1282C10.5412 19.6248 10.5412 19.6248 10.8887 19.0735C11.5742 18.9021 11.5742 18.9021 12.1543 18.8625C12.1775 18.1284 12.1431 17.4624 11.9434 16.7531C11.5634 16.3542 11.1694 16.0965 10.7058 15.8006C9.30643 14.8267 8.58001 13.2402 8.25856 11.6115C7.97049 9.51652 8.43413 7.54057 9.62306 5.7844C12.6027 2.59926 16.5595 2.07151 20.1477 4.59129Z" fill="url(#paint0_linear_2873_5158)"/>
<path d="M18.7561 5.18542C19.9863 6.02271 21.1333 7.23644 21.4357 8.73757C21.6584 11.0431 21.3586 12.6586 19.9459 14.4856C18.7353 15.7735 17.2592 16.3806 15.5031 16.45C13.6809 16.3605 12.3682 15.6455 11.0421 14.4197C9.76833 12.9904 9.53316 11.3646 9.55231 9.50716C9.69456 7.96229 10.3536 6.8659 11.4689 5.81081C13.7767 3.9895 16.1535 3.73766 18.7561 5.18542Z" fill="#E8ECED"/>
<path d="M12.9271 20.0696C13.171 20.0709 13.171 20.0709 13.4198 20.0722C13.5868 20.0718 13.7537 20.0714 13.9258 20.0709C14.279 20.0707 14.6322 20.0714 14.9854 20.0732C15.5271 20.0755 16.0686 20.0732 16.6103 20.0705C16.953 20.0708 17.2958 20.0713 17.6386 20.0722C17.8012 20.0713 17.9638 20.0705 18.1313 20.0696C19.2776 20.0797 19.2776 20.0797 19.748 20.5501C19.7959 21.0821 19.7959 21.0821 19.7892 21.7448C19.7878 21.9814 19.7864 22.218 19.785 22.4617C19.7815 22.7097 19.778 22.9577 19.7743 23.2132C19.7724 23.4628 19.7705 23.7124 19.7686 23.9696C19.7636 24.5876 19.756 25.2055 19.748 25.8235C18.9126 25.8931 18.0773 25.9627 17.2167 26.0344C17.2167 26.2433 17.2167 26.4521 17.2167 26.6673C18.052 26.7369 18.8873 26.8065 19.748 26.8782C19.537 27.7219 19.537 27.7219 19.3261 27.9329C18.7686 27.9568 18.2168 27.9675 17.6592 27.9683C17.4919 27.969 17.3247 27.9697 17.1524 27.9704C16.7979 27.9715 16.4434 27.972 16.0889 27.972C15.5454 27.9724 15.002 27.9763 14.4585 27.9803C14.1147 27.9809 13.771 27.9813 13.4273 27.9815C13.1824 27.9838 13.1824 27.9838 12.9325 27.9861C11.7806 27.9812 11.7806 27.9812 11.3105 27.511C11.2626 27.0565 11.2626 27.0565 11.2693 26.5008C11.2706 26.3023 11.272 26.1038 11.2734 25.8993C11.2769 25.6916 11.2805 25.4838 11.2841 25.2698C11.286 25.0604 11.2879 24.8511 11.2899 24.6353C11.2948 24.1173 11.3024 23.5993 11.3105 23.0813C12.0066 23.0117 12.7026 22.9421 13.4198 22.8704C13.4198 22.5919 13.4198 22.3135 13.4198 22.0266C12.7237 21.957 12.0276 21.8874 11.3105 21.8157C11.2841 21.2093 11.2841 21.2093 11.3105 20.5501C11.8474 20.0131 12.1947 20.076 12.9271 20.0696Z" fill="white"/>
<path d="M21.0137 21.6047C23.2412 21.6047 25.4687 21.6047 27.7637 21.6047C27.7637 23.2058 27.7637 24.8068 27.7637 26.4563C25.5362 26.4563 23.3087 26.4563 21.0137 26.4563C21.0137 24.8553 21.0137 23.2543 21.0137 21.6047Z" fill="white"/>
<path d="M3.29492 21.6047C5.52242 21.6047 7.74992 21.6047 10.0449 21.6047C10.0449 23.2058 10.0449 24.8068 10.0449 26.4563C7.81742 26.4563 5.58992 26.4563 3.29492 26.4563C3.29492 24.8553 3.29492 23.2543 3.29492 21.6047Z" fill="white"/>
<path d="M13.4199 17.175C14.8121 17.175 16.2043 17.175 17.6387 17.175C17.6387 17.7319 17.6387 18.2888 17.6387 18.8625C16.2465 18.8625 14.8543 18.8625 13.4199 18.8625C13.4199 18.3057 13.4199 17.7488 13.4199 17.175Z" fill="white"/>
<path d="M18.6835 6.85644C18.8972 6.95229 18.8972 6.95229 19.1152 7.05008C18.9256 8.12783 18.2284 8.6861 17.4805 9.43631C17.3494 9.57512 17.2183 9.71393 17.0833 9.85695C16.7196 10.2241 16.3782 10.5557 15.9512 10.847C15.3282 10.8296 15.3282 10.8296 14.8965 10.636C15.0861 9.55826 15.7833 8.99999 16.5312 8.24978C16.7278 8.04157 16.7278 8.04157 16.9284 7.82915C17.9132 6.83505 17.9132 6.83505 18.6835 6.85644Z" fill="#3AE0C5"/>
<path d="M15.8721 21.7893C16.2245 21.8024 16.2245 21.8024 16.584 21.8157C16.7232 22.0941 16.8624 22.3725 17.0059 22.6594C16.584 23.0813 16.584 23.0813 15.8193 23.1077C15.5844 23.099 15.3495 23.0903 15.1074 23.0813C14.9682 22.8029 14.829 22.5244 14.6855 22.2375C15.1074 21.8157 15.1074 21.8157 15.8721 21.7893Z" fill="#3AE0C5"/>
<path d="M15.8721 21.7893C16.2245 21.8024 16.2245 21.8024 16.584 21.8157C16.7232 22.0941 16.8624 22.3725 17.0059 22.6594C16.584 23.0813 16.584 23.0813 15.8193 23.1077C15.5844 23.099 15.3495 23.0903 15.1074 23.0813C14.9682 22.8029 14.829 22.5244 14.6855 22.2375C15.1074 21.8157 15.1074 21.8157 15.8721 21.7893Z" fill="white" fill-opacity="0.2"/>
<path d="M15.1074 14.011C15.4555 14.0806 15.8035 14.1502 16.1621 14.2219C16.0925 14.5004 16.0229 14.7788 15.9512 15.0657C15.6031 14.9961 15.2551 14.9265 14.8965 14.8547C14.9661 14.5763 15.0357 14.2979 15.1074 14.011Z" fill="#3AE0C5"/>
<path d="M15.1074 5.57349C15.4555 5.6431 15.8035 5.71271 16.1621 5.78442C16.0925 6.06286 16.0229 6.3413 15.9512 6.62817C15.6031 6.55856 15.2551 6.48896 14.8965 6.41724C14.9661 6.1388 15.0357 5.86036 15.1074 5.57349Z" fill="#3AE0C5"/>
<path d="M12.1543 12.7454C12.4327 12.7454 12.7112 12.7454 12.998 12.7454C13.0677 13.0238 13.1373 13.3022 13.209 13.5891C12.8609 13.6587 12.5129 13.7283 12.1543 13.8C12.0356 13.3914 12.0356 13.3914 11.9434 12.9563C12.013 12.8867 12.0826 12.8171 12.1543 12.7454Z" fill="#3AE0C5"/>
<path d="M18.0605 12.7454C18.4086 12.815 18.7566 12.8846 19.1152 12.9563C19.0456 13.2347 18.976 13.5132 18.9043 13.8C18.5562 13.7304 18.2082 13.6608 17.8496 13.5891C17.9192 13.3107 17.9888 13.0322 18.0605 12.7454Z" fill="#3AE0C5"/>
<path d="M19.3262 9.79224C19.6046 9.79224 19.883 9.79224 20.1699 9.79224C20.1699 10.1403 20.1699 10.4883 20.1699 10.8469C19.8219 10.7773 19.4738 10.7077 19.1152 10.636C19.1848 10.3575 19.2545 10.0791 19.3262 9.79224Z" fill="#3AE0C5"/>
<path d="M10.8887 9.79224C11.4107 9.89665 11.4107 9.89665 11.9434 10.0032C11.8737 10.2816 11.8041 10.56 11.7324 10.8469C11.454 10.8469 11.1755 10.8469 10.8887 10.8469C10.8887 10.4989 10.8887 10.1508 10.8887 9.79224Z" fill="#3AE0C5"/>
<path d="M12.1543 6.83911C12.4327 6.83911 12.7112 6.83911 12.998 6.83911C12.998 7.18716 12.998 7.53521 12.998 7.8938C12.65 7.82419 12.302 7.75458 11.9434 7.68286C12.013 7.40442 12.0826 7.12599 12.1543 6.83911Z" fill="#3AE0C5"/>
<defs>
<linearGradient id="paint0_linear_2873_5158" x1="15.5293" y1="3" x2="15.5293" y2="29.2995" gradientUnits="userSpaceOnUse">
<stop stop-color="#10BE77"/>
<stop offset="1" stop-color="#2196F3"/>
</linearGradient>
</defs>
</svg>
