<svg width="32" height="32" viewBox="0 0 32 32" fill="none" xmlns="http://www.w3.org/2000/svg">
<path d="M24.6667 3H7.33333C4.9401 3 3 4.9401 3 7.33333V24.6667C3 27.0599 4.9401 29 7.33333 29H24.6667C27.0599 29 29 27.0599 29 24.6667V7.33333C29 4.9401 27.0599 3 24.6667 3Z" fill="url(#paint0_linear_2873_5230)"/>
<path d="M18.1667 7.33331L13.8333 17.0833H17.0833L12.75 24.6666L19.25 14.9166H16L18.1667 7.33331Z" fill="#FFCA28" stroke="#FBBF24" stroke-width="2"/>
<path d="M21.4601 20.3334C20.3768 23.5834 14.9601 23.5834 12.7935 20.3334" stroke="white" stroke-width="2" stroke-linecap="round"/>
<path d="M14.9166 20.55C15.2756 20.55 15.5666 20.259 15.5666 19.9C15.5666 19.541 15.2756 19.25 14.9166 19.25C14.5576 19.25 14.2666 19.541 14.2666 19.9C14.2666 20.259 14.5576 20.55 14.9166 20.55Z" fill="white"/>
<path d="M19.2501 20.55C19.6091 20.55 19.9001 20.259 19.9001 19.9C19.9001 19.541 19.6091 19.25 19.2501 19.25C18.8911 19.25 18.6001 19.541 18.6001 19.9C18.6001 20.259 18.8911 20.55 19.2501 20.55Z" fill="white"/>
<defs>
<linearGradient id="paint0_linear_2873_5230" x1="16" y1="3" x2="16" y2="29" gradientUnits="userSpaceOnUse">
<stop stop-color="#10BE77"/>
<stop offset="1" stop-color="#2196F3"/>
</linearGradient>
</defs>
</svg>
