<svg width="32" height="32" viewBox="0 0 32 32" fill="none" xmlns="http://www.w3.org/2000/svg">
<mask id="mask0_2871_5032" style="mask-type:luminance" maskUnits="userSpaceOnUse" x="6" y="3" width="20" height="27">
<path d="M26 3H6V30H26V3Z" fill="white"/>
</mask>
<g mask="url(#mask0_2871_5032)">
<g style="mix-blend-mode:plus-lighter">
<path d="M6 4.86207C6 3.83368 6.82655 3 7.84615 3H18.9231C19.9427 3 20.7692 3.83368 20.7692 4.86207V28.1379C20.7692 29.1663 19.9427 30 18.9231 30H7.84615C6.82655 30 6 29.1663 6 28.1379V4.86207Z" fill="#10BE77"/>
<path d="M6 4.86207C6 3.83368 6.82655 3 7.84615 3H18.9231C19.9427 3 20.7692 3.83368 20.7692 4.86207V28.1379C20.7692 29.1663 19.9427 30 18.9231 30H7.84615C6.82655 30 6 29.1663 6 28.1379V4.86207Z" fill="#2196F3" fill-opacity="0.2"/>
</g>
<path d="M6.2334 5.68402C10.9534 5.68402 15.6733 5.68402 20.5363 5.68402C20.5363 12.785 20.5363 19.886 20.5363 27.2021C20.0802 27.2021 19.624 27.2021 19.1541 27.2021C19.1507 26.9317 19.1507 26.9317 19.1473 26.6558C19.1445 26.4809 19.1414 26.306 19.1383 26.1311C19.1363 26.0097 19.1346 25.8883 19.1332 25.7668C19.1312 25.5921 19.1281 25.4174 19.1247 25.2428C19.1242 25.1616 19.1242 25.1616 19.1236 25.0788C19.1168 24.7893 19.1023 24.587 18.9137 24.3532C18.771 24.2812 18.6829 24.2843 18.5235 24.283C18.4667 24.2824 18.4099 24.2818 18.3514 24.2812C18.2576 24.2807 18.2576 24.2807 18.162 24.2801C18.0963 24.2795 18.0307 24.279 17.963 24.2783C17.7451 24.2764 17.5273 24.2749 17.3094 24.2734C17.1587 24.2722 17.008 24.2709 16.8572 24.2696C16.5005 24.2666 16.1438 24.2638 15.787 24.2612C15.3412 24.2579 14.8953 24.2542 14.4494 24.2506C13.6539 24.244 12.8583 24.2379 12.0627 24.232C12.0794 24.2766 12.096 24.3212 12.1132 24.3672C12.135 24.4263 12.1568 24.4855 12.1791 24.5464C12.2008 24.6048 12.2224 24.6631 12.2447 24.7233C12.4876 25.4525 12.445 26.3266 12.1228 27.0202C12.0831 27.0802 12.0435 27.1403 12.0026 27.2021C10.0988 27.2021 8.19494 27.2021 6.2334 27.2021C6.2334 20.1011 6.2334 13.0002 6.2334 5.68402Z" fill="#FDFEFE"/>
<path d="M8.50999 7.12984C8.55303 7.12962 8.59607 7.12938 8.64041 7.12916C8.78536 7.12848 8.93032 7.12826 9.07527 7.12804C9.1789 7.12764 9.28253 7.12724 9.3862 7.12683C9.66829 7.12578 9.95041 7.12513 10.2325 7.12463C10.4087 7.12432 10.5849 7.12395 10.7611 7.12357C11.3122 7.12239 11.8632 7.12156 12.4143 7.12103C13.0508 7.12044 13.6872 7.11886 14.3237 7.1164C14.8154 7.11457 15.307 7.11367 15.7988 7.11349C16.0925 7.11333 16.3863 7.1128 16.6801 7.11125C16.9565 7.10986 17.2329 7.10961 17.5094 7.11023C17.6108 7.11026 17.7122 7.10985 17.8136 7.10905C17.9522 7.10796 18.0907 7.1084 18.2292 7.10921C18.3455 7.10899 18.3455 7.10899 18.4641 7.10874C18.7417 7.14856 18.9404 7.26199 19.1155 7.48522C19.176 7.70209 19.1713 7.91818 19.1706 8.1416C19.1709 8.19377 19.1712 8.24594 19.1715 8.29971C19.1724 8.47205 19.1723 8.64444 19.1722 8.81678C19.1724 8.93663 19.1727 9.05653 19.1729 9.17643C19.1734 9.42767 19.1734 9.6789 19.1731 9.93019C19.1728 10.2521 19.1738 10.574 19.1751 10.8959C19.176 11.1434 19.1761 11.391 19.1759 11.6386C19.1759 11.7573 19.1763 11.8759 19.1769 11.9946C19.1776 12.1606 19.1772 12.3266 19.1765 12.4926C19.1769 12.5415 19.1774 12.5905 19.1779 12.641C19.1753 12.9197 19.1488 13.1022 18.9738 13.3214C18.7617 13.5292 18.5898 13.5262 18.3005 13.5268C18.235 13.5272 18.2349 13.5272 18.1681 13.5277C18.0217 13.5286 17.8754 13.5281 17.7289 13.5278C17.624 13.5281 17.5191 13.5285 17.4141 13.529C17.129 13.5301 16.844 13.53 16.5589 13.5297C16.321 13.5295 16.0831 13.5299 15.8452 13.5302C15.284 13.5311 14.7227 13.531 14.1615 13.5303C13.5824 13.5296 13.0032 13.5305 12.424 13.5321C11.9269 13.5334 11.4298 13.5338 10.9327 13.5335C10.6357 13.5333 10.3388 13.5334 10.0418 13.5344C9.76256 13.5354 9.48333 13.5351 9.2041 13.534C9.10161 13.5338 8.9991 13.534 8.8966 13.5346C8.75669 13.5354 8.61685 13.5347 8.47695 13.5336C8.39865 13.5336 8.32035 13.5336 8.23969 13.5336C8.00267 13.4983 7.90398 13.4295 7.73584 13.2608C7.63611 13.0596 7.66525 12.8344 7.66415 12.6131C7.66366 12.5587 7.66317 12.5041 7.66267 12.448C7.66117 12.2671 7.66018 12.0862 7.65932 11.9053C7.659 11.8435 7.65868 11.7818 7.65835 11.7183C7.65674 11.3918 7.65557 11.0651 7.65471 10.7386C7.65371 10.401 7.65101 10.0635 7.64795 9.72604C7.64594 9.4667 7.64524 9.20737 7.6449 8.94807C7.6445 8.8236 7.64358 8.69917 7.64214 8.57474C7.64024 8.40062 7.64024 8.22653 7.64068 8.05241C7.6397 8.00097 7.63871 7.94953 7.6377 7.89654C7.64046 7.6323 7.65089 7.53366 7.82067 7.32033C8.06705 7.12875 8.19923 7.13086 8.50999 7.12984Z" fill="#FF6B01"/>
<path d="M8.50999 7.12984C8.55303 7.12962 8.59607 7.12938 8.64041 7.12916C8.78536 7.12848 8.93032 7.12826 9.07527 7.12804C9.1789 7.12764 9.28253 7.12724 9.3862 7.12683C9.66829 7.12578 9.95041 7.12513 10.2325 7.12463C10.4087 7.12432 10.5849 7.12395 10.7611 7.12357C11.3122 7.12239 11.8632 7.12156 12.4143 7.12103C13.0508 7.12044 13.6872 7.11886 14.3237 7.1164C14.8154 7.11457 15.307 7.11367 15.7988 7.11349C16.0925 7.11333 16.3863 7.1128 16.6801 7.11125C16.9565 7.10986 17.2329 7.10961 17.5094 7.11023C17.6108 7.11026 17.7122 7.10985 17.8136 7.10905C17.9522 7.10796 18.0907 7.1084 18.2292 7.10921C18.3455 7.10899 18.3455 7.10899 18.4641 7.10874C18.7417 7.14856 18.9404 7.26199 19.1155 7.48522C19.176 7.70209 19.1713 7.91818 19.1706 8.1416C19.1709 8.19377 19.1712 8.24594 19.1715 8.29971C19.1724 8.47205 19.1723 8.64444 19.1722 8.81678C19.1724 8.93663 19.1727 9.05653 19.1729 9.17643C19.1734 9.42767 19.1734 9.6789 19.1731 9.93019C19.1728 10.2521 19.1738 10.574 19.1751 10.8959C19.176 11.1434 19.1761 11.391 19.1759 11.6386C19.1759 11.7573 19.1763 11.8759 19.1769 11.9946C19.1776 12.1606 19.1772 12.3266 19.1765 12.4926C19.1769 12.5415 19.1774 12.5905 19.1779 12.641C19.1753 12.9197 19.1488 13.1022 18.9738 13.3214C18.7617 13.5292 18.5898 13.5262 18.3005 13.5268C18.235 13.5272 18.2349 13.5272 18.1681 13.5277C18.0217 13.5286 17.8754 13.5281 17.7289 13.5278C17.624 13.5281 17.5191 13.5285 17.4141 13.529C17.129 13.5301 16.844 13.53 16.5589 13.5297C16.321 13.5295 16.0831 13.5299 15.8452 13.5302C15.284 13.5311 14.7227 13.531 14.1615 13.5303C13.5824 13.5296 13.0032 13.5305 12.424 13.5321C11.9269 13.5334 11.4298 13.5338 10.9327 13.5335C10.6357 13.5333 10.3388 13.5334 10.0418 13.5344C9.76256 13.5354 9.48333 13.5351 9.2041 13.534C9.10161 13.5338 8.9991 13.534 8.8966 13.5346C8.75669 13.5354 8.61685 13.5347 8.47695 13.5336C8.39865 13.5336 8.32035 13.5336 8.23969 13.5336C8.00267 13.4983 7.90398 13.4295 7.73584 13.2608C7.63611 13.0596 7.66525 12.8344 7.66415 12.6131C7.66366 12.5587 7.66317 12.5041 7.66267 12.448C7.66117 12.2671 7.66018 12.0862 7.65932 11.9053C7.659 11.8435 7.65868 11.7818 7.65835 11.7183C7.65674 11.3918 7.65557 11.0651 7.65471 10.7386C7.65371 10.401 7.65101 10.0635 7.64795 9.72604C7.64594 9.4667 7.64524 9.20737 7.6449 8.94807C7.6445 8.8236 7.64358 8.69917 7.64214 8.57474C7.64024 8.40062 7.64024 8.22653 7.64068 8.05241C7.6397 8.00097 7.63871 7.94953 7.6377 7.89654C7.64046 7.6323 7.65089 7.53366 7.82067 7.32033C8.06705 7.12875 8.19923 7.13086 8.50999 7.12984Z" fill="#3AE0C5"/>
<path d="M8.50999 7.12984C8.55303 7.12962 8.59607 7.12938 8.64041 7.12916C8.78536 7.12848 8.93032 7.12826 9.07527 7.12804C9.1789 7.12764 9.28253 7.12724 9.3862 7.12683C9.66829 7.12578 9.95041 7.12513 10.2325 7.12463C10.4087 7.12432 10.5849 7.12395 10.7611 7.12357C11.3122 7.12239 11.8632 7.12156 12.4143 7.12103C13.0508 7.12044 13.6872 7.11886 14.3237 7.1164C14.8154 7.11457 15.307 7.11367 15.7988 7.11349C16.0925 7.11333 16.3863 7.1128 16.6801 7.11125C16.9565 7.10986 17.2329 7.10961 17.5094 7.11023C17.6108 7.11026 17.7122 7.10985 17.8136 7.10905C17.9522 7.10796 18.0907 7.1084 18.2292 7.10921C18.3455 7.10899 18.3455 7.10899 18.4641 7.10874C18.7417 7.14856 18.9404 7.26199 19.1155 7.48522C19.176 7.70209 19.1713 7.91818 19.1706 8.1416C19.1709 8.19377 19.1712 8.24594 19.1715 8.29971C19.1724 8.47205 19.1723 8.64444 19.1722 8.81678C19.1724 8.93663 19.1727 9.05653 19.1729 9.17643C19.1734 9.42767 19.1734 9.6789 19.1731 9.93019C19.1728 10.2521 19.1738 10.574 19.1751 10.8959C19.176 11.1434 19.1761 11.391 19.1759 11.6386C19.1759 11.7573 19.1763 11.8759 19.1769 11.9946C19.1776 12.1606 19.1772 12.3266 19.1765 12.4926C19.1769 12.5415 19.1774 12.5905 19.1779 12.641C19.1753 12.9197 19.1488 13.1022 18.9738 13.3214C18.7617 13.5292 18.5898 13.5262 18.3005 13.5268C18.235 13.5272 18.2349 13.5272 18.1681 13.5277C18.0217 13.5286 17.8754 13.5281 17.7289 13.5278C17.624 13.5281 17.5191 13.5285 17.4141 13.529C17.129 13.5301 16.844 13.53 16.5589 13.5297C16.321 13.5295 16.0831 13.5299 15.8452 13.5302C15.284 13.5311 14.7227 13.531 14.1615 13.5303C13.5824 13.5296 13.0032 13.5305 12.424 13.5321C11.9269 13.5334 11.4298 13.5338 10.9327 13.5335C10.6357 13.5333 10.3388 13.5334 10.0418 13.5344C9.76256 13.5354 9.48333 13.5351 9.2041 13.534C9.10161 13.5338 8.9991 13.534 8.8966 13.5346C8.75669 13.5354 8.61685 13.5347 8.47695 13.5336C8.39865 13.5336 8.32035 13.5336 8.23969 13.5336C8.00267 13.4983 7.90398 13.4295 7.73584 13.2608C7.63611 13.0596 7.66525 12.8344 7.66415 12.6131C7.66366 12.5587 7.66317 12.5041 7.66267 12.448C7.66117 12.2671 7.66018 12.0862 7.65932 11.9053C7.659 11.8435 7.65868 11.7818 7.65835 11.7183C7.65674 11.3918 7.65557 11.0651 7.65471 10.7386C7.65371 10.401 7.65101 10.0635 7.64795 9.72604C7.64594 9.4667 7.64524 9.20737 7.6449 8.94807C7.6445 8.8236 7.64358 8.69917 7.64214 8.57474C7.64024 8.40062 7.64024 8.22653 7.64068 8.05241C7.6397 8.00097 7.63871 7.94953 7.6377 7.89654C7.64046 7.6323 7.65089 7.53366 7.82067 7.32033C8.06705 7.12875 8.19923 7.13086 8.50999 7.12984Z" fill="white" fill-opacity="0.2"/>
<path d="M12.0626 24.2319C12.935 24.2248 13.8074 24.2195 14.6798 24.2162C15.0849 24.2147 15.49 24.2126 15.895 24.2091C16.2859 24.2057 16.6766 24.204 17.0675 24.2032C17.2167 24.2026 17.3659 24.2015 17.5151 24.1999C17.7239 24.1977 17.9326 24.1974 18.1414 24.1975C18.2033 24.1965 18.2651 24.1954 18.3289 24.1942C18.749 24.1973 18.749 24.1973 18.9806 24.378C19.122 24.5741 19.1615 24.6664 19.1608 24.9037C19.1608 24.9547 19.1608 25.0056 19.1608 25.0581C19.1603 25.1407 19.1603 25.1407 19.1598 25.225C19.1597 25.3095 19.1597 25.3095 19.1596 25.3957C19.1592 25.576 19.1585 25.7564 19.1577 25.9367C19.1574 26.0588 19.1571 26.1809 19.1569 26.303C19.1563 26.6027 19.1551 26.9024 19.154 27.2021C19.6101 27.2021 20.0662 27.2021 20.5362 27.2021C20.5814 28.5804 20.5814 28.5804 20.2357 28.9599C19.932 29.2858 19.6032 29.485 19.1575 29.5284C19.0696 29.5295 18.9817 29.5296 18.8938 29.5289C18.845 29.5292 18.7963 29.5296 18.746 29.5298C18.5834 29.5307 18.4209 29.5303 18.2583 29.5298C18.1414 29.5302 18.0245 29.5306 17.9076 29.5311C17.5906 29.5322 17.2736 29.5322 16.9566 29.5318C16.6917 29.5316 16.4267 29.532 16.1618 29.5323C15.5366 29.5332 14.9114 29.5331 14.2861 29.5324C13.6419 29.5317 12.9976 29.5326 12.3534 29.5342C11.7996 29.5355 11.2458 29.5359 10.692 29.5356C10.3616 29.5354 10.0311 29.5355 9.70068 29.5366C9.38976 29.5375 9.07886 29.5373 8.76796 29.5361C8.65415 29.5359 8.54034 29.5361 8.42653 29.5367C7.17228 29.5432 7.17228 29.5432 6.67462 29.1305C6.63805 29.0855 6.60149 29.0404 6.56381 28.9939C6.52601 28.949 6.48821 28.9041 6.44926 28.8578C6.07975 28.3161 6.23329 27.9535 6.23329 27.2021C9.08905 27.172 9.08905 27.172 12.0025 27.1414C12.3256 26.3268 12.4485 25.5206 12.168 24.6721C12.1199 24.5265 12.0913 24.3825 12.0626 24.2319Z" fill="#3AE0C5"/>
<path d="M12.0626 24.2319C12.935 24.2248 13.8074 24.2195 14.6798 24.2162C15.0849 24.2147 15.49 24.2126 15.895 24.2091C16.2859 24.2057 16.6766 24.204 17.0675 24.2032C17.2167 24.2026 17.3659 24.2015 17.5151 24.1999C17.7239 24.1977 17.9326 24.1974 18.1414 24.1975C18.2033 24.1965 18.2651 24.1954 18.3289 24.1942C18.749 24.1973 18.749 24.1973 18.9806 24.378C19.122 24.5741 19.1615 24.6664 19.1608 24.9037C19.1608 24.9547 19.1608 25.0056 19.1608 25.0581C19.1603 25.1407 19.1603 25.1407 19.1598 25.225C19.1597 25.3095 19.1597 25.3095 19.1596 25.3957C19.1592 25.576 19.1585 25.7564 19.1577 25.9367C19.1574 26.0588 19.1571 26.1809 19.1569 26.303C19.1563 26.6027 19.1551 26.9024 19.154 27.2021C19.6101 27.2021 20.0662 27.2021 20.5362 27.2021C20.5814 28.5804 20.5814 28.5804 20.2357 28.9599C19.932 29.2858 19.6032 29.485 19.1575 29.5284C19.0696 29.5295 18.9817 29.5296 18.8938 29.5289C18.845 29.5292 18.7963 29.5296 18.746 29.5298C18.5834 29.5307 18.4209 29.5303 18.2583 29.5298C18.1414 29.5302 18.0245 29.5306 17.9076 29.5311C17.5906 29.5322 17.2736 29.5322 16.9566 29.5318C16.6917 29.5316 16.4267 29.532 16.1618 29.5323C15.5366 29.5332 14.9114 29.5331 14.2861 29.5324C13.6419 29.5317 12.9976 29.5326 12.3534 29.5342C11.7996 29.5355 11.2458 29.5359 10.692 29.5356C10.3616 29.5354 10.0311 29.5355 9.70068 29.5366C9.38976 29.5375 9.07886 29.5373 8.76796 29.5361C8.65415 29.5359 8.54034 29.5361 8.42653 29.5367C7.17228 29.5432 7.17228 29.5432 6.67462 29.1305C6.63805 29.0855 6.60149 29.0404 6.56381 28.9939C6.52601 28.949 6.48821 28.9041 6.44926 28.8578C6.07975 28.3161 6.23329 27.9535 6.23329 27.2021C9.08905 27.172 9.08905 27.172 12.0025 27.1414C12.3256 26.3268 12.4485 25.5206 12.168 24.6721C12.1199 24.5265 12.0913 24.3825 12.0626 24.2319Z" fill="white" fill-opacity="0.2"/>
<path d="M12.0626 24.2319C12.935 24.2248 13.8074 24.2195 14.6798 24.2162C15.0849 24.2147 15.49 24.2126 15.895 24.2091C16.2859 24.2057 16.6766 24.204 17.0675 24.2032C17.2167 24.2026 17.3659 24.2015 17.5151 24.1999C17.7239 24.1977 17.9326 24.1974 18.1414 24.1975C18.2033 24.1965 18.2651 24.1954 18.3289 24.1942C18.749 24.1973 18.749 24.1973 18.9806 24.378C19.122 24.5741 19.1615 24.6664 19.1608 24.9037C19.1608 24.9547 19.1608 25.0056 19.1608 25.0581C19.1603 25.1407 19.1603 25.1407 19.1598 25.225C19.1597 25.3095 19.1597 25.3095 19.1596 25.3957C19.1592 25.576 19.1585 25.7564 19.1577 25.9367C19.1574 26.0588 19.1571 26.1809 19.1569 26.303C19.1563 26.6027 19.1551 26.9024 19.154 27.2021C19.6101 27.2021 20.0662 27.2021 20.5362 27.2021C20.5814 28.5804 20.5814 28.5804 20.2357 28.9599C19.932 29.2858 19.6032 29.485 19.1575 29.5284C19.0696 29.5295 18.9817 29.5296 18.8938 29.5289C18.845 29.5292 18.7963 29.5296 18.746 29.5298C18.5834 29.5307 18.4209 29.5303 18.2583 29.5298C18.1414 29.5302 18.0245 29.5306 17.9076 29.5311C17.5906 29.5322 17.2736 29.5322 16.9566 29.5318C16.6917 29.5316 16.4267 29.532 16.1618 29.5323C15.5366 29.5332 14.9114 29.5331 14.2861 29.5324C13.6419 29.5317 12.9976 29.5326 12.3534 29.5342C11.7996 29.5355 11.2458 29.5359 10.692 29.5356C10.3616 29.5354 10.0311 29.5355 9.70068 29.5366C9.38976 29.5375 9.07886 29.5373 8.76796 29.5361C8.65415 29.5359 8.54034 29.5361 8.42653 29.5367C7.17228 29.5432 7.17228 29.5432 6.67462 29.1305C6.63805 29.0855 6.60149 29.0404 6.56381 28.9939C6.52601 28.949 6.48821 28.9041 6.44926 28.8578C6.07975 28.3161 6.23329 27.9535 6.23329 27.2021C9.08905 27.172 9.08905 27.172 12.0025 27.1414C12.3256 26.3268 12.4485 25.5206 12.168 24.6721C12.1199 24.5265 12.0913 24.3825 12.0626 24.2319Z" fill="white" fill-opacity="0.2"/>
<path d="M19.0336 8.83594C19.1462 8.94952 19.1043 9.14218 19.1063 9.29366C19.1069 9.33521 19.1074 9.37667 19.108 9.41941C19.1098 9.55739 19.1111 9.69532 19.1123 9.83325C19.1126 9.88029 19.1131 9.92733 19.1134 9.9758C19.1154 10.2249 19.1169 10.4741 19.1181 10.7232C19.1191 10.9295 19.1212 11.1357 19.1242 11.3419C19.1278 11.5908 19.1297 11.8396 19.1303 12.0885C19.1308 12.1833 19.1319 12.2781 19.1337 12.373C19.136 12.5059 19.1361 12.6387 19.1356 12.7717C19.1365 12.8851 19.1365 12.8851 19.1375 13.0008C19.091 13.2127 19.0338 13.3206 18.8571 13.4485C18.5851 13.5686 18.2887 13.5422 17.9971 13.5376C17.9232 13.5377 17.8493 13.5377 17.7731 13.5378C17.5712 13.5376 17.3694 13.5361 17.1675 13.534C16.9563 13.5321 16.7451 13.5319 16.5337 13.5315C16.1341 13.5306 15.7344 13.5281 15.3347 13.5251C14.8795 13.5217 14.4243 13.52 13.9691 13.5185C13.0331 13.5153 12.0971 13.51 11.161 13.5033C11.16 13.3382 11.1592 13.1732 11.1587 13.0081C11.1584 12.9617 11.1581 12.9152 11.1577 12.8674C11.1569 12.5373 11.18 12.2243 11.2474 11.9008C11.2555 11.8573 11.2636 11.8138 11.2719 11.769C11.3302 11.4647 11.3302 11.4647 11.4014 11.3211C11.4572 11.3199 11.513 11.3187 11.5705 11.3175C11.7773 11.3128 11.984 11.3075 12.1908 11.3019C12.2803 11.2996 12.3698 11.2975 12.4594 11.2955C12.588 11.2928 12.7166 11.2893 12.8451 11.2856C12.9226 11.2837 13 11.2818 13.0797 11.2799C13.2707 11.2796 13.2707 11.2796 13.3846 11.1393C13.3671 10.9388 13.3671 10.9388 13.2644 10.7756C13.1487 10.766 13.0327 10.7604 12.9167 10.7564C12.8112 10.7526 12.8112 10.7526 12.7037 10.7487C12.6296 10.7463 12.5556 10.744 12.4794 10.7415C12.4051 10.7389 12.3309 10.7363 12.2544 10.7336C12.0702 10.7271 11.8861 10.7209 11.7019 10.715C11.7655 10.5087 11.8226 10.3505 11.9423 10.1695C12.0689 10.1461 12.0689 10.1461 12.2237 10.1448C12.2795 10.1435 12.3352 10.1422 12.3926 10.1408C12.4802 10.14 12.4802 10.14 12.5695 10.1392C12.6846 10.1381 12.7997 10.1362 12.9149 10.1334C12.9916 10.1328 12.9916 10.1328 13.0699 10.1322C13.2328 10.1039 13.2883 10.061 13.3846 9.92701C13.3801 9.76776 13.3801 9.76776 13.3245 9.62393C13.1701 9.54608 13.0381 9.54334 12.8662 9.52924C12.806 9.52412 12.7457 9.51904 12.6836 9.51382C12.6373 9.51016 12.591 9.5065 12.5432 9.5027C13.0667 8.79365 13.8444 8.41135 14.6466 8.10854C14.7036 8.08662 14.7606 8.06465 14.8194 8.04205C16.2143 7.60236 17.8733 8.00512 19.0336 8.83594Z" fill="#10BE77"/>
<path d="M7.96557 3.37214C8.01325 3.37196 8.06093 3.37178 8.11005 3.37159C8.26999 3.37107 8.42993 3.37098 8.58987 3.37089C8.70448 3.37061 8.81909 3.3703 8.93371 3.36997C9.24524 3.36918 9.55678 3.36879 9.86835 3.36852C10.063 3.36834 10.2577 3.36809 10.4524 3.36782C11.0617 3.36699 11.671 3.36641 12.2804 3.36617C12.9834 3.3659 13.6865 3.36484 14.3895 3.36308C14.9331 3.36177 15.4767 3.36116 16.0203 3.36108C16.3449 3.36101 16.6695 3.36066 16.9941 3.35957C17.2995 3.35858 17.605 3.35844 17.9105 3.35898C18.0224 3.35902 18.1343 3.35876 18.2462 3.35816C19.6512 3.35107 19.6512 3.35107 20.1757 3.86557C20.6389 4.48399 20.5363 4.7817 20.5363 5.68399C15.8163 5.68399 11.0964 5.68399 6.2334 5.68399C6.2334 4.33701 6.2334 4.33701 6.609 3.88451C7.05397 3.5071 7.38476 3.37145 7.96557 3.37214Z" fill="#3AE0C5"/>
<path d="M7.96557 3.37214C8.01325 3.37196 8.06093 3.37178 8.11005 3.37159C8.26999 3.37107 8.42993 3.37098 8.58987 3.37089C8.70448 3.37061 8.81909 3.3703 8.93371 3.36997C9.24524 3.36918 9.55678 3.36879 9.86835 3.36852C10.063 3.36834 10.2577 3.36809 10.4524 3.36782C11.0617 3.36699 11.671 3.36641 12.2804 3.36617C12.9834 3.3659 13.6865 3.36484 14.3895 3.36308C14.9331 3.36177 15.4767 3.36116 16.0203 3.36108C16.3449 3.36101 16.6695 3.36066 16.9941 3.35957C17.2995 3.35858 17.605 3.35844 17.9105 3.35898C18.0224 3.35902 18.1343 3.35876 18.2462 3.35816C19.6512 3.35107 19.6512 3.35107 20.1757 3.86557C20.6389 4.48399 20.5363 4.7817 20.5363 5.68399C15.8163 5.68399 11.0964 5.68399 6.2334 5.68399C6.2334 4.33701 6.2334 4.33701 6.609 3.88451C7.05397 3.5071 7.38476 3.37145 7.96557 3.37214Z" fill="white" fill-opacity="0.2"/>
<path d="M7.96557 3.37214C8.01325 3.37196 8.06093 3.37178 8.11005 3.37159C8.26999 3.37107 8.42993 3.37098 8.58987 3.37089C8.70448 3.37061 8.81909 3.3703 8.93371 3.36997C9.24524 3.36918 9.55678 3.36879 9.86835 3.36852C10.063 3.36834 10.2577 3.36809 10.4524 3.36782C11.0617 3.36699 11.671 3.36641 12.2804 3.36617C12.9834 3.3659 13.6865 3.36484 14.3895 3.36308C14.9331 3.36177 15.4767 3.36116 16.0203 3.36108C16.3449 3.36101 16.6695 3.36066 16.9941 3.35957C17.2995 3.35858 17.605 3.35844 17.9105 3.35898C18.0224 3.35902 18.1343 3.35876 18.2462 3.35816C19.6512 3.35107 19.6512 3.35107 20.1757 3.86557C20.6389 4.48399 20.5363 4.7817 20.5363 5.68399C15.8163 5.68399 11.0964 5.68399 6.2334 5.68399C6.2334 4.33701 6.2334 4.33701 6.609 3.88451C7.05397 3.5071 7.38476 3.37145 7.96557 3.37214Z" fill="white" fill-opacity="0.2"/>
<path d="M12.0625 24.2319C12.9349 24.2248 13.8073 24.2195 14.6797 24.2162C15.0848 24.2147 15.4899 24.2126 15.8949 24.2091C16.2858 24.2057 16.6766 24.204 17.0674 24.2032C17.2166 24.2026 17.3658 24.2015 17.515 24.1999C17.7238 24.1977 17.9325 24.1974 18.1413 24.1975C18.2032 24.1965 18.265 24.1954 18.3288 24.1942C18.7489 24.1973 18.7489 24.1973 18.9805 24.378C19.5308 25.1406 19.1539 26.2589 19.1539 27.2021C16.7939 27.2021 14.4339 27.2021 12.0024 27.2021C12.1016 26.902 12.2008 26.602 12.3029 26.2928C12.3267 26.0905 12.3416 25.9299 12.3329 25.7321C12.3316 25.6637 12.3316 25.6637 12.3301 25.5938C12.3187 25.2733 12.2689 24.9774 12.1679 24.6721C12.1198 24.5265 12.0912 24.3825 12.0625 24.2319Z" fill="#02FEB3"/>
<path d="M8.12508 18.639C8.171 18.6393 8.21693 18.6395 8.26425 18.6397C8.33682 18.6394 8.33682 18.6394 8.41086 18.6391C8.57128 18.6386 8.73168 18.6389 8.8921 18.6394C9.00334 18.6393 9.11457 18.6391 9.2258 18.639C9.45915 18.6388 9.69251 18.6391 9.92586 18.6396C10.2252 18.6403 10.5246 18.6399 10.8239 18.6392C11.0537 18.6388 11.2835 18.6389 11.5133 18.6392C11.6236 18.6393 11.7341 18.6392 11.8444 18.6389C11.9986 18.6386 12.1529 18.6391 12.3071 18.6397C12.353 18.6395 12.3987 18.6393 12.4459 18.639C12.6714 18.6408 12.7713 18.6472 12.9639 18.7767C12.9867 18.8963 12.9867 18.8963 12.9872 19.0444C12.9878 19.0999 12.9883 19.1553 12.9889 19.2124C12.9886 19.2724 12.9882 19.3324 12.9878 19.3942C12.988 19.4556 12.9881 19.517 12.9883 19.5803C12.9885 19.7103 12.9881 19.8404 12.9874 19.9704C12.9864 20.17 12.9873 20.3695 12.9885 20.569C12.9884 20.6951 12.9882 20.8213 12.9878 20.9474C12.9882 21.0074 12.9886 21.0674 12.9889 21.1292C12.9881 21.2123 12.988 21.2123 12.9872 21.2971C12.9871 21.346 12.9869 21.3949 12.9867 21.4453C12.9792 21.4848 12.9716 21.5242 12.9639 21.5649C12.7397 21.7156 12.5666 21.7032 12.3071 21.7018C12.2586 21.702 12.2102 21.7022 12.1602 21.7025C11.9998 21.703 11.8395 21.7027 11.679 21.7022C11.5678 21.7023 11.4565 21.7024 11.3452 21.7026C11.112 21.7028 10.8787 21.7025 10.6455 21.7019C10.346 21.7012 10.0466 21.7017 9.74718 21.7024C9.5174 21.7028 9.28761 21.7027 9.05785 21.7023C8.94741 21.7023 8.83698 21.7024 8.72654 21.7027C8.57244 21.703 8.41835 21.7025 8.26425 21.7018C8.21833 21.7021 8.1724 21.7023 8.12508 21.7026C7.80932 21.7 7.80932 21.7 7.6754 21.5649C7.66013 21.4453 7.66013 21.4453 7.65984 21.2971C7.65946 21.2417 7.65908 21.1863 7.65869 21.1292C7.65894 21.0692 7.65918 21.0092 7.65943 20.9474C7.65932 20.886 7.6592 20.8245 7.65908 20.7613C7.659 20.6312 7.65922 20.5012 7.65972 20.3711C7.66037 20.1716 7.65973 19.9721 7.65896 19.7725C7.65904 19.6464 7.6592 19.5203 7.65943 19.3942C7.65919 19.3342 7.65895 19.2742 7.65869 19.2124C7.65907 19.157 7.65946 19.1016 7.65984 19.0444C7.65994 18.9956 7.66004 18.9466 7.66013 18.8963C7.69594 18.6156 7.89066 18.6409 8.12508 18.639Z" fill="#3AE0C5"/>
<path d="M8.12508 18.639C8.171 18.6393 8.21693 18.6395 8.26425 18.6397C8.33682 18.6394 8.33682 18.6394 8.41086 18.6391C8.57128 18.6386 8.73168 18.6389 8.8921 18.6394C9.00334 18.6393 9.11457 18.6391 9.2258 18.639C9.45915 18.6388 9.69251 18.6391 9.92586 18.6396C10.2252 18.6403 10.5246 18.6399 10.8239 18.6392C11.0537 18.6388 11.2835 18.6389 11.5133 18.6392C11.6236 18.6393 11.7341 18.6392 11.8444 18.6389C11.9986 18.6386 12.1529 18.6391 12.3071 18.6397C12.353 18.6395 12.3987 18.6393 12.4459 18.639C12.6714 18.6408 12.7713 18.6472 12.9639 18.7767C12.9867 18.8963 12.9867 18.8963 12.9872 19.0444C12.9878 19.0999 12.9883 19.1553 12.9889 19.2124C12.9886 19.2724 12.9882 19.3324 12.9878 19.3942C12.988 19.4556 12.9881 19.517 12.9883 19.5803C12.9885 19.7103 12.9881 19.8404 12.9874 19.9704C12.9864 20.17 12.9873 20.3695 12.9885 20.569C12.9884 20.6951 12.9882 20.8213 12.9878 20.9474C12.9882 21.0074 12.9886 21.0674 12.9889 21.1292C12.9881 21.2123 12.988 21.2123 12.9872 21.2971C12.9871 21.346 12.9869 21.3949 12.9867 21.4453C12.9792 21.4848 12.9716 21.5242 12.9639 21.5649C12.7397 21.7156 12.5666 21.7032 12.3071 21.7018C12.2586 21.702 12.2102 21.7022 12.1602 21.7025C11.9998 21.703 11.8395 21.7027 11.679 21.7022C11.5678 21.7023 11.4565 21.7024 11.3452 21.7026C11.112 21.7028 10.8787 21.7025 10.6455 21.7019C10.346 21.7012 10.0466 21.7017 9.74718 21.7024C9.5174 21.7028 9.28761 21.7027 9.05785 21.7023C8.94741 21.7023 8.83698 21.7024 8.72654 21.7027C8.57244 21.703 8.41835 21.7025 8.26425 21.7018C8.21833 21.7021 8.1724 21.7023 8.12508 21.7026C7.80932 21.7 7.80932 21.7 7.6754 21.5649C7.66013 21.4453 7.66013 21.4453 7.65984 21.2971C7.65946 21.2417 7.65908 21.1863 7.65869 21.1292C7.65894 21.0692 7.65918 21.0092 7.65943 20.9474C7.65932 20.886 7.6592 20.8245 7.65908 20.7613C7.659 20.6312 7.65922 20.5012 7.65972 20.3711C7.66037 20.1716 7.65973 19.9721 7.65896 19.7725C7.65904 19.6464 7.6592 19.5203 7.65943 19.3942C7.65919 19.3342 7.65895 19.2742 7.65869 19.2124C7.65907 19.157 7.65946 19.1016 7.65984 19.0444C7.65994 18.9956 7.66004 18.9466 7.66013 18.8963C7.69594 18.6156 7.89066 18.6409 8.12508 18.639Z" fill="white" fill-opacity="0.2"/>
<path d="M14.2594 14.9415C14.306 14.9418 14.3526 14.942 14.4006 14.9423C14.4496 14.942 14.4987 14.9419 14.5492 14.9416C14.7119 14.9411 14.8746 14.9414 15.0372 14.9419C15.15 14.9418 15.2626 14.9417 15.3754 14.9415C15.6118 14.9414 15.8483 14.9416 16.0847 14.9421C16.3882 14.9429 16.6918 14.9425 16.9953 14.9417C17.2281 14.9413 17.461 14.9414 17.6938 14.9417C17.8057 14.9419 17.9176 14.9417 18.0296 14.9414C18.1859 14.9411 18.3421 14.9416 18.4984 14.9423C18.545 14.942 18.5916 14.9418 18.6396 14.9415C18.9598 14.9441 18.9598 14.9441 19.0937 15.0792C19.1094 15.1961 19.1094 15.1961 19.1102 15.3405C19.1108 15.3945 19.1114 15.4485 19.112 15.5041C19.1119 15.5626 19.1119 15.6211 19.1118 15.6813C19.1121 15.7412 19.1123 15.8012 19.1126 15.8629C19.1129 15.9899 19.113 16.1168 19.1127 16.2437C19.1125 16.4382 19.1139 16.6327 19.1154 16.8272C19.1156 16.9503 19.1156 17.0735 19.1156 17.1967C19.1161 17.255 19.1167 17.3134 19.1172 17.3735C19.1169 17.4277 19.1165 17.4819 19.1161 17.5377C19.1161 17.5854 19.1162 17.6331 19.1162 17.6822C19.0937 17.8068 19.0937 17.8068 19.0316 17.9131C18.8468 18.0313 18.6555 18.014 18.4435 18.0122C18.3717 18.0127 18.3717 18.0127 18.2986 18.0132C18.1405 18.014 17.9823 18.0135 17.8242 18.0128C17.7144 18.013 17.6046 18.0131 17.4948 18.0134C17.2646 18.0136 17.0345 18.0132 16.8043 18.0124C16.5091 18.0114 16.2138 18.0119 15.9186 18.013C15.6918 18.0137 15.4651 18.0135 15.2384 18.013C15.1295 18.0129 15.0206 18.013 14.9117 18.0135C14.7596 18.0139 14.6076 18.0132 14.4555 18.0122C14.3878 18.0128 14.3878 18.0128 14.3187 18.0133C14.1447 18.0112 14.0166 18.0086 13.8674 17.9131C13.789 17.7791 13.7828 17.6932 13.7829 17.5377C13.7825 17.4835 13.7821 17.4293 13.7817 17.3735C13.7823 17.3152 13.7829 17.2568 13.7834 17.1967C13.7834 17.1067 13.7834 17.1067 13.7833 17.0149C13.7835 16.8881 13.7841 16.7612 13.7851 16.6344C13.7865 16.4398 13.7863 16.2452 13.7859 16.0506C13.7862 15.9275 13.7866 15.8044 13.7872 15.6813C13.7871 15.6229 13.7871 15.5644 13.787 15.5041C13.7876 15.4501 13.7882 15.3961 13.7888 15.3405C13.7891 15.2929 13.7893 15.2452 13.7896 15.1961C13.8271 14.9158 14.026 14.9434 14.2594 14.9415Z" fill="#04FFB3"/>
<path d="M8.12953 14.9415C8.17611 14.9418 8.2227 14.942 8.27069 14.9423C8.31975 14.942 8.36881 14.9419 8.41936 14.9416C8.58202 14.9411 8.74467 14.9414 8.90733 14.9419C9.02006 14.9418 9.13276 14.9417 9.24551 14.9415C9.48193 14.9414 9.71836 14.9416 9.9548 14.9421C10.2583 14.9429 10.5619 14.9425 10.8654 14.9417C11.0982 14.9413 11.3311 14.9414 11.5639 14.9417C11.6758 14.9419 11.7878 14.9417 11.8997 14.9414C12.056 14.9411 12.2122 14.9416 12.3685 14.9423C12.4151 14.942 12.4616 14.9418 12.5096 14.9415C12.8299 14.9441 12.8299 14.9441 12.9638 15.0792C12.9795 15.1961 12.9795 15.1961 12.9803 15.3405C12.9809 15.3945 12.9815 15.4485 12.982 15.5041C12.982 15.5626 12.982 15.6211 12.9819 15.6813C12.9821 15.7412 12.9824 15.8012 12.9827 15.8629C12.983 15.9899 12.983 16.1168 12.9828 16.2437C12.9826 16.4382 12.984 16.6327 12.9855 16.8272C12.9857 16.9503 12.9857 17.0735 12.9856 17.1967C12.9862 17.255 12.9868 17.3134 12.9874 17.3735C12.987 17.4277 12.9866 17.4819 12.9862 17.5377C12.9862 17.5854 12.9863 17.6331 12.9863 17.6822C12.9638 17.8068 12.9638 17.8068 12.9016 17.9131C12.7169 18.0313 12.5256 18.014 12.3135 18.0122C12.2419 18.0127 12.2419 18.0127 12.1687 18.0132C12.0105 18.014 11.8525 18.0135 11.6943 18.0128C11.5845 18.013 11.4747 18.0131 11.3649 18.0134C11.1347 18.0136 10.9046 18.0132 10.6744 18.0124C10.3792 18.0114 10.0839 18.0119 9.78867 18.013C9.56193 18.0137 9.3352 18.0135 9.10846 18.013C8.99958 18.0129 8.89071 18.013 8.78183 18.0135C8.62974 18.0139 8.47771 18.0132 8.32562 18.0122C8.2579 18.0128 8.2579 18.0128 8.18881 18.0133C8.0148 18.0112 7.88672 18.0086 7.73753 17.9131C7.65911 17.7791 7.65286 17.6932 7.65299 17.5377C7.65261 17.4835 7.65224 17.4293 7.65186 17.3735C7.65241 17.3152 7.65296 17.2568 7.65353 17.1967C7.65349 17.1067 7.65349 17.1067 7.65344 17.0149C7.65358 16.8881 7.65416 16.7612 7.65516 16.6344C7.65658 16.4398 7.6564 16.2452 7.656 16.0506C7.65633 15.9275 7.65676 15.8044 7.65729 15.6813C7.65723 15.6229 7.65718 15.5644 7.65712 15.5041C7.6577 15.4501 7.65826 15.3961 7.65886 15.3405C7.65913 15.2929 7.65941 15.2452 7.6597 15.1961C7.69726 14.9158 7.89606 14.9434 8.12953 14.9415Z" fill="#3AE0C5"/>
<path d="M8.12953 14.9415C8.17611 14.9418 8.2227 14.942 8.27069 14.9423C8.31975 14.942 8.36881 14.9419 8.41936 14.9416C8.58202 14.9411 8.74467 14.9414 8.90733 14.9419C9.02006 14.9418 9.13276 14.9417 9.24551 14.9415C9.48193 14.9414 9.71836 14.9416 9.9548 14.9421C10.2583 14.9429 10.5619 14.9425 10.8654 14.9417C11.0982 14.9413 11.3311 14.9414 11.5639 14.9417C11.6758 14.9419 11.7878 14.9417 11.8997 14.9414C12.056 14.9411 12.2122 14.9416 12.3685 14.9423C12.4151 14.942 12.4616 14.9418 12.5096 14.9415C12.8299 14.9441 12.8299 14.9441 12.9638 15.0792C12.9795 15.1961 12.9795 15.1961 12.9803 15.3405C12.9809 15.3945 12.9815 15.4485 12.982 15.5041C12.982 15.5626 12.982 15.6211 12.9819 15.6813C12.9821 15.7412 12.9824 15.8012 12.9827 15.8629C12.983 15.9899 12.983 16.1168 12.9828 16.2437C12.9826 16.4382 12.984 16.6327 12.9855 16.8272C12.9857 16.9503 12.9857 17.0735 12.9856 17.1967C12.9862 17.255 12.9868 17.3134 12.9874 17.3735C12.987 17.4277 12.9866 17.4819 12.9862 17.5377C12.9862 17.5854 12.9863 17.6331 12.9863 17.6822C12.9638 17.8068 12.9638 17.8068 12.9016 17.9131C12.7169 18.0313 12.5256 18.014 12.3135 18.0122C12.2419 18.0127 12.2419 18.0127 12.1687 18.0132C12.0105 18.014 11.8525 18.0135 11.6943 18.0128C11.5845 18.013 11.4747 18.0131 11.3649 18.0134C11.1347 18.0136 10.9046 18.0132 10.6744 18.0124C10.3792 18.0114 10.0839 18.0119 9.78867 18.013C9.56193 18.0137 9.3352 18.0135 9.10846 18.013C8.99958 18.0129 8.89071 18.013 8.78183 18.0135C8.62974 18.0139 8.47771 18.0132 8.32562 18.0122C8.2579 18.0128 8.2579 18.0128 8.18881 18.0133C8.0148 18.0112 7.88672 18.0086 7.73753 17.9131C7.65911 17.7791 7.65286 17.6932 7.65299 17.5377C7.65261 17.4835 7.65224 17.4293 7.65186 17.3735C7.65241 17.3152 7.65296 17.2568 7.65353 17.1967C7.65349 17.1067 7.65349 17.1067 7.65344 17.0149C7.65358 16.8881 7.65416 16.7612 7.65516 16.6344C7.65658 16.4398 7.6564 16.2452 7.656 16.0506C7.65633 15.9275 7.65676 15.8044 7.65729 15.6813C7.65723 15.6229 7.65718 15.5644 7.65712 15.5041C7.6577 15.4501 7.65826 15.3961 7.65886 15.3405C7.65913 15.2929 7.65941 15.2452 7.6597 15.1961C7.69726 14.9158 7.89606 14.9434 8.12953 14.9415Z" fill="white" fill-opacity="0.2"/>
<path d="M8.52683 24.1568C8.59193 24.1566 8.59193 24.1566 8.65834 24.1565C8.80377 24.1562 8.94917 24.1569 9.09459 24.1576C9.19883 24.1576 9.30308 24.1576 9.40733 24.1575C9.69041 24.1575 9.97348 24.1582 10.2566 24.159C10.5524 24.1598 10.8482 24.1599 11.144 24.16C11.7041 24.1604 12.2643 24.1614 12.8245 24.1626C13.4622 24.164 14.0999 24.1646 14.7376 24.1653C16.0495 24.1665 17.3614 24.1687 18.6733 24.1714C18.6733 24.1913 18.6733 24.2114 18.6733 24.232C16.4918 24.232 14.3103 24.232 12.0627 24.232C12.1421 24.452 12.2214 24.672 12.3031 24.8987C12.4446 25.6124 12.4328 26.3528 12.1228 27.0202C12.0832 27.0803 12.0435 27.1403 12.0026 27.2021C11.8216 27.2239 11.8216 27.2239 11.5863 27.2227C11.5435 27.2228 11.5006 27.2228 11.4565 27.2228C11.3148 27.2227 11.173 27.2213 11.0312 27.2198C10.933 27.2195 10.8349 27.2192 10.7367 27.2191C10.478 27.2183 10.2194 27.2166 9.96071 27.2146C9.6969 27.2127 9.43305 27.2119 9.16921 27.211C8.65133 27.209 8.13347 27.2059 7.61562 27.2021C7.60966 26.8462 7.6053 26.4903 7.60241 26.1344C7.60121 26.0133 7.59957 25.8924 7.59748 25.7714C7.59456 25.5972 7.5932 25.423 7.59214 25.2487C7.5909 25.1949 7.58966 25.1411 7.58838 25.0856C7.58826 24.7519 7.62769 24.5527 7.856 24.2926C8.07216 24.1454 8.27092 24.1564 8.52683 24.1568Z" fill="#95FED2"/>
<path d="M17.0503 24.232C17.293 24.2245 17.5356 24.2189 17.7784 24.2153C17.8609 24.2138 17.9433 24.2117 18.0258 24.2091C18.1447 24.2054 18.2636 24.2038 18.3825 24.2024C18.4539 24.2008 18.5254 24.1992 18.599 24.1976C18.8559 24.2431 18.9413 24.3236 19.0936 24.535C19.1277 24.7308 19.1277 24.7308 19.1229 24.9491C19.1219 25.0275 19.121 25.1058 19.12 25.1865C19.1175 25.2686 19.1149 25.3507 19.1123 25.4329C19.1108 25.5162 19.1095 25.5995 19.1082 25.6828C19.1047 25.8862 19.0997 26.0895 19.0936 26.2929C18.4583 26.2995 18.0617 26.0951 17.6032 25.6521C17.2394 25.2468 17.0503 24.7805 17.0503 24.232Z" fill="#01ECA5"/>
<path d="M9.45447 10.7052C9.51561 10.7047 9.51561 10.7047 9.57797 10.7043C9.71302 10.7034 9.84807 10.703 9.98314 10.7026C10.0768 10.7023 10.1706 10.7019 10.2643 10.7016C10.4608 10.701 10.6574 10.7006 10.854 10.7004C11.106 10.7001 11.3581 10.6986 11.6102 10.6969C11.8038 10.6958 11.9974 10.6954 12.191 10.6953C12.2839 10.6952 12.3768 10.6947 12.4698 10.6939C12.5997 10.6928 12.7296 10.693 12.8595 10.6934C12.9335 10.6931 13.0075 10.6929 13.0837 10.6927C13.2642 10.715 13.2642 10.715 13.3804 10.7975C13.4445 10.8968 13.4445 10.8968 13.4333 11.0521C13.3845 11.1999 13.3845 11.1999 13.2642 11.3211C13.0913 11.3369 13.0913 11.3369 12.8673 11.3377C12.8265 11.338 12.7858 11.3384 12.7438 11.3387C12.6087 11.3395 12.4737 11.3395 12.3386 11.3393C12.2449 11.3395 12.1512 11.3398 12.0575 11.3401C11.8609 11.3406 11.6644 11.3406 11.4678 11.3402C11.2157 11.3399 10.9636 11.3409 10.7115 11.3423C10.518 11.3432 10.3244 11.3433 10.1308 11.3431C10.0379 11.3431 9.9449 11.3434 9.85197 11.344C9.72203 11.3448 9.59216 11.3443 9.46222 11.3437C9.35127 11.3437 9.35127 11.3437 9.2381 11.3438C9.05751 11.3211 9.05751 11.3211 8.94137 11.2406C8.87722 11.1392 8.87722 11.1392 8.88849 10.9498C8.9046 10.8923 8.92071 10.8348 8.93732 10.7756C9.11056 10.6882 9.26087 10.7063 9.45447 10.7052Z" fill="#FEFEFE"/>
<path d="M9.4066 9.54669C9.46965 9.54619 9.46965 9.54619 9.53396 9.54569C9.67321 9.54486 9.81245 9.54495 9.95171 9.54509C10.0483 9.54486 10.1448 9.54459 10.2413 9.54427C10.4438 9.54386 10.6463 9.54386 10.8488 9.54418C11.1087 9.54454 11.3686 9.54349 11.6285 9.54212C11.8279 9.5412 12.0273 9.54116 12.2267 9.54134C12.3225 9.54129 12.4184 9.54097 12.5142 9.54038C12.648 9.53964 12.7818 9.54001 12.9156 9.54074C12.9919 9.5407 13.0681 9.5407 13.1467 9.54061C13.2348 9.55186 13.2348 9.55186 13.3246 9.5633C13.4448 9.74517 13.4448 9.74517 13.426 9.90424C13.3847 10.0482 13.3847 10.0482 13.3246 10.1088C13.1907 10.1152 13.0565 10.1173 12.9225 10.1176C12.8805 10.1179 12.8385 10.118 12.7951 10.1183C12.6556 10.1189 12.516 10.119 12.3765 10.119C12.2798 10.1192 12.1831 10.1194 12.0865 10.1196C11.8837 10.12 11.6809 10.1201 11.478 10.1201C11.2176 10.1201 10.9573 10.1209 10.6969 10.1219C10.4972 10.1226 10.2976 10.1228 10.0979 10.1227C10.0019 10.1228 9.90589 10.123 9.80986 10.1235C9.67577 10.1241 9.54168 10.1239 9.40756 10.1236C9.29294 10.1237 9.29294 10.1237 9.17599 10.1238C8.99767 10.1088 8.99767 10.1088 8.87748 9.98762C8.86246 9.83605 8.86246 9.83605 8.87748 9.68453C9.04908 9.51146 9.16626 9.54756 9.4066 9.54669Z" fill="#FEFEFF"/>
<path d="M8.06007 22.9424C8.11483 22.9419 8.16958 22.9413 8.226 22.9407C8.31492 22.9408 8.31492 22.9408 8.40564 22.9409C8.4664 22.9406 8.52717 22.9404 8.58977 22.9401C8.71843 22.9397 8.84711 22.9397 8.97577 22.9399C9.17296 22.9401 9.37013 22.9387 9.5673 22.9372C9.69216 22.9371 9.81699 22.937 9.94185 22.9371C10.001 22.9365 10.0602 22.936 10.1211 22.9354C10.1761 22.9358 10.231 22.9361 10.2876 22.9365C10.3601 22.9365 10.3601 22.9365 10.4341 22.9364C10.5915 22.9648 10.6448 23.0135 10.7402 23.1409C10.759 23.2962 10.759 23.2962 10.7402 23.444C10.5925 23.593 10.552 23.5805 10.349 23.5809C10.2929 23.5813 10.2367 23.5817 10.1789 23.5821C10.1181 23.5818 10.0573 23.5816 9.99468 23.5813C9.93243 23.5814 9.87019 23.5815 9.80607 23.5817C9.67431 23.5818 9.54256 23.5815 9.41081 23.581C9.20862 23.5804 9.00644 23.581 8.80425 23.5818C8.67646 23.5817 8.54868 23.5816 8.4209 23.5813C8.32972 23.5817 8.32972 23.5817 8.2367 23.5821C8.18055 23.5817 8.1244 23.5813 8.06654 23.5809C7.99222 23.5808 7.99222 23.5808 7.9164 23.5806C7.79552 23.5652 7.79552 23.5652 7.67533 23.444C7.66031 23.2622 7.66031 23.2622 7.67533 23.0803C7.82171 22.9327 7.85942 22.9436 8.06007 22.9424Z" fill="#10BE77"/>
<path d="M8.06007 22.9424C8.11483 22.9419 8.16958 22.9413 8.226 22.9407C8.31492 22.9408 8.31492 22.9408 8.40564 22.9409C8.4664 22.9406 8.52717 22.9404 8.58977 22.9401C8.71843 22.9397 8.84711 22.9397 8.97577 22.9399C9.17296 22.9401 9.37013 22.9387 9.5673 22.9372C9.69216 22.9371 9.81699 22.937 9.94185 22.9371C10.001 22.9365 10.0602 22.936 10.1211 22.9354C10.1761 22.9358 10.231 22.9361 10.2876 22.9365C10.3601 22.9365 10.3601 22.9365 10.4341 22.9364C10.5915 22.9648 10.6448 23.0135 10.7402 23.1409C10.759 23.2962 10.759 23.2962 10.7402 23.444C10.5925 23.593 10.552 23.5805 10.349 23.5809C10.2929 23.5813 10.2367 23.5817 10.1789 23.5821C10.1181 23.5818 10.0573 23.5816 9.99468 23.5813C9.93243 23.5814 9.87019 23.5815 9.80607 23.5817C9.67431 23.5818 9.54256 23.5815 9.41081 23.581C9.20862 23.5804 9.00644 23.581 8.80425 23.5818C8.67646 23.5817 8.54868 23.5816 8.4209 23.5813C8.32972 23.5817 8.32972 23.5817 8.2367 23.5821C8.18055 23.5817 8.1244 23.5813 8.06654 23.5809C7.99222 23.5808 7.99222 23.5808 7.9164 23.5806C7.79552 23.5652 7.79552 23.5652 7.67533 23.444C7.66031 23.2622 7.66031 23.2622 7.67533 23.0803C7.82171 22.9327 7.85942 22.9436 8.06007 22.9424Z" fill="white" fill-opacity="0.2"/>
<path d="M12.5598 4.15177C12.6371 4.15214 12.6371 4.15214 12.7161 4.15251C12.7954 4.15234 12.7954 4.15234 12.8764 4.15216C12.9884 4.15208 13.1003 4.1523 13.2122 4.15281C13.384 4.15346 13.5557 4.15281 13.7274 4.15204C13.836 4.15212 13.9446 4.15227 14.0532 4.15251C14.1048 4.15226 14.1564 4.15202 14.2096 4.15177C14.5728 4.15468 14.5727 4.15468 14.7068 4.28984C14.7256 4.47168 14.7256 4.47168 14.7068 4.65353C14.4719 4.81147 14.2729 4.7922 14.0004 4.79085C13.949 4.79097 13.8975 4.79109 13.8444 4.79121C13.7356 4.79129 13.6269 4.79107 13.5181 4.79056C13.3513 4.78991 13.1845 4.79055 13.0176 4.79133C12.912 4.79125 12.8065 4.79109 12.7009 4.79085C12.6507 4.7911 12.6006 4.79134 12.5491 4.7916C12.1966 4.78869 12.1966 4.78869 12.0626 4.65353C12.0475 4.47168 12.0475 4.47168 12.0626 4.28984C12.2225 4.12856 12.3423 4.15351 12.5598 4.15177Z" fill="white"/>
<path d="M9.4014 8.08901C9.46746 8.08929 9.46746 8.08929 9.53485 8.08961C9.57866 8.0886 9.62245 8.08764 9.66758 8.08664C9.98675 8.08636 9.98675 8.08636 10.1405 8.19093C10.1996 8.29037 10.1996 8.29037 10.1884 8.44569C10.1396 8.59346 10.1396 8.59346 10.0194 8.71468C9.84651 8.72832 9.68137 8.73436 9.50854 8.73363C9.46137 8.73459 9.4142 8.7356 9.36558 8.73656C9.22872 8.73669 9.22872 8.73669 8.99773 8.71468C8.87754 8.53282 8.87754 8.53282 8.89257 8.3775C8.98142 8.08627 9.12232 8.09185 9.4014 8.08901Z" fill="white"/>
<path d="M15.815 4.14972C15.969 4.16866 15.969 4.16866 16.0817 4.24064C16.1493 4.3505 16.1493 4.3505 16.138 4.50583C16.0892 4.65357 16.0892 4.65357 15.969 4.7748C15.7812 4.75207 15.7812 4.75207 15.6084 4.71419C15.5709 4.50962 15.5709 4.50962 15.5483 4.28989C15.6685 4.16866 15.6685 4.16866 15.815 4.14972Z" fill="white"/>
<path d="M18.3075 8.72198C22.4709 8.72198 25.846 12.1261 25.846 16.3254C25.846 20.5247 22.4709 23.9289 18.3075 23.9289C14.1441 23.9289 10.769 20.5247 10.769 16.3254C10.769 12.1261 14.1441 8.72198 18.3075 8.72198Z" fill="url(#paint0_linear_2871_5032)" stroke="#00C853" stroke-width="0.24"/>
<mask id="mask1_2871_5032" style="mask-type:luminance" maskUnits="userSpaceOnUse" x="14" y="10" width="10" height="10">
<path d="M23.7271 10.7797H14.6362V19.9322H23.7271V10.7797Z" fill="white"/>
</mask>
<g mask="url(#mask1_2871_5032)">
<path d="M14.9183 10.7768C14.94 10.7766 14.9616 10.7765 14.984 10.7763C15.0079 10.7762 15.0317 10.7761 15.0556 10.7761C15.0678 10.776 15.08 10.776 15.0926 10.7759C15.1576 10.7757 15.2228 10.7755 15.2879 10.7754C15.3406 10.7753 15.3933 10.7751 15.446 10.7746C15.8128 10.7719 16.1713 10.7889 16.5357 10.8333C16.5512 10.8352 16.5667 10.8371 16.5826 10.839C16.6627 10.8489 16.7424 10.8606 16.822 10.8735C16.8334 10.8754 16.8448 10.8772 16.8566 10.8791C18.4064 11.129 19.8639 11.8613 21.0213 12.9221C21.0486 12.947 21.0761 12.9718 21.1039 12.9962C21.2014 13.0827 21.2943 13.1733 21.3863 13.2656C21.3981 13.2774 21.41 13.2892 21.4221 13.3013C21.4916 13.3714 21.5576 13.4436 21.6219 13.5185C21.6554 13.5575 21.6901 13.5953 21.7248 13.6332C21.8154 13.7343 21.8982 13.8409 21.9807 13.9487C22.0023 13.9767 22.0243 14.0044 22.0464 14.0321C22.3804 14.4558 22.6501 14.9282 22.8922 15.4096C22.9021 15.4289 22.9121 15.4483 22.9222 15.4683C22.9981 15.6183 23.066 15.7707 23.1286 15.9269C23.1336 15.9391 23.1385 15.9513 23.1435 15.9639C23.3655 16.5182 23.5261 17.0919 23.6258 17.681C23.6279 17.693 23.63 17.7051 23.6321 17.7175C23.7109 18.1798 23.7362 18.6429 23.7347 19.111C23.7345 19.1793 23.7348 19.2475 23.7354 19.3158C23.7357 19.3692 23.7357 19.4227 23.7356 19.4762C23.7356 19.5014 23.7357 19.5266 23.7359 19.5518C23.7376 19.7693 23.7376 19.7693 23.6962 19.8377C23.6154 19.9194 23.5581 19.9384 23.4459 19.9401C23.4226 19.94 23.4226 19.94 23.3989 19.94C23.3827 19.9401 23.3666 19.9402 23.3499 19.9403C23.3158 19.9404 23.2816 19.9404 23.2475 19.9402C23.1954 19.94 23.1434 19.9405 23.0913 19.9411C23.0581 19.9411 23.0249 19.9411 22.9916 19.9411C22.9761 19.9413 22.9607 19.9415 22.9447 19.9417C22.848 19.9406 22.7901 19.9276 22.7147 19.8607C22.6663 19.7932 22.6545 19.7455 22.653 19.6628C22.6524 19.6412 22.6519 19.6196 22.6513 19.5974C22.6508 19.5624 22.6508 19.5624 22.6503 19.5267C22.6498 19.502 22.6492 19.4773 22.6486 19.4526C22.6466 19.3741 22.6451 19.2957 22.6437 19.2172C22.6347 18.7502 22.6149 18.2871 22.5316 17.8262C22.5259 17.7941 22.5259 17.7941 22.5201 17.7614C22.2964 16.5412 21.7504 15.3923 20.9569 14.4443C20.9486 14.4344 20.9404 14.4244 20.9319 14.4142C20.8212 14.2813 20.7081 14.1538 20.584 14.0331C20.5366 13.9857 20.4896 13.938 20.4429 13.8899C20.3404 13.7845 20.237 13.6842 20.122 13.5926C20.0829 13.5615 20.0445 13.5299 20.0062 13.4978C19.7256 13.2622 19.4257 13.0565 19.1103 12.8712C19.0982 12.864 19.0861 12.8568 19.0736 12.8494C18.6851 12.6205 18.2756 12.4277 17.8496 12.2813C17.8321 12.2752 17.8145 12.269 17.7965 12.2627C17.4051 12.1275 17.0065 12.0275 16.5979 11.9629C16.5759 11.9594 16.5539 11.9559 16.5313 11.9523C16.4618 11.9419 16.3923 11.9324 16.3226 11.9237C16.3035 11.9213 16.3035 11.9213 16.2839 11.9189C16.0778 11.8938 15.872 11.8841 15.6646 11.8792C15.6521 11.8789 15.6396 11.8786 15.6268 11.8783C15.51 11.8755 15.3931 11.873 15.2763 11.8709C15.2116 11.8698 15.147 11.8683 15.0823 11.8666C15.058 11.8661 15.0336 11.8656 15.0093 11.8654C14.7716 11.8623 14.7716 11.8623 14.6891 11.7807C14.623 11.7026 14.6281 11.6233 14.6288 11.5254C14.6287 11.5095 14.6287 11.4936 14.6286 11.4772C14.6286 11.4436 14.6287 11.41 14.6289 11.3764C14.6292 11.3251 14.6289 11.2738 14.6286 11.2225C14.6286 11.1898 14.6287 11.157 14.6288 11.1244C14.6287 11.1091 14.6286 11.0938 14.6285 11.078C14.6297 10.9694 14.652 10.9112 14.7246 10.8288C14.7856 10.7752 14.8406 10.7773 14.9183 10.7768Z" fill="white"/>
<path d="M14.901 12.9179C14.9218 12.9177 14.9426 12.9175 14.964 12.9174C14.9865 12.9174 15.0089 12.9176 15.032 12.9177C15.0558 12.9176 15.0796 12.9176 15.1033 12.9175C15.1534 12.9175 15.2034 12.9176 15.2535 12.9178C15.316 12.9181 15.3785 12.918 15.441 12.9176C15.9207 12.9156 16.3875 12.959 16.8558 13.0678C16.8728 13.0718 16.8898 13.0757 16.9073 13.0798C17.8179 13.2954 18.693 13.7237 19.3986 14.3456C19.4231 14.3666 19.4481 14.387 19.4733 14.4073C19.5911 14.502 19.7001 14.603 19.8061 14.7107C19.8321 14.737 19.8582 14.7631 19.8844 14.7892C19.9953 14.9007 20.0962 15.018 20.1939 15.1414C20.2129 15.1644 20.232 15.1872 20.2513 15.21C20.4823 15.4869 20.676 15.7913 20.8509 16.1067C20.858 16.1195 20.8651 16.1322 20.8725 16.1453C21.3358 16.9795 21.5954 17.9532 21.6008 18.9087C21.6009 18.9208 21.601 18.9329 21.601 18.9453C21.6014 19.0091 21.6017 19.0729 21.6018 19.1366C21.602 19.2021 21.6026 19.2676 21.6034 19.3332C21.6038 19.3839 21.604 19.4347 21.604 19.4855C21.6041 19.5213 21.6046 19.5572 21.6051 19.593C21.6046 19.798 21.6046 19.798 21.5256 19.8786C21.4475 19.9459 21.3666 19.9403 21.2687 19.94C21.2525 19.9401 21.2364 19.9402 21.2197 19.9402C21.1856 19.9404 21.1515 19.9403 21.1173 19.9402C21.0653 19.9401 21.0132 19.9406 20.9612 19.9411C20.928 19.9412 20.8947 19.9412 20.8615 19.9411C20.846 19.9413 20.8305 19.9415 20.8145 19.9417C20.7178 19.9406 20.6599 19.9276 20.5845 19.8607C20.5377 19.7948 20.5244 19.7485 20.5228 19.6679C20.5223 19.6475 20.5217 19.627 20.5212 19.6059C20.5207 19.5729 20.5207 19.5729 20.5201 19.5392C20.5193 19.5039 20.5184 19.4686 20.5175 19.4333C20.5159 19.3714 20.5147 19.3094 20.5135 19.2473C20.505 18.83 20.4859 18.4176 20.397 18.0083C20.3903 17.9776 20.3903 17.9776 20.3835 17.9462C20.1525 16.9308 19.589 15.9406 18.7912 15.2666C18.7808 15.2578 18.7704 15.249 18.7597 15.2399C18.1102 14.6924 17.3492 14.3068 16.5196 14.127C16.4968 14.122 16.4968 14.122 16.4736 14.1168C16.0667 14.034 15.657 14.0222 15.2435 14.0151C15.195 14.0142 15.1464 14.0132 15.0979 14.012C15.0527 14.0109 15.0076 14.0101 14.9625 14.0095C14.7712 14.0045 14.7712 14.0045 14.6896 13.9259C14.6228 13.8473 14.6283 13.7658 14.6287 13.6673C14.6286 13.651 14.6285 13.6347 14.6284 13.6179C14.6283 13.5836 14.6283 13.5493 14.6285 13.5149C14.6286 13.4624 14.6281 13.41 14.6275 13.3576C14.6275 13.3242 14.6275 13.2907 14.6275 13.2573C14.6274 13.2417 14.6271 13.2261 14.627 13.21C14.628 13.1126 14.641 13.0543 14.7074 12.9785C14.7738 12.9303 14.8196 12.918 14.901 12.9179Z" fill="white"/>
<path d="M14.8948 15.0627C14.9142 15.0625 14.9336 15.0622 14.9536 15.062C14.9851 15.0621 14.9851 15.0621 15.0171 15.0622C15.0391 15.0621 15.0611 15.062 15.0838 15.0619C15.1305 15.0618 15.1773 15.0618 15.2241 15.062C15.2939 15.0622 15.3637 15.0616 15.4335 15.061C16.3114 15.0585 17.1675 15.3126 17.8679 15.8564C17.8849 15.8695 17.902 15.8825 17.9195 15.896C18.2323 16.1419 18.5075 16.4255 18.7379 16.7503C18.7455 16.7607 18.7532 16.7712 18.761 16.7819C19.0035 17.1154 19.1846 17.5007 19.3061 17.8943C19.3105 17.9082 19.3148 17.9221 19.3193 17.9364C19.4452 18.3467 19.478 18.7704 19.4752 19.1978C19.4749 19.2449 19.4749 19.292 19.4752 19.3391C19.4756 19.4084 19.4755 19.4778 19.4754 19.5471C19.4755 19.5681 19.4756 19.5891 19.4758 19.6107C19.4745 19.7197 19.473 19.7956 19.3949 19.8786C19.3169 19.9458 19.236 19.9403 19.138 19.9399C19.1219 19.94 19.1057 19.9401 19.089 19.9403C19.0549 19.9404 19.0208 19.9403 18.9866 19.9402C18.9346 19.94 18.8825 19.9405 18.8305 19.9411C18.7973 19.9411 18.764 19.9411 18.7308 19.9411C18.7153 19.9413 18.6998 19.9415 18.6839 19.9417C18.5871 19.9406 18.5292 19.9276 18.4538 19.8607C18.394 19.7877 18.3925 19.7164 18.3921 19.6253C18.3917 19.604 18.3917 19.604 18.3913 19.5823C18.3904 19.537 18.39 19.4916 18.3895 19.4462C18.3886 19.3871 18.3876 19.328 18.3865 19.2689C18.3862 19.247 18.3862 19.247 18.3858 19.2246C18.3839 19.1223 18.3802 19.0204 18.3748 18.9183C18.3742 18.9056 18.3735 18.8928 18.3729 18.8797C18.3516 18.5081 18.2437 18.1379 18.081 17.805C18.0755 17.7937 18.0701 17.7824 18.0645 17.7708C17.7342 17.0943 17.1414 16.578 16.4349 16.332C16.1755 16.2443 15.919 16.1836 15.645 16.1687C15.6312 16.1679 15.6174 16.1671 15.6032 16.1663C15.5007 16.161 15.3984 16.1585 15.2958 16.1572C15.2814 16.157 15.2669 16.1568 15.252 16.1566C15.193 16.1557 15.134 16.1549 15.0749 16.1545C15.0309 16.1543 14.9869 16.1535 14.9429 16.1528C14.9297 16.1528 14.9165 16.1528 14.9029 16.1528C14.8117 16.1507 14.7589 16.1304 14.6896 16.071C14.6228 15.9924 14.6283 15.9109 14.6287 15.8124C14.6286 15.7961 14.6285 15.7798 14.6284 15.763C14.6283 15.7287 14.6283 15.6943 14.6285 15.66C14.6286 15.6075 14.6281 15.5552 14.6275 15.5027C14.6275 15.4693 14.6275 15.4358 14.6275 15.4024C14.6274 15.3868 14.6271 15.3712 14.627 15.3551C14.628 15.2577 14.641 15.1994 14.7074 15.1236C14.7718 15.0773 14.816 15.0631 14.8948 15.0627Z" fill="white"/>
<path d="M14.9183 10.7768C14.94 10.7766 14.9616 10.7765 14.984 10.7763C15.0079 10.7762 15.0317 10.7761 15.0556 10.7761C15.0678 10.776 15.08 10.776 15.0926 10.7759C15.1576 10.7757 15.2228 10.7755 15.2879 10.7754C15.3406 10.7753 15.3933 10.7751 15.446 10.7746C15.8128 10.7719 16.1713 10.7889 16.5357 10.8333C16.5512 10.8352 16.5667 10.8371 16.5826 10.839C16.6627 10.8489 16.7424 10.8606 16.822 10.8735C16.8334 10.8754 16.8448 10.8772 16.8566 10.8791C18.4059 11.1289 19.8634 11.8609 21.0205 12.9213C21.0506 12.9488 21.0809 12.9761 21.1113 13.0032C21.127 13.0171 21.1427 13.0311 21.1589 13.0455C21.1729 13.0579 21.187 13.0704 21.2014 13.0832C21.2426 13.1231 21.2767 13.1657 21.312 13.2108C21.0575 13.467 20.803 13.7233 20.5485 13.9795C20.3884 13.8354 20.3884 13.8354 20.3165 13.7671C20.1901 13.6473 20.0595 13.5367 19.9215 13.4307C19.8933 13.4088 19.8655 13.3866 19.8376 13.3642C18.8756 12.5981 17.6846 12.119 16.4758 11.945C16.4627 11.9431 16.4496 11.9412 16.4362 11.9393C16.1959 11.905 15.9577 11.8864 15.7149 11.8817C15.6514 11.8804 15.5879 11.8788 15.5244 11.8772C15.4443 11.8753 15.3642 11.8734 15.2841 11.8719C15.2187 11.8707 15.1532 11.8692 15.0878 11.8674C15.0631 11.8667 15.0383 11.8662 15.0136 11.8659C14.7711 11.8622 14.7711 11.8622 14.6891 11.7807C14.623 11.7026 14.6281 11.6233 14.6288 11.5254C14.6287 11.5095 14.6287 11.4936 14.6286 11.4772C14.6286 11.4436 14.6287 11.41 14.6289 11.3764C14.6292 11.3251 14.6289 11.2738 14.6286 11.2225C14.6286 11.1898 14.6287 11.157 14.6288 11.1244C14.6287 11.1091 14.6286 11.0938 14.6285 11.078C14.6297 10.9694 14.652 10.9112 14.7246 10.8288C14.7856 10.7752 14.8406 10.7773 14.9183 10.7768Z" fill="white"/>
<path d="M14.901 12.9179C14.9218 12.9177 14.9426 12.9175 14.964 12.9174C14.9865 12.9174 15.0089 12.9176 15.032 12.9177C15.0558 12.9176 15.0796 12.9176 15.1033 12.9175C15.1534 12.9175 15.2034 12.9176 15.2535 12.9178C15.316 12.9181 15.3785 12.918 15.441 12.9176C15.9207 12.9156 16.3875 12.959 16.8558 13.0678C16.8728 13.0718 16.8898 13.0757 16.9073 13.0798C17.8073 13.2929 18.6785 13.7141 19.378 14.3272C19.4282 14.3709 19.4795 14.4127 19.5314 14.4543C19.6289 14.534 19.7162 14.6214 19.8033 14.7124C19.7238 14.8083 19.6397 14.8974 19.5516 14.9854C19.5381 14.999 19.5245 15.0126 19.5105 15.0267C19.4676 15.0698 19.4246 15.1129 19.3816 15.156C19.3524 15.1852 19.3233 15.2145 19.2941 15.2438C19.2303 15.3079 19.1664 15.372 19.1024 15.436C19.0815 15.457 19.0606 15.478 19.0398 15.499C19.0153 15.4753 19.0153 15.4753 18.9903 15.4511C18.8415 15.3087 18.6895 15.1756 18.5249 15.0521C18.515 15.0446 18.5051 15.0371 18.495 15.0295C17.9089 14.5882 17.2347 14.282 16.5196 14.127C16.4968 14.122 16.4968 14.122 16.4736 14.1168C16.0667 14.034 15.657 14.0222 15.2435 14.0151C15.195 14.0142 15.1464 14.0132 15.0979 14.012C15.0527 14.0109 15.0076 14.0101 14.9625 14.0095C14.7712 14.0045 14.7712 14.0045 14.6896 13.9259C14.6228 13.8473 14.6283 13.7658 14.6287 13.6673C14.6286 13.651 14.6285 13.6347 14.6284 13.6179C14.6283 13.5836 14.6283 13.5493 14.6285 13.5149C14.6286 13.4624 14.6281 13.41 14.6275 13.3576C14.6275 13.3242 14.6275 13.2907 14.6275 13.2573C14.6274 13.2417 14.6271 13.2261 14.627 13.21C14.628 13.1126 14.641 13.0543 14.7074 12.9785C14.7738 12.9303 14.8196 12.918 14.901 12.9179Z" fill="white"/>
<path d="M14.8948 15.0627C14.9142 15.0625 14.9336 15.0622 14.9536 15.062C14.9851 15.0621 14.9851 15.0621 15.0171 15.0622C15.0391 15.0621 15.0611 15.062 15.0838 15.0619C15.1305 15.0618 15.1773 15.0618 15.2241 15.062C15.2939 15.0622 15.3637 15.0616 15.4335 15.061C16.3114 15.0585 17.1675 15.3126 17.8679 15.8564C17.8849 15.8695 17.902 15.8825 17.9195 15.896C18.0552 16.0027 18.1874 16.1133 18.294 16.2497C17.9123 16.6341 17.9123 16.6341 17.5305 17.0184C17.518 17.0063 17.5055 16.9941 17.4927 16.9817C16.9964 16.5076 16.3302 16.2059 15.645 16.1687C15.6312 16.1679 15.6174 16.1671 15.6032 16.1663C15.5007 16.161 15.3984 16.1585 15.2958 16.1572C15.2814 16.157 15.2669 16.1568 15.252 16.1566C15.193 16.1557 15.134 16.1549 15.0749 16.1545C15.0309 16.1543 14.9869 16.1535 14.9429 16.1528C14.9297 16.1528 14.9165 16.1528 14.9029 16.1528C14.8117 16.1507 14.7589 16.1304 14.6896 16.071C14.6228 15.9924 14.6283 15.9109 14.6287 15.8124C14.6286 15.7961 14.6285 15.7798 14.6284 15.763C14.6283 15.7287 14.6283 15.6943 14.6285 15.66C14.6286 15.6075 14.6281 15.5552 14.6275 15.5027C14.6275 15.4693 14.6275 15.4358 14.6275 15.4024C14.6274 15.3868 14.6271 15.3712 14.627 15.3551C14.628 15.2577 14.641 15.1994 14.7074 15.1236C14.7718 15.0773 14.816 15.0631 14.8948 15.0627Z" fill="white"/>
<path d="M16.4683 18.0843C16.6905 18.3193 16.7873 18.5911 16.7845 18.9132C16.7665 19.1981 16.6404 19.4703 16.4335 19.6668C16.1531 19.9002 15.8613 19.9591 15.5061 19.9322C15.4237 19.9177 15.3516 19.8949 15.2753 19.8607C15.2587 19.8533 15.242 19.8459 15.2249 19.8383C14.9599 19.7066 14.7727 19.476 14.6716 19.1993C14.5984 18.9564 14.6046 18.6629 14.7071 18.4306C14.7143 18.4141 14.7214 18.3975 14.7287 18.3805C14.8496 18.1314 15.0659 17.9302 15.3247 17.8358C15.7335 17.6975 16.151 17.7847 16.4683 18.0843Z" fill="white"/>
<path d="M16.4079 18.0334C16.4328 18.063 16.4328 18.063 16.465 18.1088C16.4564 18.1162 16.4477 18.1237 16.4389 18.1312C16.3494 18.209 16.2646 18.2902 16.1813 18.3745C16.168 18.388 16.1546 18.4014 16.1408 18.4153C16.0972 18.4592 16.0535 18.5033 16.01 18.5473C15.9795 18.578 15.9491 18.6086 15.9186 18.6394C15.8388 18.7197 15.7591 18.8002 15.6794 18.8806C15.5979 18.9628 15.5163 19.045 15.4348 19.1272C15.275 19.2883 15.1154 19.4493 14.9557 19.6104C14.805 19.5402 14.7266 19.3497 14.6716 19.1993C14.5984 18.9563 14.6046 18.663 14.7071 18.4306C14.7143 18.4141 14.7214 18.3975 14.7287 18.3805C14.8496 18.1314 15.0659 17.9302 15.3247 17.8358C15.682 17.7149 16.1278 17.752 16.4079 18.0334Z" fill="white"/>
</g>
</g>
<defs>
<linearGradient id="paint0_linear_2871_5032" x1="18.3075" y1="8.72198" x2="18.3075" y2="23.9289" gradientUnits="userSpaceOnUse">
<stop stop-color="#10BE77"/>
<stop offset="1" stop-color="#2196F3"/>
</linearGradient>
</defs>
</svg>
