<svg width="32" height="32" viewBox="0 0 32 32" fill="none" xmlns="http://www.w3.org/2000/svg">
<path fill-rule="evenodd" clip-rule="evenodd" d="M3.22313 21.1466C3.16667 21.1184 3.11992 21.0737 3.0395 20.9939C3.11939 21.0731 3.16687 21.1185 3.22313 21.1466Z" fill="url(#paint0_linear_2871_5130)"/>
<path d="M3.0395 20.9939C3.11992 21.0737 3.16667 21.1184 3.22313 21.1466C3.29818 21.1841 3.38885 21.1906 3.59291 21.2055L4.03611 21.2039L4.47931 21.2055C4.68337 21.1906 4.77404 21.1841 4.84909 21.1466C4.90909 21.1167 4.95912 21.067 5.04913 20.9776C5.22785 20.6957 5.30376 20.576 5.3954 20.4696C5.46308 20.391 5.53933 20.3197 5.67189 20.1958C6.2371 20.0066 6.52328 19.9109 6.8173 19.8673C7.11885 19.8227 7.42864 19.833 8.05616 19.854L8.81 19.8713C9.01774 19.8708 9.23177 19.8626 9.44846 19.8543C10.3254 19.8205 11.2462 19.7851 11.9717 20.2583C12.5658 20.7657 13.2106 21.0088 13.9638 21.1788C14.0818 21.1867 14.2018 21.1957 14.3233 21.2048C15.419 21.2871 16.6327 21.3782 17.5481 20.738C18.6283 19.9521 19.5256 19.7921 20.8523 19.9718C20.999 20.2535 21.075 20.3995 21.1129 20.5546C21.1536 20.7213 21.1504 20.8991 21.1436 21.2672C21.1635 21.5898 21.1728 21.74 21.1889 21.889C21.2029 22.018 21.222 22.1463 21.2576 22.3857C21.4465 22.5733 21.5473 22.6734 21.6681 22.7353C21.8063 22.8061 21.9705 22.8268 22.3228 22.8713L23.1063 22.9137L23.893 22.9593H24.3335H24.611H24.8481H25.0205H25.1999H25.2839H25.3885H25.5989H25.8161H25.9236L26.4794 22.9522L27.2091 22.9012C27.3039 22.8947 27.3965 22.8895 27.4873 22.8844C28.0073 22.8553 28.4679 22.8294 28.9566 22.5869C28.9692 21.9933 28.9791 21.3999 28.9862 20.8063L28.9945 20.0724C29.0477 17.608 28.7324 15.892 27.1331 13.9372C25.7113 12.574 23.8426 12.0516 21.9137 12.0239C21.7164 12.0246 21.5215 12.0289 21.3288 12.033C20.2781 12.0558 19.2918 12.0772 18.3419 11.5296L17.8133 11.121L16.8002 10.9199V6.89679C16.9425 6.90562 17.0848 6.91306 17.2269 6.92048C17.9894 6.96034 18.7474 6.99996 19.4737 7.25274C19.8645 7.42476 20.2397 7.58048 20.6497 7.70141C21.6159 7.76288 22.2725 7.63312 23.081 7.09794C23.5424 6.41088 23.6421 5.9312 23.7197 5.12333C23.6675 4.38119 23.3642 3.96681 22.8657 3.42687C22.0574 2.94875 21.368 2.94021 20.4471 3.07485C19.6245 3.47566 18.942 3.52626 18.0427 3.53306L17.5022 3.53059C17.1214 3.53138 16.7406 3.5319 16.3598 3.53216C15.7618 3.52959 15.1638 3.52746 14.5658 3.52961C14.1743 3.53129 13.7828 3.53203 13.3912 3.53176L12.8297 3.53059L12.2879 3.53306L11.7818 3.52921C11.2654 3.52809 10.9676 3.49741 10.4981 3.27565C10.3224 3.18373 10.2271 3.13389 10.1261 3.10242C10.0063 3.06513 9.87843 3.05363 9.59905 3.02849L9.06325 3.03713C8.97492 3.03777 8.88925 3.03472 8.80611 3.03176C8.45844 3.01938 8.15497 3.00857 7.88561 3.276L7.36643 3.66574C7.11435 3.98019 6.96719 4.16377 6.88391 4.37247C6.76709 4.66524 6.776 5.00746 6.7974 5.82973C6.91722 6.56856 7.2567 6.88013 7.83496 7.33682C8.55954 7.73802 8.89572 7.8045 9.70906 7.70141C10.2995 7.45046 10.8045 7.28452 11.4415 7.17181L12.2036 7.0728L13.5586 6.89679V10.9199L12.5455 11.121C12.4962 11.1622 12.4488 11.2022 12.4029 11.2408C11.9177 11.6495 11.6038 11.9139 10.9218 12.0266L10.2512 12.0254L9.51872 12.0258L8.75934 12.0137C8.60196 12.0146 8.44443 12.0166 8.28685 12.0186C7.54278 12.0283 6.79762 12.038 6.06216 11.9257C5.85675 11.6197 5.75547 11.4689 5.63459 11.3356C5.51703 11.2059 5.38093 11.0928 5.11245 10.8696C4.81281 10.7124 4.63208 10.6176 4.43968 10.5758C4.14727 10.5122 3.82787 10.5709 3.02308 10.7187C3.01882 11.931 3.01543 13.1433 3.01319 14.3556C3.01236 14.849 3.01143 15.3423 3.01042 15.8356C3.00785 16.5653 3.0053 17.295 3.00416 18.0247L3.0033 18.7138L3.00013 19.3907L3.00008 20.0131C2.99928 20.3347 3.00418 20.6566 3.02309 20.9776L3.0395 20.9939Z" fill="url(#paint1_linear_2871_5130)"/>
<path d="M4.84653 10.7187C5.39471 11.0855 5.76581 11.3372 6.06216 11.9257C6.95273 11.949 7.84323 11.9633 8.73402 11.9759C8.98644 11.9827 9.23886 11.9894 9.49893 11.9964C9.74247 11.999 9.98602 12.0016 10.2369 12.0042C10.4608 12.0084 10.6847 12.0127 10.9153 12.017C11.6697 11.9054 11.9889 11.6236 12.5455 11.121C12.9634 10.9545 12.9634 10.9545 13.356 10.8696C13.4855 10.8395 13.615 10.8094 13.7485 10.7784C14.1664 10.7187 14.1664 10.7187 15.1794 10.7187C15.1794 14.1705 15.1794 17.6224 15.1794 21.1788C13.1183 20.9741 13.1183 20.9741 11.9958 20.1976C10.9956 19.7103 9.84934 19.8287 8.75934 19.8461C8.39168 19.8403 8.39168 19.8403 8.01659 19.8343C6.58437 19.7921 6.58437 19.7921 5.39974 20.47C5.28404 20.6375 5.16834 20.805 5.04913 20.9776C4.84653 21.1788 4.84653 21.1788 4.47931 21.2055C4.33305 21.205 4.1868 21.2044 4.03611 21.2039C3.88985 21.2044 3.7436 21.205 3.59291 21.2055C3.22569 21.1788 3.22569 21.1788 3.02308 20.9776C3.00417 20.6566 2.99929 20.3347 3.00008 20.013C3.0001 19.8077 3.00011 19.6023 3.00013 19.3907C3.00117 19.1673 3.00222 18.944 3.0033 18.7138C3.00358 18.4864 3.00387 18.259 3.00416 18.0247C3.0053 17.295 3.00785 16.5653 3.01042 15.8356C3.01143 15.3423 3.01236 14.8489 3.01319 14.3556C3.01543 13.1433 3.01882 11.931 3.02308 10.7187C3.66893 10.3981 4.1557 10.5676 4.84653 10.7187Z" fill="url(#paint2_linear_2871_5130)"/>
<path d="M9.06308 3.03713C9.23989 3.03428 9.4167 3.03143 9.59887 3.02849C10.1141 3.07485 10.1141 3.07485 10.4979 3.27565C10.9674 3.49741 11.2652 3.52809 11.7816 3.52921C12.0321 3.53112 12.0321 3.53112 12.2877 3.53306C12.4665 3.53224 12.6453 3.53143 12.8295 3.53059C13.0148 3.53097 13.2001 3.53136 13.3911 3.53176C13.7826 3.53203 14.1741 3.53129 14.5656 3.52961C15.1637 3.52746 15.7616 3.52959 16.3596 3.53216C16.7404 3.5319 17.1213 3.53138 17.5021 3.53059C17.6804 3.5314 17.8588 3.53222 18.0426 3.53306C18.9418 3.52626 19.6243 3.47566 20.447 3.07485C21.3679 2.94021 22.0572 2.94875 22.8656 3.42687C23.3641 3.96681 23.6674 4.38119 23.7195 5.12333C23.642 5.9312 23.5422 6.41087 23.0808 7.09794C22.2723 7.63312 21.6157 7.76288 20.6496 7.70141C20.2395 7.58048 19.8643 7.42476 19.4735 7.25274C18.6118 6.95284 17.7056 6.95298 16.8001 6.89679C16.8001 8.22441 16.8001 9.55203 16.8001 10.9199C15.7303 10.9199 14.6606 10.9199 13.5584 10.9199C13.5584 9.59226 13.5584 8.26464 13.5584 6.89679C13.1113 6.95487 12.6641 7.01296 12.2035 7.0728C11.952 7.10547 11.7004 7.13814 11.4413 7.1718C10.8043 7.28452 10.2993 7.45046 9.70888 7.70141C8.89554 7.8045 8.55937 7.73802 7.83478 7.33681C7.25653 6.88013 6.91705 6.56856 6.79722 5.82973C6.76057 4.42128 6.76057 4.42128 7.36626 3.66574C7.53759 3.53713 7.70891 3.40851 7.88543 3.276C8.21922 2.94461 8.60536 3.04046 9.06308 3.03713Z" fill="#3AE0C5" fill-opacity="0.3"/>
<path d="M9.06308 3.03714C9.23989 3.03429 9.4167 3.03144 9.59887 3.0285C10.1141 3.07486 10.1141 3.07486 10.4884 3.2737C10.9969 3.51093 11.3745 3.54012 11.9344 3.56046C12.1051 3.56762 12.2759 3.57478 12.4518 3.58216C12.7739 3.59242 12.7739 3.59242 13.1025 3.60289C14.1305 3.64023 14.1305 3.64023 15.1792 3.67832C15.1792 5.93528 15.1792 8.19223 15.1792 10.5176C15.3798 10.6172 15.3798 10.6172 15.5844 10.7187C14.5815 10.8183 14.5815 10.8183 13.5584 10.9199C13.5584 9.59227 13.5584 8.26465 13.5584 6.8968C13.1113 6.95488 12.6641 7.01296 12.2035 7.07281C11.952 7.10548 11.7004 7.13815 11.4413 7.17181C10.8043 7.28453 10.2993 7.45046 9.70888 7.70142C8.89554 7.8045 8.55937 7.73802 7.83478 7.33682C7.25653 6.88014 6.91705 6.56857 6.79722 5.82973C6.76057 4.42129 6.76057 4.42129 7.36626 3.66575C7.53759 3.53713 7.70891 3.40852 7.88543 3.27601C8.21922 2.94462 8.60536 3.04047 9.06308 3.03714Z" fill="#3AE0C5" fill-opacity="0.3"/>
<path d="M4.84653 10.7187C5.39471 11.0855 5.76581 11.3372 6.06216 11.9257C6.11999 13.0627 6.12574 14.2001 6.13309 15.3385C6.13645 15.7191 6.14198 16.0998 6.14971 16.4804C6.16082 17.0295 6.16524 17.5784 6.16821 18.1277C6.17281 18.2972 6.1774 18.4668 6.18213 18.6414C6.1789 19.5345 6.15311 19.8618 5.56168 20.5774C5.39254 20.7095 5.2234 20.8415 5.04913 20.9776C4.94885 21.0772 4.94885 21.0772 4.84653 21.1788C4.47931 21.2055 4.47931 21.2055 4.03611 21.2039C3.88985 21.2044 3.7436 21.205 3.59291 21.2055C3.22569 21.1788 3.22569 21.1788 3.02308 20.9776C3.00417 20.6566 2.99929 20.3347 3.00008 20.013C3.0001 19.8077 3.00011 19.6023 3.00013 19.3907C3.00117 19.1673 3.00222 18.944 3.0033 18.7138C3.00358 18.4864 3.00387 18.259 3.00416 18.0247C3.0053 17.295 3.00785 16.5653 3.01042 15.8356C3.01143 15.3423 3.01236 14.8489 3.01319 14.3556C3.01543 13.1433 3.01882 11.931 3.02308 10.7187C3.66893 10.3981 4.1557 10.5676 4.84653 10.7187Z" fill="#3AE0C5" fill-opacity="0.3"/>
<path d="M25.0739 23.7938C25.582 23.8826 25.582 23.8826 25.9255 24.2291C27.6073 26.962 27.6073 26.962 27.4054 28.308C26.9921 29.0437 26.6955 29.4484 25.9872 29.9172C25.3002 30.027 24.648 30.0281 23.9611 29.9172C23.3407 29.4269 23.3407 29.4269 22.9481 28.9114C22.8813 28.845 22.8144 28.7787 22.7455 28.7103C22.4729 27.0455 23.0246 25.8457 23.9611 24.486C24.3286 24.0081 24.4709 23.8998 25.0739 23.7938Z" fill="#168CFA"/>
<path d="M24.9742 23.8826C24.9742 25.874 24.9742 27.8654 24.9742 29.9172C23.9611 29.9172 23.9611 29.9172 23.404 29.4269C23.2535 29.2568 23.1031 29.0867 22.9481 28.9114C22.8813 28.8451 22.8144 28.7787 22.7455 28.7103C22.4729 27.0455 23.0246 25.8457 23.9611 24.486C24.4879 23.8826 24.4879 23.8826 24.9742 23.8826Z" fill="#17ACE7"/>
<defs>
<linearGradient id="paint0_linear_2871_5130" x1="16" y1="3" x2="16" y2="22.9593" gradientUnits="userSpaceOnUse">
<stop stop-color="#10BE77"/>
<stop offset="1" stop-color="#2196F3"/>
</linearGradient>
<linearGradient id="paint1_linear_2871_5130" x1="16" y1="3" x2="16" y2="22.9593" gradientUnits="userSpaceOnUse">
<stop stop-color="#10BE77"/>
<stop offset="1" stop-color="#2196F3"/>
</linearGradient>
<linearGradient id="paint2_linear_2871_5130" x1="9.0897" y1="10.5364" x2="9.0897" y2="21.2055" gradientUnits="userSpaceOnUse">
<stop stop-color="#10BE77"/>
<stop offset="1" stop-color="#2196F3"/>
</linearGradient>
</defs>
</svg>
