<svg width="60" height="62" viewBox="0 0 60 62" fill="none" xmlns="http://www.w3.org/2000/svg">
<path fill-rule="evenodd" clip-rule="evenodd" d="M0.508705 41.67C0.379985 41.6053 0.273395 41.5025 0.0900629 41.3194C0.2722 41.5013 0.380449 41.6055 0.508705 41.67Z" fill="url(#paint0_linear_2719_7347)"/>
<path d="M0.0900629 41.3194C0.273395 41.5025 0.379985 41.6053 0.508705 41.67C0.679808 41.756 0.886515 41.7711 1.35175 41.8052L2.36218 41.8016L3.37261 41.8052C3.83784 41.7711 4.04455 41.756 4.21565 41.67C4.35245 41.6012 4.46652 41.4872 4.67173 41.2819C5.07917 40.6347 5.25225 40.3597 5.46117 40.1154C5.61546 39.935 5.7893 39.7712 6.09152 39.4866C7.38013 39.0523 8.03257 38.8323 8.7029 38.7324C9.39038 38.6299 10.0967 38.6537 11.5273 38.7017L13.246 38.7414C13.7196 38.7404 14.2075 38.7215 14.7016 38.7024C16.701 38.6249 18.8001 38.5436 20.4542 39.6301C21.8087 40.7952 23.2788 41.3536 24.9958 41.7439C25.2649 41.762 25.5386 41.7827 25.8155 41.8036C28.3135 41.9925 31.0805 42.2018 33.1677 40.7316C35.6303 38.927 37.6761 38.5597 40.7008 38.9724C41.0351 39.6192 41.2083 39.9543 41.2948 40.3105C41.3877 40.6934 41.3803 41.1017 41.3648 41.9469C41.4102 42.6876 41.4314 43.0327 41.4681 43.3748C41.4999 43.6709 41.5435 43.9657 41.6246 44.5153C42.0553 44.946 42.2852 45.176 42.5605 45.3181C42.8756 45.4807 43.2501 45.5283 44.0533 45.6304L45.8395 45.7278L47.6331 45.8325H48.6374H49.27H49.8106H50.2036H50.6127H50.8042H51.0425H51.5223H52.0175H52.2626L53.5296 45.8162L55.1932 45.699C55.4094 45.6841 55.6206 45.6722 55.8274 45.6605C57.013 45.5936 58.0632 45.5342 59.1772 44.9772C59.2059 43.6144 59.2287 42.2517 59.2449 40.8886L59.2638 39.2033C59.3851 33.5443 58.6661 29.6039 55.02 25.1151C51.7786 21.9848 47.5182 20.7852 43.1204 20.7215C42.6707 20.7233 42.2264 20.733 41.787 20.7426C39.3916 20.7948 37.1429 20.8439 34.9774 19.5866L33.7721 18.6483L31.4626 18.1864V8.94818C31.7869 8.96845 32.1113 8.98553 32.4353 9.00259C34.1737 9.09412 35.9017 9.1851 37.5576 9.76555C38.4487 10.1606 39.304 10.5181 40.2389 10.7958C42.4416 10.937 43.9384 10.639 45.7818 9.41009C46.8336 7.83238 47.0611 6.7309 47.2379 4.87579C47.119 3.17163 46.4276 2.22007 45.291 0.980219C43.4481 -0.117675 41.8765 -0.1373 39.777 0.171874C37.9015 1.09226 36.3454 1.20844 34.2953 1.22406L33.063 1.21839C32.1948 1.22021 31.3266 1.22139 30.4585 1.222C29.095 1.21609 27.7318 1.2112 26.3684 1.21614C25.4758 1.22 24.5832 1.2217 23.6906 1.22107L22.4102 1.21839L21.1751 1.22406L20.0211 1.21523C18.8439 1.21264 18.1649 1.1422 17.0946 0.632968C16.694 0.421907 16.4768 0.307457 16.2464 0.235186C15.9734 0.149569 15.6818 0.123145 15.0449 0.0654184L13.8233 0.0852661C13.622 0.0867404 13.4266 0.0797326 13.2371 0.0729316C12.4445 0.0444923 11.7526 0.0196683 11.1385 0.633785L9.95484 1.52874C9.38014 2.2508 9.04462 2.67235 8.85476 3.1516C8.58843 3.82389 8.60874 4.60972 8.65752 6.49789C8.9307 8.19448 9.70467 8.90994 11.023 9.95861C12.675 10.8799 13.4414 11.0325 15.2957 10.7958C16.6419 10.2196 17.793 9.83854 19.2454 9.5797L20.983 9.35235L24.072 8.94818V18.1864L21.7624 18.6483C21.6499 18.7429 21.5418 18.8346 21.4373 18.9232C20.331 19.8618 19.6154 20.4689 18.0605 20.7277L16.5317 20.7251L14.8617 20.726L13.1305 20.698C12.7717 20.7001 12.4125 20.7048 12.0532 20.7095C10.3569 20.7317 8.65802 20.7539 6.98129 20.496C6.51298 19.7935 6.28206 19.4471 6.00649 19.1409C5.73846 18.8431 5.42817 18.5834 4.81608 18.0709C4.13294 17.71 3.72092 17.4923 3.28226 17.3962C2.6156 17.2502 1.88743 17.3849 0.0526229 17.7245C0.042914 20.5083 0.0351743 23.2921 0.0300686 26.0759C0.0281767 27.2087 0.0260688 28.3415 0.0237534 29.4743C0.0178897 31.1499 0.0120901 32.8255 0.00949492 34.5011L0.00751438 36.0836L0.000289969 37.6379L0.000184246 39.067C-0.00163029 39.8055 0.00953318 40.5447 0.0526466 41.282L0.0900629 41.3194Z" fill="url(#paint1_linear_2719_7347)"/>
<path d="M4.20982 17.7244C5.4596 18.5667 6.30564 19.1446 6.98129 20.4959C9.01167 20.5496 11.0419 20.5824 13.0727 20.6114C13.6482 20.6269 14.2237 20.6423 14.8166 20.6583C15.3719 20.6642 15.9271 20.6702 16.4992 20.6763C17.0096 20.686 17.52 20.6957 18.0458 20.7057C19.7656 20.4493 20.4933 19.8024 21.7624 18.6483C22.7151 18.2657 22.7151 18.2657 23.6101 18.0709C23.9054 18.0018 24.2007 17.9327 24.505 17.8616C25.4577 17.7244 25.4577 17.7244 27.7673 17.7244C27.7673 25.6508 27.7673 33.5772 27.7673 41.7438C23.0683 41.2739 23.0683 41.2739 20.5091 39.4906C18.2288 38.3717 15.6155 38.6435 13.1305 38.6836C12.2923 38.6702 12.2923 38.6702 11.4371 38.6566C8.17185 38.5596 8.17185 38.5596 5.47105 40.1163C5.20728 40.5009 4.9435 40.8856 4.67173 41.2819C4.20982 41.7438 4.20982 41.7438 3.37261 41.8051C3.03917 41.804 2.70572 41.8028 2.36218 41.8015C2.02874 41.8027 1.69529 41.8039 1.35175 41.8051C0.514534 41.7438 0.514534 41.7438 0.0526232 41.2819C0.00950976 40.5446 -0.00162999 39.8055 0.000184549 39.0669C0.000219437 38.5953 0.000254326 38.1237 0.000290272 37.6378C0.00267433 37.1249 0.00505838 36.612 0.00751468 36.0836C0.00816826 35.5614 0.00882184 35.0391 0.00949522 34.5011C0.0120904 32.8255 0.01789 31.1499 0.0237537 29.4743C0.0260691 28.3415 0.028177 27.2086 0.0300689 26.0758C0.0351746 23.292 0.0429143 20.5082 0.0526232 17.7244C1.52506 16.9882 2.63483 17.3774 4.20982 17.7244Z" fill="url(#paint2_linear_2719_7347)"/>
<path d="M13.8232 0.0852661C14.2264 0.0787164 14.6295 0.0721666 15.0448 0.0654184C16.2194 0.171874 16.2194 0.171874 17.0945 0.632968C18.1648 1.1422 18.8438 1.21264 20.021 1.21523C20.5923 1.2196 20.5923 1.2196 21.175 1.22406C21.5826 1.22219 21.9902 1.22032 22.4101 1.21839C22.8326 1.21928 23.2551 1.22016 23.6905 1.22107C24.5831 1.2217 25.4757 1.22 26.3683 1.21614C27.7317 1.2112 29.0949 1.21609 30.4584 1.222C31.3265 1.22139 32.1947 1.22021 33.0629 1.21839C33.4696 1.22026 33.8762 1.22213 34.2952 1.22406C36.3453 1.20844 37.9014 1.09226 39.7769 0.171874C41.8764 -0.1373 43.448 -0.117675 45.2909 0.980219C46.4275 2.22007 47.1189 3.17163 47.2378 4.87579C47.061 6.7309 46.8335 7.83238 45.7817 9.41009C43.9383 10.639 42.4415 10.937 40.2388 10.7958C39.3039 10.5181 38.4486 10.1606 37.5575 9.76555C35.593 9.0769 33.5269 9.07721 31.4625 8.94818C31.4625 11.9968 31.4625 15.0454 31.4625 18.1864C29.0236 18.1864 26.5847 18.1864 24.0719 18.1864C24.0719 15.1378 24.0719 12.0892 24.0719 8.94818C23.0525 9.08156 22.0331 9.21494 20.9829 9.35235C20.4095 9.42738 19.8361 9.5024 19.2453 9.5797C17.7929 9.83854 16.6418 10.2196 15.2956 10.7958C13.4413 11.0325 12.6749 10.8799 11.0229 9.95861C9.70457 8.90994 8.9306 8.19448 8.65742 6.49789C8.57386 3.26369 8.57386 3.26369 9.95474 1.52874C10.3453 1.2334 10.7359 0.938069 11.1384 0.633785C11.8994 -0.127193 12.7797 0.0929054 13.8232 0.0852661Z" fill="#3AE0C5" fill-opacity="0.3"/>
<path d="M13.8232 0.0852362C14.2264 0.0786864 14.6295 0.0721367 15.0448 0.0653884C16.2194 0.171844 16.2194 0.171844 17.0727 0.628455C18.232 1.17319 19.0929 1.24022 20.3694 1.28693C20.7587 1.30338 21.1479 1.31982 21.549 1.33677C22.2834 1.36033 22.2834 1.36033 23.0326 1.38436C25.3762 1.4701 25.3762 1.4701 27.7672 1.55758C27.7672 6.74022 27.7672 11.9229 27.7672 17.2625C28.2245 17.4912 28.2245 17.4912 28.691 17.7245C26.4045 17.9531 26.4045 17.9531 24.0719 18.1864C24.0719 15.1378 24.0719 12.0891 24.0719 8.94815C23.0525 9.08153 22.0331 9.21491 20.9829 9.35232C20.4095 9.42735 19.8361 9.50237 19.2453 9.57967C17.7929 9.83851 16.6418 10.2195 15.2956 10.7958C13.4413 11.0325 12.6749 10.8799 11.0229 9.95858C9.70457 8.90991 8.9306 8.19445 8.65742 6.49786C8.57386 3.26366 8.57386 3.26366 9.95474 1.52871C10.3453 1.23337 10.7359 0.938039 11.1384 0.633755C11.8994 -0.127223 12.7797 0.0928754 13.8232 0.0852362Z" fill="#3AE0C5" fill-opacity="0.3"/>
<path d="M4.20982 17.7244C5.4596 18.5667 6.30564 19.1446 6.98129 20.4959C7.11313 23.107 7.12623 25.7186 7.143 28.3327C7.15065 29.2068 7.16325 30.0809 7.18089 30.9549C7.20621 32.2159 7.2163 33.4763 7.22307 34.7375C7.23354 35.1269 7.24401 35.5162 7.2548 35.9173C7.24744 37.9681 7.18864 38.7196 5.84027 40.3629C5.45465 40.6662 5.06903 40.9694 4.67173 41.2819C4.44309 41.5105 4.44309 41.5105 4.20982 41.7438C3.37261 41.8051 3.37261 41.8051 2.36218 41.8015C2.02874 41.8027 1.69529 41.8039 1.35175 41.8051C0.514534 41.7438 0.514534 41.7438 0.0526232 41.2819C0.00950976 40.5446 -0.00162999 39.8055 0.000184549 39.0669C0.000219437 38.5953 0.000254326 38.1237 0.000290272 37.6378C0.00267433 37.1249 0.00505838 36.612 0.00751468 36.0836C0.00816826 35.5614 0.00882184 35.0391 0.00949522 34.5011C0.0120904 32.8255 0.01789 31.1499 0.0237537 29.4743C0.0260691 28.3415 0.028177 27.2086 0.0300689 26.0758C0.0351746 23.292 0.0429143 20.5082 0.0526232 17.7244C1.52506 16.9882 2.63483 17.3774 4.20982 17.7244Z" fill="#3AE0C5" fill-opacity="0.3"/>
<path d="M50.3253 47.7487C51.4836 47.9525 51.4836 47.9525 52.2667 48.7483C56.1012 55.0238 56.1012 55.0238 55.6408 58.1146C54.6986 59.8042 54.0222 60.7334 52.4075 61.8099C50.8413 62.062 49.3543 62.0646 47.7884 61.8099C46.3737 60.684 46.3737 60.684 45.4788 59.5003C45.3264 59.3479 45.1739 59.1955 45.0169 59.0384C44.3955 55.2156 45.6532 52.4605 47.7884 49.3383C48.6262 48.2408 48.9505 47.9921 50.3253 47.7487Z" fill="#168CFA"/>
<path d="M50.0979 47.9526C50.0979 52.5255 50.0979 57.0984 50.0979 61.8099C47.7884 61.8099 47.7884 61.8099 46.5181 60.684C46.1751 60.2934 45.8322 59.9028 45.4788 59.5003C45.3264 59.3479 45.1739 59.1955 45.0169 59.0384C44.3955 55.2156 45.6532 52.4605 47.7884 49.3383C48.9893 47.9526 48.9893 47.9526 50.0979 47.9526Z" fill="#17ACE7"/>
<defs>
<linearGradient id="paint0_linear_2719_7347" x1="29.6381" y1="0" x2="29.6381" y2="45.8325" gradientUnits="userSpaceOnUse">
<stop stop-color="#10BE77"/>
<stop offset="1" stop-color="#2196F3"/>
</linearGradient>
<linearGradient id="paint1_linear_2719_7347" x1="29.6381" y1="0" x2="29.6381" y2="45.8325" gradientUnits="userSpaceOnUse">
<stop stop-color="#10BE77"/>
<stop offset="1" stop-color="#2196F3"/>
</linearGradient>
<linearGradient id="paint2_linear_2719_7347" x1="13.8836" y1="17.3058" x2="13.8836" y2="41.8051" gradientUnits="userSpaceOnUse">
<stop stop-color="#10BE77"/>
<stop offset="1" stop-color="#2196F3"/>
</linearGradient>
</defs>
</svg>
