<svg width="45" height="59" viewBox="0 0 45 59" fill="none" xmlns="http://www.w3.org/2000/svg">
<g clip-path="url(#clip0_2719_7271)">
<path d="M0 4.06897C0 1.82174 1.82174 0 4.06897 0H28.4828C30.73 0 32.5517 1.82174 32.5517 4.06897V54.931C32.5517 57.1783 30.73 59 28.4828 59H4.06897C1.82174 59 0 57.1783 0 54.931V4.06897Z" fill="#10BE77"/>
<path d="M0.513916 5.86499C10.9168 5.86499 21.3197 5.86499 32.0378 5.86499C32.0378 21.3819 32.0378 36.8988 32.0378 52.8859C31.0325 52.8859 30.0271 52.8859 28.9914 52.8859C28.9839 52.295 28.9839 52.295 28.9764 51.6923C28.9702 51.31 28.9634 50.9277 28.9566 50.5455C28.9522 50.2802 28.9485 50.0149 28.9455 49.7496C28.9411 49.3678 28.9341 48.9862 28.9267 48.6045C28.9255 48.4271 28.9255 48.4271 28.9242 48.2461C28.9092 47.6135 28.8773 47.1715 28.4616 46.6606C28.1469 46.5033 27.9528 46.5099 27.6016 46.5072C27.4764 46.5059 27.3512 46.5046 27.2223 46.5033C27.0156 46.5021 27.0156 46.5021 26.8048 46.501C26.6601 46.4996 26.5153 46.4983 26.3662 46.497C25.886 46.4928 25.4059 46.4895 24.9257 46.4863C24.5934 46.4835 24.2613 46.4808 23.929 46.4779C23.1428 46.4713 22.3567 46.4653 21.5704 46.4596C20.5877 46.4524 19.6049 46.4443 18.6222 46.4363C16.8688 46.422 15.1153 46.4086 13.3619 46.3957C13.3986 46.4932 13.4353 46.5907 13.4732 46.6911C13.5211 46.8204 13.5691 46.9496 13.6185 47.0828C13.6662 47.2103 13.7138 47.3379 13.7629 47.4693C14.2983 49.0627 14.2043 50.9728 13.4943 52.4885C13.4069 52.6197 13.3195 52.7508 13.2294 52.8859C9.0333 52.8859 4.83719 52.8859 0.513916 52.8859C0.513916 37.369 0.513916 21.8521 0.513916 5.86499Z" fill="#FDFEFE"/>
<path d="M5.53169 9.02439C5.62654 9.02392 5.72141 9.02338 5.81914 9.0229C6.13862 9.02141 6.4581 9.02094 6.77759 9.02046C7.00598 9.01958 7.23439 9.0187 7.46286 9.01782C8.0846 9.01551 8.7064 9.01409 9.32821 9.013C9.71653 9.01232 10.1048 9.01151 10.4932 9.0107C11.7077 9.00812 12.9223 9.00629 14.1369 9.00513C15.5397 9.00385 16.9424 9.00039 18.3452 8.99503C19.4289 8.99103 20.5126 8.98906 21.5963 8.98866C22.2438 8.98832 22.8913 8.98716 23.5388 8.98377C24.1481 8.98072 24.7573 8.98018 25.3665 8.98153C25.59 8.9816 25.8136 8.98072 26.037 8.97896C26.3425 8.97658 26.6477 8.97753 26.9531 8.9793C27.2094 8.97882 27.2094 8.97882 27.4708 8.97828C28.0826 9.06529 28.5206 9.31316 28.9065 9.80096C29.0398 10.2749 29.0295 10.7471 29.028 11.2353C29.0286 11.3493 29.0293 11.4633 29.03 11.5807C29.0318 11.9574 29.0317 12.334 29.0314 12.7107C29.0319 12.9726 29.0325 13.2346 29.0331 13.4965C29.0341 14.0456 29.0341 14.5946 29.0334 15.1436C29.0326 15.847 29.0349 16.5504 29.0379 17.2539C29.0399 17.7948 29.04 18.3358 29.0396 18.8769C29.0396 19.1362 29.0404 19.3955 29.0417 19.6548C29.0433 20.0176 29.0424 20.3802 29.0409 20.7429C29.0419 20.85 29.0429 20.957 29.044 21.0672C29.0383 21.6763 28.9798 22.0751 28.5942 22.5541C28.1268 23.0081 27.7478 23.0016 27.1101 23.0029C26.9657 23.0039 26.9657 23.0039 26.8184 23.005C26.4957 23.0069 26.1732 23.0059 25.8505 23.005C25.6192 23.0058 25.3879 23.0067 25.1566 23.0077C24.5283 23.0101 23.9 23.01 23.2717 23.0092C22.7473 23.0088 22.223 23.0096 21.6986 23.0104C20.4616 23.0123 19.2247 23.0121 17.9878 23.0106C16.7113 23.009 15.4348 23.0109 14.1583 23.0144C13.0626 23.0174 11.967 23.0182 10.8714 23.0175C10.2169 23.017 9.56238 23.0174 8.90789 23.0196C8.29239 23.0217 7.67696 23.0212 7.06153 23.0187C6.83563 23.0182 6.6097 23.0186 6.38379 23.0199C6.07542 23.0217 5.76722 23.0202 5.45886 23.0178C5.28629 23.0178 5.11373 23.0178 4.93594 23.0178C4.41354 22.9405 4.19602 22.7904 3.82545 22.4217C3.60564 21.982 3.66986 21.4899 3.66745 21.0064C3.66637 20.8873 3.66529 20.7682 3.66417 20.6454C3.66087 20.2501 3.65869 19.8549 3.65678 19.4596C3.65608 19.3247 3.65537 19.1899 3.65464 19.051C3.6511 18.3374 3.64854 17.6238 3.64663 16.9103C3.64442 16.1726 3.63849 15.4351 3.63175 14.6976C3.62729 14.1309 3.62576 13.5642 3.62501 12.9975C3.62412 12.7256 3.6221 12.4537 3.61893 12.1818C3.61475 11.8013 3.61473 11.4209 3.61572 11.0404C3.61354 10.9279 3.61137 10.8156 3.60913 10.6998C3.61523 10.1223 3.63822 9.90682 4.01241 9.44065C4.55545 9.02202 4.84677 9.02663 5.53169 9.02439Z" fill="#3AE0C5"/>
<path d="M5.53169 9.02439C5.62654 9.02392 5.72141 9.02338 5.81914 9.0229C6.13862 9.02141 6.4581 9.02094 6.77759 9.02046C7.00598 9.01958 7.23439 9.0187 7.46286 9.01782C8.0846 9.01551 8.7064 9.01409 9.32821 9.013C9.71653 9.01232 10.1048 9.01151 10.4932 9.0107C11.7077 9.00812 12.9223 9.00629 14.1369 9.00513C15.5397 9.00385 16.9424 9.00039 18.3452 8.99503C19.4289 8.99103 20.5126 8.98906 21.5963 8.98866C22.2438 8.98832 22.8913 8.98716 23.5388 8.98377C24.1481 8.98072 24.7573 8.98018 25.3665 8.98153C25.59 8.9816 25.8136 8.98072 26.037 8.97896C26.3425 8.97658 26.6477 8.97753 26.9531 8.9793C27.2094 8.97882 27.2094 8.97882 27.4708 8.97828C28.0826 9.06529 28.5206 9.31316 28.9065 9.80096C29.0398 10.2749 29.0295 10.7471 29.028 11.2353C29.0286 11.3493 29.0293 11.4633 29.03 11.5807C29.0318 11.9574 29.0317 12.334 29.0314 12.7107C29.0319 12.9726 29.0325 13.2346 29.0331 13.4965C29.0341 14.0456 29.0341 14.5946 29.0334 15.1436C29.0326 15.847 29.0349 16.5504 29.0379 17.2539C29.0399 17.7948 29.04 18.3358 29.0396 18.8769C29.0396 19.1362 29.0404 19.3955 29.0417 19.6548C29.0433 20.0176 29.0424 20.3802 29.0409 20.7429C29.0419 20.85 29.0429 20.957 29.044 21.0672C29.0383 21.6763 28.9798 22.0751 28.5942 22.5541C28.1268 23.0081 27.7478 23.0016 27.1101 23.0029C26.9657 23.0039 26.9657 23.0039 26.8184 23.005C26.4957 23.0069 26.1732 23.0059 25.8505 23.005C25.6192 23.0058 25.3879 23.0067 25.1566 23.0077C24.5283 23.0101 23.9 23.01 23.2717 23.0092C22.7473 23.0088 22.223 23.0096 21.6986 23.0104C20.4616 23.0123 19.2247 23.0121 17.9878 23.0106C16.7113 23.009 15.4348 23.0109 14.1583 23.0144C13.0626 23.0174 11.967 23.0182 10.8714 23.0175C10.2169 23.017 9.56238 23.0174 8.90789 23.0196C8.29239 23.0217 7.67696 23.0212 7.06153 23.0187C6.83563 23.0182 6.6097 23.0186 6.38379 23.0199C6.07542 23.0217 5.76722 23.0202 5.45886 23.0178C5.28629 23.0178 5.11373 23.0178 4.93594 23.0178C4.41354 22.9405 4.19602 22.7904 3.82545 22.4217C3.60564 21.982 3.66986 21.4899 3.66745 21.0064C3.66637 20.8873 3.66529 20.7682 3.66417 20.6454C3.66087 20.2501 3.65869 19.8549 3.65678 19.4596C3.65608 19.3247 3.65537 19.1899 3.65464 19.051C3.6511 18.3374 3.64854 17.6238 3.64663 16.9103C3.64442 16.1726 3.63849 15.4351 3.63175 14.6976C3.62729 14.1309 3.62576 13.5642 3.62501 12.9975C3.62412 12.7256 3.6221 12.4537 3.61893 12.1818C3.61475 11.8013 3.61473 11.4209 3.61572 11.0404C3.61354 10.9279 3.61137 10.8156 3.60913 10.6998C3.61523 10.1223 3.63822 9.90682 4.01241 9.44065C4.55545 9.02202 4.84677 9.02663 5.53169 9.02439Z" fill="white" fill-opacity="0.2"/>
<path d="M13.3618 46.3957C15.2845 46.3803 17.2073 46.3687 19.1301 46.3614C20.0229 46.358 20.9157 46.3534 21.8085 46.3458C22.6699 46.3385 23.5312 46.3346 24.3927 46.333C24.7215 46.3317 25.0504 46.3294 25.3792 46.3258C25.8393 46.3209 26.2994 46.3203 26.7596 46.3206C26.8959 46.3182 27.0322 46.3159 27.1727 46.3134C28.0987 46.3201 28.0987 46.3201 28.6092 46.715C28.9209 47.1434 29.0078 47.3452 29.0063 47.8637C29.0063 47.975 29.0063 48.0864 29.0063 48.2012C29.0053 48.3816 29.0053 48.3816 29.0042 48.5657C29.0039 48.7504 29.0039 48.7504 29.0036 48.9388C29.0029 49.3329 29.0013 49.7269 28.9996 50.121C28.9989 50.3878 28.9983 50.6547 28.9977 50.9215C28.9964 51.5763 28.9938 52.2311 28.9913 52.886C29.9966 52.886 31.0019 52.886 32.0377 52.886C32.1374 55.8979 32.1374 55.8979 31.3754 56.7271C30.7061 57.4394 29.9813 57.8748 28.999 57.9696C28.8053 57.972 28.6116 57.9722 28.4178 57.9706C28.3103 57.9713 28.2029 57.972 28.0921 57.9727C27.7338 57.9746 27.3756 57.9737 27.0172 57.9727C26.7596 57.9735 26.5019 57.9744 26.2442 57.9755C25.5456 57.9779 24.8469 57.9777 24.1482 57.977C23.5643 57.9766 22.9804 57.9774 22.3965 57.9781C21.0185 57.98 19.6405 57.9798 18.2624 57.9783C16.8424 57.9768 15.4225 57.9787 14.0026 57.9822C12.782 57.9851 11.5615 57.986 10.341 57.9852C9.61263 57.9848 8.88436 57.9851 8.15601 57.9873C7.47073 57.9895 6.78552 57.9889 6.10027 57.9864C5.84943 57.9859 5.59859 57.9863 5.34775 57.9877C2.58336 58.0019 2.58336 58.0019 1.4865 57.1002C1.40591 57.0016 1.32532 56.9032 1.24229 56.8017C1.15897 56.7035 1.07565 56.6053 0.989804 56.5041C0.175399 55.3205 0.513799 54.5281 0.513799 52.886C6.80796 52.8204 6.80796 52.8204 13.2293 52.7535C13.9413 50.9734 14.2122 49.2119 13.594 47.3577C13.4881 47.0395 13.4249 46.7247 13.3618 46.3957Z" fill="#3AE0C5"/>
<path d="M13.3618 46.3957C15.2845 46.3803 17.2073 46.3687 19.1301 46.3614C20.0229 46.358 20.9157 46.3534 21.8085 46.3458C22.6699 46.3385 23.5312 46.3346 24.3927 46.333C24.7215 46.3317 25.0504 46.3294 25.3792 46.3258C25.8393 46.3209 26.2994 46.3203 26.7596 46.3206C26.8959 46.3182 27.0322 46.3159 27.1727 46.3134C28.0987 46.3201 28.0987 46.3201 28.6092 46.715C28.9209 47.1434 29.0078 47.3452 29.0063 47.8637C29.0063 47.975 29.0063 48.0864 29.0063 48.2012C29.0053 48.3816 29.0053 48.3816 29.0042 48.5657C29.0039 48.7504 29.0039 48.7504 29.0036 48.9388C29.0029 49.3329 29.0013 49.7269 28.9996 50.121C28.9989 50.3878 28.9983 50.6547 28.9977 50.9215C28.9964 51.5763 28.9938 52.2311 28.9913 52.886C29.9966 52.886 31.0019 52.886 32.0377 52.886C32.1374 55.8979 32.1374 55.8979 31.3754 56.7271C30.7061 57.4394 29.9813 57.8748 28.999 57.9696C28.8053 57.972 28.6116 57.9722 28.4178 57.9706C28.3103 57.9713 28.2029 57.972 28.0921 57.9727C27.7338 57.9746 27.3756 57.9737 27.0172 57.9727C26.7596 57.9735 26.5019 57.9744 26.2442 57.9755C25.5455 57.9779 24.8469 57.9777 24.1482 57.977C23.5643 57.9766 22.9804 57.9774 22.3965 57.9781C21.0185 57.98 19.6405 57.9798 18.2624 57.9783C16.8424 57.9768 15.4225 57.9787 14.0026 57.9822C12.782 57.9851 11.5615 57.986 10.341 57.9853C9.61263 57.9848 8.88436 57.9851 8.15601 57.9874C7.47073 57.9895 6.78552 57.9889 6.10027 57.9864C5.84943 57.9859 5.59859 57.9863 5.34775 57.9877C2.58336 58.0019 2.58336 58.0019 1.4865 57.1002C1.40591 57.0016 1.32532 56.9032 1.24229 56.8017C1.15897 56.7035 1.07565 56.6053 0.989804 56.5041C0.175399 55.3205 0.513799 54.5281 0.513799 52.886C6.80796 52.8204 6.80796 52.8204 13.2293 52.7535C13.9413 50.9734 14.2122 49.2119 13.594 47.3577C13.4881 47.0395 13.4249 46.7247 13.3618 46.3957Z" fill="white" fill-opacity="0.2"/>
<path d="M28.7266 12.7526C28.9747 13.0007 28.8824 13.4218 28.8867 13.7528C28.888 13.8435 28.8893 13.9342 28.8906 14.0276C28.8946 14.329 28.8974 14.6304 28.8999 14.9318C28.9007 15.0346 28.9016 15.1375 28.9025 15.2434C28.9068 15.7877 28.9101 16.3321 28.9127 16.8765C28.915 17.3273 28.9197 17.7779 28.9262 18.2286C28.9342 18.7724 28.9383 19.3161 28.9396 19.86C28.9407 20.0672 28.9432 20.2744 28.9471 20.4816C28.9523 20.7722 28.9524 21.0623 28.9513 21.3529C28.9534 21.6006 28.9534 21.6006 28.9555 21.8534C28.853 22.3165 28.7269 22.5524 28.3375 22.8319C27.738 23.0943 27.0848 23.0366 26.4421 23.0266C26.2792 23.0268 26.1163 23.0268 25.9484 23.027C25.5034 23.0266 25.0587 23.0232 24.6137 23.0186C24.1481 23.0145 23.6825 23.0141 23.2168 23.0133C22.3359 23.0112 21.4549 23.0058 20.574 22.9992C19.5708 22.9918 18.5675 22.9881 17.5643 22.9848C15.5012 22.9779 13.4382 22.9662 11.3752 22.9515C11.3729 22.5908 11.3713 22.2302 11.3701 21.8696C11.3693 21.768 11.3687 21.6665 11.368 21.5619C11.366 20.8408 11.417 20.1568 11.5656 19.4497C11.5834 19.3547 11.6013 19.2597 11.6196 19.1618C11.7482 18.4969 11.7482 18.4969 11.905 18.1831C12.028 18.1805 12.151 18.1779 12.2777 18.1752C12.7335 18.1648 13.1891 18.1534 13.6448 18.1411C13.8421 18.136 14.0395 18.1314 14.2368 18.1273C14.5202 18.1212 14.8036 18.1136 15.087 18.1056C15.2576 18.1014 15.4283 18.0972 15.604 18.0929C16.0249 18.0925 16.0249 18.0925 16.276 17.7858C16.2376 17.3478 16.2376 17.3478 16.0111 16.9911C15.7561 16.9701 15.5004 16.9578 15.2448 16.9492C15.0123 16.9408 15.0123 16.9408 14.7753 16.9323C14.6121 16.9271 14.449 16.9219 14.2809 16.9165C14.1172 16.9108 13.9536 16.9051 13.7849 16.8992C13.3791 16.8851 12.9732 16.8716 12.5672 16.8586C12.7075 16.4078 12.8333 16.0621 13.0971 15.6666C13.3762 15.6156 13.3762 15.6156 13.7175 15.6127C13.8403 15.6098 13.9632 15.6069 14.0897 15.604C14.2827 15.6021 14.2827 15.6021 14.4796 15.6003C14.7333 15.5979 14.987 15.5939 15.2407 15.5879C15.4098 15.5865 15.4098 15.5865 15.5823 15.585C15.9414 15.5233 16.0638 15.4295 16.276 15.1367C16.266 14.7887 16.266 14.7887 16.1435 14.4745C15.8032 14.3043 15.5123 14.2983 15.1335 14.2675C15.0007 14.2564 14.8679 14.2453 14.731 14.2339C14.6289 14.2259 14.5268 14.2178 14.4216 14.2095C15.5754 12.6601 17.2895 11.8247 19.0575 11.1631C19.1832 11.1151 19.3088 11.0671 19.4383 11.0178C22.5127 10.0569 26.1692 10.9371 28.7266 12.7526Z" fill="#10BE77"/>
<path d="M4.33167 0.813171C4.43676 0.812777 4.54184 0.812384 4.65011 0.811977C5.00261 0.810831 5.35512 0.810627 5.70763 0.810431C5.96024 0.80982 6.21285 0.809149 6.46545 0.808437C7.15209 0.806701 7.83872 0.805846 8.52543 0.805256C8.9545 0.80487 9.38364 0.804327 9.81272 0.803731C11.1557 0.80192 12.4986 0.800645 13.8415 0.80013C15.3911 0.79954 16.9407 0.797213 18.4902 0.793375C19.6883 0.790513 20.8864 0.789177 22.0845 0.789001C22.7999 0.788858 23.5153 0.788079 24.2307 0.785712C24.904 0.783528 25.5772 0.783243 26.2505 0.784403C26.4971 0.784505 26.7437 0.783935 26.9904 0.782626C30.0872 0.76713 30.0872 0.76713 31.2431 1.8914C32.2639 3.24277 32.0378 3.89332 32.0378 5.865C21.6349 5.865 11.232 5.865 0.513916 5.865C0.513916 2.92159 0.513916 2.92159 1.34175 1.93279C2.32247 1.10809 3.05155 0.811672 4.33167 0.813171Z" fill="#10BE77"/>
<path d="M4.33167 0.813171C4.43676 0.812777 4.54184 0.812384 4.65011 0.811977C5.00261 0.810831 5.35512 0.810627 5.70763 0.810431C5.96024 0.80982 6.21285 0.809149 6.46545 0.808437C7.15209 0.806701 7.83872 0.805846 8.52543 0.805256C8.9545 0.80487 9.38364 0.804327 9.81272 0.803731C11.1557 0.80192 12.4986 0.800645 13.8415 0.80013C15.3911 0.79954 16.9407 0.797213 18.4902 0.793375C19.6883 0.790513 20.8864 0.789177 22.0845 0.789001C22.7999 0.788858 23.5153 0.788079 24.2307 0.785712C24.904 0.783528 25.5772 0.783243 26.2505 0.784403C26.4971 0.784505 26.7437 0.783935 26.9904 0.782626C30.0872 0.76713 30.0872 0.76713 31.2431 1.8914C32.2639 3.24277 32.0378 3.89332 32.0378 5.865C21.6349 5.865 11.232 5.865 0.513916 5.865C0.513916 2.92159 0.513916 2.92159 1.34175 1.93279C2.32247 1.10809 3.05155 0.811672 4.33167 0.813171Z" fill="white" fill-opacity="0.2"/>
<path d="M4.33167 0.813171C4.43676 0.812777 4.54184 0.812384 4.65011 0.811977C5.00261 0.810831 5.35512 0.810627 5.70763 0.810431C5.96024 0.80982 6.21285 0.809149 6.46545 0.808437C7.15209 0.806701 7.83872 0.805846 8.52543 0.805256C8.9545 0.80487 9.38364 0.804327 9.81272 0.803731C11.1557 0.80192 12.4986 0.800645 13.8415 0.80013C15.3911 0.79954 16.9407 0.797213 18.4902 0.793375C19.6883 0.790513 20.8864 0.789177 22.0845 0.789001C22.7999 0.788858 23.5153 0.788079 24.2307 0.785712C24.904 0.783528 25.5772 0.783243 26.2505 0.784403C26.4971 0.784505 26.7437 0.783935 26.9904 0.782626C30.0872 0.76713 30.0872 0.76713 31.2431 1.8914C32.2639 3.24277 32.0378 3.89332 32.0378 5.865C21.6349 5.865 11.232 5.865 0.513916 5.865C0.513916 2.92159 0.513916 2.92159 1.34175 1.93279C2.32247 1.10809 3.05155 0.811672 4.33167 0.813171Z" fill="#3AE0C5" fill-opacity="0.2"/>
<path d="M13.3619 46.3957C15.2847 46.3803 17.2074 46.3687 19.1303 46.3614C20.0231 46.358 20.9159 46.3534 21.8086 46.3458C22.67 46.3385 23.5314 46.3346 24.3928 46.333C24.7217 46.3317 25.0505 46.3294 25.3794 46.3258C25.8396 46.3209 26.2996 46.3203 26.7598 46.3206C26.8961 46.3182 27.0324 46.3159 27.1729 46.3134C28.0989 46.3201 28.0989 46.3201 28.6094 46.715C29.8221 48.3815 28.9914 50.8251 28.9914 52.886C23.79 52.886 18.5886 52.886 13.2295 52.886C13.4481 52.2304 13.6666 51.5747 13.8918 50.8992C13.9441 50.4572 13.977 50.106 13.958 49.674C13.9549 49.5244 13.9549 49.5244 13.9517 49.3717C13.9266 48.6713 13.8166 48.0248 13.5943 47.3577C13.4882 47.0395 13.4251 46.7247 13.3619 46.3957Z" fill="#02FEB3"/>
<path d="M4.68393 34.1741C4.78516 34.1747 4.88638 34.1752 4.99067 34.1757C5.15061 34.1751 5.15061 34.1751 5.31378 34.1743C5.66736 34.1732 6.0209 34.1739 6.37448 34.1749C6.61963 34.1747 6.86478 34.1744 7.10994 34.1741C7.62426 34.1736 8.13858 34.1743 8.65289 34.1755C9.31268 34.177 9.97246 34.1762 10.6322 34.1745C11.1387 34.1736 11.6451 34.1739 12.1516 34.1746C12.3948 34.1747 12.6382 34.1745 12.8814 34.1739C13.2214 34.1732 13.5613 34.1743 13.9012 34.1757C14.0022 34.1752 14.1031 34.1747 14.2072 34.1741C14.7042 34.1781 14.9244 34.192 15.3487 34.475C15.3992 34.7363 15.3992 34.7363 15.4001 35.0601C15.4014 35.1812 15.4026 35.3023 15.4039 35.4271C15.4031 35.5582 15.4023 35.6893 15.4015 35.8243C15.4019 35.9585 15.4022 36.0928 15.4026 36.2311C15.4029 36.5152 15.4022 36.7994 15.4005 37.0835C15.3984 37.5196 15.4005 37.9555 15.403 38.3916C15.4028 38.6672 15.4023 38.9428 15.4015 39.2184C15.4023 39.3495 15.4031 39.4806 15.4039 39.6156C15.402 39.7973 15.402 39.7973 15.4001 39.9826C15.3998 40.0894 15.3995 40.1963 15.3992 40.3064C15.3825 40.3927 15.3659 40.4789 15.3487 40.5678C14.8547 40.8971 14.473 40.87 13.9012 40.867C13.7944 40.8674 13.6876 40.8679 13.5774 40.8684C13.224 40.8695 12.8705 40.8688 12.517 40.8678C12.2717 40.868 12.0265 40.8683 11.7812 40.8687C11.2671 40.869 10.753 40.8685 10.2389 40.8672C9.57899 40.8657 8.919 40.8666 8.25908 40.8682C7.75263 40.8691 7.24618 40.8688 6.73978 40.8681C6.49637 40.868 6.25297 40.8682 6.00956 40.8688C5.66991 40.8695 5.33031 40.8685 4.99067 40.867C4.88945 40.8675 4.78823 40.868 4.68393 40.8686C3.98799 40.863 3.98799 40.863 3.69282 40.5678C3.65918 40.3064 3.65918 40.3064 3.65854 39.9826C3.6577 39.8615 3.65687 39.7404 3.65601 39.6156C3.65654 39.4845 3.65708 39.3534 3.65763 39.2184C3.65738 39.0842 3.65713 38.9499 3.65687 38.8117C3.65668 38.5275 3.65717 38.2434 3.65828 37.9592C3.6597 37.5232 3.65829 37.0872 3.6566 36.6511C3.65677 36.3755 3.65711 36.0999 3.65763 35.8243C3.6571 35.6932 3.65656 35.5621 3.65601 35.4271C3.65684 35.306 3.65768 35.1849 3.65854 35.0601C3.65875 34.9533 3.65896 34.8464 3.65918 34.7363C3.73809 34.1231 4.16726 34.1783 4.68393 34.1741Z" fill="#3AE0C5"/>
<path d="M4.68393 34.1741C4.78516 34.1747 4.88638 34.1752 4.99067 34.1757C5.15061 34.1751 5.15061 34.1751 5.31378 34.1743C5.66736 34.1732 6.0209 34.1739 6.37448 34.1749C6.61963 34.1747 6.86478 34.1744 7.10994 34.1741C7.62426 34.1736 8.13858 34.1743 8.65289 34.1755C9.31268 34.177 9.97246 34.1762 10.6322 34.1745C11.1387 34.1736 11.6451 34.1739 12.1516 34.1746C12.3948 34.1747 12.6382 34.1745 12.8814 34.1739C13.2214 34.1732 13.5613 34.1743 13.9012 34.1757C14.0022 34.1752 14.1031 34.1747 14.2072 34.1741C14.7042 34.1781 14.9244 34.192 15.3487 34.475C15.3992 34.7363 15.3992 34.7363 15.4001 35.0601C15.4014 35.1812 15.4026 35.3023 15.4039 35.4271C15.4031 35.5582 15.4023 35.6893 15.4015 35.8243C15.4019 35.9585 15.4022 36.0928 15.4026 36.2311C15.4029 36.5152 15.4022 36.7994 15.4005 37.0835C15.3984 37.5196 15.4005 37.9555 15.403 38.3916C15.4028 38.6672 15.4023 38.9428 15.4015 39.2184C15.4023 39.3495 15.4031 39.4806 15.4039 39.6156C15.402 39.7973 15.402 39.7973 15.4001 39.9826C15.3998 40.0894 15.3995 40.1963 15.3992 40.3064C15.3825 40.3927 15.3659 40.4789 15.3487 40.5678C14.8547 40.8971 14.473 40.87 13.9012 40.867C13.7944 40.8674 13.6876 40.8679 13.5774 40.8684C13.224 40.8695 12.8705 40.8688 12.517 40.8678C12.2717 40.868 12.0265 40.8683 11.7812 40.8687C11.2671 40.869 10.753 40.8685 10.2389 40.8672C9.57899 40.8657 8.919 40.8666 8.25908 40.8682C7.75263 40.8691 7.24618 40.8688 6.73978 40.8681C6.49637 40.868 6.25297 40.8682 6.00956 40.8688C5.66991 40.8695 5.33031 40.8685 4.99067 40.867C4.88945 40.8675 4.78823 40.868 4.68393 40.8686C3.98799 40.863 3.98799 40.863 3.69282 40.5678C3.65918 40.3064 3.65918 40.3064 3.65854 39.9826C3.6577 39.8615 3.65687 39.7404 3.65601 39.6156C3.65654 39.4845 3.65708 39.3534 3.65763 39.2184C3.65738 39.0842 3.65713 38.9499 3.65687 38.8117C3.65668 38.5275 3.65717 38.2434 3.65828 37.9592C3.6597 37.5232 3.65829 37.0872 3.6566 36.6511C3.65677 36.3755 3.65711 36.0999 3.65763 35.8243C3.6571 35.6932 3.65656 35.5621 3.65601 35.4271C3.65684 35.306 3.65768 35.1849 3.65854 35.0601C3.65875 34.9533 3.65896 34.8464 3.65918 34.7363C3.73809 34.1231 4.16726 34.1783 4.68393 34.1741Z" fill="white" fill-opacity="0.2"/>
<path d="M18.2042 26.0945C18.3069 26.0951 18.4096 26.0956 18.5153 26.0962C18.6235 26.0957 18.7315 26.0953 18.843 26.0948C19.2015 26.0936 19.56 26.0944 19.9185 26.0953C20.1669 26.0951 20.4154 26.0949 20.6638 26.0945C21.1849 26.0941 21.706 26.0947 22.2271 26.0959C22.8961 26.0975 23.5651 26.0966 24.2341 26.095C24.7473 26.094 25.2604 26.0943 25.7736 26.095C26.0203 26.0952 26.267 26.0949 26.5138 26.0943C26.8582 26.0937 27.2025 26.0947 27.547 26.0962C27.6496 26.0956 27.7523 26.0951 27.8581 26.0945C28.5639 26.1002 28.5639 26.1002 28.8591 26.3954C28.8936 26.6508 28.8936 26.6508 28.8955 26.9663C28.8967 27.0843 28.898 27.2023 28.8993 27.324C28.8991 27.4517 28.8991 27.5794 28.8989 27.7111C28.8995 27.8421 28.9 27.973 28.9006 28.108C28.9014 28.3854 28.9015 28.6627 28.9009 28.9401C28.9005 29.3651 28.9036 29.79 28.9069 30.215C28.9072 30.4842 28.9074 30.7533 28.9072 31.0225C28.9084 31.15 28.9097 31.2774 28.9109 31.4088C28.9101 31.5272 28.9093 31.6457 28.9084 31.7677C28.9085 31.8719 28.9086 31.9761 28.9086 32.0835C28.8591 32.3558 28.8591 32.3558 28.7221 32.588C28.3148 32.8464 27.8932 32.8083 27.4259 32.8045C27.2678 32.8056 27.2678 32.8056 27.1066 32.8066C26.7581 32.8084 26.4096 32.8072 26.061 32.8059C25.819 32.8062 25.577 32.8066 25.335 32.807C24.8277 32.8076 24.3205 32.8068 23.8132 32.8049C23.1624 32.8026 22.5118 32.804 21.861 32.8064C21.3613 32.8078 20.8615 32.8073 20.3618 32.8063C20.1218 32.806 19.8818 32.8064 19.6418 32.8073C19.3067 32.8083 18.9716 32.8068 18.6364 32.8045C18.4871 32.8057 18.4871 32.8058 18.3348 32.807C17.9513 32.8023 17.669 32.7965 17.3402 32.588C17.1674 32.2951 17.1536 32.1074 17.1539 31.7677C17.1531 31.6493 17.1522 31.5308 17.1514 31.4088C17.1526 31.2813 17.1538 31.1538 17.1551 31.0225C17.155 30.8258 17.155 30.8258 17.1549 30.6251C17.1552 30.348 17.1565 30.0709 17.1587 29.7938C17.1618 29.3685 17.1614 28.9433 17.1605 28.518C17.1613 28.2491 17.1622 27.9801 17.1634 27.7111C17.1632 27.5834 17.1631 27.4556 17.163 27.324C17.1643 27.2059 17.1655 27.0879 17.1668 26.9663C17.1674 26.8622 17.168 26.758 17.1687 26.6508C17.2515 26.0382 17.6896 26.0987 18.2042 26.0945Z" fill="#04FFB3"/>
<path d="M4.69392 26.0945C4.7966 26.0951 4.89926 26.0956 5.00504 26.0962C5.11318 26.0957 5.22131 26.0953 5.33272 26.0948C5.69123 26.0936 6.04971 26.0944 6.40822 26.0953C6.65666 26.0951 6.90507 26.0949 7.15355 26.0945C7.67465 26.0941 8.19575 26.0947 8.71685 26.0959C9.38585 26.0975 10.0549 26.0966 10.7239 26.095C11.237 26.094 11.7502 26.0943 12.2633 26.095C12.51 26.0952 12.7568 26.0949 13.0035 26.0943C13.3479 26.0937 13.6923 26.0947 14.0367 26.0962C14.1394 26.0956 14.242 26.0951 14.3478 26.0945C15.0537 26.1002 15.0537 26.1002 15.3488 26.3954C15.3834 26.6508 15.3834 26.6508 15.3852 26.9663C15.3865 27.0843 15.3877 27.2023 15.389 27.324C15.3889 27.4517 15.3888 27.5794 15.3887 27.7111C15.3892 27.8421 15.3898 27.973 15.3904 28.108C15.3912 28.3854 15.3912 28.6627 15.3906 28.9401C15.3902 29.3651 15.3933 29.79 15.3967 30.215C15.397 30.4842 15.3971 30.7533 15.3969 31.0225C15.3982 31.15 15.3994 31.2774 15.4007 31.4088C15.3998 31.5272 15.399 31.6457 15.3982 31.7677C15.3982 31.8719 15.3983 31.9761 15.3984 32.0835C15.3488 32.3558 15.3488 32.3558 15.2118 32.588C14.8045 32.8464 14.383 32.8083 13.9156 32.8045C13.7576 32.8056 13.7576 32.8056 13.5964 32.8066C13.2478 32.8084 12.8993 32.8072 12.5508 32.8059C12.3087 32.8062 12.0668 32.8066 11.8248 32.807C11.3175 32.8076 10.8102 32.8068 10.3029 32.8049C9.65217 32.8026 9.00147 32.804 8.35071 32.8064C7.85097 32.8078 7.35124 32.8073 6.8515 32.8063C6.61154 32.806 6.37157 32.8064 6.1316 32.8073C5.7964 32.8083 5.4613 32.8068 5.12612 32.8045C4.97685 32.8057 4.97685 32.8058 4.82458 32.807C4.44106 32.8023 4.15876 32.7965 3.82995 32.588C3.65712 32.2951 3.64334 32.1074 3.64362 31.7677C3.64279 31.6493 3.64196 31.5308 3.64111 31.4088C3.64233 31.2813 3.64355 31.1538 3.64481 31.0225C3.64471 30.8258 3.64471 30.8258 3.64461 30.6251C3.64492 30.348 3.64621 30.0709 3.6484 29.7938C3.65153 29.3685 3.65112 28.9433 3.65024 28.518C3.65098 28.2491 3.65192 27.9801 3.65309 27.7111C3.65297 27.5834 3.65285 27.4556 3.65272 27.324C3.65398 27.2059 3.65525 27.0879 3.65655 26.9663C3.65716 26.8622 3.65777 26.758 3.6584 26.6508C3.7412 26.0382 4.17934 26.0987 4.69392 26.0945Z" fill="#3AE0C5"/>
<path d="M4.69392 26.0945C4.7966 26.0951 4.89926 26.0956 5.00504 26.0962C5.11318 26.0957 5.22131 26.0953 5.33272 26.0948C5.69123 26.0936 6.04971 26.0944 6.40822 26.0953C6.65666 26.0951 6.90507 26.0949 7.15355 26.0945C7.67465 26.0941 8.19575 26.0947 8.71685 26.0959C9.38585 26.0975 10.0549 26.0966 10.7239 26.095C11.237 26.094 11.7502 26.0943 12.2633 26.095C12.51 26.0952 12.7568 26.0949 13.0035 26.0943C13.3479 26.0937 13.6923 26.0947 14.0367 26.0962C14.1394 26.0956 14.242 26.0951 14.3478 26.0945C15.0537 26.1002 15.0537 26.1002 15.3488 26.3954C15.3834 26.6508 15.3834 26.6508 15.3852 26.9663C15.3865 27.0843 15.3877 27.2023 15.389 27.324C15.3889 27.4517 15.3888 27.5794 15.3887 27.7111C15.3892 27.8421 15.3898 27.973 15.3904 28.108C15.3912 28.3854 15.3912 28.6627 15.3906 28.9401C15.3902 29.3651 15.3933 29.79 15.3967 30.215C15.397 30.4842 15.3971 30.7533 15.3969 31.0225C15.3982 31.15 15.3994 31.2774 15.4007 31.4088C15.3998 31.5272 15.399 31.6457 15.3982 31.7677C15.3982 31.8719 15.3983 31.9761 15.3984 32.0835C15.3488 32.3558 15.3488 32.3558 15.2118 32.588C14.8045 32.8464 14.383 32.8083 13.9156 32.8045C13.7576 32.8056 13.7576 32.8056 13.5964 32.8066C13.2478 32.8084 12.8993 32.8072 12.5508 32.8059C12.3087 32.8062 12.0668 32.8066 11.8248 32.807C11.3175 32.8076 10.8102 32.8068 10.3029 32.8049C9.65217 32.8026 9.00147 32.804 8.35071 32.8064C7.85097 32.8078 7.35124 32.8073 6.8515 32.8063C6.61154 32.806 6.37157 32.8064 6.1316 32.8073C5.7964 32.8083 5.4613 32.8068 5.12612 32.8045C4.97685 32.8057 4.97685 32.8058 4.82458 32.807C4.44106 32.8023 4.15876 32.7965 3.82995 32.588C3.65712 32.2951 3.64334 32.1074 3.64362 31.7677C3.64279 31.6493 3.64196 31.5308 3.64111 31.4088C3.64233 31.2813 3.64355 31.1538 3.64481 31.0225C3.64471 30.8258 3.64471 30.8258 3.64461 30.6251C3.64492 30.348 3.64621 30.0709 3.6484 29.7938C3.65153 29.3685 3.65112 28.9433 3.65024 28.518C3.65098 28.2491 3.65192 27.9801 3.65309 27.7111C3.65297 27.5834 3.65285 27.4556 3.65272 27.324C3.65398 27.2059 3.65525 27.0879 3.65655 26.9663C3.65716 26.8622 3.65777 26.758 3.6584 26.6508C3.7412 26.0382 4.17934 26.0987 4.69392 26.0945Z" fill="white" fill-opacity="0.2"/>
<path d="M5.56886 46.2315C5.71233 46.2311 5.71233 46.2311 5.8587 46.2308C6.17922 46.2303 6.49972 46.2318 6.82021 46.2332C7.04997 46.2333 7.27973 46.2333 7.50949 46.2331C8.1334 46.233 8.75731 46.2346 9.38122 46.2364C10.0331 46.2381 10.6851 46.2383 11.337 46.2386C12.5717 46.2394 13.8063 46.2416 15.0409 46.2442C16.4465 46.2472 17.8521 46.2486 19.2576 46.25C22.1491 46.2528 25.0405 46.2575 27.9319 46.2634C27.9319 46.307 27.9319 46.3508 27.9319 46.3958C23.1239 46.3958 18.3158 46.3958 13.3621 46.3958C13.5369 46.8766 13.7117 47.3574 13.8919 47.8528C14.2038 49.4123 14.1776 51.0301 13.4945 52.4886C13.4071 52.6198 13.3197 52.7509 13.2296 52.886C12.8307 52.9337 12.8307 52.9337 12.312 52.9311C12.2176 52.9312 12.1232 52.9312 12.026 52.9313C11.7135 52.931 11.4011 52.9279 11.0886 52.9248C10.8722 52.9241 10.6558 52.9235 10.4394 52.9231C9.86929 52.9215 9.29929 52.9177 8.72916 52.9133C8.14771 52.9092 7.56619 52.9074 6.98466 52.9054C5.84325 52.9011 4.70188 52.8943 3.56051 52.886C3.54739 52.1083 3.53779 51.3306 3.53141 50.5529C3.52875 50.2884 3.52514 50.0241 3.52055 49.7597C3.5141 49.379 3.51111 48.9983 3.50878 48.6175C3.50604 48.4999 3.50331 48.3823 3.50049 48.2612C3.50023 47.5318 3.58714 47.0967 4.09033 46.5282C4.56675 46.2065 5.00483 46.2307 5.56886 46.2315Z" fill="#95FED2"/>
<path d="M24.3555 46.3958C24.8903 46.3794 25.4251 46.3673 25.9602 46.3593C26.142 46.356 26.3238 46.3515 26.5055 46.3458C26.7675 46.3377 27.0296 46.3343 27.2916 46.3311C27.4491 46.3276 27.6066 46.3242 27.7688 46.3206C28.3351 46.4201 28.5232 46.596 28.8589 47.058C28.9341 47.4858 28.9341 47.4858 28.9236 47.9629C28.9214 48.1341 28.9193 48.3053 28.917 48.4817C28.9116 48.6611 28.9059 48.8405 28.9002 49.02C28.8969 49.202 28.8939 49.3841 28.8912 49.5661C28.8834 50.0106 28.8725 50.4548 28.8589 50.8992C27.4587 50.9138 26.5847 50.467 25.5739 49.4991C24.7722 48.6133 24.3555 47.5945 24.3555 46.3958Z" fill="#01ECA5"/>
<path d="M7.61394 16.8373C7.74869 16.8362 7.74869 16.8362 7.88615 16.8353C8.1838 16.8333 8.48144 16.8325 8.77916 16.8317C8.98566 16.831 9.19222 16.8302 9.39872 16.8294C9.832 16.828 10.2653 16.8272 10.6985 16.8268C11.2541 16.8261 11.8097 16.8229 12.3652 16.8191C12.7919 16.8167 13.2185 16.816 13.6452 16.8158C13.85 16.8154 14.0549 16.8143 14.2598 16.8126C14.5461 16.8103 14.8324 16.8105 15.1187 16.8114C15.2818 16.8109 15.4448 16.8104 15.6128 16.8099C16.0108 16.8586 16.0108 16.8586 16.2667 17.039C16.4081 17.256 16.4081 17.256 16.3833 17.5954C16.2757 17.9183 16.2757 17.9183 16.0108 18.1831C15.6296 18.2177 15.6296 18.2177 15.1359 18.2195C15.046 18.2202 14.9562 18.2209 14.8637 18.2216C14.566 18.2234 14.2683 18.2233 13.9707 18.223C13.7641 18.2235 13.5576 18.2241 13.351 18.2247C12.9178 18.2257 12.4846 18.2257 12.0513 18.225C11.4957 18.2242 10.9402 18.2264 10.3846 18.2295C9.95794 18.2314 9.53124 18.2316 9.10461 18.2312C8.89973 18.2312 8.69486 18.2319 8.49006 18.2333C8.20367 18.2349 7.91742 18.234 7.63103 18.2324C7.38649 18.2326 7.38648 18.2326 7.13706 18.2327C6.73903 18.1831 6.73903 18.1831 6.48305 18.0072C6.34167 17.7858 6.34167 17.7858 6.36651 17.3719C6.40202 17.2462 6.43753 17.1205 6.47413 16.9911C6.85596 16.8002 7.18724 16.8396 7.61394 16.8373Z" fill="#FEFEFE"/>
<path d="M7.50817 14.3057C7.64712 14.3046 7.64712 14.3046 7.78886 14.3035C8.09579 14.3017 8.40266 14.3019 8.7096 14.3022C8.9224 14.3017 9.13521 14.3011 9.34795 14.3004C9.79425 14.2995 10.2405 14.2995 10.6868 14.3002C11.2596 14.301 11.8324 14.2987 12.4052 14.2957C12.8448 14.2937 13.2842 14.2936 13.7237 14.294C13.935 14.2939 14.1462 14.2932 14.3575 14.2919C14.6524 14.2903 14.9473 14.2911 15.2422 14.2927C15.4102 14.2926 15.5783 14.2926 15.7514 14.2924C15.9455 14.317 15.9455 14.317 16.1435 14.342C16.4084 14.7394 16.4084 14.7394 16.3671 15.087C16.276 15.4016 16.276 15.4016 16.1435 15.5341C15.8483 15.548 15.5527 15.5525 15.2572 15.5533C15.1647 15.5538 15.072 15.5542 14.9766 15.5547C14.669 15.556 14.3614 15.5562 14.0538 15.5563C13.8408 15.5568 13.6278 15.5572 13.4148 15.5577C12.9677 15.5585 12.5207 15.5587 12.0736 15.5586C11.4998 15.5586 10.9259 15.5605 10.352 15.5627C9.91198 15.5642 9.47192 15.5645 9.03186 15.5644C8.82021 15.5645 8.60862 15.5651 8.39697 15.5661C8.10142 15.5674 7.80588 15.5671 7.51027 15.5663C7.25765 15.5666 7.25766 15.5666 6.99989 15.5668C6.60688 15.5341 6.60688 15.5341 6.34197 15.2692C6.30886 14.938 6.30886 14.938 6.34197 14.6069C6.72018 14.2287 6.97846 14.3076 7.50817 14.3057Z" fill="#FEFEFF"/>
<path d="M4.54078 43.5778C4.66147 43.5765 4.78215 43.5753 4.90648 43.574C5.10248 43.5742 5.10248 43.5742 5.30243 43.5743C5.43634 43.5738 5.57027 43.5732 5.70824 43.5726C5.99183 43.5719 6.27542 43.5718 6.55902 43.5723C6.99361 43.5728 7.42818 43.5697 7.86274 43.5663C8.13794 43.566 8.41307 43.5659 8.68827 43.566C8.81868 43.5648 8.94902 43.5636 9.08336 43.5624C9.20448 43.5632 9.3256 43.564 9.45038 43.5649C9.61016 43.5648 9.61016 43.5648 9.77326 43.5646C10.1201 43.6266 10.2377 43.7331 10.4479 44.0115C10.4893 44.3509 10.4893 44.3509 10.4479 44.6738C10.1223 44.9995 10.0331 44.9721 9.58568 44.973C9.46191 44.9738 9.33815 44.9746 9.21065 44.9755C9.07665 44.975 8.94271 44.9744 8.80471 44.9739C8.66752 44.9742 8.53032 44.9744 8.38899 44.9747C8.09861 44.9749 7.80822 44.9744 7.51783 44.9732C7.07221 44.9718 6.62661 44.9732 6.18096 44.9749C5.89932 44.9748 5.61769 44.9744 5.33606 44.9739C5.1351 44.9747 5.1351 44.9747 4.93008 44.9755C4.80632 44.9747 4.68256 44.9738 4.55505 44.973C4.39124 44.9727 4.39124 44.9727 4.22412 44.9723C3.95771 44.9387 3.95771 44.9387 3.6928 44.6738C3.65969 44.2765 3.65969 44.2765 3.6928 43.8791C4.01543 43.5565 4.09854 43.5803 4.54078 43.5778Z" fill="#3AE0C5"/>
<path d="M4.54078 43.5778C4.66147 43.5765 4.78215 43.5753 4.90648 43.574C5.10248 43.5742 5.10248 43.5742 5.30243 43.5743C5.43634 43.5738 5.57027 43.5732 5.70824 43.5726C5.99183 43.5719 6.27542 43.5718 6.55902 43.5723C6.99361 43.5728 7.42818 43.5697 7.86274 43.5663C8.13794 43.566 8.41307 43.5659 8.68827 43.566C8.81868 43.5648 8.94902 43.5636 9.08336 43.5624C9.20448 43.5632 9.3256 43.564 9.45038 43.5649C9.61016 43.5648 9.61016 43.5648 9.77326 43.5646C10.1201 43.6266 10.2377 43.7331 10.4479 44.0115C10.4893 44.3509 10.4893 44.3509 10.4479 44.6738C10.1223 44.9995 10.0331 44.9721 9.58568 44.973C9.46191 44.9738 9.33815 44.9746 9.21065 44.9755C9.07665 44.975 8.94271 44.9744 8.80471 44.9739C8.66752 44.9742 8.53032 44.9744 8.38899 44.9747C8.09861 44.9749 7.80822 44.9744 7.51783 44.9732C7.07221 44.9718 6.62661 44.9732 6.18096 44.9749C5.89932 44.9748 5.61769 44.9744 5.33606 44.9739C5.1351 44.9747 5.1351 44.9747 4.93008 44.9755C4.80632 44.9747 4.68256 44.9738 4.55505 44.973C4.39124 44.9727 4.39124 44.9727 4.22412 44.9723C3.95771 44.9387 3.95771 44.9387 3.6928 44.6738C3.65969 44.2765 3.65969 44.2765 3.6928 43.8791C4.01543 43.5565 4.09854 43.5803 4.54078 43.5778Z" fill="white" fill-opacity="0.2"/>
<path d="M14.4579 2.51688C14.6284 2.51768 14.6284 2.51768 14.8024 2.5185C14.9773 2.51812 14.9773 2.51812 15.1557 2.51773C15.4025 2.51756 15.6492 2.51805 15.8959 2.51915C16.2745 2.52057 16.6529 2.51916 17.0314 2.51747C17.2708 2.51765 17.5102 2.51798 17.7495 2.5185C17.8632 2.51796 17.9769 2.51743 18.0941 2.51688C18.8946 2.52323 18.8946 2.52323 19.19 2.81859C19.2313 3.21595 19.2313 3.21595 19.19 3.61331C18.6723 3.95845 18.2335 3.91633 17.6331 3.9134C17.5196 3.91365 17.4062 3.91391 17.2893 3.91417C17.0495 3.91435 16.8098 3.91386 16.5702 3.91276C16.2024 3.91133 15.8348 3.91274 15.467 3.91443C15.2342 3.91426 15.0016 3.91392 14.7688 3.9134C14.6584 3.91394 14.548 3.91447 14.4343 3.91503C13.6574 3.90868 13.6574 3.90868 13.362 3.61331C13.3289 3.21595 13.3289 3.21595 13.362 2.81859C13.7144 2.46617 13.9786 2.52068 14.4579 2.51688Z" fill="white"/>
<path d="M7.49663 11.1205C7.64223 11.1211 7.64223 11.1211 7.79074 11.1217C7.88731 11.1196 7.98382 11.1175 8.0833 11.1153C8.78676 11.1146 8.78676 11.1146 9.12564 11.3432C9.25598 11.5605 9.25598 11.5605 9.23116 11.8999C9.12353 12.2227 9.12353 12.2227 8.85864 12.4876C8.47765 12.5175 8.11368 12.5306 7.73276 12.5291C7.6288 12.5312 7.52484 12.5333 7.41769 12.5355C7.11604 12.5358 7.11604 12.5358 6.60694 12.4876C6.34204 12.0903 6.34204 12.0903 6.37514 11.7509C6.57097 11.1145 6.88153 11.1266 7.49663 11.1205Z" fill="white"/>
<path d="M21.632 2.51233C21.9714 2.55372 21.9714 2.55372 22.2197 2.71101C22.3688 2.95108 22.3688 2.95108 22.344 3.29049C22.2363 3.61334 22.2363 3.61334 21.9714 3.87825C21.5575 3.82859 21.5575 3.82859 21.1767 3.7458C21.0939 3.29877 21.0939 3.29877 21.0442 2.81863C21.3091 2.55372 21.3091 2.55372 21.632 2.51233Z" fill="white"/>
<path d="M27.1264 12.5035C36.3026 12.5035 43.7414 19.9423 43.7414 29.1185C43.7414 38.2947 36.3026 45.7334 27.1264 45.7334C17.9502 45.7334 10.5115 38.2947 10.5115 29.1185C10.5115 19.9423 17.9502 12.5035 27.1264 12.5035Z" fill="url(#paint0_linear_2719_7271)" stroke="#10BE77" stroke-width="0.6"/>
<path d="M17.3047 34.5862V22.7493H21.9748C22.8687 22.7493 23.6317 22.9091 24.2636 23.2289C24.8993 23.5449 25.3829 23.9938 25.7143 24.5756C26.0495 25.1536 26.2171 25.8337 26.2171 26.6159C26.2171 27.4019 26.0476 28.0782 25.7085 28.6446C25.3694 29.2072 24.8782 29.6387 24.2347 29.9393C23.595 30.2398 22.8206 30.3901 21.9112 30.3901H18.7844V28.3787H21.5066C21.9844 28.3787 22.3813 28.3132 22.6973 28.1822C23.0132 28.0512 23.2483 27.8547 23.4024 27.5927C23.5604 27.3307 23.6394 27.0051 23.6394 26.6159C23.6394 26.2229 23.5604 25.8915 23.4024 25.6218C23.2483 25.352 23.0113 25.1479 22.6915 25.0091C22.3755 24.8666 21.9767 24.7953 21.495 24.7953H19.8074V34.5862H17.3047ZM23.6972 29.1995L26.639 34.5862H23.8763L20.998 29.1995H23.6972ZM27.9395 37.9154V25.7085H30.367V27.1997H30.4768C30.5847 26.9608 30.7408 26.718 30.945 26.4714C31.1531 26.221 31.4228 26.0129 31.7542 25.8472C32.0894 25.6776 32.5055 25.5929 33.0026 25.5929C33.6499 25.5929 34.2472 25.7624 34.7943 26.1015C35.3415 26.4368 35.7788 26.9434 36.1064 27.6216C36.4338 28.2959 36.5976 29.1417 36.5976 30.1589C36.5976 31.1492 36.4377 31.9853 36.1179 32.6674C35.8019 33.3455 35.3704 33.8599 34.8232 34.2105C34.2799 34.5573 33.6712 34.7307 32.9968 34.7307C32.519 34.7307 32.1125 34.6517 31.7773 34.4937C31.4459 34.3358 31.1743 34.1374 30.9623 33.8984C30.7504 33.6557 30.5886 33.411 30.4768 33.1644H30.4017V37.9154H27.9395ZM30.3497 30.1473C30.3497 30.6753 30.4229 31.1357 30.5693 31.5287C30.7157 31.9217 30.9277 32.2281 31.2051 32.4477C31.4825 32.6635 31.8197 32.7714 32.2166 32.7714C32.6173 32.7714 32.9564 32.6615 33.2338 32.4419C33.5112 32.2184 33.7212 31.9102 33.8638 31.5171C34.0102 31.1203 34.0834 30.6637 34.0834 30.1473C34.0834 29.6349 34.0121 29.1841 33.8696 28.7949C33.727 28.4057 33.517 28.1013 33.2396 27.8817C32.9621 27.6621 32.6212 27.5522 32.2166 27.5522C31.8158 27.5522 31.4768 27.6582 31.1993 27.8701C30.9258 28.0821 30.7157 28.3826 30.5693 28.7717C30.4229 29.1609 30.3497 29.6194 30.3497 30.1473Z" fill="white"/>
</g>
<defs>
<linearGradient id="paint0_linear_2719_7271" x1="27.1264" y1="12.5035" x2="27.1264" y2="45.7334" gradientUnits="userSpaceOnUse">
<stop stop-color="#10BE77"/>
<stop offset="1" stop-color="#2196F3"/>
</linearGradient>
<clipPath id="clip0_2719_7271">
<rect width="44.0805" height="59" fill="white"/>
</clipPath>
</defs>
</svg>
