<svg width="44" height="59" viewBox="0 0 44 59" fill="none" xmlns="http://www.w3.org/2000/svg">
<g clip-path="url(#clip0_2719_7226)">
<mask id="mask0_2719_7226" style="mask-type:luminance" maskUnits="userSpaceOnUse" x="0" y="0" width="44" height="59">
<path d="M44 0H0V59H44V0Z" fill="white"/>
</mask>
<g mask="url(#mask0_2719_7226)">
<g style="mix-blend-mode:plus-lighter">
<path d="M0 4.06897C0 1.82174 1.81841 0 4.06154 0H28.4308C30.6739 0 32.4923 1.82174 32.4923 4.06897V54.931C32.4923 57.1783 30.6739 59 28.4308 59H4.06154C1.81841 59 0 57.1783 0 54.931V4.06897Z" fill="#10BE77"/>
<path d="M0 4.06897C0 1.82174 1.81841 0 4.06154 0H28.4308C30.6739 0 32.4923 1.82174 32.4923 4.06897V54.931C32.4923 57.1783 30.6739 59 28.4308 59H4.06154C1.81841 59 0 57.1783 0 54.931V4.06897Z" fill="#2196F3" fill-opacity="0.2"/>
</g>
<path d="M0.513184 5.86499C10.8971 5.86499 21.281 5.86499 31.9795 5.86499C31.9795 21.3819 31.9795 36.8989 31.9795 52.886C30.9761 52.886 29.9725 52.886 28.9387 52.886C28.9312 52.2951 28.9312 52.2951 28.9237 51.6923C28.9175 51.31 28.9108 50.9278 28.9039 50.5456C28.8996 50.2803 28.8959 50.015 28.8928 49.7497C28.8884 49.3679 28.8815 48.9862 28.8741 48.6045C28.8729 48.4271 28.8729 48.4271 28.8716 48.2461C28.8567 47.6135 28.8248 47.1716 28.4099 46.6606C28.0958 46.5033 27.902 46.51 27.5514 46.5072C27.4265 46.506 27.3015 46.5046 27.1728 46.5033C26.9665 46.5022 26.9665 46.5022 26.7561 46.501C26.6116 46.4996 26.4672 46.4984 26.3183 46.497C25.839 46.4928 25.3597 46.4895 24.8804 46.4863C24.5488 46.4836 24.2172 46.4808 23.8856 46.4779C23.1008 46.4714 22.3161 46.4653 21.5312 46.4596C20.5503 46.4524 19.5694 46.4444 18.5884 46.4364C16.8382 46.4221 15.0879 46.4086 13.3377 46.3958C13.3744 46.4932 13.411 46.5907 13.4488 46.6912C13.4966 46.8204 13.5446 46.9497 13.5938 47.0828C13.6414 47.2104 13.6889 47.3379 13.738 47.4694C14.2724 49.0628 14.1786 50.9728 13.4699 52.4886C13.3826 52.6197 13.2954 52.7509 13.2055 52.886C9.01702 52.886 4.82857 52.886 0.513184 52.886C0.513184 37.369 0.513184 21.8522 0.513184 5.86499Z" fill="#FDFEFE"/>
<path d="M5.52159 9.02439C5.61627 9.02392 5.71096 9.02338 5.80852 9.0229C6.12741 9.02141 6.44631 9.02094 6.76521 9.02046C6.99319 9.01958 7.22118 9.0187 7.44924 9.01782C8.06984 9.01551 8.69051 9.01409 9.31118 9.013C9.69879 9.01232 10.0864 9.01151 10.474 9.0107C11.6864 9.00812 12.8987 9.00629 14.1111 9.00513C15.5113 9.00385 16.9115 9.00039 18.3117 8.99503C19.3934 8.99103 20.4751 8.98906 21.5569 8.98866C22.2032 8.98832 22.8495 8.98716 23.4958 8.98377C24.104 8.98072 24.7121 8.98018 25.3202 8.98154C25.5433 8.9816 25.7664 8.98072 25.9895 8.97896C26.2944 8.97658 26.5991 8.97753 26.9039 8.9793C27.1597 8.97882 27.1597 8.97882 27.4207 8.97828C28.0314 9.06529 28.4685 9.31316 28.8537 9.80096C28.9868 10.2749 28.9765 10.7471 28.975 11.2353C28.9757 11.3493 28.9763 11.4633 28.977 11.5808C28.9788 11.9574 28.9787 12.3341 28.9784 12.7107C28.9789 12.9726 28.9795 13.2346 28.9801 13.4966C28.9811 14.0456 28.9811 14.5946 28.9804 15.1437C28.9797 15.8471 28.9819 16.5505 28.9849 17.2539C28.9869 17.7949 28.987 18.3358 28.9866 18.8769C28.9866 19.1362 28.9874 19.3955 28.9887 19.6549C28.9903 20.0176 28.9894 20.3802 28.9879 20.743C28.9889 20.85 28.9899 20.957 28.991 21.0673C28.9853 21.6763 28.9269 22.0751 28.542 22.5541C28.0754 23.0081 27.6972 23.0017 27.0606 23.0029C26.9165 23.0039 26.9165 23.0039 26.7694 23.005C26.4474 23.0069 26.1254 23.0059 25.8033 23.0051C25.5724 23.0058 25.3416 23.0067 25.1107 23.0078C24.4835 23.0101 23.8564 23.01 23.2292 23.0093C22.7058 23.0089 22.1824 23.0097 21.659 23.0104C20.4243 23.0123 19.1896 23.0121 17.9549 23.0106C16.6808 23.0091 15.4066 23.011 14.1324 23.0145C13.0388 23.0174 11.9452 23.0183 10.8515 23.0175C10.1982 23.0171 9.54492 23.0174 8.89162 23.0196C8.27725 23.0217 7.66294 23.0212 7.04863 23.0187C6.82315 23.0182 6.59763 23.0186 6.37214 23.02C6.06433 23.0217 5.75669 23.0202 5.44889 23.0179C5.27664 23.0179 5.10439 23.0178 4.92693 23.0178C4.40548 22.9406 4.18836 22.7904 3.81846 22.4217C3.59906 21.982 3.66316 21.49 3.66075 21.0064C3.65967 20.8874 3.65859 20.7682 3.65748 20.6455C3.65419 20.2502 3.65201 19.8549 3.65011 19.4596C3.6494 19.3247 3.6487 19.1899 3.64797 19.051C3.64443 18.3375 3.64187 17.6238 3.63997 16.9103C3.63777 16.1726 3.63184 15.4351 3.62511 14.6976C3.62067 14.1309 3.61914 13.5642 3.61839 12.9976C3.6175 12.7256 3.61548 12.4537 3.61232 12.1818C3.60814 11.8013 3.60813 11.4209 3.60911 11.0404C3.60694 10.928 3.60477 10.8156 3.60254 10.6998C3.60863 10.1224 3.63157 9.90682 4.00508 9.44065C4.54713 9.02202 4.83792 9.02663 5.52159 9.02439Z" fill="#FF6B01"/>
<path d="M5.52159 9.02439C5.61627 9.02392 5.71096 9.02338 5.80852 9.0229C6.12741 9.02141 6.44631 9.02094 6.76521 9.02046C6.99319 9.01958 7.22118 9.0187 7.44924 9.01782C8.06984 9.01551 8.69051 9.01409 9.31118 9.013C9.69879 9.01232 10.0864 9.01151 10.474 9.0107C11.6864 9.00812 12.8987 9.00629 14.1111 9.00513C15.5113 9.00385 16.9115 9.00039 18.3117 8.99503C19.3934 8.99103 20.4751 8.98906 21.5569 8.98866C22.2032 8.98832 22.8495 8.98716 23.4958 8.98377C24.104 8.98072 24.7121 8.98018 25.3202 8.98154C25.5433 8.9816 25.7664 8.98072 25.9895 8.97896C26.2944 8.97658 26.5991 8.97753 26.9039 8.9793C27.1597 8.97882 27.1597 8.97882 27.4207 8.97828C28.0314 9.06529 28.4685 9.31316 28.8537 9.80096C28.9868 10.2749 28.9765 10.7471 28.975 11.2353C28.9757 11.3493 28.9763 11.4633 28.977 11.5808C28.9788 11.9574 28.9787 12.3341 28.9784 12.7107C28.9789 12.9726 28.9795 13.2346 28.9801 13.4966C28.9811 14.0456 28.9811 14.5946 28.9804 15.1437C28.9797 15.8471 28.9819 16.5505 28.9849 17.2539C28.9869 17.7949 28.987 18.3358 28.9866 18.8769C28.9866 19.1362 28.9874 19.3955 28.9887 19.6549C28.9903 20.0176 28.9894 20.3802 28.9879 20.743C28.9889 20.85 28.9899 20.957 28.991 21.0673C28.9853 21.6763 28.9269 22.0751 28.542 22.5541C28.0754 23.0081 27.6972 23.0017 27.0606 23.0029C26.9165 23.0039 26.9165 23.0039 26.7694 23.005C26.4474 23.0069 26.1254 23.0059 25.8033 23.0051C25.5724 23.0058 25.3416 23.0067 25.1107 23.0078C24.4835 23.0101 23.8564 23.01 23.2292 23.0093C22.7058 23.0089 22.1824 23.0097 21.659 23.0104C20.4243 23.0123 19.1896 23.0121 17.9549 23.0106C16.6808 23.0091 15.4066 23.011 14.1324 23.0145C13.0388 23.0174 11.9452 23.0183 10.8515 23.0175C10.1982 23.0171 9.54492 23.0174 8.89162 23.0196C8.27725 23.0217 7.66294 23.0212 7.04863 23.0187C6.82315 23.0182 6.59763 23.0186 6.37214 23.02C6.06433 23.0217 5.75669 23.0202 5.44889 23.0179C5.27664 23.0179 5.10439 23.0178 4.92693 23.0178C4.40548 22.9406 4.18836 22.7904 3.81846 22.4217C3.59906 21.982 3.66316 21.49 3.66075 21.0064C3.65967 20.8874 3.65859 20.7682 3.65748 20.6455C3.65419 20.2502 3.65201 19.8549 3.65011 19.4596C3.6494 19.3247 3.6487 19.1899 3.64797 19.051C3.64443 18.3375 3.64187 17.6238 3.63997 16.9103C3.63777 16.1726 3.63184 15.4351 3.62511 14.6976C3.62067 14.1309 3.61914 13.5642 3.61839 12.9976C3.6175 12.7256 3.61548 12.4537 3.61232 12.1818C3.60814 11.8013 3.60813 11.4209 3.60911 11.0404C3.60694 10.928 3.60477 10.8156 3.60254 10.6998C3.60863 10.1224 3.63157 9.90682 4.00508 9.44065C4.54713 9.02202 4.83792 9.02663 5.52159 9.02439Z" fill="#3AE0C5"/>
<path d="M5.52159 9.02439C5.61627 9.02392 5.71096 9.02338 5.80852 9.0229C6.12741 9.02141 6.44631 9.02094 6.76521 9.02046C6.99319 9.01958 7.22118 9.0187 7.44924 9.01782C8.06984 9.01551 8.69051 9.01409 9.31118 9.013C9.69879 9.01232 10.0864 9.01151 10.474 9.0107C11.6864 9.00812 12.8987 9.00629 14.1111 9.00513C15.5113 9.00385 16.9115 9.00039 18.3117 8.99503C19.3934 8.99103 20.4751 8.98906 21.5569 8.98866C22.2032 8.98832 22.8495 8.98716 23.4958 8.98377C24.104 8.98072 24.7121 8.98018 25.3202 8.98154C25.5433 8.9816 25.7664 8.98072 25.9895 8.97896C26.2944 8.97658 26.5991 8.97753 26.9039 8.9793C27.1597 8.97882 27.1597 8.97882 27.4207 8.97828C28.0314 9.06529 28.4685 9.31316 28.8537 9.80096C28.9868 10.2749 28.9765 10.7471 28.975 11.2353C28.9757 11.3493 28.9763 11.4633 28.977 11.5808C28.9788 11.9574 28.9787 12.3341 28.9784 12.7107C28.9789 12.9726 28.9795 13.2346 28.9801 13.4966C28.9811 14.0456 28.9811 14.5946 28.9804 15.1437C28.9797 15.8471 28.9819 16.5505 28.9849 17.2539C28.9869 17.7949 28.987 18.3358 28.9866 18.8769C28.9866 19.1362 28.9874 19.3955 28.9887 19.6549C28.9903 20.0176 28.9894 20.3802 28.9879 20.743C28.9889 20.85 28.9899 20.957 28.991 21.0673C28.9853 21.6763 28.9269 22.0751 28.542 22.5541C28.0754 23.0081 27.6972 23.0017 27.0606 23.0029C26.9165 23.0039 26.9165 23.0039 26.7694 23.005C26.4474 23.0069 26.1254 23.0059 25.8033 23.0051C25.5724 23.0058 25.3416 23.0067 25.1107 23.0078C24.4835 23.0101 23.8564 23.01 23.2292 23.0093C22.7058 23.0089 22.1824 23.0097 21.659 23.0104C20.4243 23.0123 19.1896 23.0121 17.9549 23.0106C16.6808 23.0091 15.4066 23.011 14.1324 23.0145C13.0388 23.0174 11.9452 23.0183 10.8515 23.0175C10.1982 23.0171 9.54492 23.0174 8.89162 23.0196C8.27725 23.0217 7.66294 23.0212 7.04863 23.0187C6.82315 23.0182 6.59763 23.0186 6.37214 23.02C6.06433 23.0217 5.75669 23.0202 5.44889 23.0179C5.27664 23.0179 5.10439 23.0178 4.92693 23.0178C4.40548 22.9406 4.18836 22.7904 3.81846 22.4217C3.59906 21.982 3.66316 21.49 3.66075 21.0064C3.65967 20.8874 3.65859 20.7682 3.65748 20.6455C3.65419 20.2502 3.65201 19.8549 3.65011 19.4596C3.6494 19.3247 3.6487 19.1899 3.64797 19.051C3.64443 18.3375 3.64187 17.6238 3.63997 16.9103C3.63777 16.1726 3.63184 15.4351 3.62511 14.6976C3.62067 14.1309 3.61914 13.5642 3.61839 12.9976C3.6175 12.7256 3.61548 12.4537 3.61232 12.1818C3.60814 11.8013 3.60813 11.4209 3.60911 11.0404C3.60694 10.928 3.60477 10.8156 3.60254 10.6998C3.60863 10.1224 3.63157 9.90682 4.00508 9.44065C4.54713 9.02202 4.83792 9.02663 5.52159 9.02439Z" fill="white" fill-opacity="0.2"/>
<path d="M13.3375 46.3958C15.2567 46.3803 17.176 46.3687 19.0952 46.3615C19.9865 46.3581 20.8776 46.3535 21.7687 46.3459C22.6286 46.3386 23.4883 46.3347 24.3482 46.333C24.6765 46.3318 25.0047 46.3294 25.333 46.3258C25.7922 46.321 26.2515 46.3203 26.7108 46.3206C26.8469 46.3183 26.983 46.3159 27.1232 46.3134C28.0475 46.3201 28.0475 46.3201 28.5571 46.7151C28.8682 47.1435 28.955 47.3452 28.9534 47.8637C28.9534 47.9751 28.9534 48.0864 28.9534 48.2012C28.9524 48.3816 28.9524 48.3816 28.9513 48.5658C28.951 48.7504 28.951 48.7504 28.9508 48.9388C28.95 49.3329 28.9484 49.727 28.9467 50.1211C28.946 50.3879 28.9454 50.6547 28.9449 50.9215C28.9435 51.5763 28.941 52.2312 28.9384 52.8861C29.9419 52.8861 30.9454 52.8861 31.9793 52.8861C32.0788 55.898 32.0788 55.898 31.3182 56.7272C30.6501 57.4394 29.9267 57.8748 28.9462 57.9696C28.7528 57.972 28.5594 57.9722 28.366 57.9706C28.2587 57.9713 28.1515 57.9721 28.0409 57.9727C27.6832 57.9746 27.3257 57.9737 26.968 57.9727C26.7108 57.9736 26.4536 57.9744 26.1964 57.9755C25.499 57.9779 24.8016 57.9778 24.1042 57.977C23.5214 57.9766 22.9385 57.9774 22.3557 57.9782C20.9802 57.9801 19.6047 57.9799 18.2292 57.9784C16.8118 57.9768 15.3944 57.9787 13.9771 57.9822C12.7588 57.9852 11.5405 57.986 10.3222 57.9853C9.59517 57.9848 8.86822 57.9852 8.1412 57.9874C7.45717 57.9895 6.77321 57.989 6.08921 57.9864C5.83883 57.986 5.58845 57.9864 5.33807 57.9877C2.57872 58.0019 2.57872 58.0019 1.48387 57.1002C1.40342 57.0017 1.32298 56.9032 1.2401 56.8017C1.15693 56.7035 1.07376 56.6053 0.988076 56.5042C0.175157 55.3205 0.512939 54.5281 0.512939 52.8861C6.79562 52.8205 6.79562 52.8205 13.2053 52.7535C13.916 50.9734 14.1863 49.2119 13.5693 47.3577C13.4635 47.0396 13.4005 46.7248 13.3375 46.3958Z" fill="#3AE0C5"/>
<path d="M13.3375 46.3958C15.2567 46.3803 17.176 46.3687 19.0952 46.3615C19.9865 46.3581 20.8776 46.3535 21.7687 46.3459C22.6286 46.3386 23.4883 46.3347 24.3482 46.333C24.6765 46.3318 25.0047 46.3294 25.333 46.3258C25.7922 46.321 26.2515 46.3203 26.7108 46.3206C26.8469 46.3183 26.983 46.3159 27.1232 46.3134C28.0475 46.3201 28.0475 46.3201 28.5571 46.7151C28.8682 47.1435 28.955 47.3452 28.9534 47.8637C28.9534 47.9751 28.9534 48.0864 28.9534 48.2012C28.9524 48.3816 28.9524 48.3816 28.9513 48.5658C28.951 48.7504 28.951 48.7504 28.9508 48.9388C28.95 49.3329 28.9484 49.727 28.9467 50.1211C28.946 50.3879 28.9454 50.6547 28.9449 50.9215C28.9435 51.5763 28.941 52.2312 28.9384 52.8861C29.9419 52.8861 30.9454 52.8861 31.9793 52.8861C32.0788 55.898 32.0788 55.898 31.3182 56.7272C30.6501 57.4394 29.9267 57.8748 28.9462 57.9696C28.7528 57.972 28.5594 57.9722 28.366 57.9706C28.2587 57.9713 28.1515 57.9721 28.0409 57.9727C27.6832 57.9746 27.3257 57.9737 26.968 57.9727C26.7108 57.9736 26.4536 57.9744 26.1964 57.9755C25.499 57.9779 24.8016 57.9778 24.1042 57.977C23.5214 57.9766 22.9385 57.9774 22.3557 57.9782C20.9802 57.9801 19.6047 57.9799 18.2292 57.9784C16.8118 57.9768 15.3944 57.9787 13.9771 57.9822C12.7588 57.9852 11.5405 57.986 10.3222 57.9853C9.59517 57.9848 8.86822 57.9852 8.1412 57.9874C7.45717 57.9895 6.77321 57.989 6.08921 57.9864C5.83883 57.986 5.58845 57.9864 5.33807 57.9877C2.57872 58.0019 2.57872 58.0019 1.48387 57.1002C1.40342 57.0017 1.32298 56.9032 1.2401 56.8017C1.15693 56.7035 1.07376 56.6053 0.988076 56.5042C0.175157 55.3205 0.512939 54.5281 0.512939 52.8861C6.79562 52.8205 6.79562 52.8205 13.2053 52.7535C13.916 50.9734 14.1863 49.2119 13.5693 47.3577C13.4635 47.0396 13.4005 46.7248 13.3375 46.3958Z" fill="white" fill-opacity="0.2"/>
<path d="M13.3375 46.3958C15.2567 46.3803 17.176 46.3687 19.0952 46.3615C19.9865 46.3581 20.8776 46.3535 21.7687 46.3459C22.6286 46.3386 23.4883 46.3347 24.3482 46.333C24.6765 46.3318 25.0047 46.3294 25.333 46.3258C25.7922 46.321 26.2515 46.3203 26.7108 46.3206C26.8469 46.3183 26.983 46.3159 27.1232 46.3134C28.0475 46.3201 28.0475 46.3201 28.5571 46.7151C28.8682 47.1435 28.955 47.3452 28.9534 47.8637C28.9534 47.9751 28.9534 48.0864 28.9534 48.2012C28.9524 48.3816 28.9524 48.3816 28.9513 48.5658C28.951 48.7504 28.951 48.7504 28.9508 48.9388C28.95 49.3329 28.9484 49.727 28.9467 50.1211C28.946 50.3879 28.9454 50.6547 28.9449 50.9215C28.9435 51.5763 28.941 52.2312 28.9384 52.8861C29.9419 52.8861 30.9454 52.8861 31.9793 52.8861C32.0788 55.898 32.0788 55.898 31.3182 56.7272C30.6501 57.4394 29.9267 57.8748 28.9462 57.9696C28.7528 57.972 28.5594 57.9722 28.366 57.9706C28.2587 57.9713 28.1515 57.9721 28.0409 57.9727C27.6832 57.9746 27.3257 57.9737 26.968 57.9727C26.7108 57.9736 26.4536 57.9744 26.1964 57.9755C25.499 57.9779 24.8016 57.9778 24.1042 57.977C23.5214 57.9766 22.9385 57.9774 22.3557 57.9782C20.9802 57.9801 19.6047 57.9799 18.2292 57.9784C16.8118 57.9768 15.3944 57.9787 13.9771 57.9822C12.7588 57.9852 11.5405 57.986 10.3222 57.9853C9.59517 57.9848 8.86822 57.9852 8.1412 57.9874C7.45717 57.9895 6.77321 57.989 6.08921 57.9864C5.83883 57.986 5.58845 57.9864 5.33807 57.9877C2.57872 58.0019 2.57872 58.0019 1.48387 57.1002C1.40342 57.0017 1.32298 56.9032 1.2401 56.8017C1.15693 56.7035 1.07376 56.6053 0.988076 56.5042C0.175157 55.3205 0.512939 54.5281 0.512939 52.8861C6.79562 52.8205 6.79562 52.8205 13.2053 52.7535C13.916 50.9734 14.1863 49.2119 13.5693 47.3577C13.4635 47.0396 13.4005 46.7248 13.3375 46.3958Z" fill="white" fill-opacity="0.2"/>
<path d="M28.6742 12.7525C28.9218 13.0007 28.8297 13.4217 28.834 13.7527C28.8353 13.8435 28.8365 13.9341 28.8378 14.0275C28.8418 14.329 28.8447 14.6304 28.8472 14.9318C28.848 15.0346 28.8489 15.1374 28.8497 15.2433C28.8541 15.7877 28.8573 16.3321 28.8599 16.8765C28.8623 17.3273 28.8669 17.7779 28.8734 18.2285C28.8814 18.7724 28.8855 19.3161 28.8868 19.86C28.8879 20.0673 28.8904 20.2744 28.8943 20.4817C28.8994 20.7722 28.8996 21.0622 28.8985 21.3528C28.9005 21.6006 28.9005 21.6006 28.9026 21.8534C28.8003 22.3165 28.6745 22.5524 28.2858 22.8318C27.6873 23.0943 27.0353 23.0366 26.3938 23.0266C26.2312 23.0267 26.0686 23.0268 25.9011 23.0269C25.4569 23.0265 25.0129 23.0232 24.5687 23.0186C24.104 23.0145 23.6393 23.014 23.1744 23.0132C22.2951 23.0112 21.4158 23.0059 20.5365 22.9992C19.5351 22.9918 18.5336 22.9881 17.5322 22.9848C15.4729 22.9778 13.4137 22.9662 11.3544 22.9515C11.3522 22.5908 11.3505 22.2302 11.3493 21.8695C11.3486 21.768 11.3479 21.6665 11.3472 21.5619C11.3453 20.8407 11.3962 20.1568 11.5445 19.4497C11.5623 19.3547 11.5801 19.2597 11.5984 19.1618C11.7267 18.4969 11.7267 18.497 11.8833 18.1832C12.0061 18.1806 12.1288 18.178 12.2553 18.1753C12.7102 18.1649 13.165 18.1533 13.6199 18.1411C13.8168 18.136 14.0138 18.1314 14.2108 18.1272C14.4937 18.1212 14.7766 18.1135 15.0595 18.1055C15.2298 18.1013 15.4001 18.0972 15.5756 18.0929C15.9957 18.0924 15.9957 18.0924 16.2462 17.7858C16.2079 17.3477 16.2079 17.3477 15.9818 16.991C15.7273 16.9701 15.4721 16.9577 15.217 16.9491C14.9849 16.9408 14.9849 16.9408 14.7483 16.9323C14.5854 16.9271 14.4226 16.9219 14.2548 16.9165C14.0915 16.9108 13.9281 16.9051 13.7598 16.8992C13.3546 16.8851 12.9495 16.8715 12.5443 16.8586C12.6843 16.4078 12.8099 16.0621 13.0732 15.6665C13.3518 15.6155 13.3518 15.6155 13.6924 15.6127C13.815 15.6098 13.9377 15.6069 14.064 15.6039C14.2566 15.6021 14.2566 15.6021 14.4531 15.6003C14.7064 15.5979 14.9596 15.5938 15.2129 15.5878C15.3817 15.5864 15.3817 15.5864 15.5539 15.585C15.9123 15.5232 16.0345 15.4294 16.2462 15.1367C16.2363 14.7887 16.2363 14.7887 16.114 14.4744C15.7744 14.3043 15.484 14.2983 15.1059 14.2675C14.9734 14.2563 14.8408 14.2452 14.7042 14.2338C14.6022 14.2258 14.5003 14.2178 14.3953 14.2095C15.547 12.6601 17.2579 11.8247 19.0227 11.163C19.1482 11.1151 19.2736 11.0671 19.4028 11.0177C22.4716 10.0569 26.1215 10.937 28.6742 12.7525Z" fill="#10BE77"/>
<path d="M4.32397 0.81317C4.42886 0.812777 4.53375 0.812383 4.64182 0.811976C4.99369 0.81083 5.34555 0.810627 5.69742 0.81043C5.94957 0.80982 6.20171 0.809149 6.45386 0.808436C7.13924 0.8067 7.82462 0.805846 8.51007 0.805256C8.93836 0.804869 9.36672 0.804327 9.79501 0.80373C11.1355 0.801919 12.476 0.800644 13.8165 0.800129C15.3632 0.799539 16.9099 0.797213 18.4566 0.793375C19.6526 0.790513 20.8485 0.789177 22.0444 0.789C22.7585 0.788858 23.4726 0.788078 24.1867 0.785711C24.8587 0.783528 25.5308 0.783243 26.2028 0.784402C26.4489 0.784504 26.6951 0.783935 26.9413 0.782626C30.0324 0.76713 30.0324 0.76713 31.1863 1.8914C32.2052 3.24277 31.9795 3.89332 31.9795 5.865C21.5956 5.865 11.2117 5.865 0.513184 5.865C0.513184 2.92159 0.513184 2.92159 1.33951 1.93279C2.31844 1.10809 3.04618 0.811671 4.32397 0.81317Z" fill="#3AE0C5"/>
<path d="M4.32397 0.81317C4.42886 0.812777 4.53375 0.812383 4.64182 0.811976C4.99369 0.81083 5.34555 0.810627 5.69742 0.81043C5.94957 0.80982 6.20171 0.809149 6.45386 0.808436C7.13924 0.8067 7.82462 0.805846 8.51007 0.805256C8.93836 0.804869 9.36672 0.804327 9.79501 0.80373C11.1355 0.801919 12.476 0.800644 13.8165 0.800129C15.3632 0.799539 16.9099 0.797213 18.4566 0.793375C19.6526 0.790513 20.8485 0.789177 22.0444 0.789C22.7585 0.788858 23.4726 0.788078 24.1867 0.785711C24.8587 0.783528 25.5308 0.783243 26.2028 0.784402C26.4489 0.784504 26.6951 0.783935 26.9413 0.782626C30.0324 0.76713 30.0324 0.76713 31.1863 1.8914C32.2052 3.24277 31.9795 3.89332 31.9795 5.865C21.5956 5.865 11.2117 5.865 0.513184 5.865C0.513184 2.92159 0.513184 2.92159 1.33951 1.93279C2.31844 1.10809 3.04618 0.811671 4.32397 0.81317Z" fill="white" fill-opacity="0.2"/>
<path d="M4.32397 0.81317C4.42886 0.812777 4.53375 0.812383 4.64182 0.811976C4.99369 0.81083 5.34555 0.810627 5.69742 0.81043C5.94957 0.80982 6.20171 0.809149 6.45386 0.808436C7.13924 0.8067 7.82462 0.805846 8.51007 0.805256C8.93836 0.804869 9.36672 0.804327 9.79501 0.80373C11.1355 0.801919 12.476 0.800644 13.8165 0.800129C15.3632 0.799539 16.9099 0.797213 18.4566 0.793375C19.6526 0.790513 20.8485 0.789177 22.0444 0.789C22.7585 0.788858 23.4726 0.788078 24.1867 0.785711C24.8587 0.783528 25.5308 0.783243 26.2028 0.784402C26.4489 0.784504 26.6951 0.783935 26.9413 0.782626C30.0324 0.76713 30.0324 0.76713 31.1863 1.8914C32.2052 3.24277 31.9795 3.89332 31.9795 5.865C21.5956 5.865 11.2117 5.865 0.513184 5.865C0.513184 2.92159 0.513184 2.92159 1.33951 1.93279C2.31844 1.10809 3.04618 0.811671 4.32397 0.81317Z" fill="white" fill-opacity="0.2"/>
<path d="M13.3373 46.3958C15.2566 46.3803 17.1758 46.3687 19.0951 46.3615C19.9863 46.3581 20.8775 46.3535 21.7686 46.3459C22.6284 46.3386 23.4882 46.3347 24.348 46.333C24.6763 46.3318 25.0045 46.3294 25.3328 46.3258C25.7921 46.321 26.2513 46.3203 26.7106 46.3206C26.8467 46.3183 26.9828 46.3159 27.123 46.3134C28.0474 46.3201 28.0474 46.3201 28.5569 46.7151C29.7674 48.3815 28.9383 50.8251 28.9383 52.8861C23.7463 52.8861 18.5544 52.8861 13.2051 52.8861C13.4233 52.2304 13.6414 51.5748 13.8662 50.8993C13.9184 50.4572 13.9513 50.1061 13.9322 49.674C13.9292 49.5244 13.9292 49.5244 13.926 49.3718C13.9009 48.6714 13.7912 48.0249 13.5692 47.3577C13.4633 47.0396 13.4004 46.7248 13.3373 46.3958Z" fill="#02FEB3"/>
<path d="M4.67547 34.1741C4.7765 34.1747 4.87754 34.1752 4.98165 34.1757C5.14129 34.1751 5.14129 34.1751 5.30417 34.1743C5.6571 34.1732 6.00999 34.1739 6.36292 34.1749C6.60763 34.1747 6.85234 34.1744 7.09704 34.1741C7.61042 34.1736 8.1238 34.1743 8.63718 34.1755C9.29576 34.177 9.95434 34.1762 10.6129 34.1745C11.1184 34.1736 11.624 34.1739 12.1295 34.1746C12.3723 34.1747 12.6152 34.1745 12.858 34.1739C13.1973 34.1732 13.5366 34.1743 13.876 34.1757C13.9768 34.1752 14.0775 34.1747 14.1813 34.1741C14.6774 34.1781 14.8972 34.192 15.3208 34.475C15.3711 34.7363 15.3711 34.7363 15.3721 35.0601C15.3734 35.1812 15.3746 35.3023 15.3759 35.4271C15.3751 35.5582 15.3743 35.6893 15.3734 35.8243C15.3739 35.9585 15.3742 36.0928 15.3746 36.2311C15.3749 36.5152 15.3741 36.7994 15.3725 37.0835C15.3703 37.5196 15.3724 37.9555 15.375 38.3916C15.3747 38.6672 15.3743 38.9428 15.3734 39.2184C15.3743 39.3495 15.3751 39.4806 15.3759 39.6156C15.374 39.7973 15.374 39.7973 15.3721 39.9826C15.3718 40.0894 15.3715 40.1963 15.3711 40.3064C15.3545 40.3927 15.3379 40.4789 15.3208 40.5678C14.8276 40.8971 14.4467 40.87 13.876 40.867C13.7693 40.8674 13.6627 40.8679 13.5527 40.8684C13.1999 40.8695 12.8471 40.8688 12.4942 40.8678C12.2494 40.868 12.0046 40.8683 11.7598 40.8687C11.2466 40.869 10.7335 40.8685 10.2203 40.8672C9.56159 40.8657 8.9028 40.8666 8.24409 40.8682C7.73856 40.8691 7.23304 40.8688 6.72756 40.8681C6.4846 40.868 6.24164 40.8682 5.99868 40.8688C5.65965 40.8695 5.32066 40.8685 4.98165 40.867C4.88061 40.8675 4.77957 40.868 4.67547 40.8686C3.98079 40.863 3.9808 40.863 3.68616 40.5678C3.65258 40.3064 3.65258 40.3064 3.65194 39.9826C3.65111 39.8615 3.65027 39.7404 3.64941 39.6156C3.64995 39.4845 3.65048 39.3534 3.65104 39.2184C3.65079 39.0842 3.65053 38.9499 3.65027 38.8117C3.65009 38.5275 3.65058 38.2434 3.65168 37.9592C3.6531 37.5232 3.6517 37.0872 3.65 36.6511C3.65018 36.3755 3.65052 36.0999 3.65104 35.8243C3.6505 35.6932 3.64997 35.5621 3.64941 35.4271C3.65025 35.306 3.65109 35.1849 3.65194 35.0601C3.65216 34.9533 3.65237 34.8464 3.65258 34.7363C3.73135 34.1231 4.15974 34.1783 4.67547 34.1741Z" fill="#3AE0C5"/>
<path d="M4.67547 34.1741C4.7765 34.1747 4.87754 34.1752 4.98165 34.1757C5.14129 34.1751 5.14129 34.1751 5.30417 34.1743C5.6571 34.1732 6.00999 34.1739 6.36292 34.1749C6.60763 34.1747 6.85234 34.1744 7.09704 34.1741C7.61042 34.1736 8.1238 34.1743 8.63718 34.1755C9.29576 34.177 9.95434 34.1762 10.6129 34.1745C11.1184 34.1736 11.624 34.1739 12.1295 34.1746C12.3723 34.1747 12.6152 34.1745 12.858 34.1739C13.1973 34.1732 13.5366 34.1743 13.876 34.1757C13.9768 34.1752 14.0775 34.1747 14.1813 34.1741C14.6774 34.1781 14.8972 34.192 15.3208 34.475C15.3711 34.7363 15.3711 34.7363 15.3721 35.0601C15.3734 35.1812 15.3746 35.3023 15.3759 35.4271C15.3751 35.5582 15.3743 35.6893 15.3734 35.8243C15.3739 35.9585 15.3742 36.0928 15.3746 36.2311C15.3749 36.5152 15.3741 36.7994 15.3725 37.0835C15.3703 37.5196 15.3724 37.9555 15.375 38.3916C15.3747 38.6672 15.3743 38.9428 15.3734 39.2184C15.3743 39.3495 15.3751 39.4806 15.3759 39.6156C15.374 39.7973 15.374 39.7973 15.3721 39.9826C15.3718 40.0894 15.3715 40.1963 15.3711 40.3064C15.3545 40.3927 15.3379 40.4789 15.3208 40.5678C14.8276 40.8971 14.4467 40.87 13.876 40.867C13.7693 40.8674 13.6627 40.8679 13.5527 40.8684C13.1999 40.8695 12.8471 40.8688 12.4942 40.8678C12.2494 40.868 12.0046 40.8683 11.7598 40.8687C11.2466 40.869 10.7335 40.8685 10.2203 40.8672C9.56159 40.8657 8.9028 40.8666 8.24409 40.8682C7.73856 40.8691 7.23304 40.8688 6.72756 40.8681C6.4846 40.868 6.24164 40.8682 5.99868 40.8688C5.65965 40.8695 5.32066 40.8685 4.98165 40.867C4.88061 40.8675 4.77957 40.868 4.67547 40.8686C3.98079 40.863 3.9808 40.863 3.68616 40.5678C3.65258 40.3064 3.65258 40.3064 3.65194 39.9826C3.65111 39.8615 3.65027 39.7404 3.64941 39.6156C3.64995 39.4845 3.65048 39.3534 3.65104 39.2184C3.65079 39.0842 3.65053 38.9499 3.65027 38.8117C3.65009 38.5275 3.65058 38.2434 3.65168 37.9592C3.6531 37.5232 3.6517 37.0872 3.65 36.6511C3.65018 36.3755 3.65052 36.0999 3.65104 35.8243C3.6505 35.6932 3.64997 35.5621 3.64941 35.4271C3.65025 35.306 3.65109 35.1849 3.65194 35.0601C3.65216 34.9533 3.65237 34.8464 3.65258 34.7363C3.73135 34.1231 4.15974 34.1783 4.67547 34.1741Z" fill="white" fill-opacity="0.2"/>
<path d="M18.171 26.0945C18.2735 26.095 18.376 26.0956 18.4815 26.0961C18.5895 26.0956 18.6974 26.0952 18.8086 26.0947C19.1665 26.0935 19.5243 26.0943 19.8822 26.0952C20.1302 26.095 20.3781 26.0948 20.6261 26.0945C21.1463 26.0941 21.6665 26.0946 22.1866 26.0958C22.8544 26.0974 23.5222 26.0965 24.19 26.0949C24.7022 26.0939 25.2144 26.0943 25.7266 26.0949C25.9729 26.0952 26.2191 26.0949 26.4654 26.0943C26.8092 26.0936 27.1529 26.0946 27.4967 26.0961C27.5992 26.0956 27.7017 26.095 27.8073 26.0945C28.5119 26.1001 28.5119 26.1001 28.8065 26.3953C28.8409 26.6508 28.8409 26.6508 28.8428 26.9662C28.844 27.0842 28.8453 27.2022 28.8466 27.3239C28.8465 27.4517 28.8464 27.5794 28.8463 27.7111C28.8468 27.842 28.8473 27.973 28.8479 28.1079C28.8487 28.3853 28.8488 28.6627 28.8482 28.94C28.8478 29.365 28.8509 29.79 28.8542 30.215C28.8545 30.4841 28.8546 30.7532 28.8545 31.0224C28.8557 31.1499 28.857 31.2774 28.8582 31.4087C28.8574 31.5272 28.8565 31.6456 28.8557 31.7676C28.8558 31.8719 28.8559 31.976 28.8559 32.0834C28.8064 32.3557 28.8065 32.3557 28.6697 32.5879C28.2632 32.8463 27.8424 32.8083 27.3759 32.8045C27.2181 32.8056 27.2181 32.8056 27.0572 32.8066C26.7093 32.8083 26.3614 32.8072 26.0135 32.8058C25.7719 32.8061 25.5304 32.8065 25.2888 32.807C24.7825 32.8076 24.2761 32.8067 23.7698 32.8049C23.1202 32.8026 22.4707 32.8039 21.8211 32.8063C21.3223 32.8077 20.8235 32.8072 20.3247 32.8062C20.0851 32.806 19.8456 32.8063 19.606 32.8072C19.2715 32.8082 18.937 32.8067 18.6024 32.8045C18.4535 32.8057 18.4535 32.8057 18.3014 32.8069C17.9186 32.8022 17.6368 32.7965 17.3086 32.5879C17.1361 32.295 17.1224 32.1074 17.1226 31.7676C17.1218 31.6492 17.121 31.5307 17.1201 31.4087C17.1213 31.2813 17.1226 31.1538 17.1238 31.0224C17.1237 30.8257 17.1237 30.8257 17.1236 30.6251C17.1239 30.348 17.1252 30.0708 17.1274 29.7937C17.1305 29.3684 17.1301 28.9432 17.1293 28.5179C17.13 28.249 17.1309 27.98 17.1321 27.7111C17.132 27.5833 17.1318 27.4555 17.1317 27.3239C17.133 27.2058 17.1343 27.0878 17.1356 26.9662C17.1362 26.8622 17.1368 26.758 17.1374 26.6508C17.22 26.0382 17.6574 26.0986 18.171 26.0945Z" fill="#04FFB3"/>
<path d="M4.68517 26.0945C4.78765 26.095 4.89013 26.0956 4.99572 26.0961C5.10365 26.0956 5.21159 26.0952 5.32279 26.0947C5.68065 26.0935 6.03848 26.0943 6.39633 26.0952C6.64432 26.095 6.89228 26.0948 7.14031 26.0945C7.66045 26.0941 8.1806 26.0946 8.70075 26.0958C9.36853 26.0974 10.0363 26.0965 10.7041 26.0949C11.2163 26.0939 11.7286 26.0943 12.2407 26.0949C12.487 26.0952 12.7333 26.0949 12.9796 26.0943C13.3234 26.0936 13.6671 26.0946 14.0109 26.0961C14.1134 26.0956 14.2158 26.095 14.3214 26.0945C15.026 26.1001 15.026 26.1001 15.3206 26.3953C15.3551 26.6508 15.3551 26.6508 15.3569 26.9662C15.3582 27.0842 15.3594 27.2022 15.3607 27.3239C15.3607 27.4517 15.3605 27.5794 15.3604 27.7111C15.3609 27.842 15.3615 27.973 15.3621 28.1079C15.3629 28.3853 15.3629 28.6627 15.3623 28.94C15.3619 29.365 15.3651 29.79 15.3684 30.215C15.3687 30.4841 15.3688 30.7532 15.3686 31.0224C15.3699 31.1499 15.3711 31.2774 15.3724 31.4087C15.3715 31.5272 15.3707 31.6456 15.3699 31.7676C15.3699 31.8719 15.37 31.976 15.3701 32.0834C15.3206 32.3557 15.3206 32.3557 15.1838 32.5879C14.7773 32.8463 14.3565 32.8083 13.89 32.8045C13.7323 32.8056 13.7323 32.8056 13.5713 32.8066C13.2234 32.8083 12.8756 32.8072 12.5277 32.8058C12.2861 32.8061 12.0445 32.8065 11.803 32.807C11.2966 32.8076 10.7903 32.8067 10.2839 32.8049C9.63436 32.8026 8.98485 32.8039 8.33528 32.8063C7.83645 32.8077 7.33763 32.8072 6.8388 32.8062C6.59928 32.806 6.35975 32.8063 6.12022 32.8072C5.78563 32.8082 5.45115 32.8067 5.11657 32.8045C4.96758 32.8057 4.96758 32.8057 4.81558 32.8069C4.43276 32.8022 4.15098 32.7965 3.82277 32.5879C3.65025 32.295 3.6365 32.1074 3.63678 31.7676C3.63595 31.6492 3.63512 31.5307 3.63428 31.4087C3.6355 31.2813 3.63671 31.1538 3.63797 31.0224C3.63787 30.8257 3.63787 30.8257 3.63777 30.6251C3.63807 30.348 3.63936 30.0708 3.64155 29.7937C3.64467 29.3684 3.64427 28.9432 3.64339 28.5179C3.64413 28.249 3.64507 27.98 3.64623 27.7111C3.64611 27.5833 3.64599 27.4555 3.64587 27.3239C3.64713 27.2058 3.64838 27.0878 3.64968 26.9662C3.65029 26.8622 3.6509 26.758 3.65153 26.6508C3.73418 26.0382 4.17152 26.0986 4.68517 26.0945Z" fill="#3AE0C5"/>
<path d="M4.68517 26.0945C4.78765 26.095 4.89013 26.0956 4.99572 26.0961C5.10365 26.0956 5.21159 26.0952 5.32279 26.0947C5.68065 26.0935 6.03848 26.0943 6.39633 26.0952C6.64432 26.095 6.89228 26.0948 7.14031 26.0945C7.66045 26.0941 8.1806 26.0946 8.70075 26.0958C9.36853 26.0974 10.0363 26.0965 10.7041 26.0949C11.2163 26.0939 11.7286 26.0943 12.2407 26.0949C12.487 26.0952 12.7333 26.0949 12.9796 26.0943C13.3234 26.0936 13.6671 26.0946 14.0109 26.0961C14.1134 26.0956 14.2158 26.095 14.3214 26.0945C15.026 26.1001 15.026 26.1001 15.3206 26.3953C15.3551 26.6508 15.3551 26.6508 15.3569 26.9662C15.3582 27.0842 15.3594 27.2022 15.3607 27.3239C15.3607 27.4517 15.3605 27.5794 15.3604 27.7111C15.3609 27.842 15.3615 27.973 15.3621 28.1079C15.3629 28.3853 15.3629 28.6627 15.3623 28.94C15.3619 29.365 15.3651 29.79 15.3684 30.215C15.3687 30.4841 15.3688 30.7532 15.3686 31.0224C15.3699 31.1499 15.3711 31.2774 15.3724 31.4087C15.3715 31.5272 15.3707 31.6456 15.3699 31.7676C15.3699 31.8719 15.37 31.976 15.3701 32.0834C15.3206 32.3557 15.3206 32.3557 15.1838 32.5879C14.7773 32.8463 14.3565 32.8083 13.89 32.8045C13.7323 32.8056 13.7323 32.8056 13.5713 32.8066C13.2234 32.8083 12.8756 32.8072 12.5277 32.8058C12.2861 32.8061 12.0445 32.8065 11.803 32.807C11.2966 32.8076 10.7903 32.8067 10.2839 32.8049C9.63436 32.8026 8.98485 32.8039 8.33528 32.8063C7.83645 32.8077 7.33763 32.8072 6.8388 32.8062C6.59928 32.806 6.35975 32.8063 6.12022 32.8072C5.78563 32.8082 5.45115 32.8067 5.11657 32.8045C4.96758 32.8057 4.96758 32.8057 4.81558 32.8069C4.43276 32.8022 4.15098 32.7965 3.82277 32.5879C3.65025 32.295 3.6365 32.1074 3.63678 31.7676C3.63595 31.6492 3.63512 31.5307 3.63428 31.4087C3.6355 31.2813 3.63671 31.1538 3.63797 31.0224C3.63787 30.8257 3.63787 30.8257 3.63777 30.6251C3.63807 30.348 3.63936 30.0708 3.64155 29.7937C3.64467 29.3684 3.64427 28.9432 3.64339 28.5179C3.64413 28.249 3.64507 27.98 3.64623 27.7111C3.64611 27.5833 3.64599 27.4555 3.64587 27.3239C3.64713 27.2058 3.64838 27.0878 3.64968 26.9662C3.65029 26.8622 3.6509 26.758 3.65153 26.6508C3.73418 26.0382 4.17152 26.0986 4.68517 26.0945Z" fill="white" fill-opacity="0.2"/>
<path d="M5.55874 46.2315C5.70195 46.2311 5.70195 46.2311 5.84805 46.2308C6.16799 46.2303 6.48789 46.2318 6.8078 46.2332C7.03714 46.2333 7.26648 46.2333 7.49583 46.2331C8.1186 46.233 8.74137 46.2346 9.36413 46.2364C10.0149 46.2381 10.6657 46.2383 11.3164 46.2386C12.5488 46.2394 13.7812 46.2416 15.0135 46.2442C16.4165 46.2472 17.8195 46.2486 19.2225 46.25C22.1087 46.2528 24.9948 46.2575 27.881 46.2634C27.881 46.307 27.881 46.3508 27.881 46.3958C23.0817 46.3958 18.2824 46.3958 13.3377 46.3958C13.5123 46.8766 13.6868 47.3574 13.8666 47.8528C14.1779 49.4123 14.1518 51.0301 13.4699 52.4886C13.3827 52.6198 13.2954 52.7509 13.2055 52.886C12.8073 52.9337 12.8073 52.9337 12.2895 52.9311C12.1954 52.9312 12.1011 52.9312 12.0041 52.9313C11.6922 52.931 11.3803 52.9279 11.0684 52.9248C10.8524 52.9241 10.6364 52.9235 10.4204 52.9231C9.85132 52.9215 9.28236 52.9177 8.71327 52.9133C8.13288 52.9092 7.55242 52.9074 6.97196 52.9054C5.83263 52.9011 4.69334 52.8943 3.55406 52.886C3.54096 52.1083 3.53137 51.3306 3.52501 50.5529C3.52236 50.2884 3.51875 50.0241 3.51416 49.7597C3.50773 49.379 3.50474 48.9983 3.50241 48.6175C3.49969 48.4999 3.49696 48.3823 3.49414 48.2612C3.49388 47.5318 3.58063 47.0967 4.0829 46.5282C4.55846 46.2065 4.99574 46.2307 5.55874 46.2315Z" fill="#95FED2"/>
<path d="M24.311 46.3958C24.8449 46.3794 25.3787 46.3673 25.9128 46.3593C26.0943 46.356 26.2757 46.3515 26.4572 46.3458C26.7186 46.3377 26.9803 46.3343 27.2418 46.3311C27.399 46.3276 27.5562 46.3242 27.7181 46.3206C28.2834 46.4201 28.4712 46.596 28.8062 47.058C28.8813 47.4858 28.8813 47.4858 28.8708 47.9629C28.8686 48.1341 28.8665 48.3053 28.8643 48.4817C28.8588 48.6611 28.8532 48.8405 28.8475 49.02C28.8442 49.202 28.8412 49.3841 28.8385 49.5661C28.8307 50.0106 28.8198 50.4548 28.8062 50.8992C27.4086 50.9138 26.5361 50.467 25.5273 49.4991C24.727 48.6133 24.311 47.5945 24.311 46.3958Z" fill="#01ECA5"/>
<path d="M7.59992 16.8374C7.73443 16.8364 7.73443 16.8364 7.87164 16.8354C8.16874 16.8335 8.46584 16.8326 8.76301 16.8318C8.96913 16.8311 9.17532 16.8303 9.38145 16.8295C9.81393 16.8282 10.2464 16.8274 10.6788 16.827C11.2334 16.8262 11.788 16.823 12.3425 16.8192C12.7684 16.8168 13.1943 16.8161 13.6202 16.8159C13.8246 16.8155 14.0291 16.8144 14.2336 16.8127C14.5194 16.8104 14.8052 16.8107 15.091 16.8116C15.2538 16.811 15.4165 16.8105 15.5842 16.8101C15.9814 16.8588 15.9814 16.8588 16.2369 17.0392C16.3781 17.2561 16.3781 17.2561 16.3533 17.5955C16.2459 17.9184 16.2459 17.9184 15.9814 18.1833C15.6009 18.2178 15.6009 18.2178 15.1081 18.2196C15.0185 18.2203 14.9288 18.221 14.8364 18.2217C14.5393 18.2236 14.2422 18.2234 13.9451 18.2231C13.7389 18.2236 13.5327 18.2242 13.3266 18.2248C12.8941 18.2258 12.4617 18.2258 12.0292 18.2251C11.4746 18.2243 10.9201 18.2265 10.3655 18.2297C9.93964 18.2316 9.51372 18.2317 9.08787 18.2313C8.88337 18.2314 8.67887 18.232 8.47444 18.2334C8.18857 18.235 7.90284 18.2341 7.61698 18.2326C7.37288 18.2327 7.37288 18.2327 7.12391 18.2328C6.72661 18.1833 6.72661 18.1833 6.4711 18.0074C6.32997 17.7859 6.32997 17.7859 6.35477 17.372C6.39021 17.2463 6.42566 17.1207 6.46219 16.9912C6.84332 16.8003 7.174 16.8398 7.59992 16.8374Z" fill="#FEFEFE"/>
<path d="M7.49452 14.3057C7.63322 14.3046 7.63322 14.3046 7.7747 14.3035C8.08107 14.3017 8.38738 14.3019 8.69376 14.3022C8.90617 14.3017 9.11859 14.3011 9.33094 14.3004C9.77643 14.2995 10.2219 14.2995 10.6673 14.3002C11.2391 14.301 11.8109 14.2987 12.3826 14.2957C12.8214 14.2937 13.26 14.2936 13.6987 14.294C13.9096 14.2939 14.1204 14.2932 14.3313 14.2919C14.6257 14.2903 14.92 14.2911 15.2144 14.2927C15.3822 14.2926 15.5499 14.2926 15.7227 14.2924C15.9165 14.317 15.9165 14.317 16.1141 14.342C16.3785 14.7394 16.3785 14.7394 16.3372 15.087C16.2463 15.4016 16.2463 15.4016 16.1141 15.5341C15.8195 15.548 15.5244 15.5525 15.2294 15.5533C15.137 15.5538 15.0446 15.5542 14.9493 15.5547C14.6423 15.556 14.3352 15.5562 14.0282 15.5563C13.8156 15.5568 13.6029 15.5572 13.3904 15.5577C12.9441 15.5585 12.4979 15.5587 12.0516 15.5586C11.4788 15.5586 10.906 15.5605 10.3332 15.5627C9.89394 15.5642 9.45469 15.5645 9.01543 15.5644C8.80416 15.5645 8.59296 15.5651 8.38169 15.5661C8.08669 15.5674 7.79169 15.5671 7.49662 15.5663C7.24446 15.5666 7.24446 15.5666 6.98717 15.5668C6.59488 15.5341 6.59488 15.5341 6.33045 15.2692C6.2974 14.938 6.2974 14.938 6.33045 14.6069C6.70797 14.2287 6.96577 14.3076 7.49452 14.3057Z" fill="#FEFEFF"/>
<path d="M4.53235 43.5778C4.65282 43.5766 4.77328 43.5753 4.89739 43.574C5.09302 43.5742 5.09302 43.5742 5.29261 43.5744C5.42628 43.5738 5.55996 43.5733 5.69768 43.5727C5.98075 43.5719 6.26383 43.5719 6.5469 43.5724C6.9807 43.5728 7.41448 43.5698 7.84825 43.5664C8.12294 43.5661 8.39757 43.566 8.67227 43.5661C8.80244 43.5649 8.93254 43.5637 9.06664 43.5624C9.18754 43.5633 9.30844 43.5641 9.43299 43.5649C9.59248 43.5648 9.59248 43.5648 9.75528 43.5647C10.1015 43.6267 10.2188 43.7332 10.4287 44.0116C10.47 44.351 10.47 44.351 10.4287 44.6739C10.1037 44.9995 10.0147 44.9722 9.56804 44.9731C9.4445 44.9739 9.32096 44.9747 9.1937 44.9756C9.05994 44.975 8.92625 44.9745 8.7885 44.974C8.65155 44.9742 8.51461 44.9744 8.37354 44.9747C8.08368 44.9749 7.79382 44.9744 7.50397 44.9733C7.05916 44.9719 6.61437 44.9733 6.16954 44.975C5.88841 44.9748 5.6073 44.9745 5.32618 44.974C5.12558 44.9748 5.12558 44.9748 4.92094 44.9756C4.7974 44.9748 4.67387 44.9739 4.54659 44.9731C4.38309 44.9727 4.38309 44.9727 4.21627 44.9724C3.95035 44.9388 3.95035 44.9388 3.68592 44.6739C3.65287 44.2765 3.65287 44.2765 3.68592 43.8791C4.00796 43.5565 4.09092 43.5804 4.53235 43.5778Z" fill="#10BE77"/>
<path d="M4.53235 43.5778C4.65282 43.5766 4.77328 43.5753 4.89739 43.574C5.09302 43.5742 5.09302 43.5742 5.29261 43.5744C5.42628 43.5738 5.55996 43.5733 5.69768 43.5727C5.98075 43.5719 6.26383 43.5719 6.5469 43.5724C6.9807 43.5728 7.41448 43.5698 7.84825 43.5664C8.12294 43.5661 8.39757 43.566 8.67227 43.5661C8.80244 43.5649 8.93254 43.5637 9.06664 43.5624C9.18754 43.5633 9.30844 43.5641 9.43299 43.5649C9.59248 43.5648 9.59248 43.5648 9.75528 43.5647C10.1015 43.6267 10.2188 43.7332 10.4287 44.0116C10.47 44.351 10.47 44.351 10.4287 44.6739C10.1037 44.9995 10.0147 44.9722 9.56804 44.9731C9.4445 44.9739 9.32096 44.9747 9.1937 44.9756C9.05994 44.975 8.92625 44.9745 8.7885 44.974C8.65155 44.9742 8.51461 44.9744 8.37354 44.9747C8.08368 44.9749 7.79382 44.9744 7.50397 44.9733C7.05916 44.9719 6.61437 44.9733 6.16954 44.975C5.88841 44.9748 5.6073 44.9745 5.32618 44.974C5.12558 44.9748 5.12558 44.9748 4.92094 44.9756C4.7974 44.9748 4.67387 44.9739 4.54659 44.9731C4.38309 44.9727 4.38309 44.9727 4.21627 44.9724C3.95035 44.9388 3.95035 44.9388 3.68592 44.6739C3.65287 44.2765 3.65287 44.2765 3.68592 43.8791C4.00796 43.5565 4.09092 43.5804 4.53235 43.5778Z" fill="white" fill-opacity="0.2"/>
<path d="M14.4312 2.51688C14.6014 2.51768 14.6014 2.51768 14.7751 2.5185C14.9496 2.51812 14.9496 2.51812 15.1277 2.51773C15.3741 2.51756 15.6203 2.51805 15.8666 2.51915C16.2445 2.52057 16.6222 2.51916 17 2.51747C17.2389 2.51765 17.4779 2.51798 17.7168 2.5185C17.8303 2.51796 17.9437 2.51743 18.0607 2.51688C18.8598 2.52323 18.8597 2.52323 19.1546 2.81859C19.1959 3.21595 19.1959 3.21595 19.1546 3.61331C18.6379 3.95845 18.2 3.91633 17.6006 3.9134C17.4874 3.91365 17.3741 3.91391 17.2574 3.91417C17.0181 3.91435 16.7788 3.91386 16.5396 3.91276C16.1725 3.91133 15.8055 3.91274 15.4384 3.91443C15.2061 3.91426 14.9739 3.91392 14.7416 3.9134C14.6313 3.91394 14.5211 3.91447 14.4076 3.91503C13.6321 3.90868 13.6321 3.90868 13.3373 3.61331C13.3042 3.21595 13.3042 3.21595 13.3373 2.81859C13.6891 2.46617 13.9527 2.52068 14.4312 2.51688Z" fill="white"/>
<path d="M7.48308 11.1205C7.62841 11.1211 7.62841 11.1211 7.77666 11.1218C7.87305 11.1196 7.96938 11.1175 8.06868 11.1153C8.77085 11.1147 8.77085 11.1147 9.10911 11.3432C9.23922 11.5605 9.23922 11.5605 9.21444 11.8999C9.10701 12.2228 9.10701 12.2228 8.84261 12.4877C8.46231 12.5175 8.09901 12.5307 7.71878 12.5291C7.61501 12.5312 7.51124 12.5334 7.40428 12.5355C7.10319 12.5358 7.10319 12.5358 6.59501 12.4877C6.33059 12.0903 6.33059 12.0903 6.36364 11.7509C6.55911 11.1145 6.86911 11.1267 7.48308 11.1205Z" fill="white"/>
<path d="M21.5925 2.51233C21.9313 2.55372 21.9313 2.55372 22.1792 2.71101C22.328 2.95108 22.328 2.95108 22.3032 3.29049C22.1958 3.61334 22.1958 3.61334 21.9313 3.87825C21.5182 3.82858 21.5182 3.82858 21.1381 3.7458C21.0555 3.29877 21.0555 3.29877 21.0059 2.81863C21.2703 2.55372 21.2703 2.55372 21.5925 2.51233Z" fill="white"/>
<path d="M27.0768 12.5035C36.2362 12.5035 43.6614 19.9422 43.6614 29.1184C43.6614 38.2946 36.2362 45.7334 27.0768 45.7334C17.9174 45.7334 10.4922 38.2946 10.4922 29.1184C10.4922 19.9422 17.9174 12.5035 27.0768 12.5035Z" fill="url(#paint0_linear_2719_7226)" stroke="#00C853" stroke-width="0.24"/>
<mask id="mask1_2719_7226" style="mask-type:luminance" maskUnits="userSpaceOnUse" x="19" y="17" width="20" height="20">
<path d="M39 17H19V37H39V17Z" fill="white"/>
</mask>
<g mask="url(#mask1_2719_7226)">
<path d="M19.6211 16.9937C19.6688 16.9933 19.7165 16.993 19.7657 16.9926C19.8182 16.9924 19.8707 16.9922 19.9232 16.9921C19.9501 16.992 19.9769 16.9919 20.0045 16.9917C20.1477 16.9912 20.291 16.9908 20.4342 16.9906C20.5502 16.9905 20.6661 16.9899 20.7821 16.989C21.5891 16.9829 22.3777 17.0201 23.1795 17.1172C23.2135 17.1213 23.2476 17.1254 23.2827 17.1296C23.4588 17.1513 23.6341 17.1768 23.8093 17.2051C23.8344 17.2091 23.8595 17.2131 23.8853 17.2172C27.2949 17.7633 30.5015 19.3635 33.0478 21.6816C33.1078 21.7361 33.1683 21.7901 33.2294 21.8436C33.4439 22.0325 33.6484 22.2304 33.8508 22.4321C33.8768 22.4579 33.9028 22.4838 33.9296 22.5103C34.0823 22.6635 34.2277 22.8211 34.369 22.9848C34.4427 23.07 34.519 23.1526 34.5955 23.2354C34.7948 23.4564 34.9769 23.6893 35.1584 23.9249C35.206 23.9861 35.2544 24.0466 35.3029 24.1071C36.0377 25.0331 36.631 26.0652 37.1638 27.1172C37.1856 27.1595 37.2074 27.2019 37.2298 27.2455C37.3968 27.5733 37.546 27.9064 37.6838 28.2476C37.6947 28.2743 37.7055 28.301 37.7166 28.3285C38.205 29.5397 38.5583 30.7933 38.7776 32.0806C38.7822 32.1069 38.7868 32.1333 38.7915 32.1605C38.9649 33.1707 39.0205 34.1825 39.0172 35.2055C39.0167 35.3547 39.0175 35.5038 39.0187 35.6529C39.0194 35.7698 39.0194 35.8866 39.0192 36.0035C39.0191 36.0586 39.0194 36.1137 39.0199 36.1688C39.0235 36.6439 39.0235 36.6439 38.9326 36.7934C38.7548 36.9719 38.6288 37.0135 38.3819 37.0173C38.3307 37.0171 38.3307 37.0171 38.2785 37.0169C38.2429 37.0172 38.2073 37.0174 38.1707 37.0176C38.0956 37.0178 38.0205 37.0178 37.9454 37.0174C37.8308 37.0171 37.7164 37.0182 37.6018 37.0195C37.5287 37.0195 37.4556 37.0195 37.3825 37.0194C37.3484 37.0198 37.3144 37.0203 37.2793 37.0207C37.0664 37.0183 36.939 36.99 36.7732 36.8438C36.6668 36.6963 36.6408 36.5919 36.6374 36.4112C36.6362 36.364 36.635 36.3168 36.6338 36.2683C36.6327 36.1918 36.6327 36.1918 36.6316 36.1138C36.6304 36.0598 36.6291 36.0059 36.6277 35.952C36.6235 35.7805 36.6202 35.609 36.617 35.4375C36.5973 34.417 36.5536 33.4051 36.3704 32.398C36.3578 32.3279 36.3578 32.3279 36.345 32.2564C35.8529 29.59 34.6517 27.0794 32.906 25.0078C32.8879 24.9862 32.8698 24.9645 32.8511 24.9422C32.6075 24.6517 32.3587 24.373 32.0857 24.1094C31.9814 24.0058 31.878 23.9015 31.7753 23.7963C31.5498 23.5661 31.3223 23.347 31.0692 23.1467C30.9832 23.0787 30.8987 23.0098 30.8146 22.9395C30.1972 22.4248 29.5375 21.9753 28.8435 21.5703C28.8169 21.5547 28.7903 21.539 28.7629 21.5228C27.9081 21.0226 27.0071 20.6013 26.0701 20.2813C26.0315 20.2679 25.9928 20.2545 25.9531 20.2407C25.0922 19.9452 24.2151 19.7267 23.3162 19.5855C23.2678 19.5778 23.2195 19.5702 23.1697 19.5624C23.0169 19.5396 22.864 19.519 22.7107 19.5C22.6685 19.4947 22.6685 19.4947 22.6254 19.4893C22.1721 19.4346 21.7193 19.4134 21.2631 19.4027C21.2356 19.402 21.2081 19.4013 21.1798 19.4007C20.9228 19.3946 20.6658 19.3891 20.4088 19.3846C20.2665 19.3821 20.1242 19.3789 19.9819 19.3752C19.9284 19.374 19.8748 19.373 19.8213 19.3724C19.2985 19.3657 19.2985 19.3657 19.117 19.1875C18.9714 19.0168 18.9827 18.8435 18.9842 18.6296C18.9841 18.5948 18.984 18.56 18.9839 18.5242C18.9838 18.4508 18.984 18.3773 18.9845 18.3039C18.9851 18.1918 18.9845 18.0797 18.9837 17.9676C18.9838 17.8961 18.984 17.8246 18.9842 17.7532C18.984 17.7198 18.9837 17.6864 18.9835 17.6519C18.9863 17.4146 19.0352 17.2873 19.1951 17.1074C19.3291 16.9902 19.4501 16.9948 19.6211 16.9937Z" fill="white"/>
<path d="M19.5825 21.6724C19.6282 21.6721 19.6739 21.6717 19.721 21.6713C19.7704 21.6715 19.8198 21.6718 19.8707 21.672C19.923 21.6719 19.9753 21.6718 20.0275 21.6717C20.1376 21.6715 20.2477 21.6718 20.3578 21.6723C20.4954 21.673 20.6329 21.6726 20.7705 21.6719C21.8257 21.6675 22.8526 21.7623 23.883 22.0001C23.9204 22.0087 23.9578 22.0173 23.9963 22.0262C25.9996 22.4974 27.9249 23.4333 29.4771 24.7923C29.5311 24.8381 29.5861 24.8828 29.6415 24.927C29.9006 25.1341 30.1405 25.3547 30.3737 25.59C30.4308 25.6475 30.4883 25.7046 30.5459 25.7617C30.7899 26.0053 31.0119 26.2616 31.2268 26.5313C31.2686 26.5814 31.3107 26.6314 31.353 26.6812C31.8612 27.2862 32.2873 27.9515 32.6721 28.6407C32.6878 28.6685 32.7034 28.6964 32.7196 28.725C33.7389 30.5478 34.3101 32.6756 34.322 34.7635C34.3222 34.7899 34.3223 34.8163 34.3225 34.8435C34.3233 34.9829 34.3239 35.1222 34.3242 35.2615C34.3247 35.4047 34.326 35.5478 34.3276 35.691C34.3286 35.802 34.3289 35.9129 34.329 36.0239C34.3293 36.1022 34.3304 36.1805 34.3314 36.2588C34.3303 36.7067 34.3303 36.7067 34.1565 36.8829C33.9848 37.0299 33.8068 37.0177 33.5914 37.017C33.5558 37.0172 33.5203 37.0174 33.4836 37.0176C33.4085 37.0179 33.3334 37.0178 33.2583 37.0175C33.1438 37.0172 33.0293 37.0183 32.9148 37.0195C32.8417 37.0196 32.7685 37.0196 32.6954 37.0195C32.6614 37.0199 32.6273 37.0203 32.5922 37.0208C32.3793 37.0184 32.252 36.99 32.0861 36.8438C31.9831 36.6998 31.9538 36.5987 31.9503 36.4225C31.9492 36.3778 31.948 36.3332 31.9468 36.2871C31.9457 36.2149 31.9457 36.2149 31.9445 36.1412C31.9426 36.0641 31.9406 35.987 31.9386 35.9099C31.9352 35.7745 31.9326 35.639 31.9299 35.5035C31.9113 34.5915 31.8692 33.6903 31.6735 32.796C31.6589 32.7288 31.6589 32.7288 31.6439 32.6602C31.1357 30.4415 29.8959 28.2777 28.1408 26.8048C28.118 26.7856 28.0951 26.7663 28.0716 26.7465C26.6427 25.5501 24.9685 24.7075 23.1433 24.3145C23.0932 24.3036 23.0932 24.3036 23.0421 24.2924C22.1469 24.1113 21.2457 24.0855 20.336 24.0701C20.2291 24.0682 20.1223 24.066 20.0155 24.0633C19.9162 24.0609 19.8169 24.0591 19.7176 24.0579C19.2969 24.0469 19.2969 24.0469 19.1174 23.8751C18.9704 23.7034 18.9825 23.5254 18.9833 23.3101C18.9831 23.2745 18.9829 23.2389 18.9826 23.2022C18.9824 23.1271 18.9824 23.0521 18.9828 22.977C18.9831 22.8624 18.982 22.7479 18.9807 22.6334C18.9807 22.5603 18.9807 22.4872 18.9808 22.4141C18.9804 22.38 18.9799 22.3459 18.9795 22.3108C18.9819 22.0979 19.0103 21.9706 19.1565 21.8048C19.3026 21.6995 19.4034 21.6728 19.5825 21.6724Z" fill="white"/>
<path d="M19.5688 26.3592C19.6115 26.3587 19.6542 26.3582 19.6982 26.3577C19.7674 26.3579 19.7674 26.3579 19.8379 26.3581C19.8863 26.3579 19.9347 26.3576 19.9845 26.3574C20.0874 26.3572 20.1903 26.3572 20.2932 26.3576C20.4468 26.3581 20.6004 26.3568 20.754 26.3555C22.6853 26.3501 24.5687 26.9053 26.1096 28.0937C26.147 28.1222 26.1845 28.1507 26.2231 28.1801C26.9112 28.7174 27.5168 29.3372 28.0236 30.0469C28.0404 30.0697 28.0572 30.0926 28.0745 30.1161C28.608 30.8447 29.0063 31.6867 29.2736 32.5469C29.2832 32.5772 29.2928 32.6075 29.3027 32.6388C29.5797 33.5354 29.6517 34.4613 29.6456 35.3951C29.645 35.4981 29.6449 35.601 29.6456 35.704C29.6465 35.8555 29.6464 36.007 29.646 36.1585C29.6463 36.2044 29.6466 36.2503 29.6469 36.2975C29.6442 36.5356 29.6409 36.7015 29.469 36.8828C29.2973 37.0298 29.1193 37.0177 28.9039 37.0169C28.8683 37.0171 28.8328 37.0173 28.7961 37.0176C28.721 37.0178 28.6459 37.0178 28.5708 37.0174C28.4563 37.0171 28.3418 37.0182 28.2273 37.0194C28.1542 37.0195 28.081 37.0195 28.0079 37.0194C27.9739 37.0198 27.9398 37.0203 27.9047 37.0207C27.6918 37.0183 27.5645 36.9899 27.3986 36.8437C27.2671 36.6842 27.2637 36.5285 27.2628 36.3294C27.2619 36.2829 27.2619 36.2829 27.261 36.2354C27.2591 36.1363 27.2581 36.0371 27.257 35.938C27.2551 35.8088 27.2529 35.6797 27.2506 35.5506C27.2498 35.5026 27.2498 35.5026 27.249 35.4537C27.2448 35.2303 27.2367 35.0075 27.2248 34.7844C27.2234 34.7566 27.222 34.7288 27.2205 34.7001C27.1737 33.8881 26.9363 33.0791 26.5783 32.3516C26.5663 32.3269 26.5544 32.3023 26.542 32.2769C25.8154 30.7987 24.5113 29.6705 22.9569 29.1329C22.3864 28.9413 21.8221 28.8085 21.2191 28.776C21.1888 28.7743 21.1584 28.7726 21.1272 28.7709C20.9018 28.7593 20.6767 28.7538 20.451 28.7509C20.4192 28.7505 20.3874 28.75 20.3546 28.7495C20.2247 28.7476 20.0949 28.7458 19.965 28.7451C19.8682 28.7445 19.7714 28.7429 19.6746 28.7412C19.6456 28.7412 19.6165 28.7413 19.5866 28.7414C19.3859 28.7367 19.2698 28.6924 19.1174 28.5625C18.9704 28.3908 18.9825 28.2128 18.9833 27.9975C18.9831 27.9619 18.9829 27.9263 18.9826 27.8896C18.9824 27.8145 18.9824 27.7395 18.9828 27.6644C18.9831 27.5498 18.982 27.4354 18.9807 27.3208C18.9807 27.2477 18.9807 27.1746 18.9808 27.1015C18.9804 27.0674 18.9799 27.0333 18.9795 26.9982C18.9819 26.7853 19.0103 26.658 19.1565 26.4922C19.2982 26.3911 19.3955 26.3602 19.5688 26.3592Z" fill="white"/>
<path d="M19.6211 16.9937C19.6688 16.9933 19.7165 16.993 19.7657 16.9926C19.8182 16.9924 19.8707 16.9922 19.9232 16.9921C19.9501 16.992 19.9769 16.9919 20.0045 16.9917C20.1477 16.9912 20.291 16.9908 20.4342 16.9906C20.5502 16.9905 20.6661 16.9899 20.7821 16.989C21.5891 16.9829 22.3777 17.0201 23.1795 17.1172C23.2135 17.1213 23.2476 17.1254 23.2827 17.1296C23.4588 17.1513 23.6341 17.1768 23.8093 17.2051C23.8344 17.2091 23.8595 17.2131 23.8853 17.2172C27.2939 17.7631 30.5003 19.3626 33.0459 21.6799C33.1121 21.74 33.1788 21.7995 33.2458 21.8587C33.2803 21.8892 33.3148 21.9197 33.3504 21.9512C33.3813 21.9784 33.4122 22.0056 33.444 22.0336C33.5347 22.1207 33.6096 22.2138 33.6873 22.3125C33.1274 22.8724 32.5675 23.4323 32.0076 23.9922C31.6553 23.6773 31.6553 23.6773 31.4972 23.528C31.2192 23.2662 30.9317 23.0246 30.6282 22.7929C30.5662 22.7452 30.5049 22.6965 30.4437 22.6477C28.3272 20.9736 25.707 19.9267 23.0476 19.5464C23.0189 19.5423 22.9901 19.5382 22.9605 19.5339C22.4318 19.4591 21.9078 19.4183 21.3736 19.4081C21.234 19.4053 21.0943 19.4017 20.9546 19.3983C20.7784 19.3941 20.6022 19.39 20.4259 19.3868C20.282 19.3841 20.138 19.3807 19.9941 19.3768C19.9397 19.3754 19.8852 19.3743 19.8308 19.3736C19.2972 19.3655 19.2972 19.3655 19.117 19.1875C18.9714 19.0168 18.9827 18.8435 18.9842 18.6296C18.9841 18.5948 18.984 18.56 18.9839 18.5242C18.9838 18.4508 18.984 18.3773 18.9845 18.3039C18.9851 18.1918 18.9845 18.0797 18.9837 17.9676C18.9838 17.8961 18.984 17.8246 18.9842 17.7532C18.984 17.7198 18.9837 17.6864 18.9835 17.6519C18.9863 17.4146 19.0352 17.2873 19.1951 17.1074C19.3291 16.9902 19.4501 16.9948 19.6211 16.9937Z" fill="white"/>
<path d="M19.5825 21.6724C19.6282 21.6721 19.6739 21.6717 19.721 21.6713C19.7704 21.6715 19.8198 21.6718 19.8707 21.672C19.923 21.6719 19.9753 21.6718 20.0275 21.6717C20.1376 21.6715 20.2477 21.6718 20.3578 21.6723C20.4954 21.673 20.6329 21.6726 20.7705 21.6719C21.8257 21.6675 22.8526 21.7623 23.883 22.0001C23.9204 22.0087 23.9578 22.0173 23.9963 22.0262C25.9762 22.4919 27.893 23.4124 29.4317 24.752C29.5422 24.8475 29.6551 24.9388 29.7692 25.0299C29.9837 25.204 30.1759 25.3949 30.3674 25.5938C30.1925 25.8034 30.0075 25.998 29.8138 26.1903C29.784 26.2201 29.7541 26.2499 29.7234 26.2805C29.6289 26.3748 29.5343 26.4689 29.4397 26.5631C29.3755 26.627 29.3114 26.691 29.2472 26.755C29.1068 26.8951 28.9662 27.0351 28.8255 27.175C28.7795 27.2208 28.7336 27.2667 28.6877 27.3126C28.6338 27.2608 28.6338 27.2608 28.5788 27.2081C28.2516 26.8968 27.917 26.6059 27.5549 26.336C27.5332 26.3197 27.5115 26.3034 27.4892 26.2867C26.1998 25.3225 24.7165 24.6532 23.1433 24.3145C23.0932 24.3036 23.0932 24.3036 23.0421 24.2924C22.1469 24.1113 21.2457 24.0855 20.336 24.0701C20.2291 24.0682 20.1223 24.066 20.0155 24.0633C19.9162 24.0609 19.8169 24.0591 19.7176 24.0579C19.2969 24.0469 19.2969 24.0469 19.1174 23.8751C18.9704 23.7034 18.9825 23.5254 18.9833 23.3101C18.9831 23.2745 18.9829 23.2389 18.9826 23.2022C18.9824 23.1271 18.9824 23.0521 18.9828 22.977C18.9831 22.8624 18.982 22.7479 18.9807 22.6334C18.9807 22.5603 18.9807 22.4872 18.9808 22.4141C18.9804 22.38 18.9799 22.3459 18.9795 22.3108C18.9819 22.0979 19.0103 21.9706 19.1565 21.8048C19.3026 21.6995 19.4034 21.6728 19.5825 21.6724Z" fill="white"/>
<path d="M19.5688 26.3592C19.6115 26.3587 19.6542 26.3582 19.6982 26.3577C19.7674 26.3579 19.7674 26.3579 19.8379 26.3581C19.8863 26.3579 19.9347 26.3576 19.9845 26.3574C20.0874 26.3572 20.1903 26.3572 20.2932 26.3576C20.4468 26.3581 20.6004 26.3568 20.754 26.3555C22.6853 26.3501 24.5687 26.9053 26.1096 28.0937C26.147 28.1222 26.1845 28.1507 26.2231 28.1801C26.5216 28.4132 26.8124 28.6549 27.0471 28.9531C26.2072 29.793 26.2072 29.793 25.3674 30.6328C25.3399 30.6063 25.3124 30.5798 25.2841 30.5525C24.1922 29.5165 22.7267 28.8574 21.2191 28.776C21.1888 28.7743 21.1584 28.7726 21.1272 28.7709C20.9018 28.7593 20.6767 28.7538 20.451 28.7509C20.4192 28.7505 20.3874 28.75 20.3546 28.7495C20.2247 28.7476 20.0949 28.7458 19.965 28.7451C19.8682 28.7445 19.7714 28.7429 19.6746 28.7412C19.6456 28.7412 19.6165 28.7413 19.5866 28.7414C19.3859 28.7367 19.2698 28.6924 19.1174 28.5625C18.9704 28.3908 18.9825 28.2128 18.9833 27.9975C18.9831 27.9619 18.9829 27.9263 18.9826 27.8896C18.9824 27.8145 18.9824 27.7395 18.9828 27.6644C18.9831 27.5498 18.982 27.4354 18.9807 27.3208C18.9807 27.2477 18.9807 27.1746 18.9808 27.1015C18.9804 27.0674 18.9799 27.0333 18.9795 26.9982C18.9819 26.7853 19.0103 26.658 19.1565 26.4922C19.2982 26.3911 19.3955 26.3602 19.5688 26.3592Z" fill="white"/>
<path d="M23.0308 32.962C23.5197 33.4757 23.7326 34.0695 23.7266 34.7735C23.6868 35.396 23.4094 35.9907 22.9544 36.4202C22.3375 36.9302 21.6954 37.0588 20.9141 37.0001C20.7328 36.9684 20.5742 36.9186 20.4063 36.8438C20.3697 36.8277 20.3331 36.8116 20.2954 36.795C19.7123 36.5072 19.3006 36.0032 19.0782 35.3985C18.9171 34.8677 18.9308 34.2265 19.1563 33.7188C19.172 33.6827 19.1877 33.6465 19.2038 33.6093C19.4697 33.0651 19.9456 32.6254 20.5149 32.419C21.4144 32.1169 22.3328 32.3074 23.0308 32.962Z" fill="white"/>
<path d="M22.8979 32.8508C22.9527 32.9155 22.9527 32.9155 23.0235 33.0156C23.0046 33.0318 22.9856 33.048 22.9661 33.0646C22.7693 33.2345 22.5828 33.4119 22.3994 33.5962C22.3701 33.6256 22.3407 33.655 22.3104 33.6852C22.2144 33.7813 22.1184 33.8775 22.0225 33.9737C21.9556 34.0408 21.8886 34.1078 21.8216 34.1749C21.646 34.3505 21.4706 34.5263 21.2953 34.7021C21.116 34.8818 20.9365 35.0614 20.7571 35.241C20.4057 35.5929 20.0544 35.9448 19.7032 36.2969C19.3716 36.1434 19.1991 35.7271 19.0782 35.3984C18.9171 34.8676 18.9308 34.2265 19.1563 33.7187C19.172 33.6826 19.1877 33.6464 19.2038 33.6092C19.4697 33.065 19.9456 32.6253 20.5149 32.4189C21.3009 32.1549 22.2817 32.2359 22.8979 32.8508Z" fill="white"/>
</g>
</g>
</g>
<defs>
<linearGradient id="paint0_linear_2719_7226" x1="27.0768" y1="12.5035" x2="27.0768" y2="45.7334" gradientUnits="userSpaceOnUse">
<stop stop-color="#10BE77"/>
<stop offset="1" stop-color="#2196F3"/>
</linearGradient>
<clipPath id="clip0_2719_7226">
<rect width="44" height="59" fill="white"/>
</clipPath>
</defs>
</svg>
