<svg width="32" height="32" viewBox="0 0 32 32" fill="none" xmlns="http://www.w3.org/2000/svg">
<path d="M6 4.86207C6 3.83368 6.82655 3 7.84615 3H18.9231C19.9427 3 20.7692 3.83368 20.7692 4.86207V28.1379C20.7692 29.1663 19.9427 30 18.9231 30H7.84615C6.82655 30 6 29.1663 6 28.1379V4.86207Z" fill="#10BE77"/>
<path d="M6.2334 5.68402C10.9534 5.68402 15.6733 5.68402 20.5363 5.68402C20.5363 12.785 20.5363 19.8859 20.5363 27.2021C20.0802 27.2021 19.624 27.2021 19.1541 27.2021C19.1507 26.9317 19.1507 26.9317 19.1473 26.6558C19.1445 26.4809 19.1414 26.306 19.1383 26.1311C19.1363 26.0096 19.1346 25.8882 19.1332 25.7668C19.1312 25.5921 19.1281 25.4174 19.1247 25.2428C19.1242 25.1616 19.1242 25.1616 19.1236 25.0788C19.1168 24.7893 19.1023 24.587 18.9137 24.3532C18.7709 24.2812 18.6828 24.2842 18.5235 24.283C18.4667 24.2824 18.4099 24.2818 18.3514 24.2812C18.2576 24.2807 18.2576 24.2807 18.162 24.2801C18.0963 24.2795 18.0307 24.2789 17.963 24.2783C17.7451 24.2764 17.5273 24.2749 17.3094 24.2734C17.1587 24.2722 17.0079 24.2709 16.8572 24.2696C16.5005 24.2666 16.1438 24.2638 15.7871 24.2612C15.3412 24.2579 14.8953 24.2542 14.4494 24.2506C13.6539 24.244 12.8583 24.2379 12.0627 24.232C12.0794 24.2766 12.096 24.3212 12.1132 24.3672C12.135 24.4263 12.1567 24.4855 12.1791 24.5464C12.2008 24.6048 12.2224 24.6631 12.2447 24.7233C12.4876 25.4525 12.4449 26.3266 12.1228 27.0202C12.0831 27.0802 12.0435 27.1403 12.0026 27.2021C10.0988 27.2021 8.19494 27.2021 6.2334 27.2021C6.2334 20.1011 6.2334 13.0002 6.2334 5.68402Z" fill="#FDFEFE"/>
<path d="M8.50999 7.12984C8.55303 7.12962 8.59607 7.12938 8.64041 7.12916C8.78537 7.12848 8.93032 7.12826 9.07527 7.12804C9.1789 7.12764 9.28253 7.12723 9.38619 7.12683C9.66829 7.12577 9.95041 7.12512 10.2325 7.12463C10.4087 7.12432 10.5849 7.12394 10.7611 7.12357C11.3122 7.12239 11.8632 7.12155 12.4143 7.12103C13.0508 7.12044 13.6872 7.11885 14.3237 7.1164C14.8154 7.11457 15.3071 7.11367 15.7988 7.11349C16.0925 7.11333 16.3863 7.1128 16.6801 7.11125C16.9565 7.10985 17.2329 7.10961 17.5094 7.11023C17.6108 7.11026 17.7122 7.10985 17.8136 7.10905C17.9522 7.10796 18.0907 7.1084 18.2292 7.1092C18.3455 7.10899 18.3455 7.10899 18.4641 7.10874C18.7417 7.14855 18.9404 7.26199 19.1155 7.48522C19.176 7.70209 19.1713 7.91818 19.1706 8.1416C19.1709 8.19377 19.1712 8.24593 19.1715 8.29969C19.1724 8.47205 19.1723 8.64442 19.1722 8.81678C19.1724 8.93664 19.1727 9.05652 19.173 9.17641C19.1734 9.42766 19.1734 9.67892 19.1731 9.93018C19.1727 10.2521 19.1738 10.574 19.1751 10.8959C19.176 11.1434 19.1761 11.391 19.1759 11.6386C19.1759 11.7573 19.1763 11.8759 19.1768 11.9946C19.1776 12.1606 19.1772 12.3266 19.1765 12.4926C19.1769 12.5415 19.1774 12.5905 19.1779 12.641C19.1753 12.9197 19.1488 13.1022 18.9738 13.3214C18.7617 13.5292 18.5898 13.5262 18.3004 13.5268C18.2349 13.5272 18.2349 13.5272 18.1681 13.5277C18.0217 13.5286 17.8754 13.5282 17.729 13.5278C17.624 13.5281 17.5191 13.5285 17.4141 13.529C17.1291 13.5301 16.844 13.53 16.5589 13.5297C16.321 13.5295 16.0831 13.5299 15.8452 13.5302C15.2839 13.5311 14.7227 13.531 14.1615 13.5303C13.5823 13.5296 13.0032 13.5305 12.424 13.5321C11.9269 13.5334 11.4298 13.5338 10.9327 13.5335C10.6357 13.5332 10.3388 13.5334 10.0418 13.5344C9.76256 13.5354 9.48333 13.5351 9.2041 13.534C9.10161 13.5338 8.9991 13.534 8.8966 13.5346C8.75669 13.5354 8.61686 13.5347 8.47694 13.5336C8.39865 13.5336 8.32035 13.5336 8.23969 13.5336C8.00267 13.4982 7.90398 13.4295 7.73584 13.2608C7.63611 13.0596 7.66525 12.8344 7.66416 12.6131C7.66366 12.5586 7.66318 12.5041 7.66267 12.4479C7.66117 12.267 7.66018 12.0862 7.65932 11.9053C7.659 11.8435 7.65868 11.7818 7.65834 11.7183C7.65674 11.3917 7.65558 11.0652 7.65471 10.7386C7.65371 10.4011 7.65102 10.0636 7.64796 9.72603C7.64594 9.46671 7.64524 9.20738 7.6449 8.94806C7.6445 8.82361 7.64358 8.69919 7.64214 8.57474C7.64024 8.40061 7.64024 8.22654 7.64068 8.0524C7.6397 8.00095 7.63871 7.94952 7.6377 7.89655C7.64046 7.63229 7.65089 7.53366 7.82067 7.32033C8.06706 7.12875 8.19923 7.13086 8.50999 7.12984Z" fill="#3AE0C5"/>
<path d="M8.50999 7.12984C8.55303 7.12962 8.59607 7.12938 8.64041 7.12916C8.78537 7.12848 8.93032 7.12826 9.07527 7.12804C9.1789 7.12764 9.28253 7.12723 9.38619 7.12683C9.66829 7.12577 9.95041 7.12512 10.2325 7.12463C10.4087 7.12432 10.5849 7.12394 10.7611 7.12357C11.3122 7.12239 11.8632 7.12155 12.4143 7.12103C13.0508 7.12044 13.6872 7.11885 14.3237 7.1164C14.8154 7.11457 15.3071 7.11367 15.7988 7.11349C16.0925 7.11333 16.3863 7.1128 16.6801 7.11125C16.9565 7.10985 17.2329 7.10961 17.5094 7.11023C17.6108 7.11026 17.7122 7.10985 17.8136 7.10905C17.9522 7.10796 18.0907 7.1084 18.2292 7.1092C18.3455 7.10899 18.3455 7.10899 18.4641 7.10874C18.7417 7.14855 18.9404 7.26199 19.1155 7.48522C19.176 7.70209 19.1713 7.91818 19.1706 8.1416C19.1709 8.19377 19.1712 8.24593 19.1715 8.29969C19.1724 8.47205 19.1723 8.64442 19.1722 8.81678C19.1724 8.93664 19.1727 9.05652 19.173 9.17641C19.1734 9.42766 19.1734 9.67892 19.1731 9.93018C19.1727 10.2521 19.1738 10.574 19.1751 10.8959C19.176 11.1434 19.1761 11.391 19.1759 11.6386C19.1759 11.7573 19.1763 11.8759 19.1768 11.9946C19.1776 12.1606 19.1772 12.3266 19.1765 12.4926C19.1769 12.5415 19.1774 12.5905 19.1779 12.641C19.1753 12.9197 19.1488 13.1022 18.9738 13.3214C18.7617 13.5292 18.5898 13.5262 18.3004 13.5268C18.2349 13.5272 18.2349 13.5272 18.1681 13.5277C18.0217 13.5286 17.8754 13.5282 17.729 13.5278C17.624 13.5281 17.5191 13.5285 17.4141 13.529C17.1291 13.5301 16.844 13.53 16.5589 13.5297C16.321 13.5295 16.0831 13.5299 15.8452 13.5302C15.2839 13.5311 14.7227 13.531 14.1615 13.5303C13.5823 13.5296 13.0032 13.5305 12.424 13.5321C11.9269 13.5334 11.4298 13.5338 10.9327 13.5335C10.6357 13.5332 10.3388 13.5334 10.0418 13.5344C9.76256 13.5354 9.48333 13.5351 9.2041 13.534C9.10161 13.5338 8.9991 13.534 8.8966 13.5346C8.75669 13.5354 8.61686 13.5347 8.47694 13.5336C8.39865 13.5336 8.32035 13.5336 8.23969 13.5336C8.00267 13.4982 7.90398 13.4295 7.73584 13.2608C7.63611 13.0596 7.66525 12.8344 7.66416 12.6131C7.66366 12.5586 7.66318 12.5041 7.66267 12.4479C7.66117 12.267 7.66018 12.0862 7.65932 11.9053C7.659 11.8435 7.65868 11.7818 7.65834 11.7183C7.65674 11.3917 7.65558 11.0652 7.65471 10.7386C7.65371 10.4011 7.65102 10.0636 7.64796 9.72603C7.64594 9.46671 7.64524 9.20738 7.6449 8.94806C7.6445 8.82361 7.64358 8.69919 7.64214 8.57474C7.64024 8.40061 7.64024 8.22654 7.64068 8.0524C7.6397 8.00095 7.63871 7.94952 7.6377 7.89655C7.64046 7.63229 7.65089 7.53366 7.82067 7.32033C8.06706 7.12875 8.19923 7.13086 8.50999 7.12984Z" fill="white" fill-opacity="0.2"/>
<path d="M12.0626 24.2319C12.935 24.2248 13.8074 24.2195 14.6798 24.2162C15.0849 24.2147 15.4899 24.2126 15.895 24.2091C16.2858 24.2057 16.6767 24.204 17.0675 24.2032C17.2167 24.2026 17.3659 24.2015 17.5151 24.1999C17.7239 24.1977 17.9326 24.1974 18.1414 24.1975C18.2033 24.1964 18.2651 24.1954 18.3289 24.1942C18.749 24.1973 18.749 24.1973 18.9806 24.378C19.122 24.5741 19.1615 24.6664 19.1608 24.9037C19.1608 24.9547 19.1608 25.0056 19.1608 25.0581C19.1603 25.1407 19.1603 25.1407 19.1598 25.225C19.1597 25.3095 19.1597 25.3095 19.1596 25.3957C19.1592 25.576 19.1585 25.7564 19.1577 25.9367C19.1574 26.0588 19.1571 26.1809 19.1569 26.303C19.1563 26.6027 19.1551 26.9023 19.154 27.202C19.6101 27.202 20.0662 27.202 20.5362 27.202C20.5814 28.5804 20.5814 28.5804 20.2357 28.9598C19.932 29.2858 19.6032 29.485 19.1575 29.5284C19.0696 29.5295 18.9817 29.5296 18.8938 29.5289C18.845 29.5292 18.7963 29.5295 18.746 29.5298C18.5834 29.5307 18.4209 29.5303 18.2583 29.5298C18.1414 29.5302 18.0245 29.5306 17.9076 29.5311C17.5906 29.5322 17.2736 29.5321 16.9566 29.5318C16.6917 29.5316 16.4267 29.532 16.1618 29.5323C15.5366 29.5332 14.9114 29.5331 14.2861 29.5324C13.6418 29.5317 12.9976 29.5326 12.3534 29.5342C11.7996 29.5355 11.2458 29.5359 10.692 29.5356C10.3616 29.5354 10.0311 29.5355 9.70068 29.5366C9.38976 29.5375 9.07886 29.5373 8.76796 29.5361C8.65415 29.5359 8.54034 29.5361 8.42653 29.5367C7.17228 29.5432 7.17228 29.5432 6.67462 29.1306C6.63805 29.0855 6.60149 29.0404 6.56382 28.9939C6.52601 28.949 6.48821 28.9041 6.44926 28.8578C6.07975 28.3161 6.23329 27.9535 6.23329 27.202C9.08905 27.172 9.08905 27.172 12.0025 27.1414C12.3256 26.3268 12.4485 25.5207 12.168 24.6721C12.1199 24.5265 12.0913 24.3825 12.0626 24.2319Z" fill="#3AE0C5"/>
<path d="M12.0626 24.2319C12.935 24.2248 13.8074 24.2195 14.6798 24.2162C15.0849 24.2147 15.4899 24.2126 15.895 24.2091C16.2858 24.2057 16.6767 24.204 17.0675 24.2032C17.2167 24.2026 17.3659 24.2015 17.5151 24.1999C17.7239 24.1977 17.9326 24.1974 18.1414 24.1975C18.2033 24.1964 18.2651 24.1954 18.3289 24.1942C18.749 24.1973 18.749 24.1973 18.9806 24.378C19.122 24.5741 19.1615 24.6664 19.1608 24.9037C19.1608 24.9547 19.1608 25.0056 19.1608 25.0581C19.1603 25.1407 19.1603 25.1407 19.1598 25.225C19.1597 25.3095 19.1597 25.3095 19.1596 25.3957C19.1592 25.576 19.1585 25.7564 19.1577 25.9367C19.1574 26.0588 19.1571 26.1809 19.1569 26.303C19.1563 26.6027 19.1551 26.9023 19.154 27.202C19.6101 27.202 20.0662 27.202 20.5362 27.202C20.5814 28.5804 20.5814 28.5804 20.2357 28.9598C19.932 29.2858 19.6032 29.485 19.1575 29.5284C19.0696 29.5295 18.9817 29.5296 18.8938 29.5289C18.845 29.5292 18.7963 29.5295 18.746 29.5298C18.5834 29.5307 18.4209 29.5303 18.2583 29.5298C18.1414 29.5302 18.0245 29.5306 17.9076 29.5311C17.5906 29.5322 17.2736 29.5321 16.9566 29.5318C16.6917 29.5316 16.4267 29.532 16.1618 29.5323C15.5366 29.5332 14.9114 29.5331 14.2861 29.5324C13.6418 29.5317 12.9976 29.5326 12.3534 29.5342C11.7996 29.5355 11.2458 29.5359 10.692 29.5356C10.3616 29.5354 10.0311 29.5355 9.70068 29.5366C9.38976 29.5375 9.07886 29.5373 8.76796 29.5361C8.65415 29.5359 8.54034 29.5361 8.42653 29.5367C7.17228 29.5432 7.17228 29.5432 6.67462 29.1306C6.63805 29.0855 6.60149 29.0404 6.56382 28.9939C6.52601 28.949 6.48821 28.9041 6.44926 28.8578C6.07975 28.3161 6.23329 27.9535 6.23329 27.202C9.08905 27.172 9.08905 27.172 12.0025 27.1414C12.3256 26.3268 12.4485 25.5207 12.168 24.6721C12.1199 24.5265 12.0913 24.3825 12.0626 24.2319Z" fill="white" fill-opacity="0.2"/>
<path d="M19.0336 8.83594C19.1462 8.9495 19.1043 9.14219 19.1063 9.29367C19.1068 9.3352 19.1074 9.37669 19.108 9.41942C19.1098 9.55737 19.1111 9.69529 19.1123 9.83324C19.1126 9.88029 19.113 9.92733 19.1134 9.97581C19.1154 10.2249 19.1169 10.474 19.118 10.7232C19.1191 10.9295 19.1212 11.1357 19.1242 11.3419C19.1278 11.5908 19.1297 11.8396 19.1303 12.0885C19.1308 12.1833 19.1319 12.2781 19.1337 12.373C19.136 12.5059 19.1361 12.6387 19.1356 12.7717C19.1365 12.885 19.1365 12.885 19.1375 13.0007C19.091 13.2127 19.0338 13.3206 18.8571 13.4485C18.5851 13.5686 18.2887 13.5422 17.9971 13.5376C17.9232 13.5377 17.8493 13.5377 17.7731 13.5378C17.5712 13.5376 17.3694 13.5361 17.1675 13.534C16.9563 13.5321 16.745 13.5319 16.5337 13.5315C16.134 13.5306 15.7344 13.5281 15.3347 13.5251C14.8795 13.5217 14.4243 13.52 13.9691 13.5185C13.0331 13.5153 12.097 13.51 11.161 13.5033C11.16 13.3382 11.1592 13.1732 11.1587 13.0081C11.1584 12.9617 11.158 12.9152 11.1577 12.8674C11.1568 12.5373 11.18 12.2243 11.2474 11.9008C11.2555 11.8573 11.2636 11.8138 11.2719 11.769C11.3302 11.4647 11.3302 11.4647 11.4014 11.3211C11.4572 11.3199 11.513 11.3187 11.5705 11.3175C11.7773 11.3127 11.984 11.3075 12.1908 11.3019C12.2803 11.2996 12.3698 11.2974 12.4594 11.2956C12.588 11.2928 12.7165 11.2893 12.8451 11.2856C12.9225 11.2837 13 11.2818 13.0797 11.2798C13.2707 11.2796 13.2707 11.2796 13.3846 11.1393C13.3672 10.9388 13.3672 10.9388 13.2644 10.7756C13.1487 10.766 13.0327 10.7604 12.9167 10.7564C12.8112 10.7526 12.8112 10.7526 12.7037 10.7487C12.6296 10.7463 12.5556 10.7439 12.4794 10.7415C12.4051 10.7389 12.3309 10.7363 12.2544 10.7336C12.0702 10.7271 11.886 10.7209 11.7019 10.715C11.7655 10.5087 11.8226 10.3505 11.9423 10.1695C12.0689 10.1461 12.0689 10.1461 12.2237 10.1448C12.2795 10.1435 12.3352 10.1422 12.3926 10.1408C12.4802 10.14 12.4802 10.14 12.5695 10.1391C12.6846 10.1381 12.7997 10.1362 12.9148 10.1335C12.9916 10.1328 12.9916 10.1328 13.0699 10.1322C13.2328 10.1039 13.2883 10.061 13.3846 9.92699C13.38 9.76775 13.38 9.76775 13.3245 9.62394C13.1701 9.54607 13.0381 9.54331 12.8662 9.52922C12.806 9.52413 12.7457 9.51904 12.6836 9.51383C12.6373 9.51017 12.5909 9.50648 12.5432 9.50269C13.0667 8.79364 13.8444 8.41133 14.6466 8.10856C14.7036 8.08662 14.7606 8.06464 14.8194 8.04205C16.2143 7.60235 17.8733 8.00512 19.0336 8.83594Z" fill="#10BE77"/>
<path d="M7.96557 3.37214C8.01325 3.37196 8.06093 3.37178 8.11005 3.37159C8.26999 3.37107 8.42993 3.37098 8.58987 3.37089C8.70448 3.37061 8.81909 3.3703 8.93371 3.36997C9.24524 3.36918 9.55678 3.36879 9.86835 3.36852C10.063 3.36834 10.2577 3.36809 10.4524 3.36782C11.0617 3.36699 11.6711 3.36641 12.2803 3.36617C12.9834 3.3659 13.6865 3.36484 14.3895 3.36308C14.9331 3.36177 15.4767 3.36116 16.0203 3.36108C16.3449 3.36101 16.6695 3.36066 16.9941 3.35957C17.2996 3.35858 17.605 3.35844 17.9105 3.35898C18.0224 3.35902 18.1343 3.35876 18.2462 3.35816C19.6512 3.35107 19.6512 3.35107 20.1757 3.86557C20.6389 4.48399 20.5363 4.7817 20.5363 5.684C15.8163 5.684 11.0964 5.684 6.2334 5.684C6.2334 4.33701 6.2334 4.33701 6.609 3.88451C7.05397 3.5071 7.38476 3.37145 7.96557 3.37214Z" fill="#10BE77"/>
<path d="M7.96557 3.37214C8.01325 3.37196 8.06093 3.37178 8.11005 3.37159C8.26999 3.37107 8.42993 3.37098 8.58987 3.37089C8.70448 3.37061 8.81909 3.3703 8.93371 3.36997C9.24524 3.36918 9.55678 3.36879 9.86835 3.36852C10.063 3.36834 10.2577 3.36809 10.4524 3.36782C11.0617 3.36699 11.6711 3.36641 12.2803 3.36617C12.9834 3.3659 13.6865 3.36484 14.3895 3.36308C14.9331 3.36177 15.4767 3.36116 16.0203 3.36108C16.3449 3.36101 16.6695 3.36066 16.9941 3.35957C17.2996 3.35858 17.605 3.35844 17.9105 3.35898C18.0224 3.35902 18.1343 3.35876 18.2462 3.35816C19.6512 3.35107 19.6512 3.35107 20.1757 3.86557C20.6389 4.48399 20.5363 4.7817 20.5363 5.684C15.8163 5.684 11.0964 5.684 6.2334 5.684C6.2334 4.33701 6.2334 4.33701 6.609 3.88451C7.05397 3.5071 7.38476 3.37145 7.96557 3.37214Z" fill="white" fill-opacity="0.2"/>
<path d="M7.96557 3.37214C8.01325 3.37196 8.06093 3.37178 8.11005 3.37159C8.26999 3.37107 8.42993 3.37098 8.58987 3.37089C8.70448 3.37061 8.81909 3.3703 8.93371 3.36997C9.24524 3.36918 9.55678 3.36879 9.86835 3.36852C10.063 3.36834 10.2577 3.36809 10.4524 3.36782C11.0617 3.36699 11.6711 3.36641 12.2803 3.36617C12.9834 3.3659 13.6865 3.36484 14.3895 3.36308C14.9331 3.36177 15.4767 3.36116 16.0203 3.36108C16.3449 3.36101 16.6695 3.36066 16.9941 3.35957C17.2996 3.35858 17.605 3.35844 17.9105 3.35898C18.0224 3.35902 18.1343 3.35876 18.2462 3.35816C19.6512 3.35107 19.6512 3.35107 20.1757 3.86557C20.6389 4.48399 20.5363 4.7817 20.5363 5.684C15.8163 5.684 11.0964 5.684 6.2334 5.684C6.2334 4.33701 6.2334 4.33701 6.609 3.88451C7.05397 3.5071 7.38476 3.37145 7.96557 3.37214Z" fill="#3AE0C5" fill-opacity="0.2"/>
<path d="M12.0625 24.2319C12.9349 24.2248 13.8073 24.2195 14.6797 24.2162C15.0848 24.2147 15.4899 24.2126 15.8949 24.2091C16.2858 24.2057 16.6766 24.204 17.0674 24.2032C17.2166 24.2026 17.3658 24.2015 17.515 24.1999C17.7238 24.1977 17.9325 24.1974 18.1413 24.1975C18.2032 24.1964 18.2651 24.1954 18.3288 24.1942C18.7489 24.1973 18.7489 24.1973 18.9805 24.378C19.5307 25.1406 19.1539 26.2589 19.1539 27.202C16.7939 27.202 14.4339 27.202 12.0024 27.202C12.1016 26.902 12.2007 26.602 12.3029 26.2928C12.3267 26.0905 12.3416 25.9298 12.333 25.7321C12.3316 25.6637 12.3316 25.6637 12.3301 25.5938C12.3187 25.2733 12.2688 24.9774 12.1679 24.6721C12.1198 24.5265 12.0912 24.3825 12.0625 24.2319Z" fill="#02FEB3"/>
<path d="M8.12508 18.639C8.17101 18.6393 8.21693 18.6395 8.26425 18.6398C8.33682 18.6395 8.33682 18.6395 8.41085 18.6391C8.57128 18.6386 8.73168 18.639 8.8921 18.6394C9.00333 18.6393 9.11457 18.6392 9.2258 18.639C9.45915 18.6388 9.6925 18.6391 9.92586 18.6397C10.2252 18.6403 10.5246 18.64 10.8239 18.6392C11.0537 18.6388 11.2835 18.639 11.5133 18.6393C11.6236 18.6393 11.734 18.6392 11.8444 18.639C11.9987 18.6386 12.1529 18.6391 12.3071 18.6398C12.3529 18.6395 12.3987 18.6393 12.4459 18.639C12.6714 18.6409 12.7713 18.6472 12.9639 18.7767C12.9868 18.8963 12.9868 18.8963 12.9872 19.0445C12.9878 19.0999 12.9883 19.1553 12.9889 19.2124C12.9885 19.2724 12.9882 19.3324 12.9878 19.3942C12.988 19.4556 12.9881 19.5171 12.9883 19.5804C12.9884 19.7104 12.9881 19.8404 12.9874 19.9705C12.9864 20.17 12.9873 20.3695 12.9885 20.5691C12.9884 20.6952 12.9882 20.8213 12.9878 20.9475C12.9882 21.0074 12.9885 21.0674 12.9889 21.1292C12.988 21.2124 12.988 21.2124 12.9872 21.2972C12.987 21.3461 12.9869 21.395 12.9868 21.4453C12.9792 21.4848 12.9716 21.5243 12.9639 21.5649C12.7397 21.7157 12.5665 21.7033 12.3071 21.7019C12.2586 21.7021 12.2102 21.7023 12.1602 21.7025C11.9998 21.703 11.8395 21.7027 11.6791 21.7023C11.5678 21.7024 11.4565 21.7025 11.3452 21.7026C11.1119 21.7028 10.8787 21.7026 10.6455 21.702C10.346 21.7013 10.0466 21.7017 9.74718 21.7024C9.5174 21.7029 9.28761 21.7027 9.05785 21.7024C8.94741 21.7023 8.83697 21.7024 8.72654 21.7027C8.57243 21.703 8.41835 21.7026 8.26425 21.7019C8.21833 21.7021 8.1724 21.7024 8.12508 21.7026C7.80932 21.7 7.80932 21.7 7.67539 21.5649C7.66013 21.4453 7.66013 21.4453 7.65984 21.2972C7.65946 21.2418 7.65908 21.1863 7.65869 21.1292C7.65893 21.0692 7.65918 21.0092 7.65943 20.9475C7.65932 20.886 7.6592 20.8246 7.65908 20.7613C7.659 20.6313 7.65922 20.5012 7.65972 20.3712C7.66037 20.1717 7.65973 19.9721 7.65896 19.7726C7.65904 19.6465 7.65919 19.5203 7.65943 19.3942C7.65919 19.3342 7.65894 19.2742 7.65869 19.2124C7.65907 19.157 7.65945 19.1016 7.65984 19.0445C7.65994 18.9956 7.66003 18.9467 7.66013 18.8963C7.69593 18.6157 7.89066 18.641 8.12508 18.639Z" fill="#3AE0C5"/>
<path d="M8.12508 18.639C8.17101 18.6393 8.21693 18.6395 8.26425 18.6398C8.33682 18.6395 8.33682 18.6395 8.41085 18.6391C8.57128 18.6386 8.73168 18.639 8.8921 18.6394C9.00333 18.6393 9.11457 18.6392 9.2258 18.639C9.45915 18.6388 9.6925 18.6391 9.92586 18.6397C10.2252 18.6403 10.5246 18.64 10.8239 18.6392C11.0537 18.6388 11.2835 18.639 11.5133 18.6393C11.6236 18.6393 11.734 18.6392 11.8444 18.639C11.9987 18.6386 12.1529 18.6391 12.3071 18.6398C12.3529 18.6395 12.3987 18.6393 12.4459 18.639C12.6714 18.6409 12.7713 18.6472 12.9639 18.7767C12.9868 18.8963 12.9868 18.8963 12.9872 19.0445C12.9878 19.0999 12.9883 19.1553 12.9889 19.2124C12.9885 19.2724 12.9882 19.3324 12.9878 19.3942C12.988 19.4556 12.9881 19.5171 12.9883 19.5804C12.9884 19.7104 12.9881 19.8404 12.9874 19.9705C12.9864 20.17 12.9873 20.3695 12.9885 20.5691C12.9884 20.6952 12.9882 20.8213 12.9878 20.9475C12.9882 21.0074 12.9885 21.0674 12.9889 21.1292C12.988 21.2124 12.988 21.2124 12.9872 21.2972C12.987 21.3461 12.9869 21.395 12.9868 21.4453C12.9792 21.4848 12.9716 21.5243 12.9639 21.5649C12.7397 21.7157 12.5665 21.7033 12.3071 21.7019C12.2586 21.7021 12.2102 21.7023 12.1602 21.7025C11.9998 21.703 11.8395 21.7027 11.6791 21.7023C11.5678 21.7024 11.4565 21.7025 11.3452 21.7026C11.1119 21.7028 10.8787 21.7026 10.6455 21.702C10.346 21.7013 10.0466 21.7017 9.74718 21.7024C9.5174 21.7029 9.28761 21.7027 9.05785 21.7024C8.94741 21.7023 8.83697 21.7024 8.72654 21.7027C8.57243 21.703 8.41835 21.7026 8.26425 21.7019C8.21833 21.7021 8.1724 21.7024 8.12508 21.7026C7.80932 21.7 7.80932 21.7 7.67539 21.5649C7.66013 21.4453 7.66013 21.4453 7.65984 21.2972C7.65946 21.2418 7.65908 21.1863 7.65869 21.1292C7.65893 21.0692 7.65918 21.0092 7.65943 20.9475C7.65932 20.886 7.6592 20.8246 7.65908 20.7613C7.659 20.6313 7.65922 20.5012 7.65972 20.3712C7.66037 20.1717 7.65973 19.9721 7.65896 19.7726C7.65904 19.6465 7.65919 19.5203 7.65943 19.3942C7.65919 19.3342 7.65894 19.2742 7.65869 19.2124C7.65907 19.157 7.65945 19.1016 7.65984 19.0445C7.65994 18.9956 7.66003 18.9467 7.66013 18.8963C7.69593 18.6157 7.89066 18.641 8.12508 18.639Z" fill="white" fill-opacity="0.2"/>
<path d="M14.2594 14.9415C14.306 14.9418 14.3526 14.942 14.4006 14.9423C14.4496 14.9421 14.4987 14.9419 14.5492 14.9417C14.7119 14.9411 14.8746 14.9415 15.0372 14.9419C15.15 14.9418 15.2627 14.9417 15.3754 14.9415C15.6118 14.9413 15.8483 14.9416 16.0847 14.9422C16.3882 14.9429 16.6918 14.9425 16.9953 14.9418C17.2281 14.9413 17.4609 14.9414 17.6938 14.9418C17.8057 14.9418 17.9176 14.9417 18.0296 14.9414C18.1859 14.9411 18.3421 14.9416 18.4984 14.9423C18.545 14.942 18.5916 14.9418 18.6396 14.9415C18.9598 14.9441 18.9598 14.9441 19.0937 15.0792C19.1094 15.1961 19.1094 15.1961 19.1102 15.3405C19.1108 15.3945 19.1114 15.4485 19.112 15.5042C19.1119 15.5626 19.1119 15.6211 19.1118 15.6813C19.112 15.7413 19.1123 15.8012 19.1126 15.863C19.1129 15.9899 19.1129 16.1168 19.1127 16.2437C19.1125 16.4382 19.1139 16.6327 19.1154 16.8272C19.1156 16.9504 19.1156 17.0735 19.1156 17.1967C19.1161 17.255 19.1167 17.3134 19.1172 17.3735C19.1168 17.4277 19.1165 17.4819 19.1161 17.5377C19.1161 17.5854 19.1162 17.6331 19.1162 17.6823C19.0937 17.8069 19.0937 17.8069 19.0316 17.9131C18.8468 18.0314 18.6555 18.014 18.4435 18.0122C18.3717 18.0127 18.3717 18.0127 18.2986 18.0132C18.1404 18.014 17.9823 18.0135 17.8242 18.0128C17.7144 18.013 17.6046 18.0131 17.4948 18.0134C17.2646 18.0136 17.0345 18.0132 16.8043 18.0124C16.5091 18.0113 16.2138 18.012 15.9186 18.0131C15.6918 18.0137 15.4651 18.0135 15.2384 18.013C15.1295 18.0129 15.0206 18.0131 14.9117 18.0135C14.7596 18.0139 14.6076 18.0132 14.4555 18.0122C14.3878 18.0128 14.3878 18.0128 14.3187 18.0133C14.1447 18.0112 14.0166 18.0085 13.8674 17.9131C13.789 17.7791 13.7828 17.6932 13.7829 17.5377C13.7825 17.4835 13.7821 17.4293 13.7817 17.3735C13.7823 17.3151 13.7828 17.2568 13.7834 17.1967C13.7834 17.1067 13.7834 17.1067 13.7833 17.0149C13.7835 16.8881 13.784 16.7612 13.7851 16.6344C13.7865 16.4398 13.7863 16.2452 13.7859 16.0506C13.7862 15.9275 13.7867 15.8044 13.7872 15.6813C13.7871 15.6229 13.7871 15.5644 13.787 15.5042C13.7876 15.4501 13.7882 15.3961 13.7888 15.3405C13.789 15.2928 13.7893 15.2452 13.7896 15.1961C13.8272 14.9158 14.026 14.9434 14.2594 14.9415Z" fill="#04FFB3"/>
<path d="M8.12953 14.9415C8.17612 14.9418 8.2227 14.942 8.27069 14.9423C8.31975 14.9421 8.36882 14.9419 8.41936 14.9417C8.58202 14.9411 8.74467 14.9415 8.90734 14.9419C9.02006 14.9418 9.13277 14.9417 9.2455 14.9415C9.48194 14.9413 9.71837 14.9416 9.9548 14.9422C10.2583 14.9429 10.5619 14.9425 10.8654 14.9418C11.0982 14.9413 11.3311 14.9414 11.5639 14.9418C11.6758 14.9418 11.7878 14.9417 11.8997 14.9414C12.056 14.9411 12.2122 14.9416 12.3685 14.9423C12.4151 14.942 12.4617 14.9418 12.5097 14.9415C12.8299 14.9441 12.8299 14.9441 12.9638 15.0792C12.9795 15.1961 12.9795 15.1961 12.9803 15.3405C12.9809 15.3945 12.9815 15.4485 12.9821 15.5042C12.982 15.5626 12.982 15.6211 12.9819 15.6813C12.9822 15.7413 12.9824 15.8012 12.9827 15.863C12.983 15.9899 12.983 16.1168 12.9828 16.2437C12.9826 16.4382 12.984 16.6327 12.9855 16.8272C12.9857 16.9504 12.9857 17.0735 12.9857 17.1967C12.9862 17.255 12.9868 17.3134 12.9874 17.3735C12.987 17.4277 12.9866 17.4819 12.9862 17.5377C12.9862 17.5854 12.9863 17.6331 12.9863 17.6823C12.9638 17.8069 12.9638 17.8069 12.9017 17.9131C12.7169 18.0314 12.5256 18.014 12.3136 18.0122C12.2419 18.0127 12.2419 18.0127 12.1687 18.0132C12.0106 18.014 11.8525 18.0135 11.6943 18.0128C11.5845 18.013 11.4747 18.0131 11.3649 18.0134C11.1347 18.0136 10.9046 18.0132 10.6744 18.0124C10.3792 18.0113 10.0839 18.012 9.78867 18.0131C9.56194 18.0137 9.3352 18.0135 9.10846 18.013C8.99958 18.0129 8.8907 18.0131 8.78183 18.0135C8.62974 18.0139 8.4777 18.0132 8.32562 18.0122C8.2579 18.0128 8.2579 18.0128 8.18881 18.0133C8.0148 18.0112 7.88672 18.0085 7.73754 17.9131C7.65912 17.7791 7.65287 17.6932 7.65299 17.5377C7.65262 17.4835 7.65224 17.4293 7.65186 17.3735C7.65241 17.3151 7.65296 17.2568 7.65353 17.1967C7.65349 17.1067 7.65349 17.1067 7.65344 17.0149C7.65358 16.8881 7.65417 16.7612 7.65516 16.6344C7.65658 16.4398 7.6564 16.2452 7.656 16.0506C7.65633 15.9275 7.65676 15.8044 7.65729 15.6813C7.65723 15.6229 7.65718 15.5644 7.65712 15.5042C7.6577 15.4501 7.65827 15.3961 7.65886 15.3405C7.65914 15.2928 7.65941 15.2452 7.6597 15.1961C7.69726 14.9158 7.89606 14.9434 8.12953 14.9415Z" fill="#3AE0C5"/>
<path d="M8.12953 14.9415C8.17612 14.9418 8.2227 14.942 8.27069 14.9423C8.31975 14.9421 8.36882 14.9419 8.41936 14.9417C8.58202 14.9411 8.74467 14.9415 8.90734 14.9419C9.02006 14.9418 9.13277 14.9417 9.2455 14.9415C9.48194 14.9413 9.71837 14.9416 9.9548 14.9422C10.2583 14.9429 10.5619 14.9425 10.8654 14.9418C11.0982 14.9413 11.3311 14.9414 11.5639 14.9418C11.6758 14.9418 11.7878 14.9417 11.8997 14.9414C12.056 14.9411 12.2122 14.9416 12.3685 14.9423C12.4151 14.942 12.4617 14.9418 12.5097 14.9415C12.8299 14.9441 12.8299 14.9441 12.9638 15.0792C12.9795 15.1961 12.9795 15.1961 12.9803 15.3405C12.9809 15.3945 12.9815 15.4485 12.9821 15.5042C12.982 15.5626 12.982 15.6211 12.9819 15.6813C12.9822 15.7413 12.9824 15.8012 12.9827 15.863C12.983 15.9899 12.983 16.1168 12.9828 16.2437C12.9826 16.4382 12.984 16.6327 12.9855 16.8272C12.9857 16.9504 12.9857 17.0735 12.9857 17.1967C12.9862 17.255 12.9868 17.3134 12.9874 17.3735C12.987 17.4277 12.9866 17.4819 12.9862 17.5377C12.9862 17.5854 12.9863 17.6331 12.9863 17.6823C12.9638 17.8069 12.9638 17.8069 12.9017 17.9131C12.7169 18.0314 12.5256 18.014 12.3136 18.0122C12.2419 18.0127 12.2419 18.0127 12.1687 18.0132C12.0106 18.014 11.8525 18.0135 11.6943 18.0128C11.5845 18.013 11.4747 18.0131 11.3649 18.0134C11.1347 18.0136 10.9046 18.0132 10.6744 18.0124C10.3792 18.0113 10.0839 18.012 9.78867 18.0131C9.56194 18.0137 9.3352 18.0135 9.10846 18.013C8.99958 18.0129 8.8907 18.0131 8.78183 18.0135C8.62974 18.0139 8.4777 18.0132 8.32562 18.0122C8.2579 18.0128 8.2579 18.0128 8.18881 18.0133C8.0148 18.0112 7.88672 18.0085 7.73754 17.9131C7.65912 17.7791 7.65287 17.6932 7.65299 17.5377C7.65262 17.4835 7.65224 17.4293 7.65186 17.3735C7.65241 17.3151 7.65296 17.2568 7.65353 17.1967C7.65349 17.1067 7.65349 17.1067 7.65344 17.0149C7.65358 16.8881 7.65417 16.7612 7.65516 16.6344C7.65658 16.4398 7.6564 16.2452 7.656 16.0506C7.65633 15.9275 7.65676 15.8044 7.65729 15.6813C7.65723 15.6229 7.65718 15.5644 7.65712 15.5042C7.6577 15.4501 7.65827 15.3961 7.65886 15.3405C7.65914 15.2928 7.65941 15.2452 7.6597 15.1961C7.69726 14.9158 7.89606 14.9434 8.12953 14.9415Z" fill="white" fill-opacity="0.2"/>
<path d="M8.52683 24.1568C8.59193 24.1566 8.59193 24.1566 8.65834 24.1565C8.80376 24.1563 8.94918 24.1569 9.09459 24.1576C9.19883 24.1576 9.30308 24.1576 9.40733 24.1575C9.6904 24.1575 9.97348 24.1582 10.2566 24.1591C10.5523 24.1598 10.8482 24.1599 11.1439 24.16C11.7041 24.1604 12.2643 24.1614 12.8245 24.1626C13.4622 24.164 14.0999 24.1646 14.7376 24.1653C16.0495 24.1665 17.3614 24.1687 18.6733 24.1714C18.6733 24.1914 18.6733 24.2114 18.6733 24.232C16.4918 24.232 14.3103 24.232 12.0627 24.232C12.1421 24.452 12.2214 24.672 12.3031 24.8987C12.4446 25.6124 12.4328 26.3528 12.1228 27.0202C12.0832 27.0802 12.0435 27.1403 12.0026 27.2021C11.8216 27.2239 11.8216 27.2239 11.5863 27.2227C11.5435 27.2227 11.5006 27.2228 11.4566 27.2228C11.3148 27.2227 11.173 27.2213 11.0312 27.2198C10.933 27.2195 10.8349 27.2192 10.7367 27.2191C10.478 27.2183 10.2194 27.2166 9.96071 27.2146C9.6969 27.2127 9.43305 27.2119 9.1692 27.211C8.65133 27.209 8.13347 27.2059 7.61561 27.2021C7.60966 26.8462 7.6053 26.4903 7.60241 26.1344C7.6012 26.0134 7.59956 25.8924 7.59748 25.7714C7.59455 25.5972 7.5932 25.423 7.59214 25.2487C7.5909 25.1949 7.58966 25.1411 7.58838 25.0856C7.58826 24.7518 7.62769 24.5527 7.856 24.2926C8.07216 24.1454 8.27092 24.1564 8.52683 24.1568Z" fill="#95FED2"/>
<path d="M17.0503 24.232C17.293 24.2245 17.5356 24.219 17.7784 24.2153C17.8609 24.2138 17.9433 24.2118 18.0258 24.2091C18.1447 24.2054 18.2636 24.2039 18.3825 24.2024C18.4539 24.2008 18.5254 24.1992 18.599 24.1976C18.8559 24.2431 18.9413 24.3236 19.0936 24.535C19.1277 24.7308 19.1277 24.7308 19.1229 24.9492C19.1219 25.0275 19.121 25.1058 19.12 25.1865C19.1175 25.2687 19.1149 25.3508 19.1123 25.4329C19.1108 25.5162 19.1095 25.5995 19.1082 25.6828C19.1047 25.8862 19.0997 26.0895 19.0936 26.2929C18.4583 26.2996 18.0617 26.0951 17.6031 25.6522C17.2394 25.2468 17.0503 24.7806 17.0503 24.232Z" fill="#01ECA5"/>
<path d="M9.45447 10.7052C9.5156 10.7047 9.5156 10.7047 9.57797 10.7043C9.71302 10.7034 9.84807 10.703 9.98314 10.7027C10.0768 10.7023 10.1706 10.702 10.2643 10.7016C10.4608 10.701 10.6574 10.7006 10.854 10.7004C11.1061 10.7001 11.3581 10.6986 11.6102 10.6969C11.8038 10.6958 11.9974 10.6955 12.191 10.6954C12.2839 10.6952 12.3768 10.6947 12.4698 10.6939C12.5997 10.6928 12.7296 10.693 12.8595 10.6934C12.9335 10.6931 13.0075 10.6929 13.0837 10.6927C13.2643 10.715 13.2643 10.715 13.3804 10.7975C13.4445 10.8968 13.4445 10.8968 13.4333 11.0521C13.3844 11.1999 13.3844 11.1999 13.2643 11.3211C13.0913 11.3369 13.0913 11.3369 12.8673 11.3377C12.8265 11.3381 12.7858 11.3384 12.7438 11.3387C12.6087 11.3395 12.4737 11.3395 12.3386 11.3393C12.2449 11.3396 12.1512 11.3399 12.0575 11.3401C11.8609 11.3406 11.6643 11.3406 11.4678 11.3403C11.2157 11.3399 10.9636 11.3409 10.7115 11.3423C10.518 11.3432 10.3244 11.3433 10.1308 11.3431C10.0379 11.3431 9.9449 11.3434 9.85197 11.344C9.72203 11.3448 9.59216 11.3444 9.46222 11.3437C9.35127 11.3437 9.35127 11.3437 9.2381 11.3438C9.05751 11.3211 9.05751 11.3211 8.94136 11.2406C8.87722 11.1393 8.87722 11.1393 8.88849 10.9498C8.9046 10.8923 8.92071 10.8348 8.93731 10.7756C9.11056 10.6882 9.26087 10.7063 9.45447 10.7052Z" fill="#FEFEFE"/>
<path d="M9.4066 9.54668C9.46965 9.54621 9.46965 9.54621 9.53395 9.54571C9.67321 9.54488 9.81245 9.54494 9.95171 9.54509C10.0483 9.54485 10.1448 9.5446 10.2413 9.54429C10.4438 9.54385 10.6463 9.54385 10.8488 9.54419C11.1087 9.54453 11.3686 9.54351 11.6285 9.54211C11.8279 9.54121 12.0273 9.54115 12.2267 9.54134C12.3225 9.54131 12.4184 9.541 12.5142 9.54038C12.648 9.53963 12.7818 9.54003 12.9156 9.54075C12.9919 9.54072 13.0681 9.54069 13.1467 9.54062C13.2348 9.55186 13.2348 9.55186 13.3246 9.56331C13.4448 9.74517 13.4448 9.74517 13.426 9.90426C13.3847 10.0482 13.3847 10.0482 13.3246 10.1088C13.1907 10.1152 13.0565 10.1172 12.9225 10.1176C12.8805 10.1179 12.8384 10.1181 12.7952 10.1183C12.6556 10.1189 12.516 10.119 12.3764 10.119C12.2798 10.1192 12.1832 10.1194 12.0865 10.1196C11.8837 10.12 11.6808 10.1201 11.478 10.1201C11.2176 10.1201 10.9573 10.1209 10.6969 10.1219C10.4972 10.1226 10.2976 10.1227 10.0979 10.1227C10.0019 10.1228 9.90589 10.123 9.80986 10.1235C9.67577 10.1241 9.54168 10.1239 9.40755 10.1236C9.29294 10.1237 9.29294 10.1237 9.17598 10.1238C8.99767 10.1088 8.99767 10.1088 8.87748 9.98761C8.86245 9.83607 8.86245 9.83607 8.87748 9.68453C9.04908 9.51148 9.16626 9.54755 9.4066 9.54668Z" fill="#FEFEFF"/>
<path d="M8.06007 22.9424C8.11483 22.9418 8.16958 22.9413 8.226 22.9407C8.31492 22.9408 8.31492 22.9408 8.40564 22.9408C8.4664 22.9406 8.52716 22.9403 8.58977 22.94C8.71844 22.9397 8.84711 22.9397 8.97578 22.9399C9.17296 22.9401 9.37013 22.9387 9.5673 22.9372C9.69216 22.937 9.81699 22.937 9.94185 22.937C10.001 22.9365 10.0602 22.9359 10.1211 22.9354C10.1761 22.9357 10.231 22.9361 10.2876 22.9365C10.3601 22.9365 10.3601 22.9365 10.4341 22.9364C10.5915 22.9648 10.6448 23.0135 10.7402 23.1409C10.759 23.2962 10.759 23.2962 10.7402 23.444C10.5925 23.593 10.552 23.5805 10.349 23.5809C10.2929 23.5813 10.2367 23.5817 10.1789 23.5821C10.1181 23.5818 10.0573 23.5816 9.99468 23.5813C9.93244 23.5814 9.87019 23.5815 9.80607 23.5817C9.67431 23.5818 9.54256 23.5815 9.4108 23.581C9.20862 23.5804 9.00645 23.581 8.80425 23.5818C8.67646 23.5817 8.54868 23.5816 8.4209 23.5813C8.32972 23.5817 8.32972 23.5817 8.2367 23.5821C8.18055 23.5817 8.1244 23.5813 8.06654 23.5809C7.99222 23.5808 7.99222 23.5808 7.9164 23.5806C7.79552 23.5652 7.79552 23.5652 7.67533 23.444C7.66031 23.2622 7.66031 23.2622 7.67533 23.0803C7.82171 22.9327 7.85942 22.9436 8.06007 22.9424Z" fill="#3AE0C5"/>
<path d="M8.06007 22.9424C8.11483 22.9418 8.16958 22.9413 8.226 22.9407C8.31492 22.9408 8.31492 22.9408 8.40564 22.9408C8.4664 22.9406 8.52716 22.9403 8.58977 22.94C8.71844 22.9397 8.84711 22.9397 8.97578 22.9399C9.17296 22.9401 9.37013 22.9387 9.5673 22.9372C9.69216 22.937 9.81699 22.937 9.94185 22.937C10.001 22.9365 10.0602 22.9359 10.1211 22.9354C10.1761 22.9357 10.231 22.9361 10.2876 22.9365C10.3601 22.9365 10.3601 22.9365 10.4341 22.9364C10.5915 22.9648 10.6448 23.0135 10.7402 23.1409C10.759 23.2962 10.759 23.2962 10.7402 23.444C10.5925 23.593 10.552 23.5805 10.349 23.5809C10.2929 23.5813 10.2367 23.5817 10.1789 23.5821C10.1181 23.5818 10.0573 23.5816 9.99468 23.5813C9.93244 23.5814 9.87019 23.5815 9.80607 23.5817C9.67431 23.5818 9.54256 23.5815 9.4108 23.581C9.20862 23.5804 9.00645 23.581 8.80425 23.5818C8.67646 23.5817 8.54868 23.5816 8.4209 23.5813C8.32972 23.5817 8.32972 23.5817 8.2367 23.5821C8.18055 23.5817 8.1244 23.5813 8.06654 23.5809C7.99222 23.5808 7.99222 23.5808 7.9164 23.5806C7.79552 23.5652 7.79552 23.5652 7.67533 23.444C7.66031 23.2622 7.66031 23.2622 7.67533 23.0803C7.82171 22.9327 7.85942 22.9436 8.06007 22.9424Z" fill="white" fill-opacity="0.2"/>
<path d="M12.5598 4.15177C12.6371 4.15213 12.6371 4.15213 12.7161 4.15251C12.7954 4.15234 12.7954 4.15234 12.8764 4.15216C12.9883 4.15208 13.1003 4.1523 13.2122 4.15281C13.384 4.15346 13.5557 4.15281 13.7274 4.15204C13.836 4.15212 13.9446 4.15227 14.0532 4.15251C14.1048 4.15227 14.1564 4.15202 14.2095 4.15177C14.5727 4.15468 14.5727 4.15468 14.7068 4.28984C14.7255 4.47168 14.7255 4.47168 14.7068 4.65352C14.4719 4.81147 14.2728 4.79219 14.0004 4.79086C13.9489 4.79097 13.8975 4.79109 13.8444 4.79121C13.7356 4.79129 13.6269 4.79107 13.5181 4.79056C13.3513 4.78991 13.1845 4.79055 13.0176 4.79133C12.912 4.79125 12.8064 4.79109 12.7008 4.79086C12.6507 4.7911 12.6007 4.79135 12.5491 4.7916C12.1966 4.78869 12.1966 4.78869 12.0625 4.65352C12.0475 4.47168 12.0475 4.47168 12.0625 4.28984C12.2224 4.12856 12.3423 4.15351 12.5598 4.15177Z" fill="white"/>
<path d="M9.4014 8.08906C9.46746 8.08934 9.46746 8.08934 9.53484 8.08965C9.57866 8.08866 9.62244 8.08769 9.66758 8.0867C9.98675 8.08639 9.98675 8.08639 10.1405 8.19098C10.1996 8.29044 10.1996 8.29044 10.1884 8.44574C10.1396 8.59349 10.1396 8.59349 10.0194 8.71471C9.84651 8.72837 9.68137 8.73439 9.50854 8.73368C9.46137 8.73464 9.4142 8.73563 9.36558 8.73663C9.22872 8.73675 9.22872 8.73675 8.99773 8.71471C8.87754 8.53288 8.87754 8.53288 8.89256 8.37756C8.98141 8.08633 9.12232 8.09188 9.4014 8.08906Z" fill="white"/>
<path d="M15.8145 4.14972C15.9685 4.16866 15.9685 4.16866 16.0812 4.24064C16.1488 4.3505 16.1488 4.3505 16.1376 4.50583C16.0887 4.65357 16.0887 4.65357 15.9685 4.7748C15.7807 4.75207 15.7807 4.75207 15.608 4.71419C15.5704 4.50962 15.5704 4.50962 15.5479 4.28989C15.6681 4.16866 15.6681 4.16866 15.8145 4.14972Z" fill="white"/>
<path d="M18.3075 8.72198C22.4709 8.72198 25.846 12.1262 25.846 16.3254C25.846 20.5247 22.4709 23.9289 18.3075 23.9289C14.1441 23.9289 10.769 20.5247 10.769 16.3254C10.769 12.1262 14.1441 8.72198 18.3075 8.72198Z" fill="url(#paint0_linear_2871_5007)" stroke="#10BE77" stroke-width="0.6"/>
<path d="M13.8516 18.8276V13.4106H15.9705C16.3761 13.4106 16.7222 13.4838 17.0089 13.6302C17.2974 13.7747 17.5168 13.9802 17.6671 14.2464C17.8192 14.5109 17.8953 14.8222 17.8953 15.1801C17.8953 15.5398 17.8184 15.8493 17.6645 16.1085C17.5107 16.366 17.2878 16.5634 16.9958 16.701C16.7056 16.8385 16.3542 16.9073 15.9416 16.9073H14.5229V15.9868H15.7581C15.9748 15.9868 16.1549 15.9569 16.2983 15.8969C16.4416 15.837 16.5483 15.747 16.6182 15.6271C16.6899 15.5072 16.7257 15.3582 16.7257 15.1801C16.7257 15.0003 16.6899 14.8486 16.6182 14.7252C16.5483 14.6017 16.4407 14.5083 16.2956 14.4448C16.1523 14.3796 15.9713 14.347 15.7528 14.347H14.9871V18.8276H13.8516ZM16.7519 16.3624L18.0867 18.8276H16.8332L15.5273 16.3624H16.7519ZM18.6768 20.3511V14.7649H19.7781V15.4473H19.828C19.8769 15.3379 19.9477 15.2268 20.0404 15.114C20.1348 14.9994 20.2572 14.9042 20.4075 14.8283C20.5596 14.7507 20.7484 14.712 20.974 14.712C21.2677 14.712 21.5386 14.7895 21.7869 14.9447C22.0351 15.0981 22.2336 15.33 22.3822 15.6403C22.5308 15.9489 22.6051 16.336 22.6051 16.8015C22.6051 17.2547 22.5325 17.6373 22.3874 17.9494C22.2441 18.2598 22.0483 18.4952 21.8 18.6556C21.5535 18.8143 21.2773 18.8937 20.9713 18.8937C20.7545 18.8937 20.5701 18.8575 20.418 18.7852C20.2677 18.7129 20.1444 18.6221 20.0482 18.5128C19.9521 18.4017 19.8787 18.2897 19.828 18.1769H19.7939V20.3511H18.6768ZM19.7703 16.7962C19.7703 17.0378 19.8035 17.2485 19.8699 17.4284C19.9364 17.6082 20.0325 17.7484 20.1584 17.8489C20.2843 17.9477 20.4373 17.997 20.6173 17.997C20.7991 17.997 20.953 17.9468 21.0789 17.8463C21.2047 17.744 21.3 17.6029 21.3647 17.4231C21.4311 17.2414 21.4643 17.0325 21.4643 16.7962C21.4643 16.5617 21.432 16.3554 21.3673 16.1773C21.3026 15.9992 21.2073 15.8599 21.0815 15.7594C20.9556 15.6589 20.8009 15.6086 20.6173 15.6086C20.4355 15.6086 20.2817 15.6571 20.1558 15.7541C20.0317 15.8511 19.9364 15.9886 19.8699 16.1667C19.8035 16.3448 19.7703 16.5546 19.7703 16.7962Z" fill="white"/>
<defs>
<linearGradient id="paint0_linear_2871_5007" x1="18.3075" y1="8.72198" x2="18.3075" y2="23.9289" gradientUnits="userSpaceOnUse">
<stop stop-color="#10BE77"/>
<stop offset="1" stop-color="#2196F3"/>
</linearGradient>
</defs>
</svg>
