<svg width="60" height="60" viewBox="0 0 60 60" fill="none" xmlns="http://www.w3.org/2000/svg">
<path d="M18.3524 1.15465C18.4552 1.15422 18.5581 1.15379 18.6641 1.15335C19.0094 1.15206 19.3548 1.1516 19.7001 1.15116C19.9474 1.15042 20.1948 1.14965 20.4422 1.14882C21.2552 1.14636 22.0683 1.14514 22.8813 1.14398C23.1613 1.1435 23.4413 1.14302 23.7213 1.14253C25.0372 1.1403 26.353 1.13863 27.6688 1.13765C29.1868 1.13651 30.7047 1.13343 32.2228 1.12869C33.3965 1.12515 34.5703 1.12342 35.7442 1.12303C36.4449 1.12276 37.1457 1.12171 37.8465 1.11876C38.5063 1.11602 39.1659 1.11554 39.8257 1.11674C40.0672 1.1168 40.3087 1.11606 40.5502 1.11445C42.3921 1.10285 43.7523 1.26308 45.1323 2.58227C45.7091 3.18463 46.0456 3.77416 46.289 4.57034C46.3097 4.63596 46.3304 4.70159 46.3517 4.76919C46.4266 5.13984 46.4215 5.4943 46.4219 5.87249C46.4223 5.9569 46.4225 6.0413 46.4227 6.12826C46.4236 6.41258 46.4236 6.6969 46.4235 6.98122C46.4238 7.18655 46.4243 7.39186 46.4247 7.59718C46.4259 8.16259 46.4264 8.72801 46.4267 9.29343C46.4272 9.90279 46.4283 10.5122 46.4293 11.1215C46.4317 12.5938 46.4328 14.0662 46.4339 15.5384C46.4343 16.2317 46.4349 16.9249 46.4356 17.6182C46.4376 19.9227 46.4393 22.2272 46.4401 24.5317C46.4403 25.1298 46.4406 25.728 46.4408 26.3261C46.4409 26.4748 46.4409 26.6235 46.441 26.7767C46.442 29.1846 46.4449 31.5927 46.4488 34.0008C46.4526 36.4729 46.4547 38.9449 46.4551 41.4171C46.4553 42.8051 46.4564 44.1932 46.4593 45.5813C46.4619 46.7635 46.4628 47.9456 46.4618 49.1278C46.4612 49.7309 46.4614 50.3339 46.4636 50.9369C46.4658 51.4895 46.4656 52.0421 46.4638 52.5946C46.4635 52.794 46.464 52.9934 46.4654 53.1927C46.4768 54.9175 46.2275 56.2853 44.9918 57.5537C43.9867 58.5064 43.014 58.8457 41.6476 58.8454C41.5447 58.8458 41.4418 58.8463 41.3359 58.8467C40.9905 58.848 40.6452 58.8484 40.2998 58.8489C40.0526 58.8496 39.8052 58.8504 39.5578 58.8512C38.7447 58.8537 37.9317 58.8549 37.1186 58.856C36.8387 58.8565 36.5586 58.857 36.2785 58.8576C34.9627 58.8598 33.647 58.8614 32.3312 58.8624C30.8131 58.8635 29.2952 58.8666 27.7772 58.8714C26.6034 58.8749 25.4297 58.8767 24.2558 58.877C23.555 58.8772 22.8542 58.8783 22.1535 58.8812C21.4937 58.884 20.834 58.8845 20.1743 58.8833C19.9327 58.8832 19.6912 58.884 19.4497 58.8856C17.6079 58.8972 16.2477 58.737 14.8677 57.4178C14.2909 56.8155 13.9543 56.2259 13.7109 55.4297C13.6902 55.3641 13.6695 55.2985 13.6482 55.2308C13.5733 54.8602 13.5785 54.5058 13.578 54.1275C13.5777 54.0431 13.5774 53.9588 13.5772 53.8718C13.5764 53.5875 13.5764 53.3031 13.5765 53.0188C13.5761 52.8135 13.5757 52.6082 13.5752 52.4029C13.574 51.8374 13.5736 51.272 13.5732 50.7066C13.5727 50.0972 13.5717 49.4878 13.5706 48.8786C13.5683 47.4062 13.5671 45.9339 13.5661 44.4617C13.5656 43.7684 13.565 43.0751 13.5643 42.3818C13.5623 40.0773 13.5607 37.7728 13.5599 35.4683C13.5596 34.8702 13.5594 34.2721 13.5592 33.674C13.559 33.451 13.559 33.451 13.5589 33.2234C13.558 30.8154 13.5551 28.4073 13.5512 25.9992C13.5473 23.5272 13.5452 21.0551 13.5449 18.5829C13.5446 17.1949 13.5436 15.8069 13.5406 14.4188C13.5381 13.2366 13.5371 12.0544 13.5382 10.8722C13.5388 10.2692 13.5385 9.66615 13.5363 9.06314C13.5342 8.51054 13.5343 7.95799 13.5362 7.4054C13.5364 7.20602 13.536 7.00665 13.5345 6.80728C13.5232 5.08258 13.7724 3.71474 15.0082 2.44631C16.0133 1.49375 16.9859 1.15435 18.3524 1.15465Z" fill="white"/>
<path d="M18.3524 1.15465C18.4552 1.15422 18.5581 1.15379 18.6641 1.15335C19.0094 1.15206 19.3548 1.1516 19.7001 1.15116C19.9474 1.15042 20.1948 1.14965 20.4422 1.14882C21.2552 1.14636 22.0683 1.14514 22.8813 1.14398C23.1613 1.1435 23.4413 1.14302 23.7213 1.14253C25.0372 1.1403 26.353 1.13863 27.6688 1.13765C29.1868 1.13651 30.7047 1.13343 32.2228 1.12869C33.3965 1.12515 34.5703 1.12342 35.7442 1.12303C36.4449 1.12276 37.1457 1.12171 37.8465 1.11876C38.5063 1.11602 39.1659 1.11554 39.8257 1.11674C40.0672 1.1168 40.3087 1.11606 40.5502 1.11445C42.3921 1.10285 43.7523 1.26308 45.1323 2.58227C45.7091 3.18463 46.0456 3.77416 46.289 4.57034C46.3097 4.63596 46.3304 4.70159 46.3517 4.76919C46.4266 5.13984 46.4215 5.4943 46.4219 5.87249C46.4223 5.9569 46.4225 6.0413 46.4227 6.12826C46.4236 6.41258 46.4236 6.6969 46.4235 6.98122C46.4238 7.18655 46.4243 7.39186 46.4247 7.59718C46.4259 8.16259 46.4264 8.72801 46.4267 9.29343C46.4272 9.90279 46.4283 10.5122 46.4293 11.1215C46.4317 12.5938 46.4328 14.0662 46.4339 15.5384C46.4343 16.2317 46.4349 16.9249 46.4356 17.6182C46.4376 19.9227 46.4393 22.2272 46.4401 24.5317C46.4403 25.1298 46.4406 25.728 46.4408 26.3261C46.4409 26.4748 46.4409 26.6235 46.441 26.7767C46.442 29.1846 46.4449 31.5927 46.4488 34.0008C46.4526 36.4729 46.4547 38.9449 46.4551 41.4171C46.4553 42.8051 46.4564 44.1932 46.4593 45.5813C46.4619 46.7635 46.4628 47.9456 46.4618 49.1278C46.4612 49.7309 46.4614 50.3339 46.4636 50.9369C46.4658 51.4895 46.4656 52.0421 46.4638 52.5946C46.4635 52.794 46.464 52.9934 46.4654 53.1927C46.4768 54.9175 46.2275 56.2853 44.9918 57.5537C43.9867 58.5064 43.014 58.8457 41.6476 58.8454C41.5447 58.8458 41.4418 58.8463 41.3359 58.8467C40.9905 58.848 40.6452 58.8484 40.2998 58.8489C40.0526 58.8496 39.8052 58.8504 39.5578 58.8512C38.7447 58.8537 37.9317 58.8549 37.1186 58.856C36.8387 58.8565 36.5586 58.857 36.2785 58.8576C34.9627 58.8598 33.647 58.8614 32.3312 58.8624C30.8131 58.8635 29.2952 58.8666 27.7772 58.8714C26.6034 58.8749 25.4297 58.8767 24.2558 58.877C23.555 58.8772 22.8542 58.8783 22.1535 58.8812C21.4937 58.884 20.834 58.8845 20.1743 58.8833C19.9327 58.8832 19.6912 58.884 19.4497 58.8856C17.6079 58.8972 16.2477 58.737 14.8677 57.4178C14.2909 56.8155 13.9543 56.2259 13.7109 55.4297C13.6902 55.3641 13.6695 55.2985 13.6482 55.2308C13.5733 54.8602 13.5785 54.5058 13.578 54.1275C13.5777 54.0431 13.5774 53.9588 13.5772 53.8718C13.5764 53.5875 13.5764 53.3031 13.5765 53.0188C13.5761 52.8135 13.5757 52.6082 13.5752 52.4029C13.574 51.8374 13.5736 51.272 13.5732 50.7066C13.5727 50.0972 13.5717 49.4878 13.5706 48.8786C13.5683 47.4062 13.5671 45.9339 13.5661 44.4617C13.5656 43.7684 13.565 43.0751 13.5643 42.3818C13.5623 40.0773 13.5607 37.7728 13.5599 35.4683C13.5596 34.8702 13.5594 34.2721 13.5592 33.674C13.559 33.451 13.559 33.451 13.5589 33.2234C13.558 30.8154 13.5551 28.4073 13.5512 25.9992C13.5473 23.5272 13.5452 21.0551 13.5449 18.5829C13.5446 17.1949 13.5436 15.8069 13.5406 14.4188C13.5381 13.2366 13.5371 12.0544 13.5382 10.8722C13.5388 10.2692 13.5385 9.66615 13.5363 9.06314C13.5342 8.51054 13.5343 7.95799 13.5362 7.4054C13.5364 7.20602 13.536 7.00665 13.5345 6.80728C13.5232 5.08258 13.7724 3.71474 15.0082 2.44631C16.0133 1.49375 16.9859 1.15435 18.3524 1.15465ZM15.6518 3.54495C15.5795 3.62531 15.5072 3.70568 15.4325 3.78847C14.7658 4.84163 14.833 5.96581 14.8381 7.16234C14.8378 7.36745 14.8372 7.57256 14.8365 7.77767C14.835 8.33977 14.8358 8.90186 14.8368 9.46396C14.8377 10.0708 14.8364 10.6775 14.8354 11.2843C14.8339 12.4724 14.8342 13.6606 14.8352 14.8486C14.836 15.8142 14.8361 16.78 14.8358 17.7456C14.8357 17.8831 14.8357 18.0205 14.8356 18.1621C14.8354 18.4414 14.8353 18.7206 14.8352 18.9998C14.8343 21.618 14.8354 24.2362 14.8373 26.8544C14.8388 29.1007 14.8386 31.347 14.837 33.5933C14.8351 36.2022 14.8343 38.811 14.8354 41.4198C14.8356 41.698 14.8357 41.9762 14.8358 42.2544C14.8358 42.3913 14.8358 42.5283 14.8359 42.6693C14.8363 43.6337 14.8357 44.5982 14.8349 45.5625C14.8339 46.7379 14.8342 47.9133 14.836 49.0887C14.837 49.6883 14.8373 50.288 14.8361 50.8876C14.8351 51.4368 14.8357 51.9858 14.8376 52.5348C14.8379 52.7333 14.8378 52.9319 14.8368 53.1303C14.8133 54.9176 14.8133 54.9176 15.6518 56.4551C15.7221 56.5367 15.7923 56.6182 15.8647 56.7023C17.0769 57.6923 18.2781 57.6223 19.7729 57.613C20.0196 57.6136 20.2663 57.6146 20.5129 57.6156C21.1804 57.6177 21.8479 57.6162 22.5154 57.614C23.2152 57.612 23.9149 57.613 24.6146 57.6136C25.7893 57.6142 26.9641 57.6123 28.1388 57.609C29.4957 57.6053 30.8526 57.6053 32.2095 57.6073C33.5167 57.6092 34.8236 57.6083 36.1308 57.6064C36.6863 57.6055 37.2418 57.6056 37.7973 57.6066C38.4517 57.6074 39.106 57.606 39.7604 57.6028C40.0001 57.602 40.2398 57.602 40.4796 57.6028C40.8076 57.6039 41.1356 57.602 41.4636 57.5994C41.5577 57.6004 41.6519 57.6013 41.749 57.6024C42.7719 57.5875 43.5867 57.1641 44.3288 56.4767C44.9782 55.7495 45.1317 54.9623 45.1325 54.013C45.1327 53.9289 45.1331 53.8449 45.1333 53.7581C45.1339 53.4748 45.1338 53.1915 45.1336 52.9082C45.1339 52.7036 45.1343 52.499 45.1346 52.2944C45.1357 51.7309 45.1358 51.1675 45.1359 50.604C45.1361 49.9969 45.137 49.3898 45.1378 48.7825C45.1394 47.4542 45.1401 46.126 45.1406 44.7976C45.141 43.9684 45.1414 43.1392 45.142 42.3101C45.1434 40.0149 45.1446 37.7198 45.1451 35.4246C45.1451 35.2777 45.1451 35.1307 45.1451 34.9793C45.1451 34.832 45.1452 34.6847 45.1452 34.533C45.1452 34.2345 45.1453 33.936 45.1453 33.6375C45.1453 33.4895 45.1454 33.3415 45.1454 33.1889C45.1459 30.7898 45.1479 28.3906 45.1507 25.9913C45.1534 23.5289 45.1549 21.0665 45.155 18.604C45.1551 17.2212 45.1558 15.8383 45.1579 14.4553C45.1597 13.2778 45.1603 12.1003 45.1593 10.9228C45.1589 10.3219 45.159 9.72111 45.1606 9.12028C45.1622 8.5701 45.162 8.01994 45.1605 7.46975C45.1604 7.27086 45.1608 7.07197 45.1617 6.87308C45.1685 5.45409 45.11 4.35864 44.0853 3.27532C43.4073 2.67322 42.662 2.44754 41.7681 2.44022C41.6902 2.43945 41.6124 2.43868 41.5323 2.43789C41.2751 2.43558 41.0178 2.43421 40.7606 2.43304C40.6726 2.43257 40.5846 2.43209 40.4939 2.43159C40.0281 2.42915 39.5622 2.42747 39.0964 2.42637C38.6161 2.42508 38.1358 2.42105 37.6555 2.4164C37.2854 2.41332 36.9153 2.41235 36.5452 2.41193C36.3682 2.41136 36.1912 2.41 36.0142 2.40782C35.766 2.40496 35.5179 2.40507 35.2697 2.40588C35.1286 2.4052 34.9876 2.40451 34.8423 2.40381C34.1107 2.51126 33.6656 2.9784 33.2144 3.52434C33.0461 3.75096 32.9036 3.98262 32.7611 4.2261C32.307 4.97005 31.7246 5.44811 30.8808 5.68636C29.9313 5.86622 29.1208 5.82854 28.2715 5.34533C27.6712 4.91496 27.2668 4.36549 26.8945 3.73538C26.5453 3.14909 26.0837 2.67897 25.4297 2.46096C25.1754 2.44753 24.9207 2.44111 24.6661 2.43836C24.5505 2.43693 24.5505 2.43693 24.4326 2.43546C24.1776 2.43256 23.9227 2.43061 23.6677 2.42892C23.5803 2.4283 23.4929 2.42767 23.4028 2.42702C22.9394 2.4239 22.4762 2.42162 22.0128 2.41993C21.631 2.41838 21.2492 2.41512 20.8676 2.41032C20.4051 2.40451 19.9428 2.40164 19.4804 2.40081C19.305 2.40002 19.1297 2.39825 18.9543 2.39543C17.6645 2.37585 16.5408 2.51271 15.6518 3.54495Z" fill="#3AE0C5"/>
<path d="M18.3524 1.15465C18.4552 1.15422 18.5581 1.15379 18.6641 1.15335C19.0094 1.15206 19.3548 1.1516 19.7001 1.15116C19.9474 1.15042 20.1948 1.14965 20.4422 1.14882C21.2552 1.14636 22.0683 1.14514 22.8813 1.14398C23.1613 1.1435 23.4413 1.14302 23.7213 1.14253C25.0372 1.1403 26.353 1.13863 27.6688 1.13765C29.1868 1.13651 30.7047 1.13343 32.2228 1.12869C33.3965 1.12515 34.5703 1.12342 35.7442 1.12303C36.4449 1.12276 37.1457 1.12171 37.8465 1.11876C38.5063 1.11602 39.1659 1.11554 39.8257 1.11674C40.0672 1.1168 40.3087 1.11606 40.5502 1.11445C42.3921 1.10285 43.7523 1.26308 45.1323 2.58227C45.7091 3.18463 46.0456 3.77416 46.289 4.57034C46.3097 4.63596 46.3304 4.70159 46.3517 4.76919C46.4266 5.13984 46.4215 5.4943 46.4219 5.87249C46.4223 5.9569 46.4225 6.0413 46.4227 6.12826C46.4236 6.41258 46.4236 6.6969 46.4235 6.98122C46.4238 7.18655 46.4243 7.39186 46.4247 7.59718C46.4259 8.16259 46.4264 8.72801 46.4267 9.29343C46.4272 9.90279 46.4283 10.5122 46.4293 11.1215C46.4317 12.5938 46.4328 14.0662 46.4339 15.5384C46.4343 16.2317 46.4349 16.9249 46.4356 17.6182C46.4376 19.9227 46.4393 22.2272 46.4401 24.5317C46.4403 25.1298 46.4406 25.728 46.4408 26.3261C46.4409 26.4748 46.4409 26.6235 46.441 26.7767C46.442 29.1846 46.4449 31.5927 46.4488 34.0008C46.4526 36.4729 46.4547 38.9449 46.4551 41.4171C46.4553 42.8051 46.4564 44.1932 46.4593 45.5813C46.4619 46.7635 46.4628 47.9456 46.4618 49.1278C46.4612 49.7309 46.4614 50.3339 46.4636 50.9369C46.4658 51.4895 46.4656 52.0421 46.4638 52.5946C46.4635 52.794 46.464 52.9934 46.4654 53.1927C46.4768 54.9175 46.2275 56.2853 44.9918 57.5537C43.9867 58.5064 43.014 58.8457 41.6476 58.8454C41.5447 58.8458 41.4418 58.8463 41.3359 58.8467C40.9905 58.848 40.6452 58.8484 40.2998 58.8489C40.0526 58.8496 39.8052 58.8504 39.5578 58.8512C38.7447 58.8537 37.9317 58.8549 37.1186 58.856C36.8387 58.8565 36.5586 58.857 36.2785 58.8576C34.9627 58.8598 33.647 58.8614 32.3312 58.8624C30.8131 58.8635 29.2952 58.8666 27.7772 58.8714C26.6034 58.8749 25.4297 58.8767 24.2558 58.877C23.555 58.8772 22.8542 58.8783 22.1535 58.8812C21.4937 58.884 20.834 58.8845 20.1743 58.8833C19.9327 58.8832 19.6912 58.884 19.4497 58.8856C17.6079 58.8972 16.2477 58.737 14.8677 57.4178C14.2909 56.8155 13.9543 56.2259 13.7109 55.4297C13.6902 55.3641 13.6695 55.2985 13.6482 55.2308C13.5733 54.8602 13.5785 54.5058 13.578 54.1275C13.5777 54.0431 13.5774 53.9588 13.5772 53.8718C13.5764 53.5875 13.5764 53.3031 13.5765 53.0188C13.5761 52.8135 13.5757 52.6082 13.5752 52.4029C13.574 51.8374 13.5736 51.272 13.5732 50.7066C13.5727 50.0972 13.5717 49.4878 13.5706 48.8786C13.5683 47.4062 13.5671 45.9339 13.5661 44.4617C13.5656 43.7684 13.565 43.0751 13.5643 42.3818C13.5623 40.0773 13.5607 37.7728 13.5599 35.4683C13.5596 34.8702 13.5594 34.2721 13.5592 33.674C13.559 33.451 13.559 33.451 13.5589 33.2234C13.558 30.8154 13.5551 28.4073 13.5512 25.9992C13.5473 23.5272 13.5452 21.0551 13.5449 18.5829C13.5446 17.1949 13.5436 15.8069 13.5406 14.4188C13.5381 13.2366 13.5371 12.0544 13.5382 10.8722C13.5388 10.2692 13.5385 9.66615 13.5363 9.06314C13.5342 8.51054 13.5343 7.95799 13.5362 7.4054C13.5364 7.20602 13.536 7.00665 13.5345 6.80728C13.5232 5.08258 13.7724 3.71474 15.0082 2.44631C16.0133 1.49375 16.9859 1.15435 18.3524 1.15465ZM15.6518 3.54495C15.5795 3.62531 15.5072 3.70568 15.4325 3.78847C14.7658 4.84163 14.833 5.96581 14.8381 7.16234C14.8378 7.36745 14.8372 7.57256 14.8365 7.77767C14.835 8.33977 14.8358 8.90186 14.8368 9.46396C14.8377 10.0708 14.8364 10.6775 14.8354 11.2843C14.8339 12.4724 14.8342 13.6606 14.8352 14.8486C14.836 15.8142 14.8361 16.78 14.8358 17.7456C14.8357 17.8831 14.8357 18.0205 14.8356 18.1621C14.8354 18.4414 14.8353 18.7206 14.8352 18.9998C14.8343 21.618 14.8354 24.2362 14.8373 26.8544C14.8388 29.1007 14.8386 31.347 14.837 33.5933C14.8351 36.2022 14.8343 38.811 14.8354 41.4198C14.8356 41.698 14.8357 41.9762 14.8358 42.2544C14.8358 42.3913 14.8358 42.5283 14.8359 42.6693C14.8363 43.6337 14.8357 44.5982 14.8349 45.5625C14.8339 46.7379 14.8342 47.9133 14.836 49.0887C14.837 49.6883 14.8373 50.288 14.8361 50.8876C14.8351 51.4368 14.8357 51.9858 14.8376 52.5348C14.8379 52.7333 14.8378 52.9319 14.8368 53.1303C14.8133 54.9176 14.8133 54.9176 15.6518 56.4551C15.7221 56.5367 15.7923 56.6182 15.8647 56.7023C17.0769 57.6923 18.2781 57.6223 19.7729 57.613C20.0196 57.6136 20.2663 57.6146 20.5129 57.6156C21.1804 57.6177 21.8479 57.6162 22.5154 57.614C23.2152 57.612 23.9149 57.613 24.6146 57.6136C25.7893 57.6142 26.9641 57.6123 28.1388 57.609C29.4957 57.6053 30.8526 57.6053 32.2095 57.6073C33.5167 57.6092 34.8236 57.6083 36.1308 57.6064C36.6863 57.6055 37.2418 57.6056 37.7973 57.6066C38.4517 57.6074 39.106 57.606 39.7604 57.6028C40.0001 57.602 40.2398 57.602 40.4796 57.6028C40.8076 57.6039 41.1356 57.602 41.4636 57.5994C41.5577 57.6004 41.6519 57.6013 41.749 57.6024C42.7719 57.5875 43.5867 57.1641 44.3288 56.4767C44.9782 55.7495 45.1317 54.9623 45.1325 54.013C45.1327 53.9289 45.1331 53.8449 45.1333 53.7581C45.1339 53.4748 45.1338 53.1915 45.1336 52.9082C45.1339 52.7036 45.1343 52.499 45.1346 52.2944C45.1357 51.7309 45.1358 51.1675 45.1359 50.604C45.1361 49.9969 45.137 49.3898 45.1378 48.7825C45.1394 47.4542 45.1401 46.126 45.1406 44.7976C45.141 43.9684 45.1414 43.1392 45.142 42.3101C45.1434 40.0149 45.1446 37.7198 45.1451 35.4246C45.1451 35.2777 45.1451 35.1307 45.1451 34.9793C45.1451 34.832 45.1452 34.6847 45.1452 34.533C45.1452 34.2345 45.1453 33.936 45.1453 33.6375C45.1453 33.4895 45.1454 33.3415 45.1454 33.1889C45.1459 30.7898 45.1479 28.3906 45.1507 25.9913C45.1534 23.5289 45.1549 21.0665 45.155 18.604C45.1551 17.2212 45.1558 15.8383 45.1579 14.4553C45.1597 13.2778 45.1603 12.1003 45.1593 10.9228C45.1589 10.3219 45.159 9.72111 45.1606 9.12028C45.1622 8.5701 45.162 8.01994 45.1605 7.46975C45.1604 7.27086 45.1608 7.07197 45.1617 6.87308C45.1685 5.45409 45.11 4.35864 44.0853 3.27532C43.4073 2.67322 42.662 2.44754 41.7681 2.44022C41.6902 2.43945 41.6124 2.43868 41.5323 2.43789C41.2751 2.43558 41.0178 2.43421 40.7606 2.43304C40.6726 2.43257 40.5846 2.43209 40.4939 2.43159C40.0281 2.42915 39.5622 2.42747 39.0964 2.42637C38.6161 2.42508 38.1358 2.42105 37.6555 2.4164C37.2854 2.41332 36.9153 2.41235 36.5452 2.41193C36.3682 2.41136 36.1912 2.41 36.0142 2.40782C35.766 2.40496 35.5179 2.40507 35.2697 2.40588C35.1286 2.4052 34.9876 2.40451 34.8423 2.40381C34.1107 2.51126 33.6656 2.9784 33.2144 3.52434C33.0461 3.75096 32.9036 3.98262 32.7611 4.2261C32.307 4.97005 31.7246 5.44811 30.8808 5.68636C29.9313 5.86622 29.1208 5.82854 28.2715 5.34533C27.6712 4.91496 27.2668 4.36549 26.8945 3.73538C26.5453 3.14909 26.0837 2.67897 25.4297 2.46096C25.1754 2.44753 24.9207 2.44111 24.6661 2.43836C24.5505 2.43693 24.5505 2.43693 24.4326 2.43546C24.1776 2.43256 23.9227 2.43061 23.6677 2.42892C23.5803 2.4283 23.4929 2.42767 23.4028 2.42702C22.9394 2.4239 22.4762 2.42162 22.0128 2.41993C21.631 2.41838 21.2492 2.41512 20.8676 2.41032C20.4051 2.40451 19.9428 2.40164 19.4804 2.40081C19.305 2.40002 19.1297 2.39825 18.9543 2.39543C17.6645 2.37585 16.5408 2.51271 15.6518 3.54495Z" fill="white" fill-opacity="0.2"/>
<path d="M35.2734 21.5625C35.3586 21.6202 35.4437 21.6779 35.5315 21.7373C36.0925 22.1334 36.6882 22.5996 37.0312 23.2031C37.0005 23.6136 36.9118 23.7925 36.6796 24.1406C36.6023 24.1406 36.5249 24.1406 36.4452 24.1406C36.4159 24.2257 36.3866 24.3107 36.3564 24.3983C36.1982 24.7552 36.014 24.998 35.7568 25.2905C35.6376 25.4294 35.6376 25.4294 35.5159 25.5711C35.2734 25.7812 35.2734 25.7812 34.8046 25.7812C34.453 25.4046 34.453 25.4046 34.453 25.0781C34.3757 25.0781 34.2984 25.0781 34.2187 25.0781C34.2187 25.0008 34.2187 24.9234 34.2187 24.8437C34.1413 24.8437 34.064 24.8437 33.9843 24.8437C33.9843 24.7664 33.9843 24.6891 33.9843 24.6094C33.9164 24.5775 33.8487 24.5456 33.7787 24.5128C33.5168 24.3757 33.2929 24.2191 33.0542 24.0453C31.386 22.9269 29.4194 22.6515 27.4728 23.0137C26.0007 23.3259 24.6869 24.0859 23.6718 25.1953C23.6138 25.3113 23.6138 25.3113 23.5546 25.4297C23.4773 25.4297 23.3999 25.4297 23.3202 25.4297C23.2899 25.4924 23.2595 25.5551 23.2282 25.6196C23.1227 25.8265 23.0109 26.0303 22.8959 26.2322C22.8257 26.3565 22.7554 26.4807 22.6831 26.6088C22.6131 26.731 22.5432 26.8533 22.4711 26.9793C21.9757 27.966 21.8569 28.9757 21.87 30.0659C21.8687 30.1788 21.8673 30.2918 21.8659 30.408C21.8706 31.5669 22.1991 32.5282 22.7196 33.5522C22.7578 33.6315 22.7961 33.7107 22.8354 33.7923C23.0893 34.2984 23.3765 34.644 23.789 35.0391C23.8277 35.1551 23.8663 35.2711 23.9062 35.3906C24.1132 35.5098 24.1132 35.5098 24.3749 35.625C24.6072 35.7759 24.8391 35.9273 25.0708 36.0791C26.7314 37.1318 28.7477 37.4096 30.6665 37.0166C31.889 36.696 33.0057 36.0695 33.9843 35.2734C34.023 35.1961 34.0616 35.1187 34.1015 35.0391C34.1788 35.0391 34.2562 35.0391 34.3359 35.0391C34.3667 34.9721 34.3975 34.9052 34.4293 34.8363C34.5794 34.5532 34.7562 34.3191 34.9511 34.0649C35.4911 33.3098 35.7707 32.507 36.0937 31.6406C35.4362 31.6406 34.7788 31.6406 34.1015 31.6406C33.9843 31.1719 33.9843 31.1719 34.0969 30.9591C34.1516 30.8914 34.2062 30.8239 34.2626 30.7543C34.4758 30.487 34.5766 30.3327 34.6874 30C34.7648 30 34.8421 30 34.9218 30C34.9653 29.9094 34.9653 29.9094 35.0097 29.8168C35.3916 29.0721 35.834 28.3943 36.3208 27.7148C36.3808 27.6303 36.4408 27.546 36.5027 27.4589C36.6784 27.212 36.8548 26.9653 37.0312 26.7187C37.1437 26.5612 37.2562 26.4039 37.3686 26.2464C37.4506 26.1315 37.5326 26.0167 37.6171 25.8984C38.0687 25.9915 38.0687 25.9915 38.2227 26.2084C38.2622 26.2922 38.3016 26.376 38.3423 26.4623C38.6627 27.0902 39.0808 27.6217 39.5164 28.1716C39.7265 28.4766 39.7265 28.4766 39.7265 28.8281C39.8038 28.8281 39.8812 28.8281 39.9609 28.8281C40.1087 29.0433 40.1087 29.0433 40.2759 29.3408C40.5945 29.8961 40.9516 30.4032 41.341 30.9109C41.4843 31.1719 41.4843 31.1719 41.3671 31.6406C40.7097 31.6406 40.0523 31.6406 39.3749 31.6406C39.3435 31.788 39.3121 31.9355 39.2798 32.0873C39.2336 32.2901 39.1872 32.4927 39.1405 32.6953C39.1084 32.8455 39.1084 32.8455 39.0755 32.9988C38.5388 35.2554 36.8261 37.4227 34.9127 38.7002C32.3953 40.2146 29.5281 40.9435 26.5978 40.2857C26.2421 40.1916 25.8945 40.0814 25.5468 39.9609C25.3844 39.9061 25.3844 39.9061 25.2186 39.8502C23.5257 39.2236 22.036 38.1668 20.8593 36.7969C20.8593 36.7195 20.8593 36.6422 20.8593 36.5625C20.7819 36.5625 20.7046 36.5625 20.6249 36.5625C19.0248 34.5697 18.2893 31.7468 18.4844 29.2229C18.7309 27.0285 19.5427 24.9231 21.0571 23.291C21.4093 22.9239 21.4093 22.9239 21.6796 22.5C21.7569 22.5 21.8343 22.5 21.914 22.5C21.914 22.4227 21.914 22.3453 21.914 22.2656C23.2612 21.0928 24.7697 20.286 26.4843 19.8047C26.5858 19.7756 26.6874 19.7467 26.7919 19.7168C29.7753 19.0283 32.8159 19.8359 35.2734 21.5625Z" fill="#3AE0C5"/>
<path d="M19.2023 2.39136C19.3802 2.39156 19.5581 2.39154 19.7361 2.39133C20.1068 2.39153 20.4775 2.3937 20.8482 2.39742C21.3222 2.40208 21.7959 2.40257 22.2698 2.4017C22.6364 2.40134 23.003 2.40276 23.3695 2.40476C23.5443 2.40558 23.719 2.40595 23.8937 2.40585C24.1379 2.40606 24.382 2.40858 24.6263 2.41172C24.834 2.4132 24.834 2.4132 25.046 2.41471C25.8407 2.51043 26.2679 2.90783 26.7595 3.4941C26.9407 3.73348 27.0946 3.97458 27.2461 4.23339C27.697 4.98344 28.3368 5.49345 29.1797 5.74218C30.2282 5.86403 31.2479 5.73105 32.1172 5.09674C32.5736 4.6729 32.8363 4.20737 33.1184 3.65845C33.4338 3.15495 33.9209 2.72705 34.4531 2.46093C34.7036 2.44776 34.9545 2.44225 35.2052 2.44019C35.2825 2.43942 35.3597 2.43865 35.4393 2.43786C35.6954 2.43554 35.9516 2.43418 36.2078 2.43301C36.2954 2.43254 36.3831 2.43206 36.4734 2.43156C36.9382 2.42911 37.4029 2.42744 37.8676 2.42634C38.3456 2.42505 38.8238 2.42103 39.3018 2.41636C39.6709 2.41328 40.0399 2.41231 40.4091 2.4119C40.5851 2.41133 40.7612 2.40998 40.9372 2.40779C42.3162 2.39176 43.2971 2.56763 44.329 3.5234C44.9782 4.25055 45.1317 5.03774 45.1327 5.98696C45.1329 6.07108 45.1331 6.1552 45.1334 6.24186C45.1339 6.52519 45.1338 6.80852 45.1337 7.09184C45.1339 7.29645 45.1343 7.50106 45.1348 7.70566C45.1357 8.26908 45.1358 8.8325 45.1359 9.39592C45.1362 10.0031 45.1371 10.6103 45.1378 11.2175C45.1395 12.5459 45.1402 13.8741 45.1406 15.2024C45.141 16.0316 45.1414 16.8608 45.142 17.6899C45.1434 19.9851 45.1446 22.2803 45.1451 24.5754C45.1451 24.7223 45.1451 24.8693 45.1451 25.0207C45.1452 25.168 45.1452 25.3153 45.1452 25.4671C45.1453 25.7655 45.1453 26.064 45.1453 26.3625C45.1454 26.5105 45.1454 26.6586 45.1454 26.8111C45.1459 29.2103 45.1479 31.6096 45.1507 34.0087C45.1534 36.4711 45.1549 38.9335 45.155 41.396C45.1552 42.7788 45.1559 44.1618 45.158 45.5447C45.1597 46.7222 45.1603 47.8997 45.1594 49.0773C45.1589 49.6781 45.159 50.2789 45.1607 50.8798C45.1622 51.43 45.1621 51.98 45.1607 52.5302C45.1604 52.7292 45.1608 52.9281 45.1617 53.1269C45.1686 54.546 45.1102 55.6414 44.0854 56.7247C43.3336 57.3922 42.5265 57.5565 41.5481 57.5571C41.4458 57.5576 41.3435 57.5582 41.2381 57.5586C40.8936 57.5603 40.5493 57.561 40.2049 57.5617C39.9586 57.5626 39.7122 57.5635 39.4658 57.5646C38.6554 57.5676 37.8449 57.5694 37.0345 57.571C36.7555 57.5718 36.4765 57.5723 36.1976 57.573C35.037 57.5755 33.8763 57.5777 32.7157 57.579C31.0526 57.5809 29.3895 57.5849 27.7263 57.5916C26.5569 57.596 25.3875 57.5984 24.2181 57.5989C23.5198 57.5994 22.8213 57.6008 22.123 57.6046C21.4656 57.6081 20.8082 57.6089 20.1507 57.6075C19.9099 57.6075 19.6691 57.6084 19.4283 57.6104C18.0388 57.6217 16.9847 57.6169 15.8647 56.7022C15.7945 56.6207 15.7242 56.5391 15.6519 56.4551C15.5795 56.3747 15.5072 56.2943 15.4327 56.2116C14.766 55.1584 14.833 54.0342 14.8382 52.8377C14.8378 52.6325 14.8372 52.4275 14.8365 52.2224C14.8351 51.6602 14.8358 51.0982 14.8369 50.536C14.8377 49.9293 14.8364 49.3225 14.8355 48.7157C14.8339 47.5276 14.8343 46.3394 14.8352 45.1514C14.8361 44.1858 14.8362 43.22 14.8358 42.2544C14.8357 42.1169 14.8357 41.9796 14.8356 41.8379C14.8355 41.5587 14.8354 41.2794 14.8352 41.0003C14.8343 38.3821 14.8355 35.7639 14.8373 33.1457C14.8389 30.8993 14.8386 28.653 14.837 26.4067C14.8351 23.7978 14.8344 21.189 14.8355 18.5802C14.8356 18.302 14.8357 18.0238 14.8358 17.7456C14.8358 17.6087 14.8359 17.4718 14.8359 17.3307C14.8363 16.3663 14.8357 15.4018 14.8349 14.4375C14.8339 13.2621 14.8342 12.0867 14.8361 10.9113C14.837 10.3117 14.8373 9.71201 14.8362 9.11237C14.8351 8.56328 14.8357 8.01424 14.8376 7.46517C14.8379 7.26669 14.8378 7.0682 14.8369 6.86972C14.8274 4.46065 14.8274 4.46065 15.6519 3.54492C15.7573 3.42256 15.7573 3.42256 15.8647 3.29772C16.9018 2.45077 17.9099 2.37577 19.2023 2.39136ZM16.4063 4.45312C15.9734 5.08709 15.9229 5.56608 15.9222 6.32787C15.9219 6.41084 15.9217 6.4938 15.9214 6.57928C15.9207 6.85869 15.9209 7.1381 15.9211 7.41751C15.9207 7.61929 15.9204 7.82108 15.92 8.02286C15.9191 8.57849 15.9189 9.13413 15.9188 9.68976C15.9185 10.2886 15.9177 10.8874 15.9169 11.4862C15.9152 12.796 15.9145 14.106 15.9141 15.4158C15.9137 16.2335 15.9132 17.0511 15.9127 17.8687C15.9113 20.1319 15.9101 22.395 15.9097 24.658C15.9096 24.803 15.9096 24.9478 15.9096 25.0971C15.9096 25.2423 15.9096 25.3875 15.9095 25.5371C15.9095 25.8314 15.9094 26.1258 15.9094 26.42C15.9094 26.566 15.9093 26.7121 15.9093 26.8624C15.9088 29.2283 15.9068 31.5943 15.9041 33.9602C15.9013 36.3884 15.8998 38.8165 15.8997 41.2446C15.8995 42.6083 15.8989 43.972 15.8967 45.3357C15.895 46.4968 15.8944 47.6579 15.8953 48.819C15.8958 49.4115 15.8957 50.004 15.894 50.5965C15.8925 51.139 15.8927 51.6814 15.8941 52.2239C15.8944 52.4201 15.894 52.6162 15.893 52.8125C15.8577 54.3901 15.8577 54.3901 16.5674 55.7592C17.2897 56.3612 17.8491 56.5018 18.7739 56.5016C18.9226 56.5023 18.9226 56.5023 19.0744 56.5029C19.408 56.5042 19.7415 56.5046 20.0752 56.5051C20.3138 56.5058 20.5525 56.5066 20.7912 56.5075C21.4405 56.5094 22.09 56.5107 22.7393 56.5117C23.145 56.5123 23.5506 56.513 23.9563 56.5138C25.2253 56.516 26.4945 56.5176 27.7635 56.5186C29.2287 56.5198 30.6939 56.5228 32.1591 56.5276C33.2913 56.5311 34.4236 56.5329 35.556 56.5332C36.2323 56.5335 36.9087 56.5345 37.585 56.5375C38.2214 56.5403 38.8579 56.5407 39.4944 56.5396C39.7277 56.5394 39.9611 56.5403 40.1945 56.5418C40.5136 56.5439 40.8326 56.5431 41.1518 56.5416C41.2437 56.5428 41.3355 56.5441 41.4301 56.5454C42.1845 56.5366 42.7841 56.3039 43.3622 55.8151C43.4145 55.7508 43.4667 55.6864 43.5205 55.6201C43.5747 55.5564 43.6287 55.4926 43.6845 55.427C44.038 54.8572 44.0919 54.3022 44.0924 53.6433C44.0929 53.5185 44.0929 53.5185 44.0934 53.3911C44.0945 53.1121 44.0938 52.8333 44.0931 52.5543C44.0934 52.3523 44.0939 52.1503 44.0944 51.9483C44.0957 51.3933 44.0954 50.8382 44.0948 50.283C44.0946 49.6843 44.0957 49.0857 44.0965 48.487C44.098 47.3142 44.0982 46.1414 44.098 44.9686C44.0978 44.0154 44.0979 43.0622 44.0985 42.109C44.0986 41.9057 44.0986 41.9057 44.0987 41.6981C44.0988 41.4227 44.0989 41.1473 44.0991 40.8718C44.1004 38.288 44.1001 35.7041 44.0994 33.1202C44.0988 30.7559 44.1001 28.3915 44.1023 26.0271C44.1046 23.6 44.1056 21.173 44.1052 18.7458C44.1049 17.3829 44.1052 16.02 44.1068 14.6571C44.1082 13.4969 44.1084 12.3367 44.107 11.1764C44.1063 10.5844 44.1062 9.99233 44.1076 9.40028C44.1089 8.85828 44.1084 8.31631 44.1068 7.77431C44.1066 7.57826 44.1068 7.38222 44.1077 7.18618C44.1507 5.65155 44.1507 5.65155 43.4922 4.30755C43.4145 4.24441 43.3369 4.18127 43.2568 4.1162C43.1798 4.05125 43.1027 3.98629 43.0234 3.91937C42.514 3.57413 42.0761 3.48591 41.4652 3.48158C41.3221 3.48008 41.1789 3.47859 41.0314 3.47704C40.8777 3.47678 40.7241 3.47653 40.5656 3.47626C40.4053 3.47549 40.2449 3.47471 40.0846 3.47389C39.7489 3.47248 39.4133 3.47205 39.0777 3.47219C38.6489 3.47221 38.2201 3.46901 37.7912 3.46498C37.4602 3.46237 37.1291 3.4619 36.7981 3.46202C36.5634 3.46161 36.3288 3.45908 36.0943 3.4565C35.058 3.45018 35.058 3.45018 34.2188 3.98437C33.9961 4.30653 33.9961 4.30653 33.8232 4.66552C33.2872 5.63281 32.5706 6.29803 31.5234 6.67968C30.1047 7.07633 28.9215 6.96721 27.627 6.24023C26.7739 5.6964 26.3227 5.0106 25.8504 4.12903C25.6228 3.80914 25.4295 3.69028 25.0781 3.51562C24.732 3.46288 24.732 3.46288 24.3577 3.47013C24.2149 3.46903 24.0722 3.46791 23.925 3.46678C23.7717 3.46748 23.6184 3.46819 23.4604 3.46893C23.3003 3.46869 23.1402 3.46835 22.9801 3.46791C22.645 3.4674 22.3099 3.46815 21.9748 3.46979C21.547 3.47179 21.1193 3.47064 20.6914 3.46853C20.361 3.46726 20.0304 3.46767 19.6998 3.46858C19.4659 3.46892 19.2321 3.46787 18.9982 3.46678C17.8808 3.4754 17.1664 3.5663 16.4063 4.45312Z" fill="#3AE0C5"/>
<mask id="mask0_2719_7328" style="mask-type:luminance" maskUnits="userSpaceOnUse" x="14" y="1" width="32" height="58">
<path d="M45.6543 1.80371H14.248V58.1709H45.6543V1.80371Z" fill="white"/>
<path d="M19.2023 2.39136C19.3802 2.39156 19.5581 2.39154 19.7361 2.39133C20.1068 2.39153 20.4775 2.3937 20.8482 2.39742C21.3222 2.40208 21.7959 2.40257 22.2698 2.4017C22.6364 2.40134 23.003 2.40276 23.3695 2.40476C23.5443 2.40558 23.719 2.40595 23.8937 2.40585C24.1379 2.40606 24.382 2.40858 24.6263 2.41172C24.834 2.4132 24.834 2.4132 25.046 2.41471C25.8407 2.51043 26.2679 2.90783 26.7595 3.4941C26.9407 3.73348 27.0946 3.97458 27.2461 4.23339C27.697 4.98344 28.3368 5.49345 29.1797 5.74218C30.2282 5.86403 31.2479 5.73105 32.1172 5.09674C32.5736 4.6729 32.8363 4.20737 33.1184 3.65845C33.4338 3.15495 33.9209 2.72705 34.4531 2.46093C34.7036 2.44776 34.9545 2.44225 35.2052 2.44019C35.2825 2.43942 35.3597 2.43865 35.4393 2.43786C35.6954 2.43554 35.9516 2.43418 36.2078 2.43301C36.2954 2.43254 36.3831 2.43206 36.4734 2.43156C36.9382 2.42911 37.4029 2.42744 37.8676 2.42634C38.3456 2.42505 38.8238 2.42103 39.3018 2.41636C39.6709 2.41328 40.0399 2.41231 40.4091 2.4119C40.5851 2.41133 40.7612 2.40998 40.9372 2.40779C42.3162 2.39176 43.2971 2.56763 44.329 3.5234C44.9782 4.25055 45.1317 5.03774 45.1327 5.98696C45.1329 6.07108 45.1331 6.1552 45.1334 6.24186C45.1339 6.52519 45.1338 6.80852 45.1337 7.09184C45.1339 7.29645 45.1343 7.50106 45.1348 7.70566C45.1357 8.26908 45.1358 8.8325 45.1359 9.39592C45.1362 10.0031 45.1371 10.6103 45.1378 11.2175C45.1395 12.5459 45.1402 13.8741 45.1406 15.2024C45.141 16.0316 45.1414 16.8608 45.142 17.6899C45.1434 19.9851 45.1446 22.2803 45.1451 24.5754C45.1451 24.7223 45.1451 24.8693 45.1451 25.0207C45.1452 25.168 45.1452 25.3153 45.1452 25.4671C45.1453 25.7655 45.1453 26.064 45.1453 26.3625C45.1454 26.5105 45.1454 26.6586 45.1454 26.8111C45.1459 29.2103 45.1479 31.6096 45.1507 34.0087C45.1534 36.4711 45.1549 38.9335 45.155 41.396C45.1552 42.7788 45.1559 44.1618 45.158 45.5447C45.1597 46.7222 45.1603 47.8997 45.1594 49.0773C45.1589 49.6781 45.159 50.2789 45.1607 50.8798C45.1622 51.43 45.1621 51.98 45.1607 52.5302C45.1604 52.7292 45.1608 52.9281 45.1617 53.1269C45.1686 54.546 45.1102 55.6414 44.0854 56.7247C43.3336 57.3922 42.5265 57.5565 41.5481 57.5571C41.4458 57.5576 41.3435 57.5582 41.2381 57.5586C40.8936 57.5603 40.5493 57.561 40.2049 57.5617C39.9586 57.5626 39.7122 57.5635 39.4658 57.5646C38.6554 57.5676 37.8449 57.5694 37.0345 57.571C36.7555 57.5718 36.4765 57.5723 36.1976 57.573C35.037 57.5755 33.8763 57.5777 32.7157 57.579C31.0526 57.5809 29.3895 57.5849 27.7263 57.5916C26.5569 57.596 25.3875 57.5984 24.2181 57.5989C23.5198 57.5994 22.8213 57.6008 22.123 57.6046C21.4656 57.6081 20.8082 57.6089 20.1507 57.6075C19.9099 57.6075 19.6691 57.6084 19.4283 57.6104C18.0388 57.6217 16.9847 57.6169 15.8647 56.7022C15.7945 56.6207 15.7242 56.5391 15.6519 56.4551C15.5795 56.3747 15.5072 56.2943 15.4327 56.2116C14.766 55.1584 14.833 54.0342 14.8382 52.8377C14.8378 52.6325 14.8372 52.4275 14.8365 52.2224C14.8351 51.6602 14.8358 51.0982 14.8369 50.536C14.8377 49.9293 14.8364 49.3225 14.8355 48.7157C14.8339 47.5276 14.8343 46.3394 14.8352 45.1514C14.8361 44.1858 14.8362 43.22 14.8358 42.2544C14.8357 42.1169 14.8357 41.9796 14.8356 41.8379C14.8355 41.5587 14.8354 41.2794 14.8352 41.0003C14.8343 38.3821 14.8355 35.7639 14.8373 33.1457C14.8389 30.8993 14.8386 28.653 14.837 26.4067C14.8351 23.7978 14.8344 21.189 14.8355 18.5802C14.8356 18.302 14.8357 18.0238 14.8358 17.7456C14.8358 17.6087 14.8359 17.4718 14.8359 17.3307C14.8363 16.3663 14.8357 15.4018 14.8349 14.4375C14.8339 13.2621 14.8342 12.0867 14.8361 10.9113C14.837 10.3117 14.8373 9.71201 14.8362 9.11237C14.8351 8.56328 14.8357 8.01424 14.8376 7.46517C14.8379 7.26669 14.8378 7.0682 14.8369 6.86972C14.8274 4.46065 14.8274 4.46065 15.6519 3.54492C15.7573 3.42256 15.7573 3.42256 15.8647 3.29772C16.9018 2.45077 17.9099 2.37577 19.2023 2.39136ZM16.4063 4.45312C15.9734 5.08709 15.9229 5.56608 15.9222 6.32787C15.9219 6.41084 15.9217 6.4938 15.9214 6.57928C15.9207 6.85869 15.9209 7.1381 15.9211 7.41751C15.9207 7.61929 15.9204 7.82108 15.92 8.02286C15.9191 8.57849 15.9189 9.13413 15.9188 9.68976C15.9185 10.2886 15.9177 10.8874 15.9169 11.4862C15.9152 12.796 15.9145 14.106 15.9141 15.4158C15.9137 16.2335 15.9132 17.0511 15.9127 17.8687C15.9113 20.1319 15.9101 22.395 15.9097 24.658C15.9096 24.803 15.9096 24.9478 15.9096 25.0971C15.9096 25.2423 15.9096 25.3875 15.9095 25.5371C15.9095 25.8314 15.9094 26.1258 15.9094 26.42C15.9094 26.566 15.9093 26.7121 15.9093 26.8624C15.9088 29.2283 15.9068 31.5943 15.9041 33.9602C15.9013 36.3884 15.8998 38.8165 15.8997 41.2446C15.8995 42.6083 15.8989 43.972 15.8967 45.3357C15.895 46.4968 15.8944 47.6579 15.8953 48.819C15.8958 49.4115 15.8957 50.004 15.894 50.5965C15.8925 51.139 15.8927 51.6814 15.8941 52.2239C15.8944 52.4201 15.894 52.6162 15.893 52.8125C15.8577 54.3901 15.8577 54.3901 16.5674 55.7592C17.2897 56.3612 17.8491 56.5018 18.7739 56.5016C18.9226 56.5023 18.9226 56.5023 19.0744 56.5029C19.408 56.5042 19.7415 56.5046 20.0752 56.5051C20.3138 56.5058 20.5525 56.5066 20.7912 56.5075C21.4405 56.5094 22.09 56.5107 22.7393 56.5117C23.145 56.5123 23.5506 56.513 23.9563 56.5138C25.2253 56.516 26.4945 56.5176 27.7635 56.5186C29.2287 56.5198 30.6939 56.5228 32.1591 56.5276C33.2913 56.5311 34.4236 56.5329 35.556 56.5332C36.2323 56.5335 36.9087 56.5345 37.585 56.5375C38.2214 56.5403 38.8579 56.5407 39.4944 56.5396C39.7277 56.5394 39.9611 56.5403 40.1945 56.5418C40.5136 56.5439 40.8326 56.5431 41.1518 56.5416C41.2437 56.5428 41.3355 56.5441 41.4301 56.5454C42.1845 56.5366 42.7841 56.3039 43.3622 55.8151C43.4145 55.7508 43.4667 55.6864 43.5205 55.6201C43.5747 55.5564 43.6287 55.4926 43.6845 55.427C44.038 54.8572 44.0919 54.3022 44.0924 53.6433C44.0929 53.5185 44.0929 53.5185 44.0934 53.3911C44.0945 53.1121 44.0938 52.8333 44.0931 52.5543C44.0934 52.3523 44.0939 52.1503 44.0944 51.9483C44.0957 51.3933 44.0954 50.8382 44.0948 50.283C44.0946 49.6843 44.0957 49.0857 44.0965 48.487C44.098 47.3142 44.0982 46.1414 44.098 44.9686C44.0978 44.0154 44.0979 43.0622 44.0985 42.109C44.0986 41.9057 44.0986 41.9057 44.0987 41.6981C44.0988 41.4227 44.0989 41.1473 44.0991 40.8718C44.1004 38.288 44.1001 35.7041 44.0994 33.1202C44.0988 30.7559 44.1001 28.3915 44.1023 26.0271C44.1046 23.6 44.1056 21.173 44.1052 18.7458C44.1049 17.3829 44.1052 16.02 44.1068 14.6571C44.1082 13.4969 44.1084 12.3367 44.107 11.1764C44.1063 10.5844 44.1062 9.99233 44.1076 9.40028C44.1089 8.85828 44.1084 8.31631 44.1068 7.77431C44.1066 7.57826 44.1068 7.38222 44.1077 7.18618C44.1507 5.65155 44.1507 5.65155 43.4922 4.30755C43.4145 4.24441 43.3369 4.18127 43.2568 4.1162C43.1798 4.05125 43.1027 3.98629 43.0234 3.91937C42.514 3.57413 42.0761 3.48591 41.4652 3.48158C41.3221 3.48008 41.1789 3.47859 41.0314 3.47704C40.8777 3.47678 40.7241 3.47653 40.5656 3.47626C40.4053 3.47549 40.2449 3.47471 40.0846 3.47389C39.7489 3.47248 39.4133 3.47205 39.0777 3.47219C38.6489 3.47221 38.2201 3.46901 37.7912 3.46498C37.4602 3.46237 37.1291 3.4619 36.7981 3.46202C36.5634 3.46161 36.3288 3.45908 36.0943 3.4565C35.058 3.45018 35.058 3.45018 34.2188 3.98437C33.9961 4.30653 33.9961 4.30653 33.8232 4.66552C33.2872 5.63281 32.5706 6.29803 31.5234 6.67968C30.1047 7.07633 28.9215 6.96721 27.627 6.24023C26.7739 5.6964 26.3227 5.0106 25.8504 4.12903C25.6228 3.80914 25.4295 3.69028 25.0781 3.51562C24.732 3.46288 24.732 3.46288 24.3577 3.47013C24.2149 3.46903 24.0722 3.46791 23.925 3.46678C23.7717 3.46748 23.6184 3.46819 23.4604 3.46893C23.3003 3.46869 23.1402 3.46835 22.9801 3.46791C22.645 3.4674 22.3099 3.46815 21.9748 3.46979C21.547 3.47179 21.1193 3.47064 20.6914 3.46853C20.361 3.46726 20.0304 3.46767 19.6998 3.46858C19.4659 3.46892 19.2321 3.46787 18.9982 3.46678C17.8808 3.4754 17.1664 3.5663 16.4063 4.45312Z" fill="black"/>
</mask>
<g mask="url(#mask0_2719_7328)">
<path d="M19.2023 2.39136C19.3802 2.39156 19.5581 2.39154 19.7361 2.39133C20.1068 2.39153 20.4775 2.3937 20.8482 2.39742C21.3222 2.40208 21.7959 2.40257 22.2698 2.4017C22.6364 2.40134 23.003 2.40276 23.3695 2.40476C23.5443 2.40558 23.719 2.40595 23.8937 2.40585C24.1379 2.40606 24.382 2.40858 24.6263 2.41172C24.834 2.4132 24.834 2.4132 25.046 2.41471C25.8407 2.51043 26.2679 2.90783 26.7595 3.4941C26.9407 3.73348 27.0946 3.97458 27.2461 4.23339C27.697 4.98344 28.3368 5.49345 29.1797 5.74218C30.2282 5.86403 31.2479 5.73105 32.1172 5.09674C32.5736 4.6729 32.8363 4.20737 33.1184 3.65845C33.4338 3.15495 33.9209 2.72705 34.4531 2.46093C34.7036 2.44776 34.9545 2.44225 35.2052 2.44019C35.2825 2.43942 35.3597 2.43865 35.4393 2.43786C35.6954 2.43554 35.9516 2.43418 36.2078 2.43301C36.2954 2.43254 36.3831 2.43206 36.4734 2.43156C36.9382 2.42911 37.4029 2.42744 37.8676 2.42634C38.3456 2.42505 38.8238 2.42103 39.3018 2.41636C39.6709 2.41328 40.0399 2.41231 40.4091 2.4119C40.5851 2.41133 40.7612 2.40998 40.9372 2.40779C42.3162 2.39176 43.2971 2.56763 44.329 3.5234C44.9782 4.25055 45.1317 5.03774 45.1327 5.98696C45.1329 6.07108 45.1331 6.1552 45.1334 6.24186C45.1339 6.52519 45.1338 6.80852 45.1337 7.09184C45.1339 7.29645 45.1343 7.50106 45.1348 7.70566C45.1357 8.26908 45.1358 8.8325 45.1359 9.39592C45.1362 10.0031 45.1371 10.6103 45.1378 11.2175C45.1395 12.5459 45.1402 13.8741 45.1406 15.2024C45.141 16.0316 45.1414 16.8608 45.142 17.6899C45.1434 19.9851 45.1446 22.2803 45.1451 24.5754C45.1451 24.7223 45.1451 24.8693 45.1451 25.0207C45.1452 25.168 45.1452 25.3153 45.1452 25.4671C45.1453 25.7655 45.1453 26.064 45.1453 26.3625C45.1454 26.5105 45.1454 26.6586 45.1454 26.8111C45.1459 29.2103 45.1479 31.6096 45.1507 34.0087C45.1534 36.4711 45.1549 38.9335 45.155 41.396C45.1552 42.7788 45.1559 44.1618 45.158 45.5447C45.1597 46.7222 45.1603 47.8997 45.1594 49.0773C45.1589 49.6781 45.159 50.2789 45.1607 50.8798C45.1622 51.43 45.1621 51.98 45.1607 52.5302C45.1604 52.7292 45.1608 52.9281 45.1617 53.1269C45.1686 54.546 45.1102 55.6414 44.0854 56.7247C43.3336 57.3922 42.5265 57.5565 41.5481 57.5571C41.4458 57.5576 41.3435 57.5582 41.2381 57.5586C40.8936 57.5603 40.5493 57.561 40.2049 57.5617C39.9586 57.5626 39.7122 57.5635 39.4658 57.5646C38.6554 57.5676 37.8449 57.5694 37.0345 57.571C36.7555 57.5718 36.4765 57.5723 36.1976 57.573C35.037 57.5755 33.8763 57.5777 32.7157 57.579C31.0526 57.5809 29.3895 57.5849 27.7263 57.5916C26.5569 57.596 25.3875 57.5984 24.2181 57.5989C23.5198 57.5994 22.8213 57.6008 22.123 57.6046C21.4656 57.6081 20.8082 57.6089 20.1507 57.6075C19.9099 57.6075 19.6691 57.6084 19.4283 57.6104C18.0388 57.6217 16.9847 57.6169 15.8647 56.7022C15.7945 56.6207 15.7242 56.5391 15.6519 56.4551C15.5795 56.3747 15.5072 56.2943 15.4327 56.2116C14.766 55.1584 14.833 54.0342 14.8382 52.8377C14.8378 52.6325 14.8372 52.4275 14.8365 52.2224C14.8351 51.6602 14.8358 51.0982 14.8369 50.536C14.8377 49.9293 14.8364 49.3225 14.8355 48.7157C14.8339 47.5276 14.8343 46.3394 14.8352 45.1514C14.8361 44.1858 14.8362 43.22 14.8358 42.2544C14.8357 42.1169 14.8357 41.9796 14.8356 41.8379C14.8355 41.5587 14.8354 41.2794 14.8352 41.0003C14.8343 38.3821 14.8355 35.7639 14.8373 33.1457C14.8389 30.8993 14.8386 28.653 14.837 26.4067C14.8351 23.7978 14.8344 21.189 14.8355 18.5802C14.8356 18.302 14.8357 18.0238 14.8358 17.7456C14.8358 17.6087 14.8359 17.4718 14.8359 17.3307C14.8363 16.3663 14.8357 15.4018 14.8349 14.4375C14.8339 13.2621 14.8342 12.0867 14.8361 10.9113C14.837 10.3117 14.8373 9.71201 14.8362 9.11237C14.8351 8.56328 14.8357 8.01424 14.8376 7.46517C14.8379 7.26669 14.8378 7.0682 14.8369 6.86972C14.8274 4.46065 14.8274 4.46065 15.6519 3.54492C15.7573 3.42256 15.7573 3.42256 15.8647 3.29772C16.9018 2.45077 17.9099 2.37577 19.2023 2.39136ZM16.4063 4.45312C15.9734 5.08709 15.9229 5.56608 15.9222 6.32787C15.9219 6.41084 15.9217 6.4938 15.9214 6.57928C15.9207 6.85869 15.9209 7.1381 15.9211 7.41751C15.9207 7.61929 15.9204 7.82108 15.92 8.02286C15.9191 8.57849 15.9189 9.13413 15.9188 9.68976C15.9185 10.2886 15.9177 10.8874 15.9169 11.4862C15.9152 12.796 15.9145 14.106 15.9141 15.4158C15.9137 16.2335 15.9132 17.0511 15.9127 17.8687C15.9113 20.1319 15.9101 22.395 15.9097 24.658C15.9096 24.803 15.9096 24.9478 15.9096 25.0971C15.9096 25.2423 15.9096 25.3875 15.9095 25.5371C15.9095 25.8314 15.9094 26.1258 15.9094 26.42C15.9094 26.566 15.9093 26.7121 15.9093 26.8624C15.9088 29.2283 15.9068 31.5943 15.9041 33.9602C15.9013 36.3884 15.8998 38.8165 15.8997 41.2446C15.8995 42.6083 15.8989 43.972 15.8967 45.3357C15.895 46.4968 15.8944 47.6579 15.8953 48.819C15.8958 49.4115 15.8957 50.004 15.894 50.5965C15.8925 51.139 15.8927 51.6814 15.8941 52.2239C15.8944 52.4201 15.894 52.6162 15.893 52.8125C15.8577 54.3901 15.8577 54.3901 16.5674 55.7592C17.2897 56.3612 17.8491 56.5018 18.7739 56.5016C18.9226 56.5023 18.9226 56.5023 19.0744 56.5029C19.408 56.5042 19.7415 56.5046 20.0752 56.5051C20.3138 56.5058 20.5525 56.5066 20.7912 56.5075C21.4405 56.5094 22.09 56.5107 22.7393 56.5117C23.145 56.5123 23.5506 56.513 23.9563 56.5138C25.2253 56.516 26.4945 56.5176 27.7635 56.5186C29.2287 56.5198 30.6939 56.5228 32.1591 56.5276C33.2913 56.5311 34.4236 56.5329 35.556 56.5332C36.2323 56.5335 36.9087 56.5345 37.585 56.5375C38.2214 56.5403 38.8579 56.5407 39.4944 56.5396C39.7277 56.5394 39.9611 56.5403 40.1945 56.5418C40.5136 56.5439 40.8326 56.5431 41.1518 56.5416C41.2437 56.5428 41.3355 56.5441 41.4301 56.5454C42.1845 56.5366 42.7841 56.3039 43.3622 55.8151C43.4145 55.7508 43.4667 55.6864 43.5205 55.6201C43.5747 55.5564 43.6287 55.4926 43.6845 55.427C44.038 54.8572 44.0919 54.3022 44.0924 53.6433C44.0929 53.5185 44.0929 53.5185 44.0934 53.3911C44.0945 53.1121 44.0938 52.8333 44.0931 52.5543C44.0934 52.3523 44.0939 52.1503 44.0944 51.9483C44.0957 51.3933 44.0954 50.8382 44.0948 50.283C44.0946 49.6843 44.0957 49.0857 44.0965 48.487C44.098 47.3142 44.0982 46.1414 44.098 44.9686C44.0978 44.0154 44.0979 43.0622 44.0985 42.109C44.0986 41.9057 44.0986 41.9057 44.0987 41.6981C44.0988 41.4227 44.0989 41.1473 44.0991 40.8718C44.1004 38.288 44.1001 35.7041 44.0994 33.1202C44.0988 30.7559 44.1001 28.3915 44.1023 26.0271C44.1046 23.6 44.1056 21.173 44.1052 18.7458C44.1049 17.3829 44.1052 16.02 44.1068 14.6571C44.1082 13.4969 44.1084 12.3367 44.107 11.1764C44.1063 10.5844 44.1062 9.99233 44.1076 9.40028C44.1089 8.85828 44.1084 8.31631 44.1068 7.77431C44.1066 7.57826 44.1068 7.38222 44.1077 7.18618C44.1507 5.65155 44.1507 5.65155 43.4922 4.30755C43.4145 4.24441 43.3369 4.18127 43.2568 4.1162C43.1798 4.05125 43.1027 3.98629 43.0234 3.91937C42.514 3.57413 42.0761 3.48591 41.4652 3.48158C41.3221 3.48008 41.1789 3.47859 41.0314 3.47704C40.8777 3.47678 40.7241 3.47653 40.5656 3.47626C40.4053 3.47549 40.2449 3.47471 40.0846 3.47389C39.7489 3.47248 39.4133 3.47205 39.0777 3.47219C38.6489 3.47221 38.2201 3.46901 37.7912 3.46498C37.4602 3.46237 37.1291 3.4619 36.7981 3.46202C36.5634 3.46161 36.3288 3.45908 36.0943 3.4565C35.058 3.45018 35.058 3.45018 34.2188 3.98437C33.9961 4.30653 33.9961 4.30653 33.8232 4.66552C33.2872 5.63281 32.5706 6.29803 31.5234 6.67968C30.1047 7.07633 28.9215 6.96721 27.627 6.24023C26.7739 5.6964 26.3227 5.0106 25.8504 4.12903C25.6228 3.80914 25.4295 3.69028 25.0781 3.51562C24.732 3.46288 24.732 3.46288 24.3577 3.47013C24.2149 3.46903 24.0722 3.46791 23.925 3.46678C23.7717 3.46748 23.6184 3.46819 23.4604 3.46893C23.3003 3.46869 23.1402 3.46835 22.9801 3.46791C22.645 3.4674 22.3099 3.46815 21.9748 3.46979C21.547 3.47179 21.1193 3.47064 20.6914 3.46853C20.361 3.46726 20.0304 3.46767 19.6998 3.46858C19.4659 3.46892 19.2321 3.46787 18.9982 3.46678C17.8808 3.4754 17.1664 3.5663 16.4063 4.45312Z" stroke="white" stroke-width="0.78125"/>
</g>
<path d="M52.6172 11.0156C52.8295 11.1328 52.8295 11.1328 52.9688 11.3672C53.0319 11.6814 53.0597 11.9839 53.0859 12.3047C53.214 12.2974 53.3421 12.2901 53.4741 12.2826C53.9063 12.3047 53.9062 12.3047 54.1334 12.4291C54.332 12.7916 54.3083 13.0728 54.2578 13.4765C54.0674 13.7035 54.0674 13.7035 53.7891 13.8281C53.4082 13.85 53.4082 13.85 53.0859 13.8281C53.0762 13.9755 53.0666 14.1229 53.0566 14.2748C53.0129 14.6123 52.9911 14.7383 52.7709 15.0072C52.3946 15.1598 52.181 15.1226 51.7969 15C51.483 14.7176 51.4479 14.5749 51.4233 14.1504C51.4305 14.044 51.4378 13.9377 51.4453 13.8281C51.3414 13.8402 51.2374 13.8522 51.1303 13.8647C50.7422 13.8281 50.7422 13.8281 50.3979 13.5791C50.1563 13.2422 50.1562 13.2422 50.1562 12.8686C50.2734 12.539 50.2734 12.539 50.625 12.3047C50.8983 12.2954 51.172 12.2944 51.4453 12.3047C51.4356 12.1789 51.426 12.0533 51.416 11.9238C51.4453 11.4844 51.4453 11.4844 51.6357 11.1987C51.9939 10.9631 52.196 10.9529 52.6172 11.0156Z" fill="#3AE0C5"/>
<path d="M8.55469 47.9297C8.68052 48.1185 8.80494 48.3084 8.91953 48.5041C9.4005 49.3205 9.90773 49.6965 10.7812 50.0391C10.6256 50.3503 10.4871 50.3573 10.166 50.4785C9.45682 50.7836 9.12191 51.1903 8.81104 51.8994C8.76511 52.0202 8.7192 52.1412 8.67188 52.2656C8.59453 52.2656 8.51719 52.2656 8.4375 52.2656C8.38432 52.1207 8.33115 51.9756 8.27637 51.8262C7.98865 51.0688 7.8504 50.8371 7.10632 50.4996C7.01387 50.4588 6.92142 50.418 6.82617 50.376C6.73252 50.3346 6.63886 50.2932 6.54236 50.2506C6.47166 50.2194 6.40097 50.1884 6.32812 50.1562C6.6038 49.9725 6.84309 49.8439 7.14111 49.7095C7.91231 49.3246 8.20384 48.6818 8.55469 47.9297Z" fill="#3AE0C5"/>
<path d="M50.0391 5.15625C50.1116 5.25776 50.1116 5.25776 50.1855 5.36133C50.5186 5.78946 50.8247 6.11235 51.3281 6.32812C51.2266 6.40063 51.2266 6.40063 51.123 6.47461C50.6945 6.80797 50.3543 7.17589 50.0391 7.61719C49.9762 7.51084 49.9134 7.40449 49.8486 7.29492C49.5819 6.89011 49.2816 6.69018 48.8672 6.44531C48.9844 6.21094 48.9844 6.21094 49.2553 6.06445C49.6352 5.81714 49.808 5.54143 50.0391 5.15625Z" fill="#3AE0C5"/>
<path d="M10.0269 55.2539C10.4297 55.3125 10.4297 55.3125 10.6494 55.459C10.8073 55.7045 10.8816 55.8387 10.8984 56.1328C10.7812 56.5064 10.7812 56.5064 10.5469 56.8359C10.1155 56.9693 9.86486 57.015 9.44824 56.8287C9.18346 56.5129 9.14062 56.3094 9.14062 55.8984C9.38284 55.4343 9.50353 55.3274 10.0269 55.2539Z" fill="#3AE0C5"/>
<path d="M50.1049 22.9102C50.5078 22.9688 50.5078 22.9688 50.7275 23.1152C50.8854 23.3607 50.9598 23.4949 50.9766 23.7891C50.8594 24.1627 50.8594 24.1627 50.625 24.4922C50.1936 24.6255 49.943 24.6713 49.5264 24.4849C49.2615 24.1691 49.2188 23.9657 49.2188 23.5547C49.461 23.0905 49.5817 22.9836 50.1049 22.9102Z" fill="#3AE0C5"/>
<path d="M52.6171 11.0156C52.6171 11.0543 52.6171 11.093 52.6171 11.1328C52.5059 11.1667 52.3948 11.2005 52.2802 11.2354C51.9079 11.34 51.9079 11.34 51.6796 11.6016C51.6331 11.8346 51.5932 12.069 51.5625 12.3047C51.5238 12.3047 51.4851 12.3047 51.4453 12.3047C51.3887 11.5693 51.3887 11.5693 51.6357 11.1988C51.9847 10.9692 52.2075 10.9784 52.6171 11.0156Z" fill="#498BA2"/>
</svg>
