<svg width="32" height="32" viewBox="0 0 32 32" fill="none" xmlns="http://www.w3.org/2000/svg">
<path d="M16.2653 10.1252C16.57 10.1171 16.57 10.1171 16.8809 10.1089C18.1403 10.1036 18.9032 10.2173 19.8883 11.0822C20.4744 11.9613 20.3599 12.4476 20.3258 13.4885C20.4843 13.4758 20.6428 13.4631 20.806 13.45C21.1233 13.4352 21.1233 13.4352 21.4469 13.4201C21.7591 13.4011 21.7591 13.4011 22.0775 13.3816C22.9694 13.5272 23.4823 13.9012 24.0446 14.5822C24.456 15.2888 24.7632 16.0264 25.0699 16.7834C25.2059 17.1096 25.2059 17.1096 25.3446 17.4425C25.5397 17.9138 25.733 18.3859 25.9245 18.8587C26.1903 19.511 26.4621 20.1605 26.7369 20.809C27.0196 21.4797 27.2953 22.1532 27.5719 22.8263C27.6781 23.0766 27.7843 23.3269 27.8938 23.5848C28.5478 25.2126 29.149 27.0789 28.4643 28.8012C28.0901 29.3986 27.694 29.7221 27.1071 30.1135C26.6877 30.1697 26.6877 30.1697 26.205 30.172C26.0217 30.1738 25.8383 30.1757 25.6493 30.1776C25.4489 30.1774 25.2484 30.1772 25.0419 30.177C24.7243 30.1792 24.7243 30.1792 24.4003 30.1815C23.699 30.1856 22.9976 30.1865 22.2963 30.1869C21.8094 30.1883 21.3225 30.1898 20.8356 30.1914C19.8143 30.194 18.793 30.1948 17.7716 30.1945C16.4625 30.1945 15.1534 30.2005 13.8443 30.208C12.8385 30.2129 11.8326 30.2137 10.8268 30.2135C10.3441 30.214 9.86144 30.216 9.3788 30.2193C8.70375 30.2236 8.02892 30.2224 7.35387 30.2197C7.05449 30.2234 7.05449 30.2234 6.74907 30.2272C5.83543 30.2181 5.3588 30.1935 4.57014 29.6954C3.62197 28.692 3.59423 27.8188 3.61888 26.474C3.76481 25.1639 4.26725 24.0173 4.78088 22.8127C4.94682 22.4104 5.11276 22.0081 5.27848 21.6057C5.44572 21.2014 5.61505 20.7979 5.78438 20.3945C6.08604 19.6643 6.3719 18.9304 6.65137 18.1916C6.73527 17.9737 6.81918 17.7558 6.90563 17.5314C7.06104 17.1275 7.21373 16.7226 7.3631 16.3165C7.85319 15.075 8.42562 14.1667 9.60705 13.4885C10.283 13.3603 10.283 13.3603 10.9059 13.4064C11.1154 13.4183 11.3249 13.4301 11.5408 13.4423C11.6967 13.4575 11.8526 13.4728 12.0133 13.4885C11.9953 13.2223 11.9772 12.9561 11.9586 12.6818C11.9599 11.9718 12.008 11.7475 12.3824 11.1096C13.5325 10.0528 14.7801 10.1272 16.2653 10.1252Z" fill="url(#paint0_linear_2873_5294)"/>
<path d="M11.5877 2.01859C11.9527 2.01759 12.3176 2.01643 12.6826 2.01511C13.4457 2.01317 14.2087 2.01368 14.9718 2.01586C15.9446 2.01838 16.9173 2.01396 17.8901 2.00757C18.6434 2.00354 19.3967 2.00362 20.15 2.00487C20.5084 2.0049 20.8669 2.00359 21.2253 2.00086C23.8028 1.984 26.249 2.1975 28.2007 4.08219C29.6976 5.92505 30.2845 7.67471 30.2652 10.0295C30.2695 10.2211 30.2739 10.4127 30.2784 10.6101C30.2777 11.5137 30.2501 12.0403 29.7807 12.8296C28.6492 13.8537 27.6117 13.7806 26.1499 13.7755C25.8437 13.7808 25.8437 13.7808 25.5313 13.7862C24.3627 13.7871 23.5162 13.7196 22.5132 13.0509C21.6547 11.8963 21.7033 10.5014 21.6382 9.11344C21.029 8.91036 20.6633 8.86704 20.0343 8.86638C19.8438 8.86569 19.6532 8.865 19.4569 8.86429C19.1493 8.86496 19.1493 8.86496 18.8355 8.86563C18.6243 8.86543 18.4132 8.86522 18.1956 8.865C17.7492 8.86485 17.3027 8.86525 16.8562 8.86617C16.1721 8.86734 15.4881 8.86618 14.804 8.86478C14.3705 8.86492 13.9369 8.8652 13.5034 8.86563C13.2983 8.86519 13.0933 8.86475 12.8819 8.86429C12.6914 8.86498 12.5009 8.86567 12.3046 8.86638C12.137 8.86656 11.9695 8.86673 11.7968 8.86691C11.3116 8.87872 11.3116 8.87872 10.7007 9.11344C10.6925 9.2877 10.6843 9.46197 10.6759 9.64151C10.5225 12.1138 10.5225 12.1138 9.8257 13.0509C8.65364 13.8261 7.57311 13.8133 6.21632 13.8029C6.01414 13.8073 5.81196 13.8116 5.60365 13.8161C4.35034 13.8152 3.58734 13.69 2.60695 12.8322C1.70803 11.4838 2.03614 9.37447 2.16945 7.80094C2.34932 6.98033 2.61139 6.32998 3.04445 5.61344C3.12114 5.47386 3.19784 5.33427 3.27687 5.19046C5.13133 2.19627 8.43342 2.01102 11.5877 2.01859Z" fill="url(#paint1_linear_2873_5294)"/>
<path d="M12.9841 13.4064C13.2933 13.413 13.6025 13.419 13.9116 13.4244C14.6649 13.4376 15.4163 13.4633 16.1696 13.4885C16.1696 14.6435 16.1696 15.7985 16.1696 16.9885C15.6285 17.138 15.0873 17.2875 14.5461 17.4371C13.9686 17.6497 13.5895 17.9266 13.1071 18.301C12.9628 18.301 12.8184 18.301 12.6696 18.301C12.611 18.4183 12.5523 18.5356 12.4919 18.6564C12.2321 19.176 12.2321 19.176 11.8767 19.7365C11.3523 21.0473 11.3897 22.4728 11.7946 23.8244C12.3413 25.0626 13.3388 25.9179 14.5829 26.4169C15.106 26.5757 15.6375 26.7066 16.1696 26.8322C16.1696 27.915 16.1696 28.9978 16.1696 30.1135C14.632 30.1351 13.0945 30.151 11.5567 30.1615C11.0337 30.1659 10.5107 30.1719 9.98766 30.1795C9.23559 30.1901 8.48366 30.195 7.73153 30.1989C7.38113 30.2057 7.38113 30.2057 7.02366 30.2126C5.40558 30.2131 5.40558 30.2131 4.5564 29.7253C3.65297 28.6731 3.59396 27.8386 3.61897 26.474C3.7649 25.1639 4.26734 24.0173 4.78097 22.8127C4.94691 22.4104 5.11285 22.0081 5.27857 21.6057C5.44581 21.2014 5.61513 20.7979 5.78447 20.3945C6.08613 19.6643 6.37199 18.9304 6.65146 18.1916C6.73536 17.9737 6.81927 17.7558 6.90572 17.5314C7.06112 17.1275 7.21381 16.7226 7.36319 16.3165C7.76733 15.2927 8.19952 14.3935 9.08708 13.7124C10.2985 13.1907 11.6898 13.3584 12.9841 13.4064Z" fill="url(#paint2_linear_2873_5294)"/>
<path d="M9.8462 2.0494C10.0282 2.05032 10.2103 2.05125 10.3978 2.05221C10.9728 2.05585 11.5476 2.06408 12.1226 2.07247C12.5151 2.07576 12.9076 2.07876 13.3001 2.08144C14.2566 2.08807 15.2128 2.10092 16.1694 2.11348C16.1694 4.27911 16.1694 6.44473 16.1694 8.67598C13.8042 8.77169 13.8042 8.77169 13.061 8.80026C12.7703 8.81276 12.7703 8.81276 12.4738 8.82552C12.2756 8.83354 12.0774 8.84156 11.8732 8.84982C11.324 8.87741 11.324 8.87741 10.7007 9.11348C10.6925 9.28775 10.6843 9.46201 10.6759 9.64156C10.5225 12.1139 10.5225 12.1139 9.82569 13.051C8.65364 13.8261 7.5731 13.8133 6.21632 13.8029C6.01414 13.8073 5.81196 13.8117 5.60365 13.8162C4.35034 13.8153 3.58734 13.6901 2.60695 12.8322C1.70803 11.4839 2.03614 9.37451 2.16945 7.80098C2.34932 6.98037 2.61139 6.33002 3.04445 5.61348C3.12114 5.4739 3.19784 5.33432 3.27687 5.19051C4.68043 2.92434 7.30014 1.99949 9.8462 2.0494Z" fill="url(#paint3_linear_2873_5294)"/>
<path d="M12.8521 17.5095C14.44 16.4851 16.369 16.0349 18.2407 16.7097L18.6147 16.8601L18.6392 16.8708L18.6626 16.8845C19.8668 17.5834 20.7712 18.5989 21.4038 19.7947L21.5269 20.0359L21.5571 20.0984L21.5688 20.1658C21.7488 21.1455 21.7857 22.0159 21.6206 22.866C21.4552 23.7178 21.094 24.5172 20.521 25.363L20.5015 25.3914L20.4771 25.4177C19.5318 26.462 18.4781 27.2087 16.9741 27.4021L16.9458 27.405L16.9175 27.406C16.0684 27.4183 15.3115 27.3662 14.5952 27.1462C13.8704 26.9236 13.2163 26.5375 12.5532 25.9216L12.5396 25.9099L12.5269 25.8962C11.8594 25.1793 11.3996 24.4774 11.1167 23.6921C10.8346 22.909 10.7402 22.0743 10.7612 21.1082L10.7622 21.0759L10.7671 21.0437C10.9842 19.6137 11.7084 18.4421 12.8062 17.5427L12.8276 17.5242L12.8521 17.5095Z" fill="#3AE0C5" stroke="white"/>
<path d="M16.1997 16.4894C17.118 16.5451 17.8767 16.6753 18.5767 16.9875C19.1923 17.2621 19.7341 17.6641 20.2905 18.2297L20.5298 18.4826L20.5405 18.4933L20.5503 18.506C21.5158 19.6991 21.8226 20.8991 21.7827 22.3762L21.7817 22.4074L21.7769 22.4387C21.5129 24.1513 20.58 25.5297 19.2495 26.5471L19.2358 26.5578L19.2212 26.5676C18.6849 26.9218 18.2448 27.1243 17.7534 27.2287C17.2803 27.3292 16.7827 27.3322 16.1694 27.3322H15.6694V23.2424L15.9458 23.1037C16.3222 22.9155 16.6985 22.7269 17.0835 22.5344C17.1829 22.2766 17.2186 22.1746 17.2329 22.0744C17.2479 21.9693 17.2407 21.8572 17.2134 21.55C17.033 21.3165 16.8981 21.1798 16.7544 21.0783C16.5868 20.96 16.3781 20.8666 16.0112 20.7443L15.6694 20.6301V16.4572L16.1997 16.4894Z" fill="#3AE0C5" stroke="white"/>
<path d="M16.2651 10.1252C16.4683 10.1198 16.6715 10.1145 16.8808 10.1089C18.1402 10.1036 18.9031 10.2173 19.8882 11.0822C20.3257 11.7385 20.3257 11.7385 20.3257 13.4885C17.5826 13.4885 14.8394 13.4885 12.0132 13.4885C12.0132 11.7385 12.0132 11.7385 12.3823 11.1096C13.5324 10.0528 14.78 10.1272 16.2651 10.1252Z" fill="#3AE0C5"/>
<path d="M16.2651 10.1252C16.4683 10.1198 16.6715 10.1145 16.8808 10.1089C18.1402 10.1036 18.9031 10.2173 19.8882 11.0822C20.3257 11.7385 20.3257 11.7385 20.3257 13.4885C17.5826 13.4885 14.8394 13.4885 12.0132 13.4885C12.0132 11.7385 12.0132 11.7385 12.3823 11.1096C13.5324 10.0528 14.78 10.1272 16.2651 10.1252Z" fill="white" fill-opacity="0.2"/>
<path d="M21.8569 10.426C24.6001 10.426 27.3432 10.426 30.1694 10.426C30.1694 12.176 30.1694 12.176 29.7866 12.8049C28.6669 13.8624 27.6205 13.7806 26.1499 13.7756C25.8437 13.7809 25.8437 13.7809 25.5312 13.7863C24.3649 13.7871 23.511 13.7247 22.5132 13.051C21.8585 12.0689 21.8569 11.6627 21.8569 10.426Z" fill="#3AE0C5" fill-opacity="0.2"/>
<path d="M2.16943 10.426C4.91256 10.426 7.65568 10.426 10.4819 10.426C10.2632 12.3947 10.2632 12.3947 9.74365 13.051C8.6561 13.8796 7.56846 13.7622 6.25732 13.7756C5.94961 13.7851 5.94961 13.7851 5.63568 13.7948C4.36679 13.8064 3.59887 13.7074 2.60693 12.8322C2.16943 12.176 2.16943 12.176 2.16943 10.426Z" fill="#3AE0C5" fill-opacity="0.2"/>
<path d="M16.1694 10.2072C16.1694 11.29 16.1694 12.3728 16.1694 13.4884C14.7979 13.4884 13.4263 13.4884 12.0132 13.4884C12.0132 11.7384 12.0132 11.7384 12.3823 11.1095C13.5474 10.039 14.6546 10.1668 16.1694 10.2072Z" fill="#10BE77" fill-opacity="0.3"/>
<path d="M16.8259 20.2697C17.4685 20.7209 17.4685 20.7209 17.9196 21.3635C17.9342 22.2061 17.8917 22.6756 17.3317 23.3186C16.6649 23.625 16.2398 23.6569 15.5134 23.551C14.9938 23.2092 14.9938 23.2092 14.6384 22.676C14.5142 21.8065 14.502 21.3493 14.9938 20.6115C15.6789 20.1608 16.0199 20.1217 16.8259 20.2697Z" fill="white"/>
<path d="M16.1693 20.2697C16.1693 21.3525 16.1693 22.4353 16.1693 23.551C15.0318 23.2666 15.0318 23.2666 14.638 22.676C14.5255 21.7916 14.4948 21.3374 15.0345 20.6115C15.513 20.2697 15.513 20.2697 16.1693 20.2697Z" fill="white"/>
<defs>
<linearGradient id="paint0_linear_2873_5294" x1="16.1904" y1="10.1088" x2="16.1904" y2="30.2272" gradientUnits="userSpaceOnUse">
<stop stop-color="#10BE77"/>
<stop offset="1" stop-color="#2196F3"/>
</linearGradient>
<linearGradient id="paint1_linear_2873_5294" x1="16.1392" y1="2" x2="16.1392" y2="13.8161" gradientUnits="userSpaceOnUse">
<stop stop-color="#10BE77"/>
<stop offset="1" stop-color="#2196F3"/>
</linearGradient>
<linearGradient id="paint2_linear_2873_5294" x1="9.8922" y1="13.3424" x2="9.8922" y2="30.2126" gradientUnits="userSpaceOnUse">
<stop stop-color="#10BE77"/>
<stop offset="1" stop-color="#2196F3"/>
</linearGradient>
<linearGradient id="paint3_linear_2873_5294" x1="9.08472" y1="2.04749" x2="9.08472" y2="13.8162" gradientUnits="userSpaceOnUse">
<stop stop-color="#10BE77"/>
<stop offset="1" stop-color="#2196F3"/>
</linearGradient>
</defs>
</svg>
