<svg width="60" height="60" viewBox="0 0 60 60" fill="none" xmlns="http://www.w3.org/2000/svg">
<g clip-path="url(#clip0_2719_7325)">
<path d="M30.2051 17.168C30.8581 17.1508 30.8581 17.1508 31.5243 17.1332C34.2231 17.1217 35.8579 17.3655 37.9687 19.2188C39.2246 21.1026 38.9794 22.1445 38.9062 24.375C39.2458 24.3478 39.5854 24.3206 39.9353 24.2926C40.6151 24.2609 40.6151 24.2609 41.3086 24.2285C41.9775 24.1877 41.9775 24.1877 42.6599 24.1461C44.571 24.458 45.6702 25.2594 46.875 26.7188C47.7567 28.2329 48.4149 29.8134 49.0723 31.4356C49.3635 32.1347 49.3635 32.1347 49.6607 32.8479C50.0789 33.8579 50.493 34.8696 50.9035 35.8827C51.4731 37.2806 52.0555 38.6721 52.6443 40.0619C53.2501 41.499 53.8409 42.9422 54.4336 44.3848C54.6612 44.9211 54.8888 45.4574 55.1233 46.0099C56.5248 49.4982 57.8131 53.4974 56.3458 57.1881C55.5441 58.4683 54.6953 59.1614 53.4375 60C52.5389 60.1206 52.5389 60.1206 51.5046 60.1254C51.1116 60.1294 50.7187 60.1334 50.3138 60.1375C49.8842 60.1371 49.4547 60.1366 49.0121 60.1362C48.3316 60.1409 48.3316 60.1409 47.6374 60.1457C46.1345 60.1547 44.6316 60.1565 43.1286 60.1575C42.0853 60.1605 41.042 60.1636 39.9987 60.1669C37.8101 60.1725 35.6216 60.1743 33.433 60.1737C30.6277 60.1736 27.8226 60.1864 25.0173 60.2026C22.8619 60.213 20.7066 60.2149 18.5511 60.2144C17.5169 60.2155 16.4826 60.2197 15.4484 60.2269C14.0018 60.2361 12.5558 60.2334 11.1092 60.2277C10.4677 60.2356 10.4677 60.2356 9.81322 60.2437C7.85543 60.2242 6.83408 60.1715 5.14409 59.1043C3.11231 56.9541 3.05286 55.0828 3.10568 52.2011C3.41838 49.3937 4.49505 46.9368 5.59568 44.3555C5.95127 43.4934 6.30686 42.6313 6.66197 41.769C7.02034 40.9026 7.38317 40.0381 7.74603 39.1736C8.39244 37.609 9.005 36.0364 9.60386 34.4531C9.78367 33.9863 9.96347 33.5194 10.1487 33.0384C10.4817 32.173 10.8089 31.3054 11.129 30.4351C12.1792 27.7747 13.4058 25.8283 15.9375 24.375C17.3858 24.1004 17.3858 24.1004 18.7207 24.1992C19.1696 24.2246 19.6186 24.25 20.0812 24.2761C20.4153 24.3088 20.7495 24.3414 21.0937 24.375C21.0551 23.8046 21.0164 23.2342 20.9765 22.6465C20.9792 21.1249 21.0823 20.6444 21.8847 19.2774C24.3491 17.0128 27.0227 17.1724 30.2051 17.168Z" fill="url(#paint0_linear_2719_7325)"/>
<path d="M20.1819 -0.20324C20.9641 -0.205381 21.7462 -0.207869 22.5283 -0.210686C24.1635 -0.214861 25.7985 -0.21375 27.4336 -0.209076C29.5182 -0.203696 31.6025 -0.213162 33.6871 -0.22685C35.3014 -0.235494 36.9156 -0.235313 38.5299 -0.232645C39.2979 -0.232573 40.0659 -0.235371 40.834 -0.241219C46.3573 -0.277351 51.5992 0.180132 55.7813 4.21876C58.9889 8.16776 60.2465 11.917 60.2051 16.9629C60.2145 17.3735 60.2239 17.7841 60.2335 18.2071C60.2321 20.1435 60.1729 21.2719 59.1669 22.9633C56.7425 25.1576 54.5191 25.001 51.3868 24.9902C50.7306 25.0016 50.7306 25.0016 50.0611 25.0131C47.557 25.0149 45.7431 24.8703 43.5938 23.4375C41.7541 20.9634 41.8584 17.9742 41.7188 15C40.4133 14.5649 39.6297 14.472 38.2819 14.4706C37.8736 14.4691 37.4654 14.4676 37.0447 14.4661C36.3855 14.4675 36.3855 14.4675 35.7129 14.469C35.2605 14.4686 34.808 14.4681 34.3418 14.4676C33.3851 14.4673 32.4285 14.4682 31.4718 14.4701C30.0058 14.4727 28.54 14.4702 27.074 14.4672C26.1451 14.4675 25.2161 14.4681 24.2872 14.469C23.8477 14.4681 23.4082 14.4671 22.9554 14.4661C22.5471 14.4676 22.1389 14.4691 21.7182 14.4706C21.3592 14.471 21.0001 14.4713 20.6302 14.4717C19.5903 14.497 19.5903 14.497 18.2813 15C18.2638 15.3734 18.2463 15.7469 18.2282 16.1316C17.8995 21.4294 17.8995 21.4294 16.4063 23.4375C13.8948 25.0986 11.5793 25.0711 8.67194 25.0488C8.23869 25.0582 7.80544 25.0676 7.35907 25.0772C4.6734 25.0753 3.03841 24.807 0.93756 22.9688C-0.988685 20.0794 -0.285584 15.5594 5.97537e-05 12.1875C0.385502 10.4291 0.947078 9.03545 1.87506 7.50001C2.03942 7.2009 2.20377 6.9018 2.37311 6.59363C6.34696 0.177515 13.4229 -0.219468 20.1819 -0.20324Z" fill="url(#paint1_linear_2719_7325)"/>
<path d="M23.1739 24.1992C23.8364 24.2133 24.4989 24.2262 25.1615 24.2377C26.7756 24.2661 28.3857 24.3211 30 24.375C30 26.85 30 29.325 30 31.875C28.8404 32.1954 27.6807 32.5159 26.521 32.8363C25.2835 33.292 24.4712 33.8853 23.4375 34.6875C23.1282 34.6875 22.8188 34.6875 22.5 34.6875C22.3744 34.9389 22.2487 35.1902 22.1192 35.4492C21.5625 36.5625 21.5625 36.5625 20.8008 37.7637C19.6772 40.5726 19.7573 43.6272 20.625 46.5234C21.7964 49.1767 23.9339 51.0095 26.5998 52.0789C27.7209 52.4192 28.8598 52.6995 30 52.9687C30 55.2891 30 57.6094 30 60C26.7051 60.0464 23.4104 60.0804 20.1152 60.103C18.9944 60.1124 17.8736 60.1252 16.7529 60.1414C15.1413 60.1642 13.5301 60.1748 11.9184 60.1831C11.1675 60.1976 11.1675 60.1976 10.4015 60.2124C6.93418 60.2135 6.93418 60.2135 5.11451 59.1682C3.1786 56.9135 3.05214 55.1252 3.10573 52.2011C3.41843 49.3937 4.4951 46.9368 5.59574 44.3555C5.95133 43.4934 6.30691 42.6313 6.66202 41.769C7.02039 40.9026 7.38323 40.0381 7.74608 39.1736C8.3925 37.609 9.00505 36.0364 9.60391 34.4531C9.78372 33.9863 9.96352 33.5194 10.1488 33.0384C10.4818 32.173 10.809 31.3054 11.1291 30.4351C11.9951 28.2412 12.9212 26.3144 14.8231 24.855C17.419 23.7369 20.4003 24.0963 23.1739 24.1992Z" fill="url(#paint2_linear_2719_7325)"/>
<path d="M16.4503 -0.137325C16.8403 -0.135335 17.2304 -0.133345 17.6323 -0.131295C18.8644 -0.123494 20.0962 -0.105858 21.3282 -0.0878863C22.1692 -0.0808244 23.0103 -0.0744095 23.8514 -0.0686603C25.9012 -0.0544517 27.9502 -0.0269149 30.0001 4.28222e-06C30.0001 4.64063 30.0001 9.28125 30.0001 14.0625C24.9317 14.2676 24.9317 14.2676 23.339 14.3288C22.7162 14.3556 22.7162 14.3556 22.0807 14.3829C21.6561 14.4001 21.2314 14.4173 20.7939 14.435C19.617 14.4941 19.617 14.4941 18.2813 15C18.2638 15.3734 18.2463 15.7469 18.2282 16.1316C17.8995 21.4294 17.8995 21.4294 16.4063 23.4375C13.8948 25.0986 11.5793 25.0711 8.67193 25.0488C8.23869 25.0582 7.80544 25.0676 7.35907 25.0772C4.6734 25.0753 3.03841 24.807 0.93756 22.9688C-0.988685 20.0794 -0.285584 15.5594 5.97045e-05 12.1875C0.385501 10.4291 0.947078 9.03545 1.87506 7.5C2.03942 7.2009 2.20377 6.9018 2.37311 6.59363C5.38074 1.73756 10.9944 -0.24427 16.4503 -0.137325Z" fill="url(#paint3_linear_2719_7325)"/>
<path d="M22.9297 33.0504C26.432 30.791 30.7049 29.8455 34.8135 31.4967L35.2109 31.6646L35.2598 31.6861L35.3066 31.7135C37.8742 33.2034 39.803 35.3693 41.1533 37.9215L41.416 38.4371L41.4766 38.5611L41.501 38.6959C41.8856 40.7898 41.9639 42.6464 41.6123 44.4566C41.2601 46.2703 40.4895 47.9733 39.2656 49.7799L39.2256 49.8375L39.1787 49.8902C37.1602 52.1202 34.9156 53.7063 31.7148 54.1178L31.6592 54.1256L31.6016 54.1266C29.7853 54.1528 28.1726 54.0419 26.6484 53.5738C25.1069 53.1004 23.713 52.279 22.2988 50.9654L22.2725 50.941L22.248 50.9146C20.8226 49.3836 19.8414 47.888 19.2393 46.2164C18.6387 44.5491 18.4374 42.7694 18.4824 40.7047L18.4844 40.6402L18.4941 40.5768C18.9564 37.531 20.4985 35.035 22.8389 33.1178L22.8828 33.0816L22.9297 33.0504Z" fill="#3AE0C5" stroke="white" stroke-width="2"/>
<path d="M30.0605 30.877C32.0246 30.996 33.641 31.2734 35.1299 31.9375C36.6259 32.6048 37.9175 33.6281 39.291 35.124L39.3125 35.1475L39.332 35.1719C41.3883 37.7126 42.042 40.2657 41.957 43.417L41.9551 43.4805L41.9453 43.543C41.3829 47.1923 39.3957 50.131 36.5566 52.3018L36.5293 52.3232L36.5 52.3418C35.3556 53.0977 34.4208 53.5277 33.3789 53.749C32.3737 53.9625 31.3157 53.9688 30 53.9688H29V45.3193L29.5527 45.043C29.5695 45.0346 29.5686 45.0355 29.5635 45.0381L29.5693 45.0352C29.571 45.0343 29.5725 45.0331 29.5742 45.0322L29.5801 45.0293C29.5818 45.0285 29.5833 45.0272 29.585 45.0264C29.5867 45.0255 29.5891 45.0253 29.5908 45.0244L29.5967 45.0215C29.6063 45.0167 29.6218 45.0084 29.6074 45.0156C29.6256 45.0065 29.5995 45.0201 29.6182 45.0107C29.6351 45.0023 29.612 45.0133 29.6289 45.0049L29.6348 45.002C29.6363 45.0012 29.6381 45.0008 29.6396 45L29.6611 44.9883C29.6629 44.9874 29.6652 44.9872 29.667 44.9863L29.6729 44.9834C29.6745 44.9826 29.676 44.9813 29.6777 44.9805L29.6836 44.9775C29.6853 44.9767 29.6868 44.9755 29.6885 44.9746C29.6903 44.9737 29.6925 44.9736 29.6943 44.9727C29.7073 44.9662 29.6921 44.9733 29.7051 44.9668C29.7414 44.9486 29.6798 44.9799 29.7158 44.9619L29.7217 44.959C29.7234 44.9581 29.7249 44.9569 29.7266 44.9561C29.7323 44.9532 29.7317 44.953 29.7373 44.9502C29.7479 44.9449 29.7384 44.9506 29.749 44.9453C29.7529 44.9434 29.7558 44.9414 29.7598 44.9395C29.7613 44.9387 29.7631 44.9383 29.7646 44.9375L29.7705 44.9346C29.7855 44.927 29.7662 44.9363 29.7812 44.9287C29.8004 44.9191 29.7731 44.9333 29.792 44.9238C29.8086 44.9155 29.7865 44.9261 29.8027 44.918L29.8086 44.915C29.8103 44.9142 29.8118 44.913 29.8135 44.9121C29.8389 44.8994 29.7998 44.9199 29.8252 44.9072C29.8269 44.9064 29.8284 44.9051 29.8301 44.9043L29.8359 44.9014C29.8375 44.9006 29.8393 44.9002 29.8408 44.8994L29.8467 44.8965C29.8491 44.8953 29.855 44.8918 29.8574 44.8906C29.8635 44.8876 29.8669 44.8864 29.8682 44.8857C29.8813 44.8792 29.866 44.8863 29.8789 44.8799L29.8848 44.877C29.8865 44.8761 29.888 44.8749 29.8896 44.874C29.8914 44.8731 29.8937 44.873 29.8955 44.8721L29.9014 44.8691C29.8908 44.8744 29.9054 44.8666 29.9121 44.8633C29.9137 44.8625 29.9154 44.8621 29.917 44.8613L29.9229 44.8584C29.9245 44.8576 29.926 44.8563 29.9277 44.8555L29.9395 44.8496C29.941 44.8488 29.9428 44.8484 29.9443 44.8477L29.9658 44.8359C29.9812 44.8282 29.9621 44.8388 29.9775 44.8311C29.9792 44.8302 29.9807 44.829 29.9824 44.8281L29.9883 44.8252C30.0149 44.8119 30.0094 44.8151 29.999 44.8203C30.0007 44.8195 30.0022 44.8182 30.0039 44.8174L30.0156 44.8115C30.0172 44.8107 30.0189 44.8104 30.0205 44.8096L30.0264 44.8066C30.0281 44.8058 30.0296 44.8046 30.0312 44.8037L30.0371 44.8008C30.0388 44.7999 30.0403 44.7987 30.042 44.7979C30.0554 44.7911 30.0403 44.7997 30.0537 44.793C30.0569 44.7914 30.0667 44.786 30.0645 44.7871C30.0661 44.7863 30.0676 44.785 30.0693 44.7842C30.0712 44.7833 30.0734 44.7831 30.0752 44.7822C30.08 44.7798 30.0811 44.7788 30.0859 44.7764C30.0969 44.7709 30.086 44.7768 30.0967 44.7715C30.1 44.7698 30.104 44.7673 30.1074 44.7656L30.1133 44.7627C30.115 44.7618 30.1165 44.7606 30.1182 44.7598C30.1324 44.7527 30.1157 44.762 30.1299 44.7549C30.1494 44.7451 30.1207 44.759 30.1406 44.749C30.1552 44.7417 30.1364 44.7516 30.1514 44.7441C30.153 44.7433 30.1546 44.742 30.1562 44.7412L30.1621 44.7383C30.1862 44.7262 30.1494 44.7451 30.1729 44.7334L30.1787 44.7305C30.1804 44.7296 30.1819 44.7284 30.1836 44.7275L30.1953 44.7217C30.1969 44.7209 30.1986 44.7205 30.2002 44.7197L30.2061 44.7168C30.2087 44.7155 30.2186 44.71 30.2168 44.7109C30.2302 44.7042 30.214 44.7128 30.2275 44.7061L30.2334 44.7031C30.2351 44.7023 30.2366 44.701 30.2383 44.7002L30.2441 44.6973C30.2458 44.6964 30.2473 44.6952 30.249 44.6943C30.2511 44.6933 30.2547 44.692 30.2598 44.6895L30.2715 44.6836C30.273 44.6828 30.2748 44.6824 30.2764 44.6816L30.2822 44.6787C30.2839 44.6779 30.2854 44.6766 30.2871 44.6758L30.293 44.6729C30.3153 44.6617 30.3118 44.6639 30.3037 44.668L30.3252 44.6562C30.327 44.6554 30.3293 44.6552 30.3311 44.6543L30.3369 44.6514C30.3493 44.6452 30.3674 44.6356 30.3477 44.6455C30.3452 44.6467 30.3596 44.64 30.3584 44.6406C30.3612 44.6392 30.3663 44.6362 30.3691 44.6348L30.375 44.6318C30.3766 44.6311 30.3783 44.6307 30.3799 44.6299L30.3857 44.627C30.3874 44.6261 30.3889 44.6249 30.3906 44.624L30.4023 44.6182C30.4338 44.6024 30.3808 44.6294 30.4131 44.6133C30.4148 44.6124 30.4163 44.6112 30.418 44.6104L30.4238 44.6074C30.4288 44.6049 30.4297 44.605 30.4346 44.6025L30.4561 44.5908C30.4578 44.5899 30.4602 44.5897 30.4619 44.5889L30.4678 44.5859C30.4819 44.5789 30.464 44.5873 30.4785 44.5801C30.4927 44.573 30.4749 44.5824 30.4893 44.5752C30.502 44.5688 30.4874 44.5756 30.5 44.5693L30.5059 44.5664C30.5076 44.5656 30.509 44.5643 30.5107 44.5635C30.535 44.5513 30.4982 44.5707 30.5225 44.5586C30.5242 44.5577 30.5257 44.5565 30.5273 44.5557L30.5332 44.5527C30.5355 44.5516 30.5422 44.5487 30.5439 44.5479C30.547 44.5463 30.5517 44.5435 30.5547 44.542C30.5551 44.5418 30.5636 44.538 30.5654 44.5371C30.5738 44.5329 30.5682 44.5352 30.5762 44.5312L30.5879 44.5254C30.5911 44.5238 30.6013 44.5192 30.5986 44.5205C30.6047 44.5175 30.6176 44.5105 30.6094 44.5146L30.6152 44.5117C30.6168 44.5109 30.6186 44.5105 30.6201 44.5098L30.626 44.5068C30.6277 44.506 30.6292 44.5048 30.6309 44.5039L30.6426 44.498C30.6459 44.4964 30.6501 44.4948 30.6533 44.4932C30.6555 44.4921 30.6621 44.4883 30.6641 44.4873C30.6759 44.4814 30.6631 44.4883 30.6748 44.4824L30.6807 44.4795C30.6824 44.4786 30.6839 44.4774 30.6855 44.4766C30.6522 44.4932 30.7306 44.4535 30.6963 44.4707C30.698 44.4698 30.7004 44.4696 30.7021 44.4688L30.708 44.4658C30.7094 44.4651 30.7186 44.4601 30.7188 44.46C30.7204 44.4591 30.7219 44.4579 30.7236 44.457C30.7254 44.4562 30.7277 44.456 30.7295 44.4551L30.7354 44.4521C30.737 44.4513 30.7385 44.4501 30.7402 44.4492C30.7495 44.4446 30.742 44.4479 30.751 44.4434C30.782 44.4279 30.7317 44.454 30.7627 44.4385C30.7644 44.4376 30.7659 44.4364 30.7676 44.4355L30.7734 44.4326C30.7751 44.4318 30.7766 44.4305 30.7783 44.4297C30.7801 44.4288 30.7824 44.4286 30.7842 44.4277L30.8057 44.416C30.8074 44.4151 30.8098 44.4149 30.8115 44.4141L30.8174 44.4111C30.8317 44.404 30.8136 44.4125 30.8281 44.4053C30.8438 44.3975 30.8234 44.4081 30.8389 44.4004C30.8491 44.3953 30.8397 44.3995 30.8496 44.3945L30.8613 44.3887C30.8852 44.3767 30.8473 44.3962 30.8721 44.3838C30.8733 44.3832 30.8822 44.3782 30.8828 44.3779L30.8887 44.375C30.8902 44.3742 30.892 44.3738 30.8936 44.373L30.8994 44.3701C30.9011 44.3693 30.9026 44.368 30.9043 44.3672L30.916 44.3613C30.9254 44.3566 30.9168 44.3614 30.9268 44.3564C30.9285 44.3556 30.9299 44.3544 30.9316 44.3535L30.9434 44.3477C30.9449 44.3469 30.9467 44.3465 30.9482 44.3457C30.9518 44.3439 30.9555 44.3416 30.959 44.3398L30.9707 44.334C30.9724 44.3331 30.9739 44.3319 30.9756 44.3311C30.9774 44.3302 30.9796 44.33 30.9814 44.3291L30.9873 44.3262C30.989 44.3253 30.9905 44.3241 30.9922 44.3232C31.0055 44.3166 30.9898 44.324 31.0029 44.3174C31.02 44.3089 30.9976 44.321 31.0146 44.3125C31.0216 44.309 31.0182 44.3103 31.0254 44.3066C31.0396 44.2996 31.022 44.3088 31.0361 44.3018C31.0389 44.3004 31.0423 44.2982 31.0469 44.2959L31.0586 44.29C31.0695 44.2846 31.0577 44.291 31.0693 44.2852C31.0742 44.2827 31.0752 44.2817 31.0801 44.2793L31.0859 44.2764C31.0875 44.2756 31.0893 44.2752 31.0908 44.2744L31.0967 44.2715C31.0984 44.2706 31.0999 44.2694 31.1016 44.2686C31.1272 44.2557 31.0877 44.2755 31.1133 44.2627C31.115 44.2618 31.1165 44.2606 31.1182 44.2598C31.12 44.2589 31.1222 44.2587 31.124 44.2578L31.1299 44.2549C31.1316 44.254 31.1331 44.2528 31.1348 44.252C31.1567 44.241 31.124 44.2569 31.1455 44.2461C31.1504 44.2437 31.1523 44.2437 31.1572 44.2412C31.1589 44.2404 31.1604 44.2391 31.1621 44.2383L31.1738 44.2324C31.1754 44.2316 31.1771 44.2313 31.1787 44.2305C31.1835 44.2281 31.1849 44.2269 31.1895 44.2246L31.2012 44.2188C31.2029 44.2179 31.2044 44.2167 31.2061 44.2158C31.2078 44.2149 31.2101 44.2148 31.2119 44.2139L31.2178 44.2109C31.2195 44.2101 31.221 44.2089 31.2227 44.208C31.2262 44.2062 31.2298 44.2039 31.2334 44.2021C31.2351 44.2013 31.2375 44.2011 31.2393 44.2002L31.2451 44.1973C31.2511 44.1943 31.2498 44.1944 31.2559 44.1914L31.2617 44.1885C31.2634 44.1876 31.2649 44.1864 31.2666 44.1855C31.2788 44.1794 31.2661 44.1868 31.2783 44.1807C31.28 44.1798 31.2815 44.1786 31.2832 44.1777L31.2891 44.1748C31.2908 44.174 31.2923 44.1727 31.2939 44.1719C31.2957 44.171 31.298 44.1708 31.2998 44.1699C31.2889 44.1754 31.3229 44.1579 31.3105 44.1641L31.3223 44.1582C31.3238 44.1574 31.3256 44.157 31.3271 44.1562L31.333 44.1533L31.3545 44.1416C31.3563 44.1407 31.3586 44.1405 31.3604 44.1396L31.3662 44.1367C31.3687 44.1355 31.3745 44.1321 31.377 44.1309L31.3828 44.1279C31.3845 44.1271 31.386 44.1258 31.3877 44.125C31.369 44.1344 31.3879 44.1259 31.3994 44.1201C31.4064 44.1166 31.4029 44.1179 31.4102 44.1143C31.4196 44.1096 31.4116 44.114 31.4209 44.1094C31.4281 44.1058 31.4248 44.1069 31.4316 44.1035L31.4434 44.0977C31.4451 44.0968 31.4465 44.0956 31.4482 44.0947C31.45 44.0938 31.4523 44.0937 31.4541 44.0928C31.4761 44.0818 31.4433 44.0977 31.4648 44.0869L31.4766 44.0811C31.4781 44.0803 31.4799 44.0799 31.4814 44.0791L31.4873 44.0762C31.5142 44.0627 31.4714 44.0836 31.498 44.0703L31.5098 44.0645C31.5113 44.0637 31.5131 44.0633 31.5146 44.0625L31.5205 44.0596C31.5222 44.0587 31.5237 44.0575 31.5254 44.0566L31.5312 44.0537C31.5386 44.0501 31.5349 44.0514 31.542 44.0479C31.5438 44.047 31.5461 44.0468 31.5479 44.0459L31.5537 44.043C31.5554 44.0421 31.5569 44.0409 31.5586 44.04L31.5703 44.0342C31.572 44.0333 31.5735 44.0321 31.5752 44.0312C31.5862 44.0257 31.5759 44.0319 31.5869 44.0264C31.6017 44.019 31.5826 44.0281 31.5977 44.0205L31.6035 44.0176C31.6052 44.0167 31.6067 44.0155 31.6084 44.0146C31.6102 44.0137 31.6125 44.0136 31.6143 44.0127L31.6201 44.0098C31.6284 44.0056 31.6223 44.0082 31.6309 44.0039L31.6367 44.001C31.6384 44.0001 31.6399 43.9989 31.6416 43.998C31.6452 43.9963 31.6572 43.9912 31.6533 43.9932C31.6559 43.9919 31.6617 43.9885 31.6641 43.9873L31.6699 43.9844C31.6715 43.9836 31.6732 43.9832 31.6748 43.9824L31.6865 43.9766C31.6882 43.9757 31.6897 43.9745 31.6914 43.9736L31.6973 43.9707C31.7092 43.9647 31.6965 43.9716 31.708 43.9658L31.7197 43.96C31.7214 43.9591 31.7229 43.9579 31.7246 43.957L31.7305 43.9541C31.7475 43.9456 31.7241 43.9568 31.7412 43.9482C31.7634 43.9372 31.7308 43.9544 31.7529 43.9434L31.7744 43.9316C31.7818 43.9279 31.7787 43.9305 31.7861 43.9268C31.7878 43.9259 31.7893 43.9247 31.791 43.9238L31.8027 43.918C31.8044 43.9171 31.8059 43.9159 31.8076 43.915C31.8212 43.9083 31.8058 43.9169 31.8193 43.9102C31.821 43.9093 31.8225 43.9081 31.8242 43.9072L31.8359 43.9014C31.8376 43.9005 31.8391 43.8993 31.8408 43.8984C31.8716 43.883 31.8217 43.909 31.8525 43.8936C31.8582 43.8907 31.8577 43.8905 31.8633 43.8877L31.875 43.8818C31.8766 43.8811 31.8783 43.8807 31.8799 43.8799L31.8857 43.877C31.8898 43.8749 31.8925 43.8731 31.8965 43.8711L31.9082 43.8652C31.9099 43.8644 31.9114 43.8632 31.9131 43.8623C31.9149 43.8614 31.9172 43.8612 31.9189 43.8604L31.9248 43.8574C31.9265 43.8566 31.928 43.8553 31.9297 43.8545C31.942 43.8483 31.929 43.8548 31.9414 43.8486C31.9524 43.8431 31.9413 43.8492 31.9521 43.8438L31.9639 43.8379C31.9656 43.837 31.9671 43.8358 31.9688 43.835L31.9746 43.832C31.9868 43.8259 31.9732 43.8322 31.9854 43.8262C31.9871 43.8253 31.9894 43.8251 31.9912 43.8242L31.9971 43.8213C31.9987 43.8205 32.0018 43.8184 32.0078 43.8154L32.0195 43.8096V43.8086C32.2393 43.2398 32.3163 43.0103 32.3486 42.7842C32.3824 42.5479 32.3693 42.2973 32.3096 41.627C31.9126 41.1105 31.6142 40.8071 31.2939 40.5811C30.9262 40.3215 30.4716 40.1172 29.6836 39.8545L29 39.627V30.8125L30.0605 30.877Z" fill="#3AE0C5" stroke="white" stroke-width="2"/>
<path d="M30.2051 17.168C30.6404 17.1565 31.0758 17.145 31.5244 17.1332C34.2231 17.1217 35.8579 17.3655 37.9688 19.2188C38.9062 20.625 38.9062 20.625 38.9062 24.375C33.0281 24.375 27.15 24.375 21.0938 24.375C21.0938 20.625 21.0938 20.625 21.8848 19.2774C24.3491 17.0128 27.0227 17.1724 30.2051 17.168Z" fill="#3AE0C5"/>
<path d="M30.2051 17.168C30.6404 17.1565 31.0758 17.145 31.5244 17.1332C34.2231 17.1217 35.8579 17.3655 37.9688 19.2188C38.9062 20.625 38.9062 20.625 38.9062 24.375C33.0281 24.375 27.15 24.375 21.0938 24.375C21.0938 20.625 21.0938 20.625 21.8848 19.2774C24.3491 17.0128 27.0227 17.1724 30.2051 17.168Z" fill="white" fill-opacity="0.2"/>
<path d="M42.1875 17.8125C48.0656 17.8125 53.9437 17.8125 60 17.8125C60 21.5625 60 21.5625 59.1797 22.9102C56.7803 25.1762 54.538 25.001 51.3867 24.9902C50.7305 25.0016 50.7305 25.0016 50.061 25.0131C47.5617 25.0149 45.732 24.8812 43.5938 23.4375C42.1908 21.3331 42.1875 20.4627 42.1875 17.8125Z" fill="#3AE0C5" fill-opacity="0.2"/>
<path d="M0 17.8125C5.87812 17.8125 11.7562 17.8125 17.8125 17.8125C17.3438 22.0312 17.3438 22.0312 16.2305 23.4375C13.9 25.2131 11.5693 24.9616 8.75977 24.9902C8.10038 25.0106 8.10038 25.0106 7.42767 25.0314C4.70863 25.0563 3.06307 24.8443 0.9375 22.9688C0 21.5625 0 21.5625 0 17.8125Z" fill="#3AE0C5" fill-opacity="0.2"/>
<path d="M30 17.3437C30 19.6641 30 21.9844 30 24.375C27.0609 24.375 24.1219 24.375 21.0938 24.375C21.0938 20.625 21.0938 20.625 21.8848 19.2773C24.3813 16.9833 26.7539 17.2572 30 17.3437Z" fill="#10BE77" fill-opacity="0.3"/>
<path d="M31.4062 38.9063C32.7832 39.8731 32.7832 39.8731 33.75 41.25C33.7811 43.0557 33.6901 44.0618 32.4902 45.4395C31.0612 46.096 30.1503 46.1645 28.5937 45.9375C27.4805 45.2051 27.4805 45.2051 26.7187 44.0625C26.4526 42.1993 26.4265 41.2196 27.4805 39.6387C28.9485 38.6729 29.6791 38.589 31.4062 38.9063Z" fill="white"/>
<path d="M30 38.9062C30 41.2266 30 43.5469 30 45.9375C27.5625 45.3281 27.5625 45.3281 26.7187 44.0625C26.4776 42.1675 26.4118 41.1941 27.5683 39.6387C28.5937 38.9062 28.5937 38.9062 30 38.9062Z" fill="white"/>
</g>
<defs>
<linearGradient id="paint0_linear_2719_7325" x1="30.0447" y1="17.1328" x2="30.0447" y2="60.2437" gradientUnits="userSpaceOnUse">
<stop stop-color="#10BE77"/>
<stop offset="1" stop-color="#2196F3"/>
</linearGradient>
<linearGradient id="paint1_linear_2719_7325" x1="29.9352" y1="-0.243073" x2="29.9352" y2="25.0772" gradientUnits="userSpaceOnUse">
<stop stop-color="#10BE77"/>
<stop offset="1" stop-color="#2196F3"/>
</linearGradient>
<linearGradient id="paint2_linear_2719_7325" x1="16.5484" y1="24.062" x2="16.5484" y2="60.2125" gradientUnits="userSpaceOnUse">
<stop stop-color="#10BE77"/>
<stop offset="1" stop-color="#2196F3"/>
</linearGradient>
<linearGradient id="paint3_linear_2719_7325" x1="14.8185" y1="-0.141418" x2="14.8185" y2="25.0772" gradientUnits="userSpaceOnUse">
<stop stop-color="#10BE77"/>
<stop offset="1" stop-color="#2196F3"/>
</linearGradient>
<clipPath id="clip0_2719_7325">
<rect width="60" height="60" fill="white"/>
</clipPath>
</defs>
</svg>
