<svg width="32" height="32" viewBox="0 0 32 32" fill="none" xmlns="http://www.w3.org/2000/svg">
<path d="M11.2104 2.0197C11.255 2.01949 11.2996 2.01929 11.3455 2.01907C11.4952 2.01845 11.6448 2.01823 11.7945 2.01801C11.9016 2.01766 12.0088 2.01728 12.116 2.01688C12.4683 2.01569 12.8207 2.01511 13.173 2.01454C13.2943 2.01431 13.4157 2.01408 13.537 2.01384C14.1072 2.01276 14.6774 2.01196 15.2475 2.01148C15.9054 2.01093 16.5631 2.00944 17.221 2.00715C17.7296 2.00544 18.2382 2.0046 18.7469 2.00442C19.0506 2.00428 19.3542 2.00378 19.6579 2.00235C19.9438 2.00103 20.2296 2.00079 20.5155 2.00138C20.6202 2.0014 20.7249 2.00105 20.8295 2.00027C21.6277 1.99466 22.2171 2.07211 22.8151 2.70972C23.065 3.00086 23.2109 3.2858 23.3163 3.67061C23.3253 3.70233 23.3343 3.73405 23.3435 3.76673C23.3759 3.94588 23.3737 4.1172 23.3739 4.29999C23.3741 4.34079 23.3742 4.38158 23.3743 4.42361C23.3746 4.56103 23.3746 4.69846 23.3746 4.83588C23.3747 4.93512 23.3749 5.03435 23.3751 5.13359C23.3756 5.40687 23.3758 5.68016 23.376 5.95344C23.3762 6.24797 23.3767 6.5425 23.3771 6.83702C23.3781 7.54863 23.3786 8.26026 23.3791 8.97184C23.3793 9.30692 23.3796 9.64201 23.3799 9.97709C23.3807 11.0909 23.3814 12.2048 23.3818 13.3186C23.3819 13.6077 23.382 13.8968 23.3821 14.1859C23.3821 14.2578 23.3821 14.3296 23.3822 14.4037C23.3826 15.5675 23.3839 16.7314 23.3855 17.8953C23.3872 19.0902 23.3881 20.285 23.3883 21.4799C23.3884 22.1507 23.3888 22.8217 23.3901 23.4926C23.3912 24.064 23.3916 24.6353 23.3912 25.2067C23.3909 25.4982 23.391 25.7897 23.392 26.0811C23.3929 26.3482 23.3929 26.6153 23.392 26.8823C23.3919 26.9787 23.3921 27.0751 23.3928 27.1714C23.3977 28.0051 23.2897 28.6662 22.7542 29.2793C22.3186 29.7397 21.8971 29.9037 21.305 29.9035C21.2605 29.9038 21.2159 29.904 21.17 29.9042C21.0203 29.9048 20.8707 29.905 20.721 29.9052C20.6139 29.9056 20.5067 29.906 20.3995 29.9064C20.0471 29.9076 19.6948 29.9081 19.3425 29.9087C19.2212 29.9089 19.0998 29.9092 18.9784 29.9094C18.4083 29.9105 17.8381 29.9113 17.2679 29.9118C16.6101 29.9123 15.9523 29.9138 15.2945 29.9161C14.7859 29.9178 14.2773 29.9187 13.7686 29.9188C13.4649 29.919 13.1612 29.9195 12.8576 29.9209C12.5717 29.9222 12.2858 29.9225 11.9999 29.9219C11.8953 29.9218 11.7906 29.9222 11.686 29.923C10.8878 29.9286 10.2984 29.8512 9.7004 29.2136C9.45046 28.9224 9.30461 28.6375 9.19914 28.2526C9.19015 28.2209 9.18122 28.1892 9.17197 28.1565C9.13952 27.9774 9.14176 27.8061 9.14156 27.6233C9.1414 27.5825 9.1413 27.5417 9.1412 27.4997C9.14085 27.3623 9.14085 27.2248 9.1409 27.0874C9.14074 26.9881 9.14054 26.8889 9.14034 26.7897C9.13983 26.5164 9.13963 26.2431 9.13947 25.9698C9.13927 25.6753 9.13881 25.3807 9.13836 25.0863C9.13734 24.3746 9.13683 23.663 9.13638 22.9514C9.13617 22.6163 9.13592 22.2812 9.13561 21.9462C9.13475 20.8323 9.13404 19.7185 9.13369 18.6047C9.13358 18.3156 9.13348 18.0265 9.13338 17.7374C9.13333 17.6296 9.13333 17.6296 9.13328 17.5196C9.13287 16.3557 9.1316 15.1918 9.12993 14.0279C9.12825 12.8331 9.12734 11.6383 9.12719 10.4434C9.12708 9.77251 9.12663 9.1016 9.12536 8.43069C9.12424 7.8593 9.12383 7.28791 9.12429 6.7165C9.12454 6.42504 9.12444 6.13359 9.12348 5.84214C9.12256 5.57505 9.12262 5.30798 9.12343 5.04089C9.12353 4.94453 9.12333 4.84817 9.12272 4.75181C9.11779 3.9182 9.2258 3.25708 9.76129 2.644C10.1968 2.1836 10.6183 2.01955 11.2104 2.0197Z" fill="white"/>
<path d="M11.2104 2.0197C11.255 2.01949 11.2996 2.01929 11.3455 2.01907C11.4952 2.01845 11.6448 2.01823 11.7945 2.01801C11.9016 2.01766 12.0088 2.01728 12.116 2.01688C12.4683 2.01569 12.8207 2.01511 13.173 2.01454C13.2943 2.01431 13.4157 2.01408 13.537 2.01384C14.1072 2.01276 14.6774 2.01196 15.2475 2.01148C15.9054 2.01093 16.5631 2.00944 17.221 2.00715C17.7296 2.00544 18.2382 2.0046 18.7469 2.00442C19.0506 2.00428 19.3542 2.00378 19.6579 2.00235C19.9438 2.00103 20.2296 2.00079 20.5155 2.00138C20.6202 2.0014 20.7249 2.00105 20.8295 2.00027C21.6277 1.99466 22.2171 2.07211 22.8151 2.70972C23.065 3.00086 23.2109 3.2858 23.3163 3.67061C23.3253 3.70233 23.3343 3.73405 23.3435 3.76673C23.3759 3.94588 23.3737 4.1172 23.3739 4.29999C23.3741 4.34079 23.3742 4.38158 23.3743 4.42361C23.3746 4.56103 23.3746 4.69846 23.3746 4.83588C23.3747 4.93512 23.3749 5.03435 23.3751 5.13359C23.3756 5.40687 23.3758 5.68016 23.376 5.95344C23.3762 6.24797 23.3767 6.5425 23.3771 6.83702C23.3781 7.54863 23.3786 8.26026 23.3791 8.97184C23.3793 9.30692 23.3796 9.64201 23.3799 9.97709C23.3807 11.0909 23.3814 12.2048 23.3818 13.3186C23.3819 13.6077 23.382 13.8968 23.3821 14.1859C23.3821 14.2578 23.3821 14.3296 23.3822 14.4037C23.3826 15.5675 23.3839 16.7314 23.3855 17.8953C23.3872 19.0902 23.3881 20.285 23.3883 21.4799C23.3884 22.1507 23.3888 22.8217 23.3901 23.4926C23.3912 24.064 23.3916 24.6353 23.3912 25.2067C23.3909 25.4982 23.391 25.7897 23.392 26.0811C23.3929 26.3482 23.3929 26.6153 23.392 26.8823C23.3919 26.9787 23.3921 27.0751 23.3928 27.1714C23.3977 28.0051 23.2897 28.6662 22.7542 29.2793C22.3186 29.7397 21.8971 29.9037 21.305 29.9035C21.2605 29.9038 21.2159 29.904 21.17 29.9042C21.0203 29.9048 20.8707 29.905 20.721 29.9052C20.6139 29.9056 20.5067 29.906 20.3995 29.9064C20.0471 29.9076 19.6948 29.9081 19.3425 29.9087C19.2212 29.9089 19.0998 29.9092 18.9784 29.9094C18.4083 29.9105 17.8381 29.9113 17.2679 29.9118C16.6101 29.9123 15.9523 29.9138 15.2945 29.9161C14.7859 29.9178 14.2773 29.9187 13.7686 29.9188C13.4649 29.919 13.1612 29.9195 12.8576 29.9209C12.5717 29.9222 12.2858 29.9225 11.9999 29.9219C11.8953 29.9218 11.7906 29.9222 11.686 29.923C10.8878 29.9286 10.2984 29.8512 9.7004 29.2136C9.45046 28.9224 9.30461 28.6375 9.19914 28.2526C9.19015 28.2209 9.18122 28.1892 9.17197 28.1565C9.13952 27.9774 9.14176 27.8061 9.14156 27.6233C9.1414 27.5825 9.1413 27.5417 9.1412 27.4997C9.14085 27.3623 9.14085 27.2248 9.1409 27.0874C9.14074 26.9881 9.14054 26.8889 9.14034 26.7897C9.13983 26.5164 9.13963 26.2431 9.13947 25.9698C9.13927 25.6753 9.13881 25.3807 9.13836 25.0863C9.13734 24.3746 9.13683 23.663 9.13638 22.9514C9.13617 22.6163 9.13592 22.2812 9.13561 21.9462C9.13475 20.8323 9.13404 19.7185 9.13369 18.6047C9.13358 18.3156 9.13348 18.0265 9.13338 17.7374C9.13333 17.6296 9.13333 17.6296 9.13328 17.5196C9.13287 16.3557 9.1316 15.1918 9.12993 14.0279C9.12825 12.8331 9.12734 11.6383 9.12719 10.4434C9.12708 9.77251 9.12663 9.1016 9.12536 8.43069C9.12424 7.8593 9.12383 7.28791 9.12429 6.7165C9.12454 6.42504 9.12444 6.13359 9.12348 5.84214C9.12256 5.57505 9.12262 5.30798 9.12343 5.04089C9.12353 4.94453 9.12333 4.84817 9.12272 4.75181C9.11779 3.9182 9.2258 3.25708 9.76129 2.644C10.1968 2.1836 10.6183 2.01955 11.2104 2.0197ZM10.0402 3.17501C10.0088 3.21385 9.97752 3.2527 9.94517 3.29271C9.65627 3.80174 9.68537 4.34509 9.68761 4.92341C9.68745 5.02255 9.6872 5.12169 9.6869 5.22082C9.68624 5.49251 9.68659 5.76418 9.68705 6.03587C9.6874 6.32915 9.68685 6.62243 9.68644 6.91571C9.68578 7.48995 9.68588 8.06423 9.68634 8.63845C9.68669 9.10517 9.68674 9.57194 9.68659 10.0387C9.68654 10.1051 9.68654 10.1715 9.68649 10.24C9.68644 10.3749 9.68639 10.5099 9.68634 10.6448C9.68593 11.9103 9.68644 13.1758 9.68725 14.4412C9.68791 15.527 9.68781 16.6127 9.6871 17.6984C9.68629 18.9593 9.68593 20.2203 9.68644 21.4812C9.68649 21.6157 9.68654 21.7501 9.68659 21.8846C9.68659 21.9508 9.68659 22.017 9.68664 22.0851C9.68679 22.5513 9.68654 23.0174 9.68619 23.4835C9.68578 24.0516 9.68588 24.6197 9.68669 25.1878C9.6871 25.4777 9.68725 25.7675 9.68674 26.0573C9.68629 26.3227 9.68654 26.5881 9.68735 26.8535C9.68751 26.9494 9.68745 27.0453 9.68705 27.1412C9.67684 28.0051 9.67684 28.0051 10.0402 28.7482C10.0706 28.7877 10.1011 28.8271 10.1325 28.8677C10.6577 29.3462 11.1782 29.3124 11.826 29.3079C11.9329 29.3082 12.0398 29.3087 12.1467 29.3092C12.4359 29.3102 12.7252 29.3094 13.0144 29.3084C13.3177 29.3074 13.6209 29.3079 13.9241 29.3082C14.4331 29.3085 14.9422 29.3076 15.4512 29.306C16.0392 29.3042 16.6272 29.3042 17.2152 29.3051C17.7816 29.306 18.348 29.3057 18.9144 29.3047C19.1552 29.3043 19.3959 29.3043 19.6366 29.3048C19.9201 29.3052 20.2037 29.3045 20.4873 29.303C20.5911 29.3026 20.695 29.3026 20.7989 29.303C20.941 29.3035 21.0832 29.3026 21.2253 29.3013C21.2661 29.3018 21.3069 29.3023 21.349 29.3028C21.7922 29.2956 22.1453 29.0909 22.4669 28.7587C22.7483 28.4072 22.8148 28.0267 22.8152 27.5679C22.8153 27.5272 22.8154 27.4866 22.8155 27.4447C22.8158 27.3078 22.8157 27.1709 22.8156 27.0339C22.8158 26.935 22.8159 26.8361 22.8161 26.7372C22.8165 26.4649 22.8166 26.1926 22.8166 25.9202C22.8167 25.6268 22.8171 25.3333 22.8175 25.0398C22.8182 24.3978 22.8185 23.7558 22.8187 23.1138C22.8188 22.713 22.819 22.3122 22.8193 21.9115C22.8199 20.8021 22.8204 19.6928 22.8206 18.5835C22.8206 18.5125 22.8206 18.4415 22.8206 18.3683C22.8206 18.2971 22.8207 18.2259 22.8207 18.1525C22.8207 18.0083 22.8207 17.864 22.8207 17.7198C22.8207 17.6482 22.8208 17.5767 22.8208 17.5029C22.821 16.3433 22.8218 15.1837 22.823 14.0241C22.8242 12.8339 22.8249 11.6437 22.8249 10.4536C22.825 9.7852 22.8253 9.11678 22.8262 8.44836C22.827 7.87924 22.8272 7.31011 22.8268 6.74096C22.8266 6.45055 22.8266 6.16016 22.8274 5.86976C22.828 5.60383 22.828 5.33792 22.8273 5.072C22.8273 4.97587 22.8274 4.87974 22.8278 4.78361C22.8308 4.09776 22.8054 3.56829 22.3614 3.04469C22.0676 2.75368 21.7446 2.6446 21.3572 2.64106C21.3235 2.64068 21.2898 2.64032 21.2551 2.63993C21.1436 2.63882 21.0321 2.63815 20.9207 2.63759C20.8825 2.63736 20.8444 2.63713 20.8051 2.63689C20.6032 2.63571 20.4014 2.6349 20.1995 2.63436C19.9914 2.63374 19.7833 2.63179 19.5751 2.62954C19.4148 2.62806 19.2544 2.62759 19.094 2.62739C19.0173 2.62711 18.9406 2.62645 18.8639 2.6254C18.7563 2.62402 18.6488 2.62407 18.5413 2.62446C18.4801 2.62413 18.419 2.6238 18.3561 2.62346C18.039 2.67539 17.8462 2.90118 17.6507 3.16505C17.5777 3.27458 17.516 3.38655 17.4542 3.50423C17.2575 3.86381 17.0051 4.09487 16.6394 4.21003C16.228 4.29696 15.8768 4.27875 15.5087 4.0452C15.2486 3.83718 15.0734 3.57161 14.912 3.26705C14.7607 2.98368 14.5607 2.75645 14.2773 2.65108C14.1671 2.64459 14.0567 2.64149 13.9464 2.64016C13.8963 2.63947 13.8963 2.63947 13.8452 2.63876C13.7347 2.63735 13.6243 2.63641 13.5138 2.6356C13.4759 2.6353 13.438 2.63499 13.399 2.63468C13.1982 2.63317 12.9974 2.63207 12.7966 2.63125C12.6312 2.6305 12.4657 2.62893 12.3004 2.62661C12.1 2.6238 11.8996 2.62241 11.6993 2.62201C11.6232 2.62163 11.5473 2.62078 11.4713 2.61941C10.9123 2.60995 10.4254 2.6761 10.0402 3.17501Z" fill="#3AE0C5"/>
<path d="M11.2104 2.0197C11.255 2.01949 11.2996 2.01929 11.3455 2.01907C11.4952 2.01845 11.6448 2.01823 11.7945 2.01801C11.9016 2.01766 12.0088 2.01728 12.116 2.01688C12.4683 2.01569 12.8207 2.01511 13.173 2.01454C13.2943 2.01431 13.4157 2.01408 13.537 2.01384C14.1072 2.01276 14.6774 2.01196 15.2475 2.01148C15.9054 2.01093 16.5631 2.00944 17.221 2.00715C17.7296 2.00544 18.2382 2.0046 18.7469 2.00442C19.0506 2.00428 19.3542 2.00378 19.6579 2.00235C19.9438 2.00103 20.2296 2.00079 20.5155 2.00138C20.6202 2.0014 20.7249 2.00105 20.8295 2.00027C21.6277 1.99466 22.2171 2.07211 22.8151 2.70972C23.065 3.00086 23.2109 3.2858 23.3163 3.67061C23.3253 3.70233 23.3343 3.73405 23.3435 3.76673C23.3759 3.94588 23.3737 4.1172 23.3739 4.29999C23.3741 4.34079 23.3742 4.38158 23.3743 4.42361C23.3746 4.56103 23.3746 4.69846 23.3746 4.83588C23.3747 4.93512 23.3749 5.03435 23.3751 5.13359C23.3756 5.40687 23.3758 5.68016 23.376 5.95344C23.3762 6.24797 23.3767 6.5425 23.3771 6.83702C23.3781 7.54863 23.3786 8.26026 23.3791 8.97184C23.3793 9.30692 23.3796 9.64201 23.3799 9.97709C23.3807 11.0909 23.3814 12.2048 23.3818 13.3186C23.3819 13.6077 23.382 13.8968 23.3821 14.1859C23.3821 14.2578 23.3821 14.3296 23.3822 14.4037C23.3826 15.5675 23.3839 16.7314 23.3855 17.8953C23.3872 19.0902 23.3881 20.285 23.3883 21.4799C23.3884 22.1507 23.3888 22.8217 23.3901 23.4926C23.3912 24.064 23.3916 24.6353 23.3912 25.2067C23.3909 25.4982 23.391 25.7897 23.392 26.0811C23.3929 26.3482 23.3929 26.6153 23.392 26.8823C23.3919 26.9787 23.3921 27.0751 23.3928 27.1714C23.3977 28.0051 23.2897 28.6662 22.7542 29.2793C22.3186 29.7397 21.8971 29.9037 21.305 29.9035C21.2605 29.9038 21.2159 29.904 21.17 29.9042C21.0203 29.9048 20.8707 29.905 20.721 29.9052C20.6139 29.9056 20.5067 29.906 20.3995 29.9064C20.0471 29.9076 19.6948 29.9081 19.3425 29.9087C19.2212 29.9089 19.0998 29.9092 18.9784 29.9094C18.4083 29.9105 17.8381 29.9113 17.2679 29.9118C16.6101 29.9123 15.9523 29.9138 15.2945 29.9161C14.7859 29.9178 14.2773 29.9187 13.7686 29.9188C13.4649 29.919 13.1612 29.9195 12.8576 29.9209C12.5717 29.9222 12.2858 29.9225 11.9999 29.9219C11.8953 29.9218 11.7906 29.9222 11.686 29.923C10.8878 29.9286 10.2984 29.8512 9.7004 29.2136C9.45046 28.9224 9.30461 28.6375 9.19914 28.2526C9.19015 28.2209 9.18122 28.1892 9.17197 28.1565C9.13952 27.9774 9.14176 27.8061 9.14156 27.6233C9.1414 27.5825 9.1413 27.5417 9.1412 27.4997C9.14085 27.3623 9.14085 27.2248 9.1409 27.0874C9.14074 26.9881 9.14054 26.8889 9.14034 26.7897C9.13983 26.5164 9.13963 26.2431 9.13947 25.9698C9.13927 25.6753 9.13881 25.3807 9.13836 25.0863C9.13734 24.3746 9.13683 23.663 9.13638 22.9514C9.13617 22.6163 9.13592 22.2812 9.13561 21.9462C9.13475 20.8323 9.13404 19.7185 9.13369 18.6047C9.13358 18.3156 9.13348 18.0265 9.13338 17.7374C9.13333 17.6296 9.13333 17.6296 9.13328 17.5196C9.13287 16.3557 9.1316 15.1918 9.12993 14.0279C9.12825 12.8331 9.12734 11.6383 9.12719 10.4434C9.12708 9.77251 9.12663 9.1016 9.12536 8.43069C9.12424 7.8593 9.12383 7.28791 9.12429 6.7165C9.12454 6.42504 9.12444 6.13359 9.12348 5.84214C9.12256 5.57505 9.12262 5.30798 9.12343 5.04089C9.12353 4.94453 9.12333 4.84817 9.12272 4.75181C9.11779 3.9182 9.2258 3.25708 9.76129 2.644C10.1968 2.1836 10.6183 2.01955 11.2104 2.0197ZM10.0402 3.17501C10.0088 3.21385 9.97752 3.2527 9.94517 3.29271C9.65627 3.80174 9.68537 4.34509 9.68761 4.92341C9.68745 5.02255 9.6872 5.12169 9.6869 5.22082C9.68624 5.49251 9.68659 5.76418 9.68705 6.03587C9.6874 6.32915 9.68685 6.62243 9.68644 6.91571C9.68578 7.48995 9.68588 8.06423 9.68634 8.63845C9.68669 9.10517 9.68674 9.57194 9.68659 10.0387C9.68654 10.1051 9.68654 10.1715 9.68649 10.24C9.68644 10.3749 9.68639 10.5099 9.68634 10.6448C9.68593 11.9103 9.68644 13.1758 9.68725 14.4412C9.68791 15.527 9.68781 16.6127 9.6871 17.6984C9.68629 18.9593 9.68593 20.2203 9.68644 21.4812C9.68649 21.6157 9.68654 21.7501 9.68659 21.8846C9.68659 21.9508 9.68659 22.017 9.68664 22.0851C9.68679 22.5513 9.68654 23.0174 9.68619 23.4835C9.68578 24.0516 9.68588 24.6197 9.68669 25.1878C9.6871 25.4777 9.68725 25.7675 9.68674 26.0573C9.68629 26.3227 9.68654 26.5881 9.68735 26.8535C9.68751 26.9494 9.68745 27.0453 9.68705 27.1412C9.67684 28.0051 9.67684 28.0051 10.0402 28.7482C10.0706 28.7877 10.1011 28.8271 10.1325 28.8677C10.6577 29.3462 11.1782 29.3124 11.826 29.3079C11.9329 29.3082 12.0398 29.3087 12.1467 29.3092C12.4359 29.3102 12.7252 29.3094 13.0144 29.3084C13.3177 29.3074 13.6209 29.3079 13.9241 29.3082C14.4331 29.3085 14.9422 29.3076 15.4512 29.306C16.0392 29.3042 16.6272 29.3042 17.2152 29.3051C17.7816 29.306 18.348 29.3057 18.9144 29.3047C19.1552 29.3043 19.3959 29.3043 19.6366 29.3048C19.9201 29.3052 20.2037 29.3045 20.4873 29.303C20.5911 29.3026 20.695 29.3026 20.7989 29.303C20.941 29.3035 21.0832 29.3026 21.2253 29.3013C21.2661 29.3018 21.3069 29.3023 21.349 29.3028C21.7922 29.2956 22.1453 29.0909 22.4669 28.7587C22.7483 28.4072 22.8148 28.0267 22.8152 27.5679C22.8153 27.5272 22.8154 27.4866 22.8155 27.4447C22.8158 27.3078 22.8157 27.1709 22.8156 27.0339C22.8158 26.935 22.8159 26.8361 22.8161 26.7372C22.8165 26.4649 22.8166 26.1926 22.8166 25.9202C22.8167 25.6268 22.8171 25.3333 22.8175 25.0398C22.8182 24.3978 22.8185 23.7558 22.8187 23.1138C22.8188 22.713 22.819 22.3122 22.8193 21.9115C22.8199 20.8021 22.8204 19.6928 22.8206 18.5835C22.8206 18.5125 22.8206 18.4415 22.8206 18.3683C22.8206 18.2971 22.8207 18.2259 22.8207 18.1525C22.8207 18.0083 22.8207 17.864 22.8207 17.7198C22.8207 17.6482 22.8208 17.5767 22.8208 17.5029C22.821 16.3433 22.8218 15.1837 22.823 14.0241C22.8242 12.8339 22.8249 11.6437 22.8249 10.4536C22.825 9.7852 22.8253 9.11678 22.8262 8.44836C22.827 7.87924 22.8272 7.31011 22.8268 6.74096C22.8266 6.45055 22.8266 6.16016 22.8274 5.86976C22.828 5.60383 22.828 5.33792 22.8273 5.072C22.8273 4.97587 22.8274 4.87974 22.8278 4.78361C22.8308 4.09776 22.8054 3.56829 22.3614 3.04469C22.0676 2.75368 21.7446 2.6446 21.3572 2.64106C21.3235 2.64068 21.2898 2.64032 21.2551 2.63993C21.1436 2.63882 21.0321 2.63815 20.9207 2.63759C20.8825 2.63736 20.8444 2.63713 20.8051 2.63689C20.6032 2.63571 20.4014 2.6349 20.1995 2.63436C19.9914 2.63374 19.7833 2.63179 19.5751 2.62954C19.4148 2.62806 19.2544 2.62759 19.094 2.62739C19.0173 2.62711 18.9406 2.62645 18.8639 2.6254C18.7563 2.62402 18.6488 2.62407 18.5413 2.62446C18.4801 2.62413 18.419 2.6238 18.3561 2.62346C18.039 2.67539 17.8462 2.90118 17.6507 3.16505C17.5777 3.27458 17.516 3.38655 17.4542 3.50423C17.2575 3.86381 17.0051 4.09487 16.6394 4.21003C16.228 4.29696 15.8768 4.27875 15.5087 4.0452C15.2486 3.83718 15.0734 3.57161 14.912 3.26705C14.7607 2.98368 14.5607 2.75645 14.2773 2.65108C14.1671 2.64459 14.0567 2.64149 13.9464 2.64016C13.8963 2.63947 13.8963 2.63947 13.8452 2.63876C13.7347 2.63735 13.6243 2.63641 13.5138 2.6356C13.4759 2.6353 13.438 2.63499 13.399 2.63468C13.1982 2.63317 12.9974 2.63207 12.7966 2.63125C12.6312 2.6305 12.4657 2.62893 12.3004 2.62661C12.1 2.6238 11.8996 2.62241 11.6993 2.62201C11.6232 2.62163 11.5473 2.62078 11.4713 2.61941C10.9123 2.60995 10.4254 2.6761 10.0402 3.17501Z" fill="white" fill-opacity="0.2"/>
<path d="M18.5429 11.8835C18.5799 11.9113 18.6168 11.9392 18.6548 11.968C18.8979 12.1594 19.156 12.3847 19.3047 12.6764C19.2914 12.8748 19.2529 12.9613 19.1523 13.1295C19.1188 13.1295 19.0853 13.1295 19.0508 13.1295C19.0381 13.1707 19.0254 13.2117 19.0123 13.2541C18.9437 13.4266 18.8639 13.5439 18.7524 13.6853C18.7008 13.7525 18.7008 13.7525 18.6481 13.821C18.5429 13.9225 18.5429 13.9225 18.3398 13.9225C18.1875 13.7405 18.1875 13.7405 18.1875 13.5827C18.154 13.5827 18.1204 13.5827 18.0859 13.5827C18.0859 13.5453 18.0859 13.5079 18.0859 13.4694C18.0524 13.4694 18.0189 13.4694 17.9844 13.4694C17.9844 13.432 17.9844 13.3946 17.9844 13.3561C17.955 13.3407 17.9256 13.3253 17.8953 13.3094C17.7818 13.2432 17.6847 13.1675 17.5813 13.0835C16.8584 12.5429 16.0062 12.4098 15.1627 12.5849C14.5248 12.7358 13.9555 13.1031 13.5156 13.6393C13.4905 13.6954 13.4905 13.6954 13.4648 13.7526C13.4313 13.7526 13.3978 13.7526 13.3633 13.7526C13.3501 13.7829 13.337 13.8132 13.3234 13.8444C13.2776 13.9444 13.2292 14.0429 13.1794 14.1405C13.149 14.2006 13.1185 14.2606 13.0872 14.3225C13.0568 14.3816 13.0265 14.4407 12.9953 14.5016C12.7806 14.9785 12.7292 15.4665 12.7348 15.9934C12.7343 16.048 12.7337 16.1026 12.7331 16.1588C12.7351 16.7189 12.8774 17.1835 13.103 17.6785C13.1196 17.7168 13.1361 17.7551 13.1532 17.7945C13.2632 18.0392 13.3876 18.2062 13.5664 18.3971C13.5831 18.4532 13.5999 18.5093 13.6172 18.567C13.7069 18.6247 13.7069 18.6247 13.8203 18.6803C13.9209 18.7533 14.0214 18.8265 14.1218 18.8998C14.8415 19.4086 15.7151 19.5429 16.5466 19.3529C17.0764 19.198 17.5603 18.8952 17.9844 18.5104C18.0011 18.473 18.0179 18.4356 18.0351 18.3971C18.0687 18.3971 18.1022 18.3971 18.1367 18.3971C18.1501 18.3648 18.1634 18.3324 18.1772 18.2991C18.2422 18.1623 18.3189 18.0491 18.4033 17.9263C18.6373 17.5613 18.7585 17.1733 18.8984 16.7545C18.6135 16.7545 18.3287 16.7545 18.0351 16.7545C17.9844 16.528 17.9844 16.528 18.0332 16.4251C18.0569 16.3924 18.0805 16.3598 18.105 16.3262C18.1973 16.197 18.241 16.1224 18.289 15.9616C18.3226 15.9616 18.3561 15.9616 18.3906 15.9616C18.4094 15.9178 18.4094 15.9178 18.4287 15.873C18.5942 15.5131 18.7859 15.1855 18.9968 14.8571C19.0228 14.8162 19.0488 14.7755 19.0756 14.7334C19.1518 14.614 19.2282 14.4948 19.3047 14.3756C19.3534 14.2995 19.4022 14.2234 19.4509 14.1473C19.4864 14.0918 19.522 14.0363 19.5586 13.9792C19.7543 14.0241 19.7543 14.0241 19.821 14.129C19.8381 14.1695 19.8552 14.21 19.8728 14.2517C20.0116 14.5552 20.1928 14.8121 20.3816 15.0779C20.4726 15.2253 20.4726 15.2253 20.4726 15.3952C20.5062 15.3952 20.5397 15.3952 20.5742 15.3952C20.6383 15.4992 20.6383 15.4992 20.7107 15.643C20.8488 15.9113 21.0035 16.1565 21.1722 16.4018C21.2344 16.528 21.2344 16.528 21.1836 16.7545C20.8987 16.7545 20.6138 16.7545 20.3203 16.7545C20.3067 16.8258 20.2931 16.8971 20.2791 16.9705C20.2591 17.0685 20.2389 17.1664 20.2187 17.2643C20.2048 17.3369 20.2048 17.3369 20.1905 17.411C19.958 18.5017 19.2158 19.5492 18.3866 20.1667C17.2958 20.8987 16.0533 21.251 14.7836 20.933C14.6294 20.8875 14.4788 20.8343 14.3281 20.776C14.2577 20.7495 14.2577 20.7495 14.1859 20.7225C13.4523 20.4196 12.8067 19.9089 12.2969 19.2467C12.2969 19.2094 12.2969 19.172 12.2969 19.1335C12.2633 19.1335 12.2298 19.1335 12.1953 19.1335C11.5019 18.1703 11.1832 16.8059 11.2677 15.586C11.3746 14.5253 11.7263 13.5077 12.3826 12.7189C12.5352 12.5414 12.5352 12.5414 12.6523 12.3366C12.6858 12.3366 12.7194 12.3366 12.7539 12.3366C12.7539 12.2992 12.7539 12.2618 12.7539 12.2233C13.3377 11.6564 13.9914 11.2665 14.7344 11.0338C14.7783 11.0198 14.8224 11.0058 14.8677 10.9914C16.1604 10.6586 17.4781 11.0489 18.5429 11.8835Z" fill="#3AE0C5"/>
<path d="M11.579 2.61746C11.6561 2.61756 11.7332 2.61755 11.8103 2.61745C11.9709 2.61755 12.1315 2.6186 12.2922 2.62039C12.4976 2.62265 12.7029 2.62288 12.9082 2.62247C13.0671 2.62229 13.2259 2.62298 13.3848 2.62394C13.4605 2.62434 13.5362 2.62452 13.6119 2.62447C13.7177 2.62457 13.8235 2.62579 13.9294 2.62731C14.0194 2.62802 14.0194 2.62802 14.1112 2.62875C14.4556 2.67502 14.6407 2.86709 14.8538 3.15046C14.9323 3.26616 14.999 3.38269 15.0646 3.50778C15.26 3.8703 15.5372 4.11681 15.9025 4.23703C16.3568 4.29592 16.7987 4.23165 17.1754 3.92506C17.3732 3.72021 17.487 3.4952 17.6093 3.22989C17.746 2.98653 17.957 2.77972 18.1877 2.65109C18.2962 2.64473 18.4049 2.64206 18.5136 2.64107C18.547 2.64069 18.5805 2.64032 18.615 2.63994C18.726 2.63882 18.837 2.63816 18.948 2.63759C18.986 2.63737 19.024 2.63714 19.0631 2.6369C19.2645 2.63571 19.4659 2.6349 19.6673 2.63437C19.8744 2.63375 20.0816 2.63181 20.2887 2.62955C20.4487 2.62806 20.6086 2.62759 20.7686 2.62739C20.8448 2.62712 20.9212 2.62646 20.9974 2.62541C21.595 2.61766 22.0201 2.70266 22.4672 3.16462C22.7485 3.51607 22.8151 3.89655 22.8155 4.35534C22.8156 4.396 22.8157 4.43665 22.8158 4.47854C22.816 4.61548 22.816 4.75242 22.8159 4.88936C22.816 4.98826 22.8162 5.08715 22.8164 5.18604C22.8168 5.45836 22.8168 5.73068 22.8169 6.003C22.817 6.29648 22.8174 6.58997 22.8177 6.88345C22.8184 7.52547 22.8187 8.16744 22.8189 8.80946C22.8191 9.21025 22.8193 9.61103 22.8195 10.0118C22.8201 11.1211 22.8206 12.2304 22.8208 13.3397C22.8208 13.4108 22.8208 13.4818 22.8208 13.555C22.8209 13.6262 22.8209 13.6974 22.8209 13.7707C22.8209 13.915 22.8209 14.0592 22.8209 14.2035C22.821 14.2751 22.821 14.3466 22.821 14.4203C22.8212 15.5799 22.8221 16.7396 22.8233 17.8992C22.8244 19.0893 22.8251 20.2795 22.8252 21.4697C22.8252 22.1381 22.8255 22.8065 22.8264 23.4749C22.8272 24.044 22.8274 24.6132 22.827 25.1823C22.8268 25.4727 22.8269 25.7631 22.8276 26.0535C22.8283 26.3195 22.8282 26.5853 22.8276 26.8513C22.8275 26.9474 22.8276 27.0435 22.8281 27.1397C22.8311 27.8255 22.8057 28.355 22.3616 28.8786C22.0359 29.2012 21.6861 29.2806 21.2622 29.2809C21.2178 29.2811 21.1735 29.2814 21.1278 29.2816C20.9786 29.2824 20.8294 29.2828 20.6801 29.2831C20.5734 29.2836 20.4666 29.284 20.3598 29.2845C20.0086 29.286 19.6574 29.2869 19.3063 29.2876C19.1854 29.288 19.0645 29.2883 18.9436 29.2886C18.4407 29.2898 17.9377 29.2909 17.4348 29.2915C16.7141 29.2924 15.9934 29.2943 15.2727 29.2976C14.766 29.2997 14.2592 29.3008 13.7525 29.3011C13.4499 29.3014 13.1472 29.302 12.8446 29.3038C12.5597 29.3055 12.2748 29.3059 11.99 29.3053C11.8856 29.3053 11.7813 29.3057 11.6769 29.3067C11.0748 29.3121 10.618 29.3098 10.1327 28.8677C10.1023 28.8283 10.0718 28.7889 10.0405 28.7483C10.0091 28.7094 9.97776 28.6705 9.94546 28.6306C9.65657 28.1215 9.68561 27.5782 9.68785 26.9999C9.6877 26.9007 9.68744 26.8016 9.68714 26.7025C9.68653 26.4308 9.68683 26.1591 9.68729 25.8874C9.68764 25.5941 9.68709 25.3008 9.68668 25.0075C9.68602 24.4333 9.68617 23.859 9.68658 23.2848C9.68693 22.8181 9.68698 22.3513 9.68683 21.8846C9.68678 21.8182 9.68678 21.7518 9.68673 21.6833C9.68668 21.5483 9.68663 21.4134 9.68658 21.2784C9.68617 20.013 9.68668 18.7475 9.68749 17.482C9.68815 16.3963 9.68805 15.3106 9.68734 14.2249C9.68653 12.9639 9.68622 11.703 9.68668 10.4421C9.68673 10.3076 9.68678 10.1731 9.68683 10.0387C9.68683 9.97252 9.68688 9.90636 9.68688 9.83816C9.68704 9.37201 9.68678 8.90586 9.68643 8.43976C9.68602 7.87166 9.68612 7.30355 9.68693 6.73544C9.68734 6.44561 9.68749 6.15578 9.68698 5.86595C9.68653 5.60056 9.68678 5.33519 9.68759 5.0698C9.68775 4.97387 9.6877 4.87794 9.68729 4.78201C9.68318 3.61762 9.68318 3.61762 10.0405 3.17502C10.0861 3.11588 10.0861 3.11588 10.1327 3.05554C10.5821 2.64618 11.0189 2.60993 11.579 2.61746ZM10.3674 3.61398C10.1798 3.9204 10.1579 4.15192 10.1576 4.52011C10.1575 4.56021 10.1574 4.60031 10.1573 4.64162C10.157 4.77667 10.157 4.91172 10.1571 5.04677C10.157 5.1443 10.1568 5.24183 10.1567 5.33936C10.1563 5.60791 10.1562 5.87647 10.1561 6.14503C10.156 6.43445 10.1556 6.72388 10.1553 7.0133C10.1546 7.6464 10.1543 8.27953 10.1541 8.9126C10.1539 9.30784 10.1537 9.70302 10.1535 10.0982C10.1529 11.192 10.1523 12.2859 10.1522 13.3797C10.1521 13.4497 10.1521 13.5197 10.1521 13.5919C10.1521 13.6621 10.1521 13.7323 10.1521 13.8046C10.1521 13.9468 10.152 14.0891 10.152 14.2313C10.152 14.3019 10.152 14.3725 10.152 14.4451C10.1518 15.5887 10.1509 16.7322 10.1498 17.8758C10.1485 19.0493 10.1479 20.2229 10.1478 21.3965C10.1478 22.0557 10.1475 22.7148 10.1466 23.3739C10.1458 23.9351 10.1455 24.4963 10.1459 25.0575C10.1461 25.3439 10.1461 25.6302 10.1454 25.9166C10.1447 26.1788 10.1448 26.441 10.1454 26.7032C10.1455 26.798 10.1454 26.8928 10.1449 26.9877C10.1296 27.7502 10.1296 27.7502 10.4372 28.4119C10.7502 28.7029 10.9926 28.7709 11.3933 28.7707C11.4578 28.7711 11.4578 28.7711 11.5235 28.7714C11.6681 28.772 11.8126 28.7722 11.9572 28.7724C12.0606 28.7728 12.164 28.7732 12.2675 28.7736C12.5489 28.7745 12.8303 28.7752 13.1117 28.7756C13.2875 28.7759 13.4632 28.7762 13.639 28.7766C14.1889 28.7777 14.7389 28.7785 15.2888 28.779C15.9237 28.7795 16.5587 28.781 17.1936 28.7833C17.6842 28.785 18.1749 28.7859 18.6656 28.786C18.9586 28.7862 19.2517 28.7867 19.5448 28.7881C19.8206 28.7894 20.0964 28.7897 20.3722 28.7891C20.4733 28.789 20.5744 28.7894 20.6756 28.7902C20.8139 28.7912 20.9521 28.7908 21.0904 28.7901C21.1302 28.7907 21.17 28.7913 21.211 28.7919C21.5379 28.7877 21.7978 28.6752 22.0483 28.4389C22.0709 28.4078 22.0936 28.3768 22.1169 28.3447C22.1403 28.3139 22.1637 28.2831 22.1879 28.2514C22.3411 27.976 22.3645 27.7077 22.3647 27.3892C22.3649 27.3289 22.3649 27.3289 22.3651 27.2673C22.3656 27.1325 22.3653 26.9977 22.365 26.8629C22.3651 26.7653 22.3653 26.6676 22.3655 26.57C22.3661 26.3017 22.366 26.0334 22.3657 25.7651C22.3656 25.4757 22.3661 25.1864 22.3665 24.897C22.3671 24.3302 22.3672 23.7633 22.3671 23.1965C22.367 22.7357 22.3671 22.275 22.3673 21.8143C22.3674 21.716 22.3674 21.716 22.3674 21.6157C22.3675 21.4826 22.3675 21.3495 22.3676 21.2164C22.3681 19.9675 22.368 18.7186 22.3677 17.4698C22.3675 16.327 22.368 15.1842 22.369 14.0414C22.37 12.8683 22.3704 11.6952 22.3702 10.5221C22.3701 9.86337 22.3702 9.20464 22.3709 8.54591C22.3715 7.98517 22.3716 7.42437 22.371 6.86357C22.3707 6.57741 22.3707 6.29127 22.3713 6.00511C22.3718 5.74314 22.3716 5.48119 22.3709 5.21922C22.3708 5.12447 22.3709 5.02971 22.3713 4.93496C22.39 4.19322 22.39 4.19322 22.1046 3.54362C22.0709 3.51311 22.0373 3.48259 22.0026 3.45114C21.9692 3.41974 21.9358 3.38835 21.9014 3.356C21.6807 3.18914 21.4909 3.1465 21.2262 3.1444C21.1642 3.14368 21.1022 3.14296 21.0383 3.14221C20.9716 3.14209 20.9051 3.14196 20.8364 3.14183C20.7669 3.14146 20.6974 3.14108 20.628 3.14069C20.4825 3.14001 20.3371 3.1398 20.1916 3.13987C20.0058 3.13988 19.82 3.13833 19.6342 3.13638C19.4907 3.13512 19.3473 3.13489 19.2038 3.13495C19.1021 3.13475 19.0005 3.13353 18.8989 3.13228C18.4498 3.12923 18.4498 3.12923 18.0861 3.38742C17.9896 3.54313 17.9896 3.54313 17.9147 3.71664C17.6824 4.18417 17.3719 4.50569 16.9181 4.69015C16.3033 4.88187 15.7906 4.82913 15.2297 4.47775C14.86 4.2149 14.6645 3.88343 14.4598 3.45734C14.3612 3.30273 14.2774 3.24527 14.1252 3.16086C13.9752 3.13537 13.9752 3.13537 13.813 3.13887C13.7511 3.13834 13.6893 3.1378 13.6255 3.13725C13.5591 3.13759 13.4926 3.13793 13.4241 3.13829C13.3548 3.13817 13.2854 3.13801 13.216 3.1378C13.0708 3.13755 12.9256 3.13791 12.7804 3.13871C12.595 3.13967 12.4097 3.13912 12.2243 3.1381C12.0811 3.13748 11.9378 3.13768 11.7946 3.13812C11.6932 3.13829 11.5919 3.13778 11.4905 3.13725C11.0063 3.14142 10.6968 3.18535 10.3674 3.61398Z" fill="#3AE0C5"/>
<mask id="mask0_2873_5262" style="mask-type:luminance" maskUnits="userSpaceOnUse" x="9" y="2" width="15" height="28">
<path d="M23.0415 2.33337H9.43213V29.5775H23.0415V2.33337Z" fill="white"/>
<path d="M11.579 2.6174C11.6561 2.6175 11.7332 2.61749 11.8103 2.61739C11.9709 2.61749 12.1315 2.61854 12.2922 2.62033C12.4976 2.62259 12.7029 2.62282 12.9082 2.6224C13.0671 2.62223 13.2259 2.62291 13.3848 2.62388C13.4605 2.62428 13.5362 2.62445 13.6119 2.62441C13.7177 2.62451 13.8235 2.62573 13.9294 2.62725C14.0194 2.62796 14.0194 2.62796 14.1112 2.62869C14.4556 2.67496 14.6407 2.86703 14.8538 3.1504C14.9323 3.2661 14.999 3.38263 15.0646 3.50772C15.26 3.87024 15.5372 4.11675 15.9025 4.23697C16.3568 4.29586 16.7987 4.23159 17.1754 3.925C17.3732 3.72015 17.487 3.49514 17.6093 3.22983C17.746 2.98647 17.957 2.77966 18.1877 2.65103C18.2962 2.64466 18.4049 2.642 18.5136 2.64101C18.547 2.64063 18.5805 2.64026 18.615 2.63988C18.726 2.63876 18.837 2.6381 18.948 2.63753C18.986 2.63731 19.024 2.63707 19.0631 2.63684C19.2645 2.63565 19.4659 2.63484 19.6673 2.63431C19.8744 2.63369 20.0816 2.63174 20.2887 2.62949C20.4487 2.628 20.6086 2.62753 20.7686 2.62733C20.8448 2.62705 20.9212 2.6264 20.9974 2.62534C21.595 2.6176 22.0201 2.7026 22.4672 3.16456C22.7485 3.51601 22.8151 3.89649 22.8155 4.35528C22.8156 4.39594 22.8157 4.43659 22.8158 4.47848C22.816 4.61542 22.816 4.75236 22.8159 4.8893C22.816 4.9882 22.8162 5.08709 22.8164 5.18598C22.8168 5.4583 22.8168 5.73062 22.8169 6.00294C22.817 6.29642 22.8174 6.5899 22.8177 6.88339C22.8184 7.52541 22.8187 8.16737 22.8189 8.8094C22.8191 9.21019 22.8193 9.61097 22.8195 10.0117C22.8201 11.1211 22.8206 12.2304 22.8208 13.3397C22.8208 13.4107 22.8208 13.4817 22.8208 13.5549C22.8209 13.6261 22.8209 13.6973 22.8209 13.7707C22.8209 13.9149 22.8209 14.0592 22.8209 14.2035C22.821 14.275 22.821 14.3466 22.821 14.4203C22.8212 15.5799 22.8221 16.7395 22.8233 17.8991C22.8244 19.0893 22.8251 20.2795 22.8252 21.4697C22.8252 22.138 22.8255 22.8064 22.8264 23.4748C22.8272 24.044 22.8274 24.6131 22.827 25.1823C22.8268 25.4727 22.8269 25.7631 22.8276 26.0535C22.8283 26.3194 22.8282 26.5853 22.8276 26.8512C22.8275 26.9474 22.8276 27.0435 22.8281 27.1396C22.8311 27.8255 22.8057 28.3549 22.3616 28.8785C22.0359 29.2012 21.6861 29.2806 21.2622 29.2808C21.2178 29.2811 21.1735 29.2814 21.1278 29.2816C20.9786 29.2824 20.8294 29.2827 20.6801 29.2831C20.5734 29.2835 20.4666 29.284 20.3598 29.2845C20.0086 29.2859 19.6574 29.2868 19.3063 29.2876C19.1854 29.2879 19.0645 29.2882 18.9436 29.2885C18.4407 29.2897 17.9377 29.2908 17.4348 29.2914C16.7141 29.2923 15.9934 29.2943 15.2727 29.2975C14.766 29.2997 14.2592 29.3008 13.7525 29.3011C13.4499 29.3013 13.1472 29.302 12.8446 29.3038C12.5597 29.3055 12.2748 29.3059 11.99 29.3052C11.8856 29.3052 11.7813 29.3057 11.6769 29.3066C11.0748 29.3121 10.618 29.3097 10.1327 28.8677C10.1023 28.8282 10.0718 28.7888 10.0405 28.7482C10.0091 28.7093 9.97776 28.6705 9.94546 28.6305C9.65657 28.1215 9.68561 27.5781 9.68785 26.9998C9.6877 26.9006 9.68744 26.8015 9.68714 26.7024C9.68653 26.4307 9.68683 26.159 9.68729 25.8873C9.68764 25.5941 9.68709 25.3008 9.68668 25.0075C9.68602 24.4333 9.68617 23.859 9.68658 23.2848C9.68693 22.818 9.68698 22.3513 9.68683 21.8845C9.68678 21.8181 9.68678 21.7517 9.68673 21.6832C9.68668 21.5483 9.68663 21.4133 9.68658 21.2784C9.68617 20.0129 9.68668 18.7474 9.68749 17.482C9.68815 16.3962 9.68805 15.3105 9.68734 14.2248C9.68653 12.9639 9.68622 11.7029 9.68668 10.442C9.68673 10.3075 9.68678 10.1731 9.68683 10.0386C9.68683 9.97245 9.68688 9.9063 9.68688 9.8381C9.68704 9.37195 9.68678 8.9058 9.68643 8.4397C9.68602 7.8716 9.68612 7.30349 9.68693 6.73538C9.68734 6.44555 9.68749 6.15572 9.68698 5.86589C9.68653 5.6005 9.68678 5.33513 9.68759 5.06974C9.68775 4.97381 9.6877 4.87788 9.68729 4.78195C9.68318 3.61756 9.68318 3.61756 10.0405 3.17496C10.0861 3.11582 10.0861 3.11582 10.1327 3.05548C10.5821 2.64612 11.0189 2.60987 11.579 2.6174ZM10.3674 3.61392C10.1798 3.92034 10.1579 4.15185 10.1576 4.52005C10.1575 4.56015 10.1574 4.60025 10.1573 4.64156C10.157 4.77661 10.157 4.91166 10.1571 5.04671C10.157 5.14424 10.1568 5.24177 10.1567 5.3393C10.1563 5.60785 10.1562 5.87641 10.1561 6.14496C10.156 6.43439 10.1556 6.72381 10.1553 7.01324C10.1546 7.64634 10.1543 8.27947 10.1541 8.91254C10.1539 9.30778 10.1537 9.70296 10.1535 10.0981C10.1529 11.192 10.1523 12.2858 10.1522 13.3796C10.1521 13.4497 10.1521 13.5197 10.1521 13.5918C10.1521 13.662 10.1521 13.7322 10.1521 13.8045C10.1521 13.9468 10.152 14.089 10.152 14.2313C10.152 14.3018 10.152 14.3724 10.152 14.4451C10.1518 15.5886 10.1509 16.7322 10.1498 17.8757C10.1485 19.0493 10.1479 20.2229 10.1478 21.3965C10.1478 22.0556 10.1475 22.7147 10.1466 23.3739C10.1458 23.935 10.1455 24.4962 10.1459 25.0574C10.1461 25.3438 10.1461 25.6302 10.1454 25.9166C10.1447 26.1788 10.1448 26.4409 10.1454 26.7031C10.1455 26.7979 10.1454 26.8928 10.1449 26.9876C10.1296 27.7501 10.1296 27.7501 10.4372 28.4119C10.7502 28.7028 10.9926 28.7708 11.3933 28.7707C11.4578 28.771 11.4578 28.771 11.5235 28.7713C11.6681 28.7719 11.8126 28.7722 11.9572 28.7724C12.0606 28.7727 12.164 28.7731 12.2675 28.7735C12.5489 28.7745 12.8303 28.7751 13.1117 28.7756C13.2875 28.7758 13.4632 28.7762 13.639 28.7766C14.1889 28.7777 14.7389 28.7784 15.2888 28.7789C15.9237 28.7795 16.5587 28.7809 17.1936 28.7833C17.6842 28.785 18.1749 28.7858 18.6656 28.786C18.9586 28.7861 19.2517 28.7866 19.5448 28.788C19.8206 28.7894 20.0964 28.7896 20.3722 28.789C20.4733 28.789 20.5744 28.7894 20.6756 28.7901C20.8139 28.7911 20.9521 28.7907 21.0904 28.79C21.1302 28.7906 21.17 28.7912 21.211 28.7919C21.5379 28.7876 21.7978 28.6751 22.0483 28.4389C22.0709 28.4078 22.0936 28.3767 22.1169 28.3446C22.1403 28.3138 22.1637 28.283 22.1879 28.2513C22.3411 27.9759 22.3645 27.7077 22.3647 27.3892C22.3649 27.3288 22.3649 27.3288 22.3651 27.2673C22.3656 27.1324 22.3653 26.9977 22.365 26.8628C22.3651 26.7652 22.3653 26.6676 22.3655 26.5699C22.3661 26.3017 22.366 26.0334 22.3657 25.765C22.3656 25.4757 22.3661 25.1864 22.3665 24.897C22.3671 24.3301 22.3672 23.7633 22.3671 23.1964C22.367 22.7357 22.3671 22.275 22.3673 21.8143C22.3674 21.716 22.3674 21.716 22.3674 21.6157C22.3675 21.4826 22.3675 21.3495 22.3676 21.2163C22.3681 19.9674 22.368 18.7186 22.3677 17.4697C22.3675 16.3269 22.368 15.1841 22.369 14.0413C22.37 12.8683 22.3704 11.6952 22.3702 10.522C22.3701 9.86331 22.3702 9.20458 22.3709 8.54585C22.3715 7.98511 22.3716 7.42431 22.371 6.86351C22.3707 6.57735 22.3707 6.2912 22.3713 6.00505C22.3718 5.74308 22.3716 5.48113 22.3709 5.21916C22.3708 5.12441 22.3709 5.02965 22.3713 4.9349C22.39 4.19316 22.39 4.19316 22.1046 3.54356C22.0709 3.51304 22.0373 3.48253 22.0026 3.45108C21.9692 3.41968 21.9358 3.38829 21.9014 3.35594C21.6807 3.18908 21.4909 3.14644 21.2262 3.14434C21.1642 3.14362 21.1022 3.1429 21.0383 3.14215C20.9716 3.14203 20.9051 3.1419 20.8364 3.14177C20.7669 3.1414 20.6974 3.14102 20.628 3.14063C20.4825 3.13995 20.3371 3.13974 20.1916 3.13981C20.0058 3.13982 19.82 3.13827 19.6342 3.13632C19.4907 3.13506 19.3473 3.13483 19.2038 3.13489C19.1021 3.13469 19.0005 3.13347 18.8989 3.13222C18.4498 3.12917 18.4498 3.12917 18.0861 3.38736C17.9896 3.54307 17.9896 3.54307 17.9147 3.71658C17.6824 4.18411 17.3719 4.50563 16.9181 4.69009C16.3033 4.8818 15.7906 4.82907 15.2297 4.47769C14.86 4.21484 14.6645 3.88337 14.4598 3.45728C14.3612 3.30266 14.2774 3.24521 14.1252 3.1608C13.9752 3.13531 13.9752 3.13531 13.813 3.13881C13.7511 3.13828 13.6893 3.13774 13.6255 3.13719C13.5591 3.13753 13.4926 3.13787 13.4241 3.13823C13.3548 3.13811 13.2854 3.13795 13.216 3.13774C13.0708 3.13749 12.9256 3.13785 12.7804 3.13864C12.595 3.13961 12.4097 3.13906 12.2243 3.13804C12.0811 3.13742 11.9378 3.13762 11.7946 3.13806C11.6932 3.13822 11.5919 3.13772 11.4905 3.13719C11.0063 3.14136 10.6968 3.18529 10.3674 3.61392Z" fill="black"/>
</mask>
<g mask="url(#mask0_2873_5262)">
<path d="M11.579 2.6174C11.6561 2.6175 11.7332 2.61749 11.8103 2.61739C11.9709 2.61749 12.1315 2.61854 12.2922 2.62033C12.4976 2.62259 12.7029 2.62282 12.9082 2.6224C13.0671 2.62223 13.2259 2.62291 13.3848 2.62388C13.4605 2.62428 13.5362 2.62445 13.6119 2.62441C13.7177 2.62451 13.8235 2.62573 13.9294 2.62725C14.0194 2.62796 14.0194 2.62796 14.1113 2.62869C14.4556 2.67496 14.6407 2.86703 14.8538 3.1504C14.9323 3.2661 14.999 3.38263 15.0646 3.50772C15.26 3.87024 15.5372 4.11675 15.9025 4.23697C16.3568 4.29586 16.7987 4.23159 17.1754 3.925C17.3732 3.72015 17.487 3.49514 17.6093 3.22983C17.746 2.98647 17.957 2.77966 18.1877 2.65103C18.2962 2.64466 18.4049 2.642 18.5136 2.64101C18.547 2.64063 18.5805 2.64026 18.615 2.63988C18.726 2.63876 18.837 2.6381 18.948 2.63753C18.986 2.63731 19.024 2.63707 19.0631 2.63684C19.2645 2.63565 19.4659 2.63484 19.6673 2.63431C19.8744 2.63369 20.0816 2.63174 20.2887 2.62949C20.4487 2.628 20.6086 2.62753 20.7686 2.62733C20.8448 2.62705 20.9212 2.6264 20.9974 2.62534C21.595 2.6176 22.0201 2.7026 22.4672 3.16456C22.7485 3.51601 22.8151 3.89649 22.8155 4.35528C22.8156 4.39594 22.8157 4.43659 22.8158 4.47848C22.816 4.61542 22.816 4.75236 22.8159 4.8893C22.816 4.9882 22.8162 5.08709 22.8164 5.18598C22.8168 5.4583 22.8168 5.73062 22.8169 6.00294C22.817 6.29642 22.8174 6.5899 22.8177 6.88339C22.8184 7.52541 22.8187 8.16737 22.8189 8.8094C22.8191 9.21019 22.8193 9.61097 22.8195 10.0117C22.8201 11.1211 22.8206 12.2304 22.8208 13.3397C22.8208 13.4107 22.8208 13.4817 22.8208 13.5549C22.8209 13.6261 22.8209 13.6973 22.8209 13.7707C22.8209 13.9149 22.8209 14.0592 22.8209 14.2035C22.821 14.275 22.821 14.3466 22.821 14.4203C22.8212 15.5799 22.8221 16.7395 22.8233 17.8991C22.8244 19.0893 22.8251 20.2795 22.8252 21.4697C22.8252 22.138 22.8255 22.8064 22.8264 23.4748C22.8272 24.044 22.8274 24.6131 22.827 25.1823C22.8268 25.4727 22.8269 25.7631 22.8276 26.0535C22.8283 26.3194 22.8282 26.5853 22.8276 26.8512C22.8275 26.9474 22.8276 27.0435 22.8281 27.1396C22.8311 27.8255 22.8057 28.3549 22.3616 28.8785C22.0359 29.2012 21.6861 29.2806 21.2622 29.2808C21.2178 29.2811 21.1735 29.2814 21.1278 29.2816C20.9786 29.2824 20.8294 29.2827 20.6801 29.2831C20.5734 29.2835 20.4666 29.284 20.3598 29.2845C20.0086 29.2859 19.6574 29.2868 19.3063 29.2876C19.1854 29.2879 19.0645 29.2882 18.9436 29.2886C18.4407 29.2897 17.9377 29.2908 17.4348 29.2914C16.7141 29.2923 15.9934 29.2943 15.2727 29.2975C14.766 29.2997 14.2592 29.3008 13.7525 29.3011C13.4499 29.3013 13.1472 29.302 12.8446 29.3038C12.5597 29.3055 12.2748 29.3059 11.99 29.3052C11.8856 29.3052 11.7813 29.3057 11.6769 29.3066C11.0748 29.3121 10.618 29.3097 10.1327 28.8677C10.1023 28.8282 10.0718 28.7888 10.0405 28.7482C10.0091 28.7093 9.97776 28.6705 9.94546 28.6305C9.65657 28.1215 9.68561 27.5781 9.68785 26.9998C9.6877 26.9006 9.68744 26.8015 9.68714 26.7024C9.68653 26.4307 9.68683 26.159 9.68729 25.8873C9.68764 25.5941 9.68709 25.3008 9.68668 25.0075C9.68602 24.4333 9.68617 23.859 9.68658 23.2848C9.68693 22.818 9.68698 22.3513 9.68683 21.8845C9.68678 21.8181 9.68678 21.7517 9.68673 21.6832C9.68668 21.5483 9.68663 21.4133 9.68658 21.2784C9.68617 20.0129 9.68668 18.7474 9.68749 17.482C9.68815 16.3962 9.68805 15.3106 9.68734 14.2248C9.68653 12.9639 9.68622 11.7029 9.68668 10.442C9.68673 10.3075 9.68678 10.1731 9.68683 10.0386C9.68683 9.97245 9.68688 9.9063 9.68688 9.8381C9.68704 9.37195 9.68678 8.9058 9.68643 8.4397C9.68602 7.8716 9.68612 7.30349 9.68693 6.73538C9.68734 6.44555 9.68749 6.15572 9.68698 5.86589C9.68653 5.6005 9.68678 5.33513 9.68759 5.06974C9.68775 4.97381 9.6877 4.87788 9.68729 4.78195C9.68318 3.61756 9.68318 3.61756 10.0405 3.17496C10.0861 3.11582 10.0861 3.11582 10.1327 3.05548C10.5821 2.64612 11.0189 2.60987 11.579 2.6174ZM10.3674 3.61392C10.1798 3.92034 10.1579 4.15185 10.1576 4.52005C10.1575 4.56015 10.1574 4.60025 10.1573 4.64156C10.157 4.77661 10.157 4.91166 10.1571 5.04671C10.157 5.14424 10.1568 5.24177 10.1567 5.3393C10.1563 5.60785 10.1562 5.87641 10.1561 6.14496C10.156 6.43439 10.1556 6.72381 10.1553 7.01324C10.1546 7.64634 10.1543 8.27947 10.1541 8.91254C10.1539 9.30778 10.1537 9.70296 10.1535 10.0981C10.1529 11.192 10.1523 12.2858 10.1522 13.3796C10.1521 13.4497 10.1521 13.5197 10.1521 13.5918C10.1521 13.662 10.1521 13.7322 10.1521 13.8045C10.1521 13.9468 10.152 14.089 10.152 14.2313C10.152 14.3018 10.152 14.3724 10.152 14.4451C10.1518 15.5886 10.1509 16.7322 10.1498 17.8757C10.1485 19.0493 10.1479 20.2229 10.1478 21.3965C10.1478 22.0556 10.1475 22.7147 10.1466 23.3739C10.1458 23.935 10.1455 24.4962 10.1459 25.0574C10.1461 25.3438 10.1461 25.6302 10.1454 25.9166C10.1447 26.1788 10.1448 26.4409 10.1454 26.7031C10.1455 26.7979 10.1454 26.8928 10.1449 26.9876C10.1296 27.7501 10.1296 27.7501 10.4372 28.4119C10.7502 28.7028 10.9926 28.7708 11.3933 28.7707C11.4578 28.771 11.4578 28.771 11.5235 28.7713C11.6681 28.7719 11.8126 28.7722 11.9572 28.7724C12.0606 28.7727 12.164 28.7731 12.2675 28.7735C12.5489 28.7745 12.8303 28.7751 13.1117 28.7756C13.2875 28.7758 13.4632 28.7762 13.639 28.7766C14.1889 28.7777 14.7389 28.7784 15.2888 28.7789C15.9237 28.7795 16.5587 28.7809 17.1936 28.7833C17.6842 28.785 18.1749 28.7858 18.6656 28.786C18.9586 28.7861 19.2517 28.7866 19.5448 28.788C19.8206 28.7894 20.0964 28.7896 20.3722 28.789C20.4733 28.789 20.5744 28.7894 20.6756 28.7901C20.8139 28.7911 20.9521 28.7907 21.0904 28.79C21.1302 28.7906 21.17 28.7912 21.211 28.7919C21.5379 28.7876 21.7978 28.6751 22.0483 28.4389C22.0709 28.4078 22.0936 28.3767 22.1169 28.3446C22.1403 28.3138 22.1637 28.283 22.1879 28.2513C22.3411 27.9759 22.3645 27.7077 22.3647 27.3892C22.3649 27.3288 22.3649 27.3288 22.3651 27.2673C22.3656 27.1324 22.3653 26.9977 22.365 26.8628C22.3651 26.7652 22.3653 26.6676 22.3655 26.5699C22.3661 26.3017 22.366 26.0334 22.3657 25.765C22.3656 25.4757 22.3661 25.1864 22.3665 24.897C22.3671 24.3301 22.3672 23.7633 22.3671 23.1964C22.367 22.7357 22.3671 22.275 22.3673 21.8143C22.3674 21.716 22.3674 21.716 22.3674 21.6157C22.3675 21.4826 22.3675 21.3495 22.3676 21.2163C22.3681 19.9674 22.368 18.7186 22.3677 17.4697C22.3675 16.3269 22.368 15.1841 22.369 14.0413C22.37 12.8683 22.3704 11.6952 22.3702 10.522C22.3701 9.86331 22.3702 9.20458 22.3709 8.54585C22.3715 7.9851 22.3716 7.42431 22.371 6.86351C22.3707 6.57735 22.3707 6.2912 22.3713 6.00505C22.3718 5.74308 22.3716 5.48113 22.3709 5.21916C22.3708 5.12441 22.3709 5.02965 22.3713 4.9349C22.39 4.19316 22.39 4.19316 22.1046 3.54356C22.0709 3.51304 22.0373 3.48253 22.0026 3.45108C21.9692 3.41968 21.9358 3.38829 21.9014 3.35594C21.6807 3.18908 21.4909 3.14644 21.2262 3.14434C21.1642 3.14362 21.1022 3.1429 21.0383 3.14215C20.9716 3.14203 20.9051 3.1419 20.8364 3.14177C20.7669 3.1414 20.6974 3.14102 20.628 3.14063C20.4825 3.13995 20.3371 3.13974 20.1916 3.13981C20.0058 3.13982 19.82 3.13827 19.6342 3.13632C19.4907 3.13506 19.3473 3.13483 19.2038 3.13489C19.1021 3.13469 19.0005 3.13347 18.8989 3.13222C18.4498 3.12917 18.4498 3.12917 18.0861 3.38736C17.9896 3.54307 17.9896 3.54307 17.9147 3.71658C17.6824 4.18411 17.3719 4.50563 16.9181 4.69009C16.3033 4.8818 15.7906 4.82907 15.2297 4.47769C14.86 4.21484 14.6645 3.88337 14.4598 3.45728C14.3612 3.30266 14.2774 3.24521 14.1252 3.1608C13.9752 3.13531 13.9752 3.13531 13.813 3.13881C13.7511 3.13828 13.6893 3.13774 13.6255 3.13719C13.5591 3.13753 13.4926 3.13787 13.4241 3.13823C13.3548 3.13811 13.2854 3.13795 13.216 3.13774C13.0708 3.13749 12.9256 3.13785 12.7804 3.13864C12.595 3.13961 12.4097 3.13906 12.2243 3.13804C12.0811 3.13742 11.9378 3.13762 11.7946 3.13806C11.6932 3.13822 11.5919 3.13772 11.4905 3.13719C11.0063 3.14136 10.6968 3.18529 10.3674 3.61392Z" stroke="white" stroke-width="0.78125"/>
</g>
<path d="M26.0586 6.78582C26.1506 6.84246 26.1506 6.84246 26.2109 6.95574C26.2383 7.1076 26.2503 7.25384 26.2617 7.40887C26.3172 7.40535 26.3727 7.40184 26.4299 7.39822C26.6172 7.40887 26.6172 7.40887 26.7156 7.46902C26.8017 7.64421 26.7914 7.78014 26.7695 7.97527C26.687 8.08498 26.687 8.08498 26.5664 8.14519C26.4014 8.15579 26.4014 8.15579 26.2617 8.14519C26.2575 8.21645 26.2533 8.2877 26.249 8.36111C26.2301 8.52423 26.2206 8.58512 26.1252 8.71511C25.9622 8.78886 25.8696 8.77085 25.7031 8.7116C25.5671 8.5751 25.5519 8.50616 25.5412 8.30096C25.5444 8.24953 25.5475 8.19815 25.5508 8.14519C25.5057 8.15103 25.4607 8.15686 25.4143 8.16287C25.2461 8.14519 25.2461 8.14519 25.0969 8.02483C24.9922 7.86199 24.9922 7.86199 24.9922 7.68142C25.043 7.52215 25.043 7.52215 25.1953 7.40887C25.3137 7.40439 25.4324 7.40388 25.5508 7.40887C25.5466 7.34809 25.5424 7.28737 25.5381 7.22478C25.5508 7.01238 25.5508 7.01238 25.6333 6.87432C25.7885 6.76043 25.8761 6.7555 26.0586 6.78582Z" fill="#3AE0C5"/>
<path d="M6.96484 24.6276C7.01937 24.7189 7.07329 24.8107 7.12294 24.9053C7.33136 25.2998 7.55116 25.4816 7.92969 25.6472C7.86226 25.7976 7.8022 25.801 7.66309 25.8596C7.35577 26.007 7.21064 26.2036 7.07593 26.5463C7.05603 26.6047 7.03613 26.6632 7.01562 26.7233C6.98211 26.7233 6.94859 26.7233 6.91406 26.7233C6.89102 26.6533 6.86798 26.5831 6.84424 26.5109C6.71956 26.1449 6.65965 26.0329 6.33722 25.8698C6.29716 25.85 6.2571 25.8303 6.21582 25.81C6.17524 25.79 6.13465 25.77 6.09283 25.7494C6.0622 25.7343 6.03157 25.7193 6 25.7038C6.11946 25.615 6.22315 25.5528 6.35229 25.4879C6.68648 25.3018 6.81281 24.9911 6.96484 24.6276Z" fill="#3AE0C5"/>
<path d="M24.9414 3.9538C24.9728 4.00286 24.9728 4.00286 25.0049 4.05292C25.1492 4.25985 25.2818 4.41591 25.5 4.5202C25.456 4.55525 25.456 4.55525 25.4111 4.591C25.2254 4.75213 25.078 4.92996 24.9414 5.14325C24.9142 5.09185 24.887 5.04045 24.8589 4.98749C24.7433 4.79183 24.6132 4.69519 24.4336 4.57684C24.4844 4.46356 24.4844 4.46356 24.6018 4.39276C24.7664 4.27323 24.8413 4.13997 24.9414 3.9538Z" fill="#3AE0C5"/>
<path d="M7.60278 28.1677C7.77734 28.196 7.77734 28.196 7.87256 28.2668C7.94096 28.3854 7.97319 28.4503 7.98047 28.5925C7.92969 28.773 7.92969 28.773 7.82812 28.9323C7.64118 28.9968 7.53258 29.0189 7.35205 28.9288C7.23731 28.7762 7.21875 28.6778 7.21875 28.4792C7.32371 28.2548 7.37601 28.2032 7.60278 28.1677Z" fill="#3AE0C5"/>
<path d="M24.9699 12.5349C25.1445 12.5632 25.1445 12.5632 25.2397 12.634C25.3081 12.7526 25.3404 12.8175 25.3477 12.9597C25.2969 13.1402 25.2969 13.1402 25.1953 13.2995C25.0084 13.364 24.8998 13.386 24.7192 13.296C24.6045 13.1433 24.5859 13.045 24.5859 12.8464C24.6909 12.622 24.7432 12.5704 24.9699 12.5349Z" fill="#3AE0C5"/>
<path d="M26.0587 6.78581C26.0587 6.8045 26.0587 6.82319 26.0587 6.84245C26.0105 6.8588 25.9624 6.87516 25.9127 6.89201C25.7514 6.9426 25.7514 6.9426 25.6525 7.06901C25.6323 7.18161 25.615 7.29495 25.6017 7.40885C25.5849 7.40885 25.5682 7.40885 25.5509 7.40885C25.5264 7.05338 25.5264 7.05338 25.6334 6.87431C25.7847 6.76335 25.8812 6.7678 26.0587 6.78581Z" fill="#498BA2"/>
</svg>
