<svg width="32" height="32" viewBox="0 0 32 32" fill="none" xmlns="http://www.w3.org/2000/svg">
<path d="M25.3331 8.875C26.1623 8.875 26.9581 9.20417 27.5415 9.79167C28.129 10.375 28.4581 11.1708 28.4581 12V24C28.4581 24.8292 28.129 25.625 27.5415 26.2083C26.9581 26.7958 26.1623 27.125 25.3331 27.125H6.6665C5.83733 27.125 5.0415 26.7958 4.45817 26.2083C3.87067 25.625 3.5415 24.8292 3.5415 24V12L3.54567 11.8458C3.58317 11.0708 3.90817 10.3417 4.45817 9.79167C5.0415 9.20417 5.83733 8.875 6.6665 8.875H25.3331Z" stroke="#10BE77" stroke-width="0.857142" stroke-linecap="round" stroke-linejoin="round"/>
<path d="M25.3331 8.875C26.1623 8.875 26.9581 9.20417 27.5415 9.79167C28.129 10.375 28.4581 11.1708 28.4581 12V24C28.4581 24.8292 28.129 25.625 27.5415 26.2083C26.9581 26.7958 26.1623 27.125 25.3331 27.125H6.6665C5.83733 27.125 5.0415 26.7958 4.45817 26.2083C3.87067 25.625 3.5415 24.8292 3.5415 24V12L3.54567 11.8458C3.58317 11.0708 3.90817 10.3417 4.45817 9.79167C5.0415 9.20417 5.83733 8.875 6.6665 8.875H25.3331Z" stroke="white" stroke-opacity="0.2" stroke-width="0.857142" stroke-linecap="round" stroke-linejoin="round"/>
<path d="M21.3332 4L15.9998 9.33333L10.6665 4" stroke="#10BE77" stroke-width="0.857142" stroke-linecap="round" stroke-linejoin="round"/>
<path d="M21.3332 4L15.9998 9.33333L10.6665 4" stroke="white" stroke-opacity="0.2" stroke-width="0.857142" stroke-linecap="round" stroke-linejoin="round"/>
<path d="M6.39987 9.14166H25.5999C27.1165 9.14166 28.3415 10.3708 28.3415 11.8875V24.2292C28.3415 25.7417 27.1165 26.9708 25.5999 26.9708H6.39987C4.8832 26.9708 3.6582 25.7417 3.6582 24.2292V11.8875C3.6582 10.3708 4.8832 9.14166 6.39987 9.14166Z" fill="url(#paint0_linear_2871_4830)"/>
<path d="M16 23.2H16.0089" stroke="white" stroke-width="0.857142" stroke-linecap="round" stroke-linejoin="round"/>
<path d="M13.7373 20.9375C14.3373 20.3375 15.1498 20 15.9998 20C16.8498 20 17.6623 20.3375 18.2623 20.9375" stroke="white" stroke-width="0.857142" stroke-linecap="round" stroke-linejoin="round"/>
<path d="M11.4746 18.675C12.0663 18.0792 12.7746 17.6083 13.5496 17.2875C14.3288 16.9667 15.1579 16.8 15.9996 16.8C16.8413 16.8 17.6704 16.9667 18.4496 17.2875C19.2246 17.6083 19.9288 18.0792 20.5246 18.675" stroke="white" stroke-width="0.857142" stroke-linecap="round" stroke-linejoin="round"/>
<path d="M9.2124 16.4125C12.9624 12.6625 19.0374 12.6625 22.8124 16.4125" stroke="white" stroke-width="0.857142" stroke-linecap="round" stroke-linejoin="round"/>
<defs>
<linearGradient id="paint0_linear_2871_4830" x1="15.9999" y1="9.14284" x2="15.9999" y2="26.9714" gradientUnits="userSpaceOnUse">
<stop stop-color="#10BE77"/>
<stop offset="1" stop-color="#2196F3"/>
</linearGradient>
</defs>
</svg>
