<svg width="66" height="42" viewBox="0 0 66 42" fill="none" xmlns="http://www.w3.org/2000/svg">
<path d="M56.2 5H5.8C3.14903 5 1 7.14903 1 9.8V36.2C1 38.851 3.14903 41 5.8 41H56.2C58.851 41 61 38.851 61 36.2V9.8C61 7.14903 58.851 5 56.2 5Z" fill="white"/>
<path d="M56.2 5H5.8C3.14903 5 1 7.14903 1 9.8V36.2C1 38.851 3.14903 41 5.8 41H56.2C58.851 41 61 38.851 61 36.2V9.8C61 7.14903 58.851 5 56.2 5Z" stroke="#3AE0C5"/>
<path d="M56.2 5H5.8C3.14903 5 1 7.14903 1 9.8V36.2C1 38.851 3.14903 41 5.8 41H56.2C58.851 41 61 38.851 61 36.2V9.8C61 7.14903 58.851 5 56.2 5Z" stroke="white" stroke-opacity="0.2"/>
<path d="M60.2 1H9.8C7.14903 1 5 3.14903 5 5.8V32.2C5 34.851 7.14903 37 9.8 37H60.2C62.851 37 65 34.851 65 32.2V5.8C65 3.14903 62.851 1 60.2 1Z" fill="url(#paint0_linear_2719_7287)"/>
<path d="M60.2 1H9.8C7.14903 1 5 3.14903 5 5.8V32.2C5 34.851 7.14903 37 9.8 37H60.2C62.851 37 65 34.851 65 32.2V5.8C65 3.14903 62.851 1 60.2 1Z" stroke="#10BE77"/>
<path d="M60.2 1H9.8C7.14903 1 5 3.14903 5 5.8V32.2C5 34.851 7.14903 37 9.8 37H60.2C62.851 37 65 34.851 65 32.2V5.8C65 3.14903 62.851 1 60.2 1Z" stroke="#2196F3" stroke-opacity="0.2"/>
<path d="M22.6 9H14.6C13.7163 9 13 9.71634 13 10.6V15.4C13 16.2837 13.7163 17 14.6 17H22.6C23.4837 17 24.2 16.2837 24.2 15.4V10.6C24.2 9.71634 23.4837 9 22.6 9Z" fill="white"/>
<path d="M57 7C54.3333 4.33333 51.6667 4.33333 49 7" stroke="white" stroke-width="2" stroke-linecap="round"/>
<path d="M57 11C54.3333 8.33333 51.6667 8.33333 49 11" stroke="white" stroke-width="2" stroke-linecap="round"/>
<path d="M57 15C54.3333 12.3333 51.6667 12.3333 49 15" stroke="white" stroke-width="2" stroke-linecap="round"/>
<defs>
<linearGradient id="paint0_linear_2719_7287" x1="35" y1="1" x2="35" y2="37" gradientUnits="userSpaceOnUse">
<stop stop-color="#10BE77"/>
<stop offset="1" stop-color="#2196F3"/>
</linearGradient>
</defs>
</svg>
