<svg width="40" height="30" viewBox="0 0 40 30" fill="none" xmlns="http://www.w3.org/2000/svg">
<g clip-path="url(#clip0_2781_4800)">
<path d="M33.9649 3.6875H3.62891C2.03516 3.6875 0.742188 5.20703 0.742188 7.07812V25.75C0.742188 27.625 2.03516 29.1445 3.62891 29.1445H33.9649C35.5586 29.1445 36.8516 27.625 36.8516 25.75V7.07812C36.8516 5.20703 35.5586 3.6875 33.9649 3.6875Z" fill="white" stroke="#3AE0C5" stroke-width="0.796819"/>
<path d="M33.9649 3.6875H3.62891C2.03516 3.6875 0.742188 5.20703 0.742188 7.07812V25.75C0.742188 27.625 2.03516 29.1445 3.62891 29.1445H33.9649C35.5586 29.1445 36.8516 27.625 36.8516 25.75V7.07812C36.8516 5.20703 35.5586 3.6875 33.9649 3.6875Z" stroke="white" stroke-opacity="0.2" stroke-width="0.796819"/>
<path d="M36.3711 0.855469H6.03516C4.44141 0.855469 3.14844 2.375 3.14844 4.25V22.9219C3.14844 24.793 4.44141 26.3125 6.03516 26.3125H36.3711C37.9649 26.3125 39.2578 24.793 39.2578 22.9219V4.25C39.2578 2.375 37.9649 0.855469 36.3711 0.855469Z" fill="url(#paint0_linear_2781_4800)" stroke="url(#paint1_linear_2781_4800)" stroke-width="0.796819"/>
<path d="M13.7422 6.51562H8.92578C8.39453 6.51562 7.96484 7.01953 7.96484 7.64453V11.0391C7.96484 11.6641 8.39453 12.1719 8.92578 12.1719H13.7422C14.2734 12.1719 14.7031 11.6641 14.7031 11.0391V7.64453C14.7031 7.01953 14.2734 6.51562 13.7422 6.51562Z" fill="white"/>
<path d="M34.4453 5.10156C32.8398 3.21484 31.2344 3.21484 29.6289 5.10156" stroke="white" stroke-width="1.59364" stroke-linecap="round"/>
<path d="M34.4453 7.92969C32.8398 6.04297 31.2344 6.04297 29.6289 7.92969" stroke="white" stroke-width="1.59364" stroke-linecap="round"/>
<path d="M34.4453 10.7578C32.8398 8.87109 31.2344 8.87109 29.6289 10.7578" stroke="white" stroke-width="1.59364" stroke-linecap="round"/>
</g>
<defs>
<linearGradient id="paint0_linear_2781_4800" x1="21.2037" y1="0.857143" x2="21.2037" y2="26.3143" gradientUnits="userSpaceOnUse">
<stop stop-color="#10BE77"/>
<stop offset="1" stop-color="#2196F3"/>
</linearGradient>
<linearGradient id="paint1_linear_2781_4800" x1="21.2037" y1="0.857143" x2="21.2037" y2="26.3143" gradientUnits="userSpaceOnUse">
<stop stop-color="#10BE77"/>
<stop offset="1" stop-color="#2196F3"/>
</linearGradient>
<clipPath id="clip0_2781_4800">
<rect width="40" height="30" fill="white"/>
</clipPath>
</defs>
</svg>
