<svg width="54" height="35" viewBox="0 0 54 35" fill="none" xmlns="http://www.w3.org/2000/svg">
<path d="M45.85 4.30005H4.9C2.74609 4.30005 1 6.073 1 8.26005V30.0401C1 32.2271 2.74609 34 4.9 34H45.85C48.0039 34 49.75 32.2271 49.75 30.0401V8.26005C49.75 6.073 48.0039 4.30005 45.85 4.30005Z" fill="white"/>
<path d="M45.85 4.30005H4.9C2.74609 4.30005 1 6.073 1 8.26005V30.0401C1 32.2271 2.74609 34 4.9 34H45.85C48.0039 34 49.75 32.2271 49.75 30.0401V8.26005C49.75 6.073 48.0039 4.30005 45.85 4.30005Z" stroke="#3AE0C5"/>
<path d="M45.85 4.30005H4.9C2.74609 4.30005 1 6.073 1 8.26005V30.0401C1 32.2271 2.74609 34 4.9 34H45.85C48.0039 34 49.75 32.2271 49.75 30.0401V8.26005C49.75 6.073 48.0039 4.30005 45.85 4.30005Z" stroke="white" stroke-opacity="0.2"/>
<path d="M49.1 1H8.15C5.99609 1 4.25 2.77295 4.25 4.96V26.74C4.25 28.927 5.99609 30.7 8.15 30.7H49.1C51.2539 30.7 53 28.927 53 26.74V4.96C53 2.77295 51.2539 1 49.1 1Z" fill="url(#paint0_linear_2777_4765)" stroke="url(#paint1_linear_2777_4765)"/>
<path d="M18.55 7.59998H12.05C11.332 7.59998 10.75 8.19096 10.75 8.91998V12.88C10.75 13.609 11.332 14.2 12.05 14.2H18.55C19.268 14.2 19.85 13.609 19.85 12.88V8.91998C19.85 8.19096 19.268 7.59998 18.55 7.59998Z" fill="white"/>
<path d="M46.5 5.95005C44.3333 3.75005 42.1667 3.75005 40 5.95005" stroke="white" stroke-width="2" stroke-linecap="round"/>
<path d="M46.5 9.2501C44.3333 7.0501 42.1667 7.0501 40 9.2501" stroke="white" stroke-width="2" stroke-linecap="round"/>
<path d="M46.5 12.55C44.3333 10.35 42.1667 10.35 40 12.55" stroke="white" stroke-width="2" stroke-linecap="round"/>
<defs>
<linearGradient id="paint0_linear_2777_4765" x1="28.625" y1="1" x2="28.625" y2="30.7" gradientUnits="userSpaceOnUse">
<stop stop-color="#10BE77"/>
<stop offset="1" stop-color="#2196F3"/>
</linearGradient>
<linearGradient id="paint1_linear_2777_4765" x1="28.625" y1="1" x2="28.625" y2="30.7" gradientUnits="userSpaceOnUse">
<stop stop-color="#10BE77"/>
<stop offset="1" stop-color="#2196F3"/>
</linearGradient>
</defs>
</svg>
